# MagicaVoxel @ Ephtracy

# group
o 

# material
mtllib bone mouse.mtl
usemtl palette

# normals
vn -1 0 0
vn 1 0 0
vn 0 0 1
vn 0 0 -1
vn 0 -1 0
vn 0 1 0

# texcoords
vt 0.841797 0.5
vt 0.958984 0.5
vt 0.978516 0.5
vt 0.986328 0.5
vt 0.990234 0.5
vt 0.994141 0.5

# verts
v -0.6 0.9 -0.9
v -0.6 0.9 -1.1
v -0.6 1 -0.8
v -0.6 1 -0.9
v -0.6 1 -1.1
v -0.6 1 -1.2
v -0.6 1.1 0.1
v -0.6 1.1 -0.8
v -0.6 1.2 0.2
v -0.6 1.2 0.1
v -0.6 1.3 0.3
v -0.6 1.3 0.2
v -0.6 1.3 -1.1
v -0.6 1.3 -1.2
v -0.6 1.5 0.4
v -0.6 1.5 0.3
v -0.6 1.5 -1
v -0.6 1.5 -1.1
v -0.6 1.6 0.7
v -0.6 1.6 0.4
v -0.6 1.6 0.1
v -0.6 1.6 -1
v -0.6 1.7 0.8
v -0.6 1.7 0.7
v -0.6 1.7 0.2
v -0.6 1.7 0.1
v -0.6 1.8 0.4
v -0.6 1.8 0.2
v -0.6 1.9 0.5
v -0.6 1.9 0.4
v -0.6 2.1 0.8
v -0.6 2.1 0.6
v -0.6 2.1 0.5
v -0.6 2.2 0.6
v -0.6 2.2 0.5
v -0.6 2.3 0.6
v -0.6 2.3 0.5
v -0.5 0 0.4
v -0.5 0 0.1
v -0.5 0 -0.9
v -0.5 0 -1.2
v -0.5 0.1 0.4
v -0.5 0.1 0.3
v -0.5 0.1 -0.9
v -0.5 0.1 -1
v -0.5 0.9 0.1
v -0.5 0.9 -0.9
v -0.5 0.9 -1
v -0.5 0.9 -1.1
v -0.5 0.9 -1.2
v -0.5 0.9 -1.3
v -0.5 1 -0.8
v -0.5 1 -0.9
v -0.5 1 -1.1
v -0.5 1 -1.2
v -0.5 1.1 0.1
v -0.5 1.1 -0.8
v -0.5 1.2 0.4
v -0.5 1.2 0.3
v -0.5 1.2 0.2
v -0.5 1.2 0.1
v -0.5 1.3 0.3
v -0.5 1.3 0.2
v -0.5 1.3 -1.1
v -0.5 1.3 -1.2
v -0.5 1.3 -1.3
v -0.5 1.4 1.2
v -0.5 1.4 1.1
v -0.5 1.4 0.5
v -0.5 1.4 0.4
v -0.5 1.5 1.2
v -0.5 1.5 1.1
v -0.5 1.5 0.8
v -0.5 1.5 0.5
v -0.5 1.5 0.4
v -0.5 1.5 0.3
v -0.5 1.5 -1
v -0.5 1.5 -1.1
v -0.5 1.5 -1.2
v -0.5 1.6 1.2
v -0.5 1.6 1.1
v -0.5 1.6 0.9
v -0.5 1.6 0.8
v -0.5 1.6 0.7
v -0.5 1.6 0.4
v -0.5 1.6 -1
v -0.5 1.6 -1.1
v -0.5 1.7 1.2
v -0.5 1.7 1.1
v -0.5 1.7 0.8
v -0.5 1.7 0.7
v -0.5 1.7 0.2
v -0.5 1.7 0.1
v -0.5 1.8 0.4
v -0.5 1.8 0.2
v -0.5 1.8 0.1
v -0.5 1.9 0.5
v -0.5 1.9 0.4
v -0.5 1.9 0.3
v -0.5 1.9 0.2
v -0.5 2 0.4
v -0.5 2 0.3
v -0.5 2.1 0.8
v -0.5 2.1 0.7
v -0.5 2.1 0.6
v -0.5 2.1 0.5
v -0.5 2.2 0.9
v -0.5 2.2 0.7
v -0.5 2.2 0.6
v -0.5 2.2 0.5
v -0.5 2.2 0.4
v -0.5 2.3 0.7
v -0.5 2.3 0.6
v -0.5 2.3 0.5
v -0.5 2.5 0.7
v -0.5 2.5 0.6
v -0.5 2.6 0.6
v -0.5 2.6 0.5
v -0.4 0.8 -0.1
v -0.4 0.8 -0.7
v -0.4 0.9 -0.1
v -0.4 0.9 -0.7
v -0.4 1.4 0.8
v -0.4 1.4 0.6
v -0.4 1.5 1.2
v -0.4 1.5 1.1
v -0.4 1.5 0.9
v -0.4 1.5 0.8
v -0.4 1.5 0.6
v -0.4 1.5 -1.1
v -0.4 1.5 -1.2
v -0.4 1.6 1.2
v -0.4 1.6 1.1
v -0.4 1.6 1
v -0.4 1.6 0.9
v -0.4 1.6 0.8
v -0.4 1.6 0.1
v -0.4 1.6 -1
v -0.4 1.6 -1.1
v -0.4 1.6 -1.2
v -0.4 1.7 1
v -0.4 1.7 0.9
v -0.4 1.7 0
v -0.4 1.7 -1
v -0.4 1.8 0.2
v -0.4 1.8 0.1
v -0.4 1.9 1
v -0.4 1.9 0.9
v -0.4 1.9 0.3
v -0.4 1.9 0.2
v -0.4 1.9 0.1
v -0.4 1.9 0
v -0.4 2 0.4
v -0.4 2 0.3
v -0.4 2 0.2
v -0.4 2 0.1
v -0.4 2.1 1
v -0.4 2.1 0.9
v -0.4 2.1 0.3
v -0.4 2.1 0.2
v -0.4 2.2 0.5
v -0.4 2.2 0.4
v -0.4 2.2 0.3
v -0.4 2.3 0.5
v -0.4 2.3 0.4
v -0.4 2.5 0.7
v -0.4 2.5 0.6
v -0.4 2.6 0.7
v -0.4 2.6 0.6
v -0.4 2.6 0.5
v -0.4 2.7 0.7
v -0.4 2.7 0.5
v -0.3 0.8 0
v -0.3 0.8 -0.1
v -0.3 0.8 -0.7
v -0.3 0.8 -0.9
v -0.3 0.9 0
v -0.3 0.9 -0.1
v -0.3 0.9 -0.7
v -0.3 0.9 -0.9
v -0.3 1.4 1
v -0.3 1.4 0.8
v -0.3 1.4 0.6
v -0.3 1.4 0.5
v -0.3 1.5 1.1
v -0.3 1.5 1
v -0.3 1.5 0.9
v -0.3 1.5 0.8
v -0.3 1.5 0.6
v -0.3 1.5 0.5
v -0.3 1.6 1.1
v -0.3 1.6 1
v -0.3 1.6 0.9
v -0.3 1.6 -1
v -0.3 1.6 -1.1
v -0.3 1.7 0
v -0.3 1.7 -0.1
v -0.3 1.7 -0.2
v -0.3 1.7 -0.9
v -0.3 1.7 -1
v -0.3 1.7 -1.1
v -0.3 1.8 0
v -0.3 1.8 -0.1
v -0.3 1.8 -0.2
v -0.3 1.8 -0.9
v -0.3 2.1 1.1
v -0.3 2.1 1
v -0.3 2.1 0.9
v -0.3 2.2 1.1
v -0.3 2.2 1
v -0.3 2.2 0.9
v -0.3 2.2 0.8
v -0.3 2.2 0.7
v -0.3 2.3 0.8
v -0.3 2.3 0.7
v -0.2 0.7 -1.2
v -0.2 0.7 -1.4
v -0.2 0.8 -1.2
v -0.2 0.8 -1.3
v -0.2 0.8 -1.4
v -0.2 0.9 -1.2
v -0.2 0.9 -1.3
v -0.2 0.9 -1.4
v -0.2 0.9 -1.5
v -0.2 1 -1.2
v -0.2 1 -1.3
v -0.2 1 -1.4
v -0.2 1 -1.5
v -0.2 1.1 -1.4
v -0.2 1.1 -1.5
v -0.2 1.3 -1.2
v -0.2 1.3 -1.3
v -0.2 1.4 1.2
v -0.2 1.4 1
v -0.2 1.5 1.2
v -0.2 1.5 1.1
v -0.2 1.5 1
v -0.2 1.5 -1.4
v -0.2 1.5 -1.5
v -0.2 1.6 1.1
v -0.2 1.6 1
v -0.2 1.6 -1.1
v -0.2 1.6 -1.2
v -0.2 1.7 1.1
v -0.2 1.7 1
v -0.2 1.7 0.8
v -0.2 1.7 -0.1
v -0.2 1.7 -0.2
v -0.2 1.7 -0.9
v -0.2 1.7 -1
v -0.2 1.7 -1.1
v -0.2 1.7 -1.3
v -0.2 1.7 -1.4
v -0.2 1.8 1.3
v -0.2 1.8 1.2
v -0.2 1.8 1
v -0.2 1.8 0.9
v -0.2 1.8 0.8
v -0.2 1.8 -0.1
v -0.2 1.8 -0.2
v -0.2 1.8 -0.9
v -0.2 1.8 -1
v -0.2 1.8 -1.1
v -0.2 1.8 -1.3
v -0.2 1.9 1.3
v -0.2 1.9 1.2
v -0.2 1.9 1
v -0.2 2 1.3
v -0.2 2 1.2
v -0.2 2.1 1.2
v -0.2 2.1 1.1
v -0.2 2.1 1
v -0.1 0.6 -1.2
v -0.1 0.6 -1.4
v -0.1 0.7 -1.2
v -0.1 0.7 -1.4
v -0.1 0.8 -1.4
v -0.1 0.8 -1.5
v -0.1 0.9 -1.4
v -0.1 0.9 -1.5
v -0.1 1.3 1.2
v -0.1 1.3 1
v -0.1 1.4 1.3
v -0.1 1.4 1.2
v -0.1 1.4 1
v -0.1 1.5 1.3
v -0.1 1.5 1.2
v -0.1 1.5 -1.4
v -0.1 1.5 -1.5
v -0.1 1.6 -1.4
v -0.1 1.6 -1.5
v -0.1 1.9 1.5
v -0.1 1.9 1.4
v -0.1 1.9 1.3
v -0.1 2 1.5
v -0.1 2 1.4
v -0.1 2 1.3
v -0.1 2 1.2
v -0.1 2.1 1.3
v -0.1 2.1 1.2
v 0.1 1.8 1.3
v 0.1 1.8 1.2
v 0.1 1.9 1.3
v 0.1 1.9 1.2
v 0.1 2.3 0.7
v 0.1 2.3 0.5
v 0.1 2.4 0.7
v 0.1 2.4 0.6
v 0.1 2.5 0.6
v 0.1 2.5 0.5
v 0.2 1.5 1.3
v 0.2 1.5 1.2
v 0.2 1.6 1.3
v 0.2 1.6 1.2
v 0.2 2.1 1.1
v 0.2 2.1 1
v 0.2 2.2 1.1
v 0.2 2.2 1
v 0.2 2.5 0.6
v 0.2 2.5 0.5
v 0.2 2.6 0.6
v 0.2 2.6 0.5
v 0.3 0 0.4
v 0.3 0 0.1
v 0.3 0 -0.9
v 0.3 0 -1.2
v 0.3 0.1 0.4
v 0.3 0.1 0.3
v 0.3 0.1 -0.9
v 0.3 0.1 -1
v 0.3 0.9 0.1
v 0.3 0.9 -1
v 0.3 0.9 -1.2
v 0.3 0.9 -1.3
v 0.3 1 0.3
v 0.3 1 0.1
v 0.3 1 -1
v 0.3 1 -1.3
v 0.3 1.4 1.3
v 0.3 1.4 1.2
v 0.3 1.5 1.3
v 0.3 1.5 1.2
v 0.3 1.6 1.3
v 0.3 1.6 1.2
v 0.3 1.7 1.3
v 0.3 1.7 1.2
v 0.3 2.4 0.7
v 0.3 2.4 0.6
v 0.3 2.5 0.7
v 0.3 2.5 0.6
v 0.3 2.6 0.7
v 0.3 2.6 0.6
v 0.3 2.6 0.5
v 0.3 2.7 0.7
v 0.3 2.7 0.5
v 0.4 1.7 0.9
v 0.4 1.7 0.8
v 0.4 1.8 0.9
v 0.4 1.8 0.8
v -0.4 1.7 0.9
v -0.4 1.7 0.8
v -0.4 1.8 0.9
v -0.4 1.8 0.8
v -0.3 0 0.4
v -0.3 0 0.1
v -0.3 0 -0.9
v -0.3 0 -1.2
v -0.3 0.1 0.4
v -0.3 0.1 0.3
v -0.3 0.1 -0.9
v -0.3 0.1 -1
v -0.3 0.9 0.1
v -0.3 0.9 -1
v -0.3 0.9 -1.2
v -0.3 0.9 -1.3
v -0.3 1 0.3
v -0.3 1 0.1
v -0.3 1 -1
v -0.3 1 -1.3
v -0.3 1.4 1.2
v -0.3 1.4 1.1
v -0.3 1.5 1.2
v -0.3 1.5 1.1
v -0.3 1.6 1.2
v -0.3 1.6 1.1
v -0.3 1.7 1.2
v -0.3 1.7 1.1
v -0.3 2.4 0.7
v -0.3 2.4 0.6
v -0.3 2.5 0.7
v -0.3 2.5 0.6
v -0.3 2.6 0.7
v -0.3 2.6 0.6
v -0.3 2.6 0.5
v -0.3 2.7 0.7
v -0.3 2.7 0.5
v -0.2 2.1 1.1
v -0.2 2.1 1
v -0.2 2.2 1.1
v -0.2 2.2 1
v -0.2 2.5 0.6
v -0.2 2.5 0.5
v -0.2 2.6 0.6
v -0.2 2.6 0.5
v -0.1 1.8 1.3
v -0.1 1.8 1.2
v -0.1 1.9 1.3
v -0.1 1.9 1.2
v -0.1 2.3 0.7
v -0.1 2.3 0.5
v -0.1 2.4 0.7
v -0.1 2.4 0.6
v -0.1 2.5 0.6
v -0.1 2.5 0.5
v 0.1 0.6 -1.2
v 0.1 0.6 -1.4
v 0.1 0.7 -1.2
v 0.1 0.7 -1.4
v 0.1 0.8 -1.4
v 0.1 0.8 -1.5
v 0.1 0.9 -1.4
v 0.1 0.9 -1.5
v 0.1 1.3 1.2
v 0.1 1.3 1
v 0.1 1.4 1.3
v 0.1 1.4 1.2
v 0.1 1.4 1
v 0.1 1.5 1.3
v 0.1 1.5 1.2
v 0.1 1.5 -1.4
v 0.1 1.5 -1.5
v 0.1 1.6 -1.4
v 0.1 1.6 -1.5
v 0.1 1.9 1.5
v 0.1 1.9 1.4
v 0.1 1.9 1.3
v 0.1 2 1.5
v 0.1 2 1.4
v 0.1 2 1.3
v 0.1 2 1.2
v 0.1 2.1 1.3
v 0.1 2.1 1.2
v 0.2 0.7 -1.2
v 0.2 0.7 -1.4
v 0.2 0.8 -1.2
v 0.2 0.8 -1.3
v 0.2 0.8 -1.4
v 0.2 0.9 -1.2
v 0.2 0.9 -1.3
v 0.2 0.9 -1.4
v 0.2 0.9 -1.5
v 0.2 1 -1.2
v 0.2 1 -1.3
v 0.2 1 -1.4
v 0.2 1 -1.5
v 0.2 1.1 -1.4
v 0.2 1.1 -1.5
v 0.2 1.3 -1.2
v 0.2 1.3 -1.3
v 0.2 1.4 1.2
v 0.2 1.4 1
v 0.2 1.5 1.2
v 0.2 1.5 1.1
v 0.2 1.5 1
v 0.2 1.5 -1.4
v 0.2 1.5 -1.5
v 0.2 1.6 1.2
v 0.2 1.6 1.1
v 0.2 1.6 1
v 0.2 1.6 -1.1
v 0.2 1.6 -1.2
v 0.2 1.7 1.1
v 0.2 1.7 1
v 0.2 1.7 0.8
v 0.2 1.7 -0.1
v 0.2 1.7 -0.2
v 0.2 1.7 -0.9
v 0.2 1.7 -1
v 0.2 1.7 -1.1
v 0.2 1.7 -1.3
v 0.2 1.7 -1.4
v 0.2 1.8 1.3
v 0.2 1.8 1.2
v 0.2 1.8 1
v 0.2 1.8 0.9
v 0.2 1.8 0.8
v 0.2 1.8 -0.1
v 0.2 1.8 -0.2
v 0.2 1.8 -0.9
v 0.2 1.8 -1
v 0.2 1.8 -1.1
v 0.2 1.8 -1.3
v 0.2 1.9 1.3
v 0.2 1.9 1.2
v 0.2 1.9 1
v 0.2 2 1.3
v 0.2 2 1.2
v 0.2 2.1 1.2
v 0.2 2.1 1.1
v 0.2 2.1 1
v 0.3 0.8 0
v 0.3 0.8 -0.1
v 0.3 0.8 -0.7
v 0.3 0.8 -0.9
v 0.3 0.9 0
v 0.3 0.9 -0.1
v 0.3 0.9 -0.7
v 0.3 0.9 -0.9
v 0.3 1.4 1
v 0.3 1.4 0.8
v 0.3 1.4 0.6
v 0.3 1.4 0.5
v 0.3 1.5 1.1
v 0.3 1.5 1
v 0.3 1.5 0.9
v 0.3 1.5 0.8
v 0.3 1.5 0.6
v 0.3 1.5 0.5
v 0.3 1.6 1.1
v 0.3 1.6 1
v 0.3 1.6 0.9
v 0.3 1.6 -1
v 0.3 1.6 -1.1
v 0.3 1.7 0
v 0.3 1.7 -0.1
v 0.3 1.7 -0.2
v 0.3 1.7 -0.9
v 0.3 1.7 -1
v 0.3 1.7 -1.1
v 0.3 1.8 0
v 0.3 1.8 -0.1
v 0.3 1.8 -0.2
v 0.3 1.8 -0.9
v 0.3 2.1 1.1
v 0.3 2.1 1
v 0.3 2.1 0.9
v 0.3 2.2 1.1
v 0.3 2.2 1
v 0.3 2.2 0.9
v 0.3 2.2 0.8
v 0.3 2.2 0.7
v 0.3 2.3 0.8
v 0.3 2.3 0.7
v 0.4 0.8 -0.1
v 0.4 0.8 -0.7
v 0.4 0.9 -0.1
v 0.4 0.9 -0.7
v 0.4 1.4 0.8
v 0.4 1.4 0.6
v 0.4 1.5 1.3
v 0.4 1.5 1.2
v 0.4 1.5 0.9
v 0.4 1.5 0.8
v 0.4 1.5 0.6
v 0.4 1.5 -1.1
v 0.4 1.5 -1.2
v 0.4 1.6 1.3
v 0.4 1.6 1.2
v 0.4 1.6 1
v 0.4 1.6 0.9
v 0.4 1.6 0.8
v 0.4 1.6 0.1
v 0.4 1.6 -1
v 0.4 1.6 -1.1
v 0.4 1.6 -1.2
v 0.4 1.7 1
v 0.4 1.7 0.9
v 0.4 1.7 0
v 0.4 1.7 -1
v 0.4 1.8 0.2
v 0.4 1.8 0.1
v 0.4 1.9 1
v 0.4 1.9 0.9
v 0.4 1.9 0.3
v 0.4 1.9 0.2
v 0.4 1.9 0.1
v 0.4 1.9 0
v 0.4 2 0.4
v 0.4 2 0.3
v 0.4 2 0.2
v 0.4 2 0.1
v 0.4 2.1 1
v 0.4 2.1 0.9
v 0.4 2.1 0.3
v 0.4 2.1 0.2
v 0.4 2.2 0.5
v 0.4 2.2 0.4
v 0.4 2.2 0.3
v 0.4 2.3 0.5
v 0.4 2.3 0.4
v 0.4 2.5 0.7
v 0.4 2.5 0.6
v 0.4 2.6 0.7
v 0.4 2.6 0.6
v 0.4 2.6 0.5
v 0.4 2.7 0.7
v 0.4 2.7 0.5
v 0.5 0 0.4
v 0.5 0 0.1
v 0.5 0 -0.9
v 0.5 0 -1.2
v 0.5 0.1 0.4
v 0.5 0.1 0.3
v 0.5 0.1 -0.9
v 0.5 0.1 -1
v 0.5 0.9 0.1
v 0.5 0.9 -0.9
v 0.5 0.9 -1
v 0.5 0.9 -1.1
v 0.5 0.9 -1.2
v 0.5 0.9 -1.3
v 0.5 1 -0.8
v 0.5 1 -0.9
v 0.5 1 -1.1
v 0.5 1 -1.2
v 0.5 1.1 0.1
v 0.5 1.1 -0.8
v 0.5 1.2 0.4
v 0.5 1.2 0.3
v 0.5 1.2 0.2
v 0.5 1.2 0.1
v 0.5 1.3 0.3
v 0.5 1.3 0.2
v 0.5 1.3 -1.1
v 0.5 1.3 -1.2
v 0.5 1.3 -1.3
v 0.5 1.4 1.3
v 0.5 1.4 1.2
v 0.5 1.4 0.5
v 0.5 1.4 0.4
v 0.5 1.5 1.3
v 0.5 1.5 1.2
v 0.5 1.5 0.8
v 0.5 1.5 0.5
v 0.5 1.5 0.4
v 0.5 1.5 0.3
v 0.5 1.5 -1
v 0.5 1.5 -1.1
v 0.5 1.5 -1.2
v 0.5 1.6 1.3
v 0.5 1.6 1.2
v 0.5 1.6 0.9
v 0.5 1.6 0.8
v 0.5 1.6 0.7
v 0.5 1.6 0.4
v 0.5 1.6 -1
v 0.5 1.6 -1.1
v 0.5 1.7 1.3
v 0.5 1.7 1.2
v 0.5 1.7 0.8
v 0.5 1.7 0.7
v 0.5 1.7 0.2
v 0.5 1.7 0.1
v 0.5 1.8 0.4
v 0.5 1.8 0.2
v 0.5 1.8 0.1
v 0.5 1.9 0.5
v 0.5 1.9 0.4
v 0.5 1.9 0.3
v 0.5 1.9 0.2
v 0.5 2 0.4
v 0.5 2 0.3
v 0.5 2.1 0.8
v 0.5 2.1 0.7
v 0.5 2.1 0.6
v 0.5 2.1 0.5
v 0.5 2.2 0.9
v 0.5 2.2 0.7
v 0.5 2.2 0.6
v 0.5 2.2 0.5
v 0.5 2.2 0.4
v 0.5 2.3 0.7
v 0.5 2.3 0.6
v 0.5 2.3 0.5
v 0.5 2.5 0.7
v 0.5 2.5 0.6
v 0.5 2.6 0.6
v 0.5 2.6 0.5
v 0.6 0.9 -0.9
v 0.6 0.9 -1.1
v 0.6 1 -0.8
v 0.6 1 -0.9
v 0.6 1 -1.1
v 0.6 1 -1.2
v 0.6 1.1 0.1
v 0.6 1.1 -0.8
v 0.6 1.2 0.2
v 0.6 1.2 0.1
v 0.6 1.3 0.3
v 0.6 1.3 0.2
v 0.6 1.3 -1.1
v 0.6 1.3 -1.2
v 0.6 1.5 0.4
v 0.6 1.5 0.3
v 0.6 1.5 -1
v 0.6 1.5 -1.1
v 0.6 1.6 0.7
v 0.6 1.6 0.4
v 0.6 1.6 0.1
v 0.6 1.6 -1
v 0.6 1.7 0.8
v 0.6 1.7 0.7
v 0.6 1.7 0.2
v 0.6 1.7 0.1
v 0.6 1.8 0.4
v 0.6 1.8 0.2
v 0.6 1.9 0.5
v 0.6 1.9 0.4
v 0.6 2.1 0.8
v 0.6 2.1 0.6
v 0.6 2.1 0.5
v 0.6 2.2 0.6
v 0.6 2.2 0.5
v 0.6 2.3 0.6
v 0.6 2.3 0.5
v -0.1 1.9 1.5
v -0.1 2 1.5
v 0.1 1.9 1.5
v 0.1 2 1.5
v -0.2 1.8 1.3
v -0.2 1.9 1.3
v -0.2 2 1.3
v -0.1 1.4 1.3
v -0.1 1.5 1.3
v -0.1 1.8 1.3
v -0.1 1.9 1.3
v -0.1 2 1.3
v -0.1 2.1 1.3
v 0.1 1.4 1.3
v 0.1 1.5 1.3
v 0.1 1.8 1.3
v 0.1 1.9 1.3
v 0.1 2 1.3
v 0.1 2.1 1.3
v 0.2 1.5 1.3
v 0.2 1.6 1.3
v 0.2 1.8 1.3
v 0.2 1.9 1.3
v 0.2 2 1.3
v 0.3 1.4 1.3
v 0.3 1.5 1.3
v 0.3 1.6 1.3
v 0.3 1.7 1.3
v 0.4 1.5 1.3
v 0.4 1.6 1.3
v 0.5 1.4 1.3
v 0.5 1.5 1.3
v 0.5 1.6 1.3
v 0.5 1.7 1.3
v -0.5 1.4 1.2
v -0.5 1.5 1.2
v -0.5 1.6 1.2
v -0.5 1.7 1.2
v -0.4 1.5 1.2
v -0.4 1.6 1.2
v -0.3 1.4 1.2
v -0.3 1.5 1.2
v -0.3 1.6 1.2
v -0.3 1.7 1.2
v -0.2 1.4 1.2
v -0.2 1.5 1.2
v -0.2 2 1.2
v -0.2 2.1 1.2
v -0.1 1.3 1.2
v -0.1 1.4 1.2
v -0.1 1.5 1.2
v -0.1 2 1.2
v -0.1 2.1 1.2
v 0.1 1.3 1.2
v 0.1 1.4 1.2
v 0.1 1.5 1.2
v 0.1 2 1.2
v 0.1 2.1 1.2
v 0.2 1.4 1.2
v 0.2 1.5 1.2
v 0.2 1.6 1.2
v 0.2 2 1.2
v 0.2 2.1 1.2
v -0.3 2.1 1.1
v -0.3 2.2 1.1
v -0.2 1.6 1.1
v -0.2 1.7 1.1
v -0.2 2.1 1.1
v -0.2 2.2 1.1
v 0.2 1.5 1.1
v 0.2 1.6 1.1
v 0.2 1.7 1.1
v 0.2 2.1 1.1
v 0.2 2.2 1.1
v 0.3 1.5 1.1
v 0.3 1.6 1.1
v 0.3 2.1 1.1
v 0.3 2.2 1.1
v -0.4 1.6 1
v -0.4 1.7 1
v -0.4 1.9 1
v -0.4 2.1 1
v -0.3 1.4 1
v -0.3 1.5 1
v -0.3 1.6 1
v -0.3 2.1 1
v -0.2 1.4 1
v -0.2 1.5 1
v -0.2 1.6 1
v -0.2 1.7 1
v -0.2 1.8 1
v -0.2 1.9 1
v -0.2 2.1 1
v -0.2 2.2 1
v 0.2 1.4 1
v 0.2 1.5 1
v 0.2 1.6 1
v 0.2 1.7 1
v 0.2 1.8 1
v 0.2 1.9 1
v 0.2 2.1 1
v 0.2 2.2 1
v 0.3 1.4 1
v 0.3 1.5 1
v 0.3 1.6 1
v 0.3 2.1 1
v 0.4 1.6 1
v 0.4 1.7 1
v 0.4 1.9 1
v 0.4 2.1 1
v -0.5 1.6 0.9
v -0.5 2.2 0.9
v -0.4 1.5 0.9
v -0.4 1.6 0.9
v -0.4 1.7 0.9
v -0.4 1.8 0.9
v -0.4 1.9 0.9
v -0.4 2.1 0.9
v -0.3 1.5 0.9
v -0.3 1.6 0.9
v -0.3 2.1 0.9
v -0.3 2.2 0.9
v -0.2 1.8 0.9
v 0.2 1.8 0.9
v 0.3 1.5 0.9
v 0.3 1.6 0.9
v 0.3 2.1 0.9
v 0.3 2.2 0.9
v 0.4 1.5 0.9
v 0.4 1.6 0.9
v 0.4 1.7 0.9
v 0.4 1.8 0.9
v 0.4 1.9 0.9
v 0.4 2.1 0.9
v 0.5 1.6 0.9
v 0.5 2.2 0.9
v -0.6 1.7 0.8
v -0.6 2.1 0.8
v -0.5 1.5 0.8
v -0.5 1.6 0.8
v -0.5 1.7 0.8
v -0.5 2.1 0.8
v -0.4 1.4 0.8
v -0.4 1.5 0.8
v -0.4 1.6 0.8
v -0.4 1.7 0.8
v -0.4 1.8 0.8
v -0.3 1.4 0.8
v -0.3 1.5 0.8
v -0.3 2.2 0.8
v -0.3 2.3 0.8
v -0.2 1.7 0.8
v -0.2 1.8 0.8
v 0.2 1.7 0.8
v 0.2 1.8 0.8
v 0.3 1.4 0.8
v 0.3 1.5 0.8
v 0.3 2.2 0.8
v 0.3 2.3 0.8
v 0.4 1.4 0.8
v 0.4 1.5 0.8
v 0.4 1.6 0.8
v 0.4 1.7 0.8
v 0.4 1.8 0.8
v 0.5 1.5 0.8
v 0.5 1.6 0.8
v 0.5 1.7 0.8
v 0.5 2.1 0.8
v 0.6 1.7 0.8
v 0.6 2.1 0.8
v -0.6 1.6 0.7
v -0.6 1.7 0.7
v -0.5 1.6 0.7
v -0.5 1.7 0.7
v -0.5 2.2 0.7
v -0.5 2.3 0.7
v -0.5 2.5 0.7
v -0.4 2.2 0.7
v -0.4 2.3 0.7
v -0.4 2.5 0.7
v -0.4 2.6 0.7
v -0.4 2.7 0.7
v -0.3 2.2 0.7
v -0.3 2.3 0.7
v -0.3 2.4 0.7
v -0.3 2.5 0.7
v -0.3 2.6 0.7
v -0.3 2.7 0.7
v -0.2 2.3 0.7
v -0.2 2.4 0.7
v -0.1 2.3 0.7
v -0.1 2.4 0.7
v 0.1 2.3 0.7
v 0.1 2.4 0.7
v 0.2 2.3 0.7
v 0.2 2.4 0.7
v 0.3 2.2 0.7
v 0.3 2.3 0.7
v 0.3 2.4 0.7
v 0.3 2.5 0.7
v 0.3 2.6 0.7
v 0.3 2.7 0.7
v 0.4 2.2 0.7
v 0.4 2.3 0.7
v 0.4 2.5 0.7
v 0.4 2.6 0.7
v 0.4 2.7 0.7
v 0.5 1.6 0.7
v 0.5 1.7 0.7
v 0.5 2.2 0.7
v 0.5 2.3 0.7
v 0.5 2.5 0.7
v 0.6 1.6 0.7
v 0.6 1.7 0.7
v -0.6 2.1 0.6
v -0.6 2.2 0.6
v -0.6 2.3 0.6
v -0.5 2.1 0.6
v -0.5 2.2 0.6
v -0.5 2.3 0.6
v -0.5 2.5 0.6
v -0.5 2.6 0.6
v -0.4 2.5 0.6
v -0.4 2.6 0.6
v -0.3 2.4 0.6
v -0.3 2.5 0.6
v -0.3 2.6 0.6
v -0.2 2.4 0.6
v -0.2 2.5 0.6
v -0.2 2.6 0.6
v -0.1 2.4 0.6
v -0.1 2.5 0.6
v 0.1 2.4 0.6
v 0.1 2.5 0.6
v 0.2 2.4 0.6
v 0.2 2.5 0.6
v 0.2 2.6 0.6
v 0.3 2.4 0.6
v 0.3 2.5 0.6
v 0.3 2.6 0.6
v 0.4 2.5 0.6
v 0.4 2.6 0.6
v 0.5 2.1 0.6
v 0.5 2.2 0.6
v 0.5 2.3 0.6
v 0.5 2.5 0.6
v 0.5 2.6 0.6
v 0.6 2.1 0.6
v 0.6 2.2 0.6
v 0.6 2.3 0.6
v -0.5 1.4 0.5
v -0.5 1.5 0.5
v -0.3 1.4 0.5
v -0.3 1.5 0.5
v 0.3 1.4 0.5
v 0.3 1.5 0.5
v 0.5 1.4 0.5
v 0.5 1.5 0.5
v -0.6 1.5 0.4
v -0.6 1.6 0.4
v -0.5 0 0.4
v -0.5 0.1 0.4
v -0.5 1.2 0.4
v -0.5 1.4 0.4
v -0.5 1.5 0.4
v -0.5 1.6 0.4
v -0.3 0 0.4
v -0.3 0.1 0.4
v 0.3 0 0.4
v 0.3 0.1 0.4
v 0.5 0 0.4
v 0.5 0.1 0.4
v 0.5 1.2 0.4
v 0.5 1.4 0.4
v 0.5 1.5 0.4
v 0.5 1.6 0.4
v 0.6 1.5 0.4
v 0.6 1.6 0.4
v -0.6 1.3 0.3
v -0.6 1.5 0.3
v -0.5 0.1 0.3
v -0.5 1.2 0.3
v -0.5 1.3 0.3
v -0.5 1.5 0.3
v -0.3 0.1 0.3
v -0.3 1 0.3
v 0.3 0.1 0.3
v 0.3 1 0.3
v 0.5 0.1 0.3
v 0.5 1.2 0.3
v 0.5 1.3 0.3
v 0.5 1.5 0.3
v 0.6 1.3 0.3
v 0.6 1.5 0.3
v -0.6 1.2 0.2
v -0.6 1.3 0.2
v -0.5 1.2 0.2
v -0.5 1.3 0.2
v 0.5 1.2 0.2
v 0.5 1.3 0.2
v 0.6 1.2 0.2
v 0.6 1.3 0.2
v -0.6 1.1 0.1
v -0.6 1.2 0.1
v -0.5 1.1 0.1
v -0.5 1.2 0.1
v -0.3 0.9 0.1
v -0.3 1 0.1
v 0.3 0.9 0.1
v 0.3 1 0.1
v 0.5 1.1 0.1
v 0.5 1.2 0.1
v 0.6 1.1 0.1
v 0.6 1.2 0.1
v -0.3 0.8 0
v -0.3 0.9 0
v 0.3 0.8 0
v 0.3 0.9 0
v -0.4 0.8 -0.1
v -0.4 0.9 -0.1
v -0.3 0.8 -0.1
v -0.3 0.9 -0.1
v 0.3 0.8 -0.1
v 0.3 0.9 -0.1
v 0.4 0.8 -0.1
v 0.4 0.9 -0.1
v -0.3 1.7 -0.2
v -0.3 1.8 -0.2
v -0.2 1.7 -0.2
v -0.2 1.8 -0.2
v 0.2 1.7 -0.2
v 0.2 1.8 -0.2
v 0.3 1.7 -0.2
v 0.3 1.8 -0.2
v -0.6 1 -0.8
v -0.6 1.1 -0.8
v -0.5 1 -0.8
v -0.5 1.1 -0.8
v 0.5 1 -0.8
v 0.5 1.1 -0.8
v 0.6 1 -0.8
v 0.6 1.1 -0.8
v -0.6 0.9 -0.9
v -0.6 1 -0.9
v -0.5 0 -0.9
v -0.5 0.1 -0.9
v -0.5 0.9 -0.9
v -0.5 1 -0.9
v -0.3 0 -0.9
v -0.3 0.1 -0.9
v 0.3 0 -0.9
v 0.3 0.1 -0.9
v 0.5 0 -0.9
v 0.5 0.1 -0.9
v 0.5 0.9 -0.9
v 0.5 1 -0.9
v 0.6 0.9 -0.9
v 0.6 1 -0.9
v -0.5 0.1 -1
v -0.5 0.9 -1
v -0.3 0.1 -1
v -0.3 0.9 -1
v 0.3 0.1 -1
v 0.3 0.9 -1
v 0.5 0.1 -1
v 0.5 0.9 -1
v -0.2 1.7 -1.1
v -0.2 1.8 -1.1
v 0.2 1.7 -1.1
v 0.2 1.8 -1.1
v -0.2 0.7 -1.2
v -0.2 0.8 -1.2
v -0.2 0.9 -1.2
v -0.2 1 -1.2
v -0.1 0.6 -1.2
v -0.1 0.7 -1.2
v -0.1 0.8 -1.2
v -0.1 0.9 -1.2
v 0.1 0.6 -1.2
v 0.1 0.7 -1.2
v 0.1 0.8 -1.2
v 0.1 0.9 -1.2
v 0.2 0.7 -1.2
v 0.2 0.8 -1.2
v 0.2 0.9 -1.2
v 0.2 1 -1.2
v -0.2 1.8 1.2
v -0.2 1.9 1.2
v -0.1 1.8 1.2
v -0.1 1.9 1.2
v 0.1 1.8 1.2
v 0.1 1.9 1.2
v 0.2 1.5 1.2
v 0.2 1.6 1.2
v 0.2 1.8 1.2
v 0.2 1.9 1.2
v 0.3 1.4 1.2
v 0.3 1.5 1.2
v 0.3 1.6 1.2
v 0.3 1.7 1.2
v 0.4 1.5 1.2
v 0.4 1.6 1.2
v 0.5 1.4 1.2
v 0.5 1.5 1.2
v 0.5 1.6 1.2
v 0.5 1.7 1.2
v -0.5 1.4 1.1
v -0.5 1.5 1.1
v -0.5 1.6 1.1
v -0.5 1.7 1.1
v -0.4 1.5 1.1
v -0.4 1.6 1.1
v -0.3 1.4 1.1
v -0.3 1.5 1.1
v -0.3 1.6 1.1
v -0.3 1.7 1.1
v -0.1 1.3 1
v -0.1 1.4 1
v 0.1 1.3 1
v 0.1 1.4 1
v -0.4 1.4 0.6
v -0.4 1.5 0.6
v -0.3 1.4 0.6
v -0.3 1.5 0.6
v 0.3 1.4 0.6
v 0.3 1.5 0.6
v 0.4 1.4 0.6
v 0.4 1.5 0.6
v -0.6 1.9 0.5
v -0.6 2.1 0.5
v -0.6 2.2 0.5
v -0.6 2.3 0.5
v -0.5 1.9 0.5
v -0.5 2.1 0.5
v -0.5 2.2 0.5
v -0.5 2.3 0.5
v -0.5 2.6 0.5
v -0.4 2.2 0.5
v -0.4 2.3 0.5
v -0.4 2.5 0.5
v -0.4 2.6 0.5
v -0.4 2.7 0.5
v -0.3 2.6 0.5
v -0.3 2.7 0.5
v -0.2 2.3 0.5
v -0.2 2.5 0.5
v -0.2 2.6 0.5
v -0.1 2.3 0.5
v -0.1 2.5 0.5
v 0.1 2.3 0.5
v 0.1 2.5 0.5
v 0.2 2.3 0.5
v 0.2 2.5 0.5
v 0.2 2.6 0.5
v 0.3 2.6 0.5
v 0.3 2.7 0.5
v 0.4 2.2 0.5
v 0.4 2.3 0.5
v 0.4 2.5 0.5
v 0.4 2.6 0.5
v 0.4 2.7 0.5
v 0.5 1.9 0.5
v 0.5 2.1 0.5
v 0.5 2.2 0.5
v 0.5 2.3 0.5
v 0.5 2.6 0.5
v 0.6 1.9 0.5
v 0.6 2.1 0.5
v 0.6 2.2 0.5
v 0.6 2.3 0.5
v -0.6 1.8 0.4
v -0.6 1.9 0.4
v -0.5 1.8 0.4
v -0.5 1.9 0.4
v -0.5 2 0.4
v -0.5 2.2 0.4
v -0.4 2 0.4
v -0.4 2.2 0.4
v -0.4 2.3 0.4
v 0.4 2 0.4
v 0.4 2.2 0.4
v 0.4 2.3 0.4
v 0.5 1.8 0.4
v 0.5 1.9 0.4
v 0.5 2 0.4
v 0.5 2.2 0.4
v 0.6 1.8 0.4
v 0.6 1.9 0.4
v -0.5 1.9 0.3
v -0.5 2 0.3
v -0.4 1.9 0.3
v -0.4 2 0.3
v -0.4 2.1 0.3
v -0.4 2.2 0.3
v 0.4 1.9 0.3
v 0.4 2 0.3
v 0.4 2.1 0.3
v 0.4 2.2 0.3
v 0.5 1.9 0.3
v 0.5 2 0.3
v -0.6 1.7 0.2
v -0.6 1.8 0.2
v -0.5 1.7 0.2
v -0.5 1.8 0.2
v -0.5 1.9 0.2
v -0.4 1.8 0.2
v -0.4 1.9 0.2
v -0.4 2 0.2
v -0.4 2.1 0.2
v 0.4 1.8 0.2
v 0.4 1.9 0.2
v 0.4 2 0.2
v 0.4 2.1 0.2
v 0.5 1.7 0.2
v 0.5 1.8 0.2
v 0.5 1.9 0.2
v 0.6 1.7 0.2
v 0.6 1.8 0.2
v -0.6 1.6 0.1
v -0.6 1.7 0.1
v -0.5 0 0.1
v -0.5 0.9 0.1
v -0.5 1.7 0.1
v -0.5 1.8 0.1
v -0.4 1.6 0.1
v -0.4 1.8 0.1
v -0.4 1.9 0.1
v -0.4 2 0.1
v -0.3 0 0.1
v -0.3 0.9 0.1
v 0.3 0 0.1
v 0.3 0.9 0.1
v 0.4 1.6 0.1
v 0.4 1.8 0.1
v 0.4 1.9 0.1
v 0.4 2 0.1
v 0.5 0 0.1
v 0.5 0.9 0.1
v 0.5 1.7 0.1
v 0.5 1.8 0.1
v 0.6 1.6 0.1
v 0.6 1.7 0.1
v -0.4 1.7 0
v -0.4 1.9 0
v -0.3 1.7 0
v -0.3 1.8 0
v 0.3 1.7 0
v 0.3 1.8 0
v 0.4 1.7 0
v 0.4 1.9 0
v -0.3 1.7 -0.1
v -0.3 1.8 -0.1
v -0.2 1.7 -0.1
v -0.2 1.8 -0.1
v 0.2 1.7 -0.1
v 0.2 1.8 -0.1
v 0.3 1.7 -0.1
v 0.3 1.8 -0.1
v -0.4 0.8 -0.7
v -0.4 0.9 -0.7
v -0.3 0.8 -0.7
v -0.3 0.9 -0.7
v 0.3 0.8 -0.7
v 0.3 0.9 -0.7
v 0.4 0.8 -0.7
v 0.4 0.9 -0.7
v -0.3 0.8 -0.9
v -0.3 0.9 -0.9
v -0.3 1.7 -0.9
v -0.3 1.8 -0.9
v -0.2 1.7 -0.9
v -0.2 1.8 -0.9
v 0.2 1.7 -0.9
v 0.2 1.8 -0.9
v 0.3 0.8 -0.9
v 0.3 0.9 -0.9
v 0.3 1.7 -0.9
v 0.3 1.8 -0.9
v -0.6 1.5 -1
v -0.6 1.6 -1
v -0.5 1.5 -1
v -0.5 1.6 -1
v -0.4 1.6 -1
v -0.4 1.7 -1
v -0.3 0.9 -1
v -0.3 1 -1
v -0.3 1.6 -1
v -0.3 1.7 -1
v -0.2 1.7 -1
v -0.2 1.8 -1
v 0.2 1.7 -1
v 0.2 1.8 -1
v 0.3 0.9 -1
v 0.3 1 -1
v 0.3 1.6 -1
v 0.3 1.7 -1
v 0.4 1.6 -1
v 0.4 1.7 -1
v 0.5 1.5 -1
v 0.5 1.6 -1
v 0.6 1.5 -1
v 0.6 1.6 -1
v -0.6 0.9 -1.1
v -0.6 1 -1.1
v -0.6 1.3 -1.1
v -0.6 1.5 -1.1
v -0.5 0.9 -1.1
v -0.5 1 -1.1
v -0.5 1.3 -1.1
v -0.5 1.5 -1.1
v -0.5 1.6 -1.1
v -0.4 1.5 -1.1
v -0.4 1.6 -1.1
v -0.3 1.6 -1.1
v -0.3 1.7 -1.1
v -0.2 1.6 -1.1
v -0.2 1.7 -1.1
v 0.2 1.6 -1.1
v 0.2 1.7 -1.1
v 0.3 1.6 -1.1
v 0.3 1.7 -1.1
v 0.4 1.5 -1.1
v 0.4 1.6 -1.1
v 0.5 0.9 -1.1
v 0.5 1 -1.1
v 0.5 1.3 -1.1
v 0.5 1.5 -1.1
v 0.5 1.6 -1.1
v 0.6 0.9 -1.1
v 0.6 1 -1.1
v 0.6 1.3 -1.1
v 0.6 1.5 -1.1
v -0.6 1 -1.2
v -0.6 1.3 -1.2
v -0.5 0 -1.2
v -0.5 0.9 -1.2
v -0.5 1 -1.2
v -0.5 1.3 -1.2
v -0.5 1.5 -1.2
v -0.4 1.5 -1.2
v -0.4 1.6 -1.2
v -0.3 0 -1.2
v -0.3 0.9 -1.2
v -0.2 1.3 -1.2
v -0.2 1.6 -1.2
v 0.2 1.3 -1.2
v 0.2 1.6 -1.2
v 0.3 0 -1.2
v 0.3 0.9 -1.2
v 0.4 1.5 -1.2
v 0.4 1.6 -1.2
v 0.5 0 -1.2
v 0.5 0.9 -1.2
v 0.5 1 -1.2
v 0.5 1.3 -1.2
v 0.5 1.5 -1.2
v 0.6 1 -1.2
v 0.6 1.3 -1.2
v -0.5 0.9 -1.3
v -0.5 1.3 -1.3
v -0.3 0.9 -1.3
v -0.3 1 -1.3
v -0.2 1 -1.3
v -0.2 1.3 -1.3
v -0.2 1.7 -1.3
v -0.2 1.8 -1.3
v 0.2 1 -1.3
v 0.2 1.3 -1.3
v 0.2 1.7 -1.3
v 0.2 1.8 -1.3
v 0.3 0.9 -1.3
v 0.3 1 -1.3
v 0.5 0.9 -1.3
v 0.5 1.3 -1.3
v -0.2 0.7 -1.4
v -0.2 0.8 -1.4
v -0.2 0.9 -1.4
v -0.2 1.5 -1.4
v -0.2 1.7 -1.4
v -0.1 0.6 -1.4
v -0.1 0.7 -1.4
v -0.1 0.8 -1.4
v -0.1 0.9 -1.4
v -0.1 1.5 -1.4
v -0.1 1.6 -1.4
v 0.1 0.6 -1.4
v 0.1 0.7 -1.4
v 0.1 0.8 -1.4
v 0.1 0.9 -1.4
v 0.1 1.5 -1.4
v 0.1 1.6 -1.4
v 0.2 0.7 -1.4
v 0.2 0.8 -1.4
v 0.2 0.9 -1.4
v 0.2 1.5 -1.4
v 0.2 1.7 -1.4
v -0.2 0.9 -1.5
v -0.2 1 -1.5
v -0.2 1.1 -1.5
v -0.2 1.5 -1.5
v -0.1 0.8 -1.5
v -0.1 0.9 -1.5
v -0.1 1 -1.5
v -0.1 1.1 -1.5
v -0.1 1.5 -1.5
v -0.1 1.6 -1.5
v 0.1 0.8 -1.5
v 0.1 0.9 -1.5
v 0.1 1 -1.5
v 0.1 1.1 -1.5
v 0.1 1.5 -1.5
v 0.1 1.6 -1.5
v 0.2 0.9 -1.5
v 0.2 1 -1.5
v 0.2 1.1 -1.5
v 0.2 1.5 -1.5
v -0.5 0 0.4
v -0.3 0 0.4
v 0.3 0 0.4
v 0.5 0 0.4
v -0.5 0 0.1
v -0.3 0 0.1
v 0.3 0 0.1
v 0.5 0 0.1
v -0.5 0 -0.9
v -0.3 0 -0.9
v 0.3 0 -0.9
v 0.5 0 -0.9
v -0.5 0 -1.2
v -0.3 0 -1.2
v 0.3 0 -1.2
v 0.5 0 -1.2
v -0.1 0.6 -1.2
v 0.1 0.6 -1.2
v -0.1 0.6 -1.4
v 0.1 0.6 -1.4
v -0.2 0.7 -1.2
v -0.1 0.7 -1.2
v 0.1 0.7 -1.2
v 0.2 0.7 -1.2
v -0.2 0.7 -1.4
v -0.1 0.7 -1.4
v 0.1 0.7 -1.4
v 0.2 0.7 -1.4
v -0.3 0.8 0
v 0.3 0.8 0
v -0.4 0.8 -0.1
v -0.3 0.8 -0.1
v 0.3 0.8 -0.1
v 0.4 0.8 -0.1
v -0.4 0.8 -0.7
v -0.3 0.8 -0.7
v 0.3 0.8 -0.7
v 0.4 0.8 -0.7
v -0.3 0.8 -0.9
v 0.3 0.8 -0.9
v -0.1 0.8 -1.4
v 0.1 0.8 -1.4
v -0.1 0.8 -1.5
v 0.1 0.8 -1.5
v -0.5 0.9 0.1
v -0.3 0.9 0.1
v 0.3 0.9 0.1
v 0.5 0.9 0.1
v -0.3 0.9 0
v 0.3 0.9 0
v -0.4 0.9 -0.1
v -0.3 0.9 -0.1
v 0.3 0.9 -0.1
v 0.4 0.9 -0.1
v -0.4 0.9 -0.7
v -0.3 0.9 -0.7
v 0.3 0.9 -0.7
v 0.4 0.9 -0.7
v -0.6 0.9 -0.9
v -0.5 0.9 -0.9
v -0.3 0.9 -0.9
v 0.3 0.9 -0.9
v 0.5 0.9 -0.9
v 0.6 0.9 -0.9
v -0.5 0.9 -1
v -0.3 0.9 -1
v 0.3 0.9 -1
v 0.5 0.9 -1
v -0.6 0.9 -1.1
v -0.5 0.9 -1.1
v 0.5 0.9 -1.1
v 0.6 0.9 -1.1
v -0.5 0.9 -1.2
v -0.3 0.9 -1.2
v 0.3 0.9 -1.2
v 0.5 0.9 -1.2
v -0.5 0.9 -1.3
v -0.3 0.9 -1.3
v 0.3 0.9 -1.3
v 0.5 0.9 -1.3
v -0.2 0.9 -1.4
v -0.1 0.9 -1.4
v 0.1 0.9 -1.4
v 0.2 0.9 -1.4
v -0.2 0.9 -1.5
v -0.1 0.9 -1.5
v 0.1 0.9 -1.5
v 0.2 0.9 -1.5
v -0.3 1 0.3
v 0.3 1 0.3
v -0.3 1 0.1
v 0.3 1 0.1
v -0.6 1 -0.8
v -0.5 1 -0.8
v 0.5 1 -0.8
v 0.6 1 -0.8
v -0.6 1 -0.9
v -0.5 1 -0.9
v 0.5 1 -0.9
v 0.6 1 -0.9
v -0.3 1 -1
v 0.3 1 -1
v -0.6 1 -1.1
v -0.5 1 -1.1
v 0.5 1 -1.1
v 0.6 1 -1.1
v -0.6 1 -1.2
v -0.5 1 -1.2
v -0.2 1 -1.2
v 0.2 1 -1.2
v 0.5 1 -1.2
v 0.6 1 -1.2
v -0.3 1 -1.3
v -0.2 1 -1.3
v 0.2 1 -1.3
v 0.3 1 -1.3
v -0.6 1.1 0.1
v -0.5 1.1 0.1
v 0.5 1.1 0.1
v 0.6 1.1 0.1
v -0.6 1.1 -0.8
v -0.5 1.1 -0.8
v 0.5 1.1 -0.8
v 0.6 1.1 -0.8
v -0.5 1.2 0.4
v 0.5 1.2 0.4
v -0.5 1.2 0.3
v 0.5 1.2 0.3
v -0.6 1.2 0.2
v -0.5 1.2 0.2
v 0.5 1.2 0.2
v 0.6 1.2 0.2
v -0.6 1.2 0.1
v -0.5 1.2 0.1
v 0.5 1.2 0.1
v 0.6 1.2 0.1
v -0.1 1.3 1.2
v 0.1 1.3 1.2
v -0.1 1.3 1
v 0.1 1.3 1
v -0.6 1.3 0.3
v -0.5 1.3 0.3
v 0.5 1.3 0.3
v 0.6 1.3 0.3
v -0.6 1.3 0.2
v -0.5 1.3 0.2
v 0.5 1.3 0.2
v 0.6 1.3 0.2
v -0.1 1.4 1.3
v 0.1 1.4 1.3
v 0.3 1.4 1.3
v 0.5 1.4 1.3
v -0.5 1.4 1.2
v -0.3 1.4 1.2
v -0.2 1.4 1.2
v -0.1 1.4 1.2
v 0.1 1.4 1.2
v 0.2 1.4 1.2
v 0.3 1.4 1.2
v 0.5 1.4 1.2
v -0.5 1.4 1.1
v -0.3 1.4 1.1
v -0.3 1.4 1
v -0.2 1.4 1
v -0.1 1.4 1
v 0.1 1.4 1
v 0.2 1.4 1
v 0.3 1.4 1
v -0.4 1.4 0.8
v -0.3 1.4 0.8
v 0.3 1.4 0.8
v 0.4 1.4 0.8
v -0.4 1.4 0.6
v -0.3 1.4 0.6
v 0.3 1.4 0.6
v 0.4 1.4 0.6
v -0.5 1.4 0.5
v -0.3 1.4 0.5
v 0.3 1.4 0.5
v 0.5 1.4 0.5
v -0.5 1.4 0.4
v 0.5 1.4 0.4
v 0.2 1.5 1.3
v 0.3 1.5 1.3
v -0.3 1.5 1.2
v -0.2 1.5 1.2
v 0.2 1.5 1.2
v 0.3 1.5 1.2
v -0.3 1.5 1.1
v -0.2 1.5 1.1
v 0.2 1.5 1.1
v 0.3 1.5 1.1
v -0.3 1.5 1
v -0.2 1.5 1
v 0.2 1.5 1
v 0.3 1.5 1
v -0.4 1.5 0.9
v -0.3 1.5 0.9
v 0.3 1.5 0.9
v 0.4 1.5 0.9
v -0.5 1.5 0.8
v -0.4 1.5 0.8
v -0.3 1.5 0.8
v 0.3 1.5 0.8
v 0.4 1.5 0.8
v 0.5 1.5 0.8
v -0.4 1.5 0.6
v -0.3 1.5 0.6
v 0.3 1.5 0.6
v 0.4 1.5 0.6
v -0.5 1.5 0.5
v -0.3 1.5 0.5
v 0.3 1.5 0.5
v 0.5 1.5 0.5
v -0.6 1.5 0.4
v -0.5 1.5 0.4
v 0.5 1.5 0.4
v 0.6 1.5 0.4
v -0.6 1.5 0.3
v -0.5 1.5 0.3
v 0.5 1.5 0.3
v 0.6 1.5 0.3
v 0.4 1.6 1.3
v 0.5 1.6 1.3
v -0.5 1.6 1.2
v -0.4 1.6 1.2
v 0.4 1.6 1.2
v 0.5 1.6 1.2
v -0.5 1.6 1.1
v -0.4 1.6 1.1
v -0.4 1.6 1
v -0.3 1.6 1
v 0.3 1.6 1
v 0.4 1.6 1
v -0.5 1.6 0.9
v -0.4 1.6 0.9
v -0.3 1.6 0.9
v 0.3 1.6 0.9
v 0.4 1.6 0.9
v 0.5 1.6 0.9
v -0.5 1.6 0.8
v -0.4 1.6 0.8
v 0.4 1.6 0.8
v 0.5 1.6 0.8
v -0.6 1.6 0.7
v -0.5 1.6 0.7
v 0.5 1.6 0.7
v 0.6 1.6 0.7
v -0.6 1.6 0.4
v -0.5 1.6 0.4
v 0.5 1.6 0.4
v 0.6 1.6 0.4
v -0.6 1.7 0.8
v -0.5 1.7 0.8
v 0.5 1.7 0.8
v 0.6 1.7 0.8
v -0.6 1.7 0.7
v -0.5 1.7 0.7
v 0.5 1.7 0.7
v 0.6 1.7 0.7
v -0.2 1.8 1.3
v -0.1 1.8 1.3
v 0.1 1.8 1.3
v 0.2 1.8 1.3
v -0.2 1.8 1.2
v -0.1 1.8 1.2
v 0.1 1.8 1.2
v 0.2 1.8 1.2
v -0.4 1.8 0.9
v -0.2 1.8 0.9
v 0.2 1.8 0.9
v 0.4 1.8 0.9
v -0.4 1.8 0.8
v -0.2 1.8 0.8
v 0.2 1.8 0.8
v 0.4 1.8 0.8
v -0.1 1.9 1.5
v 0.1 1.9 1.5
v -0.1 1.9 1.4
v 0.1 1.9 1.4
v -0.1 1.9 1.3
v 0.1 1.9 1.3
v -0.2 1.9 1.2
v -0.1 1.9 1.2
v 0.1 1.9 1.2
v 0.2 1.9 1.2
v -0.4 1.9 1
v -0.2 1.9 1
v 0.2 1.9 1
v 0.4 1.9 1
v -0.4 1.9 0.9
v 0.4 1.9 0.9
v -0.3 2.1 1.1
v -0.2 2.1 1.1
v 0.2 2.1 1.1
v 0.3 2.1 1.1
v -0.3 2.1 1
v -0.2 2.1 1
v 0.2 2.1 1
v 0.3 2.1 1
v -0.5 0.1 0.4
v -0.3 0.1 0.4
v 0.3 0.1 0.4
v 0.5 0.1 0.4
v -0.5 0.1 0.3
v -0.3 0.1 0.3
v 0.3 0.1 0.3
v 0.5 0.1 0.3
v -0.5 0.1 -0.9
v -0.3 0.1 -0.9
v 0.3 0.1 -0.9
v 0.5 0.1 -0.9
v -0.5 0.1 -1
v -0.3 0.1 -1
v 0.3 0.1 -1
v 0.5 0.1 -1
v -0.6 1.3 -1.1
v -0.5 1.3 -1.1
v 0.5 1.3 -1.1
v 0.6 1.3 -1.1
v -0.6 1.3 -1.2
v -0.5 1.3 -1.2
v -0.2 1.3 -1.2
v 0.2 1.3 -1.2
v 0.5 1.3 -1.2
v 0.6 1.3 -1.2
v -0.5 1.3 -1.3
v -0.2 1.3 -1.3
v 0.2 1.3 -1.3
v 0.5 1.3 -1.3
v -0.1 1.5 1.3
v 0.1 1.5 1.3
v 0.4 1.5 1.3
v 0.5 1.5 1.3
v -0.5 1.5 1.2
v -0.4 1.5 1.2
v -0.1 1.5 1.2
v 0.1 1.5 1.2
v 0.4 1.5 1.2
v 0.5 1.5 1.2
v -0.5 1.5 1.1
v -0.4 1.5 1.1
v -0.6 1.5 -1
v -0.5 1.5 -1
v 0.5 1.5 -1
v 0.6 1.5 -1
v -0.6 1.5 -1.1
v -0.5 1.5 -1.1
v -0.4 1.5 -1.1
v 0.4 1.5 -1.1
v 0.5 1.5 -1.1
v 0.6 1.5 -1.1
v -0.5 1.5 -1.2
v -0.4 1.5 -1.2
v 0.4 1.5 -1.2
v 0.5 1.5 -1.2
v -0.2 1.5 -1.4
v -0.1 1.5 -1.4
v 0.1 1.5 -1.4
v 0.2 1.5 -1.4
v -0.2 1.5 -1.5
v -0.1 1.5 -1.5
v 0.1 1.5 -1.5
v 0.2 1.5 -1.5
v 0.2 1.6 1.3
v 0.3 1.6 1.3
v -0.3 1.6 1.2
v 0.2 1.6 1.2
v 0.3 1.6 1.2
v -0.3 1.6 1.1
v -0.2 1.6 1.1
v 0.2 1.6 1.1
v 0.3 1.6 1.1
v -0.3 1.6 1
v -0.2 1.6 1
v 0.2 1.6 1
v 0.3 1.6 1
v -0.6 1.6 0.1
v -0.4 1.6 0.1
v 0.4 1.6 0.1
v 0.6 1.6 0.1
v -0.6 1.6 -1
v -0.5 1.6 -1
v -0.4 1.6 -1
v -0.3 1.6 -1
v 0.3 1.6 -1
v 0.4 1.6 -1
v 0.5 1.6 -1
v 0.6 1.6 -1
v -0.5 1.6 -1.1
v -0.4 1.6 -1.1
v -0.3 1.6 -1.1
v -0.2 1.6 -1.1
v 0.2 1.6 -1.1
v 0.3 1.6 -1.1
v 0.4 1.6 -1.1
v 0.5 1.6 -1.1
v -0.4 1.6 -1.2
v -0.2 1.6 -1.2
v 0.2 1.6 -1.2
v 0.4 1.6 -1.2
v -0.1 1.6 -1.4
v 0.1 1.6 -1.4
v -0.1 1.6 -1.5
v 0.1 1.6 -1.5
v 0.3 1.7 1.3
v 0.5 1.7 1.3
v -0.5 1.7 1.2
v -0.3 1.7 1.2
v 0.3 1.7 1.2
v 0.5 1.7 1.2
v -0.5 1.7 1.1
v -0.3 1.7 1.1
v -0.2 1.7 1.1
v 0.2 1.7 1.1
v -0.4 1.7 1
v -0.2 1.7 1
v 0.2 1.7 1
v 0.4 1.7 1
v -0.4 1.7 0.9
v 0.4 1.7 0.9
v -0.4 1.7 0.8
v -0.2 1.7 0.8
v 0.2 1.7 0.8
v 0.4 1.7 0.8
v -0.6 1.7 0.2
v -0.5 1.7 0.2
v 0.5 1.7 0.2
v 0.6 1.7 0.2
v -0.6 1.7 0.1
v -0.5 1.7 0.1
v 0.5 1.7 0.1
v 0.6 1.7 0.1
v -0.4 1.7 0
v -0.3 1.7 0
v 0.3 1.7 0
v 0.4 1.7 0
v -0.3 1.7 -0.1
v -0.2 1.7 -0.1
v 0.2 1.7 -0.1
v 0.3 1.7 -0.1
v -0.3 1.7 -0.2
v -0.2 1.7 -0.2
v 0.2 1.7 -0.2
v 0.3 1.7 -0.2
v -0.3 1.7 -0.9
v -0.2 1.7 -0.9
v 0.2 1.7 -0.9
v 0.3 1.7 -0.9
v -0.4 1.7 -1
v -0.3 1.7 -1
v -0.2 1.7 -1
v 0.2 1.7 -1
v 0.3 1.7 -1
v 0.4 1.7 -1
v -0.3 1.7 -1.1
v -0.2 1.7 -1.1
v 0.2 1.7 -1.1
v 0.3 1.7 -1.1
v -0.2 1.7 -1.3
v 0.2 1.7 -1.3
v -0.2 1.7 -1.4
v 0.2 1.7 -1.4
v -0.2 1.8 1
v 0.2 1.8 1
v -0.2 1.8 0.9
v 0.2 1.8 0.9
v -0.6 1.8 0.4
v -0.5 1.8 0.4
v 0.5 1.8 0.4
v 0.6 1.8 0.4
v -0.6 1.8 0.2
v -0.5 1.8 0.2
v -0.4 1.8 0.2
v 0.4 1.8 0.2
v 0.5 1.8 0.2
v 0.6 1.8 0.2
v -0.5 1.8 0.1
v -0.4 1.8 0.1
v 0.4 1.8 0.1
v 0.5 1.8 0.1
v -0.3 1.8 0
v 0.3 1.8 0
v -0.3 1.8 -0.1
v -0.2 1.8 -0.1
v 0.2 1.8 -0.1
v 0.3 1.8 -0.1
v -0.3 1.8 -0.2
v -0.2 1.8 -0.2
v 0.2 1.8 -0.2
v 0.3 1.8 -0.2
v -0.3 1.8 -0.9
v -0.2 1.8 -0.9
v 0.2 1.8 -0.9
v 0.3 1.8 -0.9
v -0.2 1.8 -1
v 0.2 1.8 -1
v -0.2 1.8 -1.1
v 0.2 1.8 -1.1
v -0.2 1.8 -1.3
v 0.2 1.8 -1.3
v -0.6 1.9 0.5
v -0.5 1.9 0.5
v 0.5 1.9 0.5
v 0.6 1.9 0.5
v -0.6 1.9 0.4
v -0.5 1.9 0.4
v 0.5 1.9 0.4
v 0.6 1.9 0.4
v -0.5 1.9 0.3
v -0.4 1.9 0.3
v 0.4 1.9 0.3
v 0.5 1.9 0.3
v -0.5 1.9 0.2
v -0.4 1.9 0.2
v 0.4 1.9 0.2
v 0.5 1.9 0.2
v -0.4 1.9 0.1
v 0.4 1.9 0.1
v -0.4 1.9 0
v 0.4 1.9 0
v -0.1 2 1.5
v 0.1 2 1.5
v -0.1 2 1.4
v 0.1 2 1.4
v -0.2 2 1.3
v -0.1 2 1.3
v 0.1 2 1.3
v 0.2 2 1.3
v -0.2 2 1.2
v -0.1 2 1.2
v 0.1 2 1.2
v 0.2 2 1.2
v -0.5 2 0.4
v -0.4 2 0.4
v 0.4 2 0.4
v 0.5 2 0.4
v -0.5 2 0.3
v -0.4 2 0.3
v 0.4 2 0.3
v 0.5 2 0.3
v -0.4 2 0.2
v 0.4 2 0.2
v -0.4 2 0.1
v 0.4 2 0.1
v -0.1 2.1 1.3
v 0.1 2.1 1.3
v -0.2 2.1 1.2
v -0.1 2.1 1.2
v 0.1 2.1 1.2
v 0.2 2.1 1.2
v -0.2 2.1 1.1
v 0.2 2.1 1.1
v -0.4 2.1 1
v -0.3 2.1 1
v -0.2 2.1 1
v 0.2 2.1 1
v 0.3 2.1 1
v 0.4 2.1 1
v -0.4 2.1 0.9
v -0.3 2.1 0.9
v 0.3 2.1 0.9
v 0.4 2.1 0.9
v -0.6 2.1 0.8
v -0.5 2.1 0.8
v 0.5 2.1 0.8
v 0.6 2.1 0.8
v -0.5 2.1 0.7
v 0.5 2.1 0.7
v -0.6 2.1 0.6
v -0.5 2.1 0.6
v 0.5 2.1 0.6
v 0.6 2.1 0.6
v -0.4 2.1 0.3
v 0.4 2.1 0.3
v -0.4 2.1 0.2
v 0.4 2.1 0.2
v -0.3 2.2 1.1
v -0.2 2.2 1.1
v 0.2 2.2 1.1
v 0.3 2.2 1.1
v -0.3 2.2 1
v -0.2 2.2 1
v 0.2 2.2 1
v 0.3 2.2 1
v -0.5 2.2 0.9
v -0.3 2.2 0.9
v 0.3 2.2 0.9
v 0.5 2.2 0.9
v -0.3 2.2 0.8
v 0.3 2.2 0.8
v -0.5 2.2 0.7
v -0.4 2.2 0.7
v -0.3 2.2 0.7
v 0.3 2.2 0.7
v 0.4 2.2 0.7
v 0.5 2.2 0.7
v -0.5 2.2 0.5
v -0.4 2.2 0.5
v 0.4 2.2 0.5
v 0.5 2.2 0.5
v -0.5 2.2 0.4
v -0.4 2.2 0.4
v 0.4 2.2 0.4
v 0.5 2.2 0.4
v -0.4 2.2 0.3
v 0.4 2.2 0.3
v -0.3 2.3 0.8
v 0.3 2.3 0.8
v -0.3 2.3 0.7
v -0.2 2.3 0.7
v -0.1 2.3 0.7
v 0.1 2.3 0.7
v 0.2 2.3 0.7
v 0.3 2.3 0.7
v -0.6 2.3 0.6
v -0.5 2.3 0.6
v 0.5 2.3 0.6
v 0.6 2.3 0.6
v -0.6 2.3 0.5
v -0.5 2.3 0.5
v -0.4 2.3 0.5
v -0.2 2.3 0.5
v -0.1 2.3 0.5
v 0.1 2.3 0.5
v 0.2 2.3 0.5
v 0.4 2.3 0.5
v 0.5 2.3 0.5
v 0.6 2.3 0.5
v -0.4 2.3 0.4
v 0.4 2.3 0.4
v -0.3 2.4 0.7
v -0.2 2.4 0.7
v -0.1 2.4 0.7
v 0.1 2.4 0.7
v 0.2 2.4 0.7
v 0.3 2.4 0.7
v -0.3 2.4 0.6
v -0.2 2.4 0.6
v -0.1 2.4 0.6
v 0.1 2.4 0.6
v 0.2 2.4 0.6
v 0.3 2.4 0.6
v -0.5 2.5 0.7
v -0.4 2.5 0.7
v 0.4 2.5 0.7
v 0.5 2.5 0.7
v -0.5 2.5 0.6
v -0.4 2.5 0.6
v -0.2 2.5 0.6
v -0.1 2.5 0.6
v 0.1 2.5 0.6
v 0.2 2.5 0.6
v 0.4 2.5 0.6
v 0.5 2.5 0.6
v -0.2 2.5 0.5
v -0.1 2.5 0.5
v 0.1 2.5 0.5
v 0.2 2.5 0.5
v -0.5 2.6 0.6
v -0.4 2.6 0.6
v -0.3 2.6 0.6
v -0.2 2.6 0.6
v 0.2 2.6 0.6
v 0.3 2.6 0.6
v 0.4 2.6 0.6
v 0.5 2.6 0.6
v -0.5 2.6 0.5
v -0.4 2.6 0.5
v -0.3 2.6 0.5
v -0.2 2.6 0.5
v 0.2 2.6 0.5
v 0.3 2.6 0.5
v 0.4 2.6 0.5
v 0.5 2.6 0.5
v -0.4 2.7 0.7
v -0.3 2.7 0.7
v 0.3 2.7 0.7
v 0.4 2.7 0.7
v -0.4 2.7 0.5
v -0.3 2.7 0.5
v 0.3 2.7 0.5
v 0.4 2.7 0.5

# faces
f 4/3/1 2/3/1 1/3/1
f 5/3/1 2/3/1 4/3/1
f 8/3/1 4/3/1 3/3/1
f 8/3/1 6/3/1 5/3/1
f 8/3/1 5/3/1 4/3/1
f 10/3/1 8/3/1 7/3/1
f 12/3/1 10/3/1 9/3/1
f 13/3/1 6/3/1 8/3/1
f 13/3/1 8/3/1 10/3/1
f 13/3/1 10/3/1 12/3/1
f 14/3/1 6/3/1 13/3/1
f 16/3/1 12/3/1 11/3/1
f 16/3/1 13/3/1 12/3/1
f 17/3/1 13/3/1 16/3/1
f 18/3/1 13/3/1 17/3/1
f 20/3/1 16/3/1 15/3/1
f 20/3/1 17/3/1 16/3/1
f 21/3/1 17/3/1 20/3/1
f 22/3/1 17/3/1 21/3/1
f 24/3/1 20/3/1 19/3/1
f 24/3/1 21/3/1 20/3/1
f 25/3/1 21/3/1 24/3/1
f 26/3/1 21/3/1 25/3/1
f 27/3/1 24/3/1 23/3/1
f 27/3/1 25/3/1 24/3/1
f 28/3/1 25/3/1 27/3/1
f 29/3/1 27/3/1 23/3/1
f 30/3/1 27/3/1 29/3/1
f 31/3/1 29/3/1 23/3/1
f 32/3/1 29/3/1 31/3/1
f 33/3/1 29/3/1 32/3/1
f 34/4/1 33/4/1 32/4/1
f 35/4/1 33/4/1 34/4/1
f 36/5/1 35/5/1 34/5/1
f 37/5/1 35/5/1 36/5/1
f 42/3/1 39/3/1 38/3/1
f 43/3/1 39/3/1 42/3/1
f 44/3/1 41/3/1 40/3/1
f 45/3/1 41/3/1 44/3/1
f 46/3/1 39/3/1 43/3/1
f 48/3/1 41/3/1 45/3/1
f 49/3/1 41/3/1 48/3/1
f 50/3/1 41/3/1 49/3/1
f 52/3/1 47/3/1 46/3/1
f 53/3/1 47/3/1 52/3/1
f 54/3/1 51/3/1 50/3/1
f 54/3/1 50/3/1 49/3/1
f 55/3/1 51/3/1 54/3/1
f 56/3/1 46/3/1 43/3/1
f 56/3/1 52/3/1 46/3/1
f 57/3/1 52/3/1 56/3/1
f 59/3/1 56/3/1 43/3/1
f 60/3/1 56/3/1 59/3/1
f 61/3/1 56/3/1 60/3/1
f 62/3/1 59/3/1 58/3/1
f 62/3/1 60/3/1 59/3/1
f 63/3/1 60/3/1 62/3/1
f 65/3/1 51/3/1 55/3/1
f 66/3/1 51/3/1 65/3/1
f 70/3/1 62/3/1 58/3/1
f 71/2/1 68/2/1 67/2/1
f 72/2/1 68/2/1 71/2/1
f 74/3/1 70/3/1 69/3/1
f 75/3/1 62/3/1 70/3/1
f 75/3/1 70/3/1 74/3/1
f 76/3/1 62/3/1 75/3/1
f 78/3/1 65/3/1 64/3/1
f 79/3/1 65/3/1 78/3/1
f 83/3/1 74/3/1 73/3/1
f 83/3/1 75/3/1 74/3/1
f 84/3/1 75/3/1 83/3/1
f 85/3/1 75/3/1 84/3/1
f 86/3/1 78/3/1 77/3/1
f 87/3/1 78/3/1 86/3/1
f 88/2/1 81/2/1 80/2/1
f 89/2/1 81/2/1 88/2/1
f 90/3/1 83/3/1 82/3/1
f 90/3/1 84/3/1 83/3/1
f 91/3/1 84/3/1 90/3/1
f 95/3/1 93/3/1 92/3/1
f 96/3/1 93/3/1 95/3/1
f 98/3/1 95/3/1 94/3/1
f 99/3/1 95/3/1 98/3/1
f 100/3/1 95/3/1 99/3/1
f 101/3/1 98/3/1 97/3/1
f 101/3/1 99/3/1 98/3/1
f 102/3/1 99/3/1 101/3/1
f 103/3/1 90/3/1 82/3/1
f 106/3/1 101/3/1 97/3/1
f 107/3/1 103/3/1 82/3/1
f 107/3/1 104/3/1 103/3/1
f 108/4/1 105/4/1 104/4/1
f 108/3/1 104/3/1 107/3/1
f 109/4/1 105/4/1 108/4/1
f 110/3/1 101/3/1 106/3/1
f 111/3/1 101/3/1 110/3/1
f 112/4/1 109/4/1 108/4/1
f 113/4/1 109/4/1 112/4/1
f 115/5/1 113/5/1 112/5/1
f 115/5/1 114/5/1 113/5/1
f 116/5/1 114/5/1 115/5/1
f 117/5/1 114/5/1 116/5/1
f 118/5/1 114/5/1 117/5/1
f 121/3/1 120/3/1 119/3/1
f 122/3/1 120/3/1 121/3/1
f 128/3/1 124/3/1 123/3/1
f 129/3/1 124/3/1 128/3/1
f 132/2/1 126/2/1 125/2/1
f 133/2/1 126/2/1 132/2/1
f 135/3/1 128/3/1 127/3/1
f 136/3/1 128/3/1 135/3/1
f 139/3/1 131/3/1 130/3/1
f 140/3/1 131/3/1 139/3/1
f 141/3/1 135/3/1 134/3/1
f 142/3/1 135/3/1 141/3/1
f 143/3/1 138/3/1 137/3/1
f 144/3/1 138/3/1 143/3/1
f 146/3/1 143/3/1 137/3/1
f 150/3/1 146/3/1 145/3/1
f 151/3/1 143/3/1 146/3/1
f 151/3/1 146/3/1 150/3/1
f 152/3/1 143/3/1 151/3/1
f 154/3/1 150/3/1 149/3/1
f 154/3/1 151/3/1 150/3/1
f 155/3/1 151/3/1 154/3/1
f 156/3/1 151/3/1 155/3/1
f 157/3/1 148/3/1 147/3/1
f 158/3/1 148/3/1 157/3/1
f 159/3/1 154/3/1 153/3/1
f 159/3/1 155/3/1 154/3/1
f 160/3/1 155/3/1 159/3/1
f 162/3/1 159/3/1 153/3/1
f 163/3/1 159/3/1 162/3/1
f 164/3/1 162/3/1 161/3/1
f 165/3/1 162/3/1 164/3/1
f 168/5/1 167/5/1 166/5/1
f 169/5/1 167/5/1 168/5/1
f 171/6/1 169/6/1 168/6/1
f 171/6/1 170/6/1 169/6/1
f 172/6/1 170/6/1 171/6/1
f 177/3/1 174/3/1 173/3/1
f 178/3/1 174/3/1 177/3/1
f 179/3/1 176/3/1 175/3/1
f 180/3/1 176/3/1 179/3/1
f 186/3/1 182/3/1 181/3/1
f 187/3/1 182/3/1 186/3/1
f 188/3/1 182/3/1 187/3/1
f 189/3/1 184/3/1 183/3/1
f 190/3/1 184/3/1 189/3/1
f 191/3/1 186/3/1 185/3/1
f 191/3/1 187/3/1 186/3/1
f 192/3/1 187/3/1 191/3/1
f 193/3/1 187/3/1 192/3/1
f 200/3/1 195/3/1 194/3/1
f 201/3/1 195/3/1 200/3/1
f 202/3/1 197/3/1 196/3/1
f 203/3/1 197/3/1 202/3/1
f 204/3/1 199/3/1 198/3/1
f 205/3/1 199/3/1 204/3/1
f 209/6/1 207/6/1 206/6/1
f 210/3/1 208/3/1 207/3/1
f 210/6/1 207/6/1 209/6/1
f 211/3/1 208/3/1 210/3/1
f 214/3/1 213/3/1 212/3/1
f 215/3/1 213/3/1 214/3/1
f 218/6/1 217/6/1 216/6/1
f 219/6/1 217/6/1 218/6/1
f 220/6/1 217/6/1 219/6/1
f 221/4/1 219/4/1 218/4/1
f 222/5/1 220/5/1 219/5/1
f 222/4/1 219/4/1 221/4/1
f 223/5/1 220/5/1 222/5/1
f 225/3/1 222/3/1 221/3/1
f 226/4/1 223/4/1 222/4/1
f 226/3/1 222/3/1 225/3/1
f 227/5/1 224/5/1 223/5/1
f 227/4/1 223/4/1 226/4/1
f 228/5/1 224/5/1 227/5/1
f 229/3/1 227/3/1 226/3/1
f 229/4/1 228/4/1 227/4/1
f 230/4/1 228/4/1 229/4/1
f 232/3/1 229/3/1 226/3/1
f 232/3/1 230/3/1 229/3/1
f 235/3/1 234/3/1 233/3/1
f 236/3/1 234/3/1 235/3/1
f 237/3/1 234/3/1 236/3/1
f 238/3/1 230/3/1 232/3/1
f 238/3/1 232/3/1 231/3/1
f 239/3/1 230/3/1 238/3/1
f 243/3/1 238/3/1 231/3/1
f 244/1/1 241/1/1 240/1/1
f 245/1/1 241/1/1 244/1/1
f 251/3/1 243/3/1 242/3/1
f 252/3/1 238/3/1 243/3/1
f 252/3/1 243/3/1 251/3/1
f 253/3/1 238/3/1 252/3/1
f 256/1/1 246/1/1 245/1/1
f 257/1/1 246/1/1 256/1/1
f 258/1/1 246/1/1 257/1/1
f 259/3/1 248/3/1 247/3/1
f 260/3/1 248/3/1 259/3/1
f 261/3/1 250/3/1 249/3/1
f 262/3/1 250/3/1 261/3/1
f 263/3/1 252/3/1 251/3/1
f 264/3/1 252/3/1 263/3/1
f 265/2/1 255/2/1 254/2/1
f 266/2/1 255/2/1 265/2/1
f 268/3/1 266/3/1 265/3/1
f 268/3/1 267/3/1 266/3/1
f 269/3/1 267/3/1 268/3/1
f 270/3/1 267/3/1 269/3/1
f 271/3/1 267/3/1 270/3/1
f 272/3/1 267/3/1 271/3/1
f 275/6/1 274/6/1 273/6/1
f 276/6/1 274/6/1 275/6/1
f 279/5/1 278/5/1 277/5/1
f 280/5/1 278/5/1 279/5/1
f 284/3/1 282/3/1 281/3/1
f 285/3/1 282/3/1 284/3/1
f 286/3/1 284/3/1 283/3/1
f 287/3/1 284/3/1 286/3/1
f 290/3/1 289/3/1 288/3/1
f 291/3/1 289/3/1 290/3/1
f 295/6/1 293/6/1 292/6/1
f 296/3/1 294/3/1 293/3/1
f 296/6/1 293/6/1 295/6/1
f 297/3/1 294/3/1 296/3/1
f 299/3/1 298/3/1 297/3/1
f 300/3/1 298/3/1 299/3/1
f 303/2/1 302/2/1 301/2/1
f 304/2/1 302/2/1 303/2/1
f 307/5/1 306/5/1 305/5/1
f 308/5/1 306/5/1 307/5/1
f 309/5/1 306/5/1 308/5/1
f 310/5/1 306/5/1 309/5/1
f 313/2/1 312/2/1 311/2/1
f 314/2/1 312/2/1 313/2/1
f 317/6/1 316/6/1 315/6/1
f 318/6/1 316/6/1 317/6/1
f 321/5/1 320/5/1 319/5/1
f 322/5/1 320/5/1 321/5/1
f 327/3/1 324/3/1 323/3/1
f 328/3/1 324/3/1 327/3/1
f 329/3/1 326/3/1 325/3/1
f 330/3/1 326/3/1 329/3/1
f 331/3/1 324/3/1 328/3/1
f 332/3/1 326/3/1 330/3/1
f 333/3/1 326/3/1 332/3/1
f 335/3/1 331/3/1 328/3/1
f 336/3/1 331/3/1 335/3/1
f 337/3/1 334/3/1 333/3/1
f 337/3/1 333/3/1 332/3/1
f 338/3/1 334/3/1 337/3/1
f 341/2/1 340/2/1 339/2/1
f 342/2/1 340/2/1 341/2/1
f 345/2/1 344/2/1 343/2/1
f 346/2/1 344/2/1 345/2/1
f 349/3/1 348/3/1 347/3/1
f 350/3/1 348/3/1 349/3/1
f 351/5/1 350/5/1 349/5/1
f 352/5/1 350/5/1 351/5/1
f 354/6/1 352/6/1 351/6/1
f 354/6/1 353/6/1 352/6/1
f 355/6/1 353/6/1 354/6/1
f 358/3/1 357/3/1 356/3/1
f 359/3/1 357/3/1 358/3/1
f 360/3/2 361/3/2 362/3/2
f 362/3/2 361/3/2 363/3/2
f 364/3/2 365/3/2 368/3/2
f 368/3/2 365/3/2 369/3/2
f 366/3/2 367/3/2 370/3/2
f 370/3/2 367/3/2 371/3/2
f 369/3/2 365/3/2 372/3/2
f 371/3/2 367/3/2 373/3/2
f 373/3/2 367/3/2 374/3/2
f 369/3/2 372/3/2 376/3/2
f 376/3/2 372/3/2 377/3/2
f 374/3/2 375/3/2 378/3/2
f 373/3/2 374/3/2 378/3/2
f 378/3/2 375/3/2 379/3/2
f 380/2/2 381/2/2 382/2/2
f 382/2/2 381/2/2 383/2/2
f 384/2/2 385/2/2 386/2/2
f 386/2/2 385/2/2 387/2/2
f 388/3/2 389/3/2 390/3/2
f 390/3/2 389/3/2 391/3/2
f 390/5/2 391/5/2 392/5/2
f 392/5/2 391/5/2 393/5/2
f 392/6/2 393/6/2 395/6/2
f 393/6/2 394/6/2 395/6/2
f 395/6/2 394/6/2 396/6/2
f 397/6/2 398/6/2 399/6/2
f 399/6/2 398/6/2 400/6/2
f 401/5/2 402/5/2 403/5/2
f 403/5/2 402/5/2 404/5/2
f 405/2/2 406/2/2 407/2/2
f 407/2/2 406/2/2 408/2/2
f 409/5/2 410/5/2 411/5/2
f 411/5/2 410/5/2 412/5/2
f 412/5/2 410/5/2 413/5/2
f 413/5/2 410/5/2 414/5/2
f 415/6/2 416/6/2 417/6/2
f 417/6/2 416/6/2 418/6/2
f 419/5/2 420/5/2 421/5/2
f 421/5/2 420/5/2 422/5/2
f 423/3/2 424/3/2 426/3/2
f 426/3/2 424/3/2 427/3/2
f 425/3/2 426/3/2 428/3/2
f 428/3/2 426/3/2 429/3/2
f 430/3/2 431/3/2 432/3/2
f 432/3/2 431/3/2 433/3/2
f 434/6/2 435/6/2 437/6/2
f 435/3/2 436/3/2 438/3/2
f 437/6/2 435/6/2 438/6/2
f 438/3/2 436/3/2 439/3/2
f 439/3/2 440/3/2 441/3/2
f 441/3/2 440/3/2 442/3/2
f 443/6/2 444/6/2 445/6/2
f 445/6/2 444/6/2 446/6/2
f 446/6/2 444/6/2 447/6/2
f 445/4/2 446/4/2 448/4/2
f 446/5/2 447/5/2 449/5/2
f 448/4/2 446/4/2 449/4/2
f 449/5/2 447/5/2 450/5/2
f 448/3/2 449/3/2 452/3/2
f 449/4/2 450/4/2 453/4/2
f 452/3/2 449/3/2 453/3/2
f 450/5/2 451/5/2 454/5/2
f 453/4/2 450/4/2 454/4/2
f 454/5/2 451/5/2 455/5/2
f 453/3/2 454/3/2 456/3/2
f 454/4/2 455/4/2 456/4/2
f 456/4/2 455/4/2 457/4/2
f 453/3/2 456/3/2 459/3/2
f 456/3/2 457/3/2 459/3/2
f 460/3/2 461/3/2 462/3/2
f 462/3/2 461/3/2 463/3/2
f 463/3/2 461/3/2 464/3/2
f 459/3/2 457/3/2 465/3/2
f 458/3/2 459/3/2 465/3/2
f 465/3/2 457/3/2 466/3/2
f 462/2/2 463/2/2 467/2/2
f 467/2/2 463/2/2 468/2/2
f 458/3/2 465/3/2 471/3/2
f 468/1/2 469/1/2 472/1/2
f 472/1/2 469/1/2 473/1/2
f 470/3/2 471/3/2 479/3/2
f 471/3/2 465/3/2 480/3/2
f 479/3/2 471/3/2 480/3/2
f 480/3/2 465/3/2 481/3/2
f 473/1/2 474/1/2 484/1/2
f 484/1/2 474/1/2 485/1/2
f 485/1/2 474/1/2 486/1/2
f 475/3/2 476/3/2 487/3/2
f 487/3/2 476/3/2 488/3/2
f 477/3/2 478/3/2 489/3/2
f 489/3/2 478/3/2 490/3/2
f 479/3/2 480/3/2 491/3/2
f 491/3/2 480/3/2 492/3/2
f 482/2/2 483/2/2 493/2/2
f 493/2/2 483/2/2 494/2/2
f 493/3/2 494/3/2 496/3/2
f 494/3/2 495/3/2 496/3/2
f 496/3/2 495/3/2 497/3/2
f 497/3/2 495/3/2 498/3/2
f 498/3/2 495/3/2 499/3/2
f 499/3/2 495/3/2 500/3/2
f 501/3/2 502/3/2 505/3/2
f 505/3/2 502/3/2 506/3/2
f 503/3/2 504/3/2 507/3/2
f 507/3/2 504/3/2 508/3/2
f 509/3/2 510/3/2 514/3/2
f 514/3/2 510/3/2 515/3/2
f 515/3/2 510/3/2 516/3/2
f 511/3/2 512/3/2 517/3/2
f 517/3/2 512/3/2 518/3/2
f 513/3/2 514/3/2 519/3/2
f 514/3/2 515/3/2 519/3/2
f 519/3/2 515/3/2 520/3/2
f 520/3/2 515/3/2 521/3/2
f 522/3/2 523/3/2 528/3/2
f 528/3/2 523/3/2 529/3/2
f 524/3/2 525/3/2 530/3/2
f 530/3/2 525/3/2 531/3/2
f 526/3/2 527/3/2 532/3/2
f 532/3/2 527/3/2 533/3/2
f 534/6/2 535/6/2 537/6/2
f 535/3/2 536/3/2 538/3/2
f 537/6/2 535/6/2 538/6/2
f 538/3/2 536/3/2 539/3/2
f 540/3/2 541/3/2 542/3/2
f 542/3/2 541/3/2 543/3/2
f 544/3/2 545/3/2 546/3/2
f 546/3/2 545/3/2 547/3/2
f 548/3/2 549/3/2 553/3/2
f 553/3/2 549/3/2 554/3/2
f 550/2/2 551/2/2 557/2/2
f 557/2/2 551/2/2 558/2/2
f 552/3/2 553/3/2 560/3/2
f 560/3/2 553/3/2 561/3/2
f 555/3/2 556/3/2 564/3/2
f 564/3/2 556/3/2 565/3/2
f 559/3/2 560/3/2 566/3/2
f 566/3/2 560/3/2 567/3/2
f 562/3/2 563/3/2 568/3/2
f 568/3/2 563/3/2 569/3/2
f 562/3/2 568/3/2 571/3/2
f 570/3/2 571/3/2 575/3/2
f 571/3/2 568/3/2 576/3/2
f 575/3/2 571/3/2 576/3/2
f 576/3/2 568/3/2 577/3/2
f 574/3/2 575/3/2 579/3/2
f 575/3/2 576/3/2 579/3/2
f 579/3/2 576/3/2 580/3/2
f 580/3/2 576/3/2 581/3/2
f 572/3/2 573/3/2 582/3/2
f 582/3/2 573/3/2 583/3/2
f 578/3/2 579/3/2 584/3/2
f 579/3/2 580/3/2 584/3/2
f 584/3/2 580/3/2 585/3/2
f 578/3/2 584/3/2 587/3/2
f 587/3/2 584/3/2 588/3/2
f 586/3/2 587/3/2 589/3/2
f 589/3/2 587/3/2 590/3/2
f 591/5/2 592/5/2 593/5/2
f 593/5/2 592/5/2 594/5/2
f 593/6/2 594/6/2 596/6/2
f 594/6/2 595/6/2 596/6/2
f 596/6/2 595/6/2 597/6/2
f 598/3/2 599/3/2 602/3/2
f 602/3/2 599/3/2 603/3/2
f 600/3/2 601/3/2 604/3/2
f 604/3/2 601/3/2 605/3/2
f 603/3/2 599/3/2 606/3/2
f 605/3/2 601/3/2 608/3/2
f 608/3/2 601/3/2 609/3/2
f 609/3/2 601/3/2 610/3/2
f 606/3/2 607/3/2 612/3/2
f 612/3/2 607/3/2 613/3/2
f 610/3/2 611/3/2 614/3/2
f 609/3/2 610/3/2 614/3/2
f 614/3/2 611/3/2 615/3/2
f 603/3/2 606/3/2 616/3/2
f 606/3/2 612/3/2 616/3/2
f 616/3/2 612/3/2 617/3/2
f 603/3/2 616/3/2 619/3/2
f 619/3/2 616/3/2 620/3/2
f 620/3/2 616/3/2 621/3/2
f 618/3/2 619/3/2 622/3/2
f 619/3/2 620/3/2 622/3/2
f 622/3/2 620/3/2 623/3/2
f 615/3/2 611/3/2 625/3/2
f 625/3/2 611/3/2 626/3/2
f 618/3/2 622/3/2 630/3/2
f 627/2/2 628/2/2 631/2/2
f 631/2/2 628/2/2 632/2/2
f 629/3/2 630/3/2 634/3/2
f 630/3/2 622/3/2 635/3/2
f 634/3/2 630/3/2 635/3/2
f 635/3/2 622/3/2 636/3/2
f 624/3/2 625/3/2 638/3/2
f 638/3/2 625/3/2 639/3/2
f 633/3/2 634/3/2 643/3/2
f 634/3/2 635/3/2 643/3/2
f 643/3/2 635/3/2 644/3/2
f 644/3/2 635/3/2 645/3/2
f 637/3/2 638/3/2 646/3/2
f 646/3/2 638/3/2 647/3/2
f 640/2/2 641/2/2 648/2/2
f 648/2/2 641/2/2 649/2/2
f 642/3/2 643/3/2 650/3/2
f 643/3/2 644/3/2 650/3/2
f 650/3/2 644/3/2 651/3/2
f 652/3/2 653/3/2 655/3/2
f 655/3/2 653/3/2 656/3/2
f 654/3/2 655/3/2 658/3/2
f 658/3/2 655/3/2 659/3/2
f 659/3/2 655/3/2 660/3/2
f 657/3/2 658/3/2 661/3/2
f 658/3/2 659/3/2 661/3/2
f 661/3/2 659/3/2 662/3/2
f 642/3/2 650/3/2 663/3/2
f 657/3/2 661/3/2 666/3/2
f 642/3/2 663/3/2 667/3/2
f 663/3/2 664/3/2 667/3/2
f 664/4/2 665/4/2 668/4/2
f 667/3/2 664/3/2 668/3/2
f 668/4/2 665/4/2 669/4/2
f 666/3/2 661/3/2 670/3/2
f 670/3/2 661/3/2 671/3/2
f 668/4/2 669/4/2 672/4/2
f 672/4/2 669/4/2 673/4/2
f 672/5/2 673/5/2 675/5/2
f 673/5/2 674/5/2 675/5/2
f 675/5/2 674/5/2 676/5/2
f 676/5/2 674/5/2 677/5/2
f 677/5/2 674/5/2 678/5/2
f 679/3/2 680/3/2 682/3/2
f 682/3/2 680/3/2 683/3/2
f 681/3/2 682/3/2 686/3/2
f 683/3/2 684/3/2 686/3/2
f 682/3/2 683/3/2 686/3/2
f 685/3/2 686/3/2 688/3/2
f 687/3/2 688/3/2 690/3/2
f 686/3/2 684/3/2 691/3/2
f 688/3/2 686/3/2 691/3/2
f 690/3/2 688/3/2 691/3/2
f 691/3/2 684/3/2 692/3/2
f 689/3/2 690/3/2 694/3/2
f 690/3/2 691/3/2 694/3/2
f 694/3/2 691/3/2 695/3/2
f 695/3/2 691/3/2 696/3/2
f 693/3/2 694/3/2 698/3/2
f 694/3/2 695/3/2 698/3/2
f 698/3/2 695/3/2 699/3/2
f 699/3/2 695/3/2 700/3/2
f 697/3/2 698/3/2 702/3/2
f 698/3/2 699/3/2 702/3/2
f 702/3/2 699/3/2 703/3/2
f 703/3/2 699/3/2 704/3/2
f 701/3/2 702/3/2 705/3/2
f 702/3/2 703/3/2 705/3/2
f 705/3/2 703/3/2 706/3/2
f 701/3/2 705/3/2 707/3/2
f 707/3/2 705/3/2 708/3/2
f 701/3/2 707/3/2 709/3/2
f 709/3/2 707/3/2 710/3/2
f 710/3/2 707/3/2 711/3/2
f 710/4/2 711/4/2 712/4/2
f 712/4/2 711/4/2 713/4/2
f 712/5/2 713/5/2 714/5/2
f 714/5/2 713/5/2 715/5/2
f 718/6/3 717/6/3 716/6/3
f 719/6/3 717/6/3 718/6/3
f 725/2/3 721/2/3 720/2/3
f 726/3/3 722/3/3 721/3/3
f 726/2/3 721/2/3 725/2/3
f 727/3/3 722/3/3 726/3/3
f 729/3/3 724/3/3 723/3/3
f 730/3/3 724/3/3 729/3/3
f 733/3/3 728/3/3 727/3/3
f 734/3/3 728/3/3 733/3/3
f 737/2/3 732/2/3 731/2/3
f 738/3/3 733/3/3 732/3/3
f 738/2/3 732/2/3 737/2/3
f 739/3/3 733/3/3 738/3/3
f 741/2/3 736/2/3 735/2/3
f 742/2/3 736/2/3 741/2/3
f 744/2/3 741/2/3 740/2/3
f 744/2/3 743/2/3 742/2/3
f 744/2/3 742/2/3 741/2/3
f 745/2/3 743/2/3 744/2/3
f 746/2/3 744/2/3 740/2/3
f 747/2/3 744/2/3 746/2/3
f 748/2/3 743/2/3 745/2/3
f 749/2/3 743/2/3 748/2/3
f 754/2/3 751/2/3 750/2/3
f 755/2/3 753/2/3 752/2/3
f 756/2/3 754/2/3 750/2/3
f 756/2/3 755/2/3 754/2/3
f 757/2/3 755/2/3 756/2/3
f 758/2/3 753/2/3 755/2/3
f 758/2/3 755/2/3 757/2/3
f 759/2/3 753/2/3 758/2/3
f 761/2/3 758/2/3 757/2/3
f 765/3/3 761/3/3 760/3/3
f 766/2/3 758/2/3 761/2/3
f 766/3/3 761/3/3 765/3/3
f 767/3/3 763/3/3 762/3/3
f 768/3/3 763/3/3 767/3/3
f 769/3/3 765/3/3 764/3/3
f 770/3/3 765/3/3 769/3/3
f 771/2/3 758/2/3 766/2/3
f 774/3/3 771/3/3 770/3/3
f 775/2/3 758/2/3 771/2/3
f 775/3/3 771/3/3 774/3/3
f 776/2/3 758/2/3 775/2/3
f 777/3/3 773/3/3 772/3/3
f 778/3/3 773/3/3 777/3/3
f 783/6/3 780/6/3 779/6/3
f 784/6/3 780/6/3 783/6/3
f 786/1/3 782/1/3 781/1/3
f 787/1/3 782/1/3 786/1/3
f 790/3/3 786/3/3 785/3/3
f 791/3/3 786/3/3 790/3/3
f 792/6/3 789/6/3 788/6/3
f 793/6/3 789/6/3 792/6/3
f 800/3/3 795/3/3 794/3/3
f 801/3/3 797/3/3 796/3/3
f 802/3/3 799/3/3 798/3/3
f 803/3/3 799/3/3 802/3/3
f 804/3/3 795/3/3 800/3/3
f 805/3/3 795/3/3 804/3/3
f 807/3/3 801/3/3 796/3/3
f 808/3/3 801/3/3 807/3/3
f 813/1/3 806/1/3 805/1/3
f 814/1/3 806/1/3 813/1/3
f 816/3/3 809/3/3 808/3/3
f 817/3/3 809/3/3 816/3/3
f 818/3/3 811/3/3 810/3/3
f 819/3/3 811/3/3 818/3/3
f 820/3/3 813/3/3 812/3/3
f 821/3/3 816/3/3 815/3/3
f 822/3/3 813/3/3 820/3/3
f 823/3/3 813/3/3 822/3/3
f 824/3/3 821/3/3 815/3/3
f 825/3/3 821/3/3 824/3/3
f 829/3/3 827/3/3 826/3/3
f 830/3/3 827/3/3 829/3/3
f 831/3/3 827/3/3 830/3/3
f 832/3/3 827/3/3 831/3/3
f 833/3/3 827/3/3 832/3/3
f 834/3/3 829/3/3 828/3/3
f 835/3/3 829/3/3 834/3/3
f 836/3/3 827/3/3 833/3/3
f 837/3/3 827/3/3 836/3/3
f 838/3/3 832/3/3 831/3/3
f 839/3/3 832/3/3 838/3/3
f 844/3/3 841/3/3 840/3/3
f 845/3/3 841/3/3 844/3/3
f 847/3/3 832/3/3 839/3/3
f 848/3/3 832/3/3 847/3/3
f 849/3/3 843/3/3 842/3/3
f 850/3/3 846/3/3 845/3/3
f 850/3/3 849/3/3 848/3/3
f 850/3/3 848/3/3 847/3/3
f 850/3/3 847/3/3 846/3/3
f 851/3/3 843/3/3 849/3/3
f 851/3/3 849/3/3 850/3/3
f 856/3/3 853/3/3 852/3/3
f 857/3/3 853/3/3 856/3/3
f 859/3/3 855/3/3 854/3/3
f 860/3/3 855/3/3 859/3/3
f 863/3/3 859/3/3 858/3/3
f 864/3/3 859/3/3 863/3/3
f 867/3/3 862/3/3 861/3/3
f 868/3/3 862/3/3 867/3/3
f 873/3/3 866/3/3 865/3/3
f 874/3/3 866/3/3 873/3/3
f 875/3/3 872/3/3 871/3/3
f 876/3/3 872/3/3 875/3/3
f 878/3/3 870/3/3 869/3/3
f 879/3/3 870/3/3 878/3/3
f 880/3/3 877/3/3 876/3/3
f 881/3/3 877/3/3 880/3/3
f 884/3/3 883/3/3 882/3/3
f 885/3/3 883/3/3 884/3/3
f 888/3/3 887/3/3 886/3/3
f 889/3/3 887/3/3 888/3/3
f 893/4/3 891/4/3 890/4/3
f 894/5/3 892/5/3 891/5/3
f 894/4/3 891/4/3 893/4/3
f 895/5/3 892/5/3 894/5/3
f 898/3/3 894/3/3 893/3/3
f 898/3/3 895/3/3 894/3/3
f 899/3/3 895/3/3 898/3/3
f 900/3/3 895/3/3 899/3/3
f 901/5/3 896/5/3 895/5/3
f 901/3/3 895/3/3 900/3/3
f 902/6/3 897/6/3 896/6/3
f 902/5/3 896/5/3 901/5/3
f 903/6/3 897/6/3 902/6/3
f 904/3/3 900/3/3 899/3/3
f 905/3/3 900/3/3 904/3/3
f 906/5/3 905/5/3 904/5/3
f 907/5/3 905/5/3 906/5/3
f 910/5/3 909/5/3 908/5/3
f 911/5/3 909/5/3 910/5/3
f 913/3/3 911/3/3 910/3/3
f 914/3/3 911/3/3 913/3/3
f 918/3/3 914/3/3 913/3/3
f 918/3/3 913/3/3 912/3/3
f 918/3/3 915/3/3 914/3/3
f 919/3/3 915/3/3 918/3/3
f 920/5/3 916/5/3 915/5/3
f 920/3/3 915/3/3 919/3/3
f 921/6/3 917/6/3 916/6/3
f 921/5/3 916/5/3 920/5/3
f 922/6/3 917/6/3 921/6/3
f 925/4/3 919/4/3 918/4/3
f 926/5/3 920/5/3 919/5/3
f 926/4/3 919/4/3 925/4/3
f 927/5/3 920/5/3 926/5/3
f 928/3/3 924/3/3 923/3/3
f 929/3/3 924/3/3 928/3/3
f 933/4/3 931/4/3 930/4/3
f 934/5/3 932/5/3 931/5/3
f 934/4/3 931/4/3 933/4/3
f 935/5/3 932/5/3 934/5/3
f 938/5/3 937/5/3 936/5/3
f 939/5/3 937/5/3 938/5/3
f 943/4/3 941/4/3 940/4/3
f 944/5/3 942/5/3 941/5/3
f 944/4/3 941/4/3 943/4/3
f 945/5/3 942/5/3 944/5/3
f 946/5/3 944/5/3 943/5/3
f 947/5/3 944/5/3 946/5/3
f 950/5/3 949/5/3 948/5/3
f 951/5/3 949/5/3 950/5/3
f 953/4/3 951/4/3 950/4/3
f 954/5/3 952/5/3 951/5/3
f 954/4/3 951/4/3 953/4/3
f 955/5/3 952/5/3 954/5/3
f 961/5/3 957/5/3 956/5/3
f 962/5/3 957/5/3 961/5/3
f 963/4/3 959/4/3 958/4/3
f 964/5/3 960/5/3 959/5/3
f 964/4/3 959/4/3 963/4/3
f 965/5/3 960/5/3 964/5/3
f 968/3/3 967/3/3 966/3/3
f 969/3/3 967/3/3 968/3/3
f 972/3/3 971/3/3 970/3/3
f 973/3/3 971/3/3 972/3/3
f 980/3/3 975/3/3 974/3/3
f 981/3/3 975/3/3 980/3/3
f 982/3/3 977/3/3 976/3/3
f 983/3/3 977/3/3 982/3/3
f 986/3/3 985/3/3 984/3/3
f 987/3/3 985/3/3 986/3/3
f 988/3/3 979/3/3 978/3/3
f 989/3/3 979/3/3 988/3/3
f 992/3/3 991/3/3 990/3/3
f 993/3/3 991/3/3 992/3/3
f 998/3/3 995/3/3 994/3/3
f 999/3/3 995/3/3 998/3/3
f 1000/3/3 997/3/3 996/3/3
f 1001/3/3 997/3/3 1000/3/3
f 1003/3/3 997/3/3 1001/3/3
f 1004/3/3 1003/3/3 1002/3/3
f 1005/3/3 997/3/3 1003/3/3
f 1005/3/3 1003/3/3 1004/3/3
f 1008/3/3 1007/3/3 1006/3/3
f 1009/3/3 1007/3/3 1008/3/3
f 1012/3/3 1011/3/3 1010/3/3
f 1013/3/3 1011/3/3 1012/3/3
f 1016/3/3 1015/3/3 1014/3/3
f 1017/3/3 1015/3/3 1016/3/3
f 1020/3/3 1019/3/3 1018/3/3
f 1021/3/3 1019/3/3 1020/3/3
f 1024/3/3 1023/3/3 1022/3/3
f 1025/3/3 1023/3/3 1024/3/3
f 1028/3/3 1027/3/3 1026/3/3
f 1029/3/3 1027/3/3 1028/3/3
f 1032/3/3 1031/3/3 1030/3/3
f 1033/3/3 1031/3/3 1032/3/3
f 1036/3/3 1035/3/3 1034/3/3
f 1037/3/3 1035/3/3 1036/3/3
f 1040/3/3 1039/3/3 1038/3/3
f 1041/3/3 1039/3/3 1040/3/3
f 1044/3/3 1043/3/3 1042/3/3
f 1045/3/3 1043/3/3 1044/3/3
f 1048/3/3 1047/3/3 1046/3/3
f 1049/3/3 1047/3/3 1048/3/3
f 1052/3/3 1051/3/3 1050/3/3
f 1053/3/3 1051/3/3 1052/3/3
f 1056/3/3 1055/3/3 1054/3/3
f 1057/3/3 1055/3/3 1056/3/3
f 1062/3/3 1059/3/3 1058/3/3
f 1063/3/3 1059/3/3 1062/3/3
f 1064/3/3 1061/3/3 1060/3/3
f 1065/3/3 1061/3/3 1064/3/3
f 1068/3/3 1067/3/3 1066/3/3
f 1069/3/3 1067/3/3 1068/3/3
f 1072/3/3 1071/3/3 1070/3/3
f 1073/3/3 1071/3/3 1072/3/3
f 1076/3/3 1075/3/3 1074/3/3
f 1077/3/3 1075/3/3 1076/3/3
f 1080/3/3 1079/3/3 1078/3/3
f 1081/3/3 1079/3/3 1080/3/3
f 1084/3/3 1083/3/3 1082/3/3
f 1085/3/3 1083/3/3 1084/3/3
f 1091/6/3 1087/6/3 1086/6/3
f 1092/4/3 1088/4/3 1087/4/3
f 1092/6/3 1087/6/3 1091/6/3
f 1093/3/3 1089/3/3 1088/3/3
f 1093/4/3 1088/4/3 1092/4/3
f 1094/6/3 1091/6/3 1090/6/3
f 1095/4/3 1092/4/3 1091/4/3
f 1095/6/3 1091/6/3 1094/6/3
f 1096/3/3 1093/3/3 1092/3/3
f 1096/4/3 1092/4/3 1095/4/3
f 1097/3/3 1089/3/3 1093/3/3
f 1097/3/3 1093/3/3 1096/3/3
f 1098/6/3 1096/6/3 1095/6/3
f 1099/4/3 1097/4/3 1096/4/3
f 1099/6/3 1096/6/3 1098/6/3
f 1100/3/3 1089/3/3 1097/3/3
f 1100/4/3 1097/4/3 1099/4/3
f 1101/3/3 1089/3/3 1100/3/3
f 1102/2/4 1103/2/4 1104/2/4
f 1104/2/4 1103/2/4 1105/2/4
f 1106/2/4 1107/2/4 1110/2/4
f 1110/2/4 1107/2/4 1111/2/4
f 1108/2/4 1109/2/4 1113/2/4
f 1113/2/4 1109/2/4 1114/2/4
f 1112/2/4 1113/2/4 1116/2/4
f 1114/2/4 1115/2/4 1116/2/4
f 1113/2/4 1114/2/4 1116/2/4
f 1116/2/4 1115/2/4 1117/2/4
f 1112/2/4 1116/2/4 1118/2/4
f 1118/2/4 1116/2/4 1119/2/4
f 1117/2/4 1115/2/4 1120/2/4
f 1120/2/4 1115/2/4 1121/2/4
f 1122/2/4 1123/2/4 1126/2/4
f 1124/2/4 1125/2/4 1127/2/4
f 1122/2/4 1126/2/4 1128/2/4
f 1126/2/4 1127/2/4 1128/2/4
f 1128/2/4 1127/2/4 1129/2/4
f 1127/2/4 1125/2/4 1130/2/4
f 1129/2/4 1127/2/4 1130/2/4
f 1130/2/4 1125/2/4 1131/2/4
f 1132/3/4 1133/3/4 1134/3/4
f 1134/3/4 1133/3/4 1135/3/4
f 1136/3/4 1137/3/4 1138/3/4
f 1138/3/4 1137/3/4 1139/3/4
f 1140/3/4 1141/3/4 1142/3/4
f 1142/3/4 1141/3/4 1143/3/4
f 1144/3/4 1145/3/4 1148/3/4
f 1145/4/4 1146/4/4 1149/4/4
f 1148/3/4 1145/3/4 1149/3/4
f 1146/5/4 1147/5/4 1150/5/4
f 1149/4/4 1146/4/4 1150/4/4
f 1150/5/4 1147/5/4 1151/5/4
f 1150/3/4 1151/3/4 1153/3/4
f 1151/5/4 1152/5/4 1154/5/4
f 1153/3/4 1151/3/4 1154/3/4
f 1154/5/4 1152/5/4 1155/5/4
f 1155/5/4 1152/5/4 1156/5/4
f 1156/6/4 1157/6/4 1158/6/4
f 1155/5/4 1156/5/4 1158/5/4
f 1158/6/4 1157/6/4 1159/6/4
f 1154/4/4 1155/4/4 1160/4/4
f 1155/5/4 1158/5/4 1161/5/4
f 1160/4/4 1155/4/4 1161/4/4
f 1161/5/4 1158/5/4 1162/5/4
f 1160/5/4 1161/5/4 1163/5/4
f 1163/5/4 1161/5/4 1164/5/4
f 1165/5/4 1166/5/4 1167/5/4
f 1167/5/4 1166/5/4 1168/5/4
f 1168/5/4 1169/5/4 1170/5/4
f 1167/4/4 1168/4/4 1173/4/4
f 1168/5/4 1170/5/4 1174/5/4
f 1173/4/4 1168/4/4 1174/4/4
f 1170/6/4 1171/6/4 1175/6/4
f 1174/5/4 1170/5/4 1175/5/4
f 1175/6/4 1171/6/4 1176/6/4
f 1172/3/4 1173/3/4 1179/3/4
f 1173/5/4 1174/5/4 1180/5/4
f 1174/5/4 1175/5/4 1180/5/4
f 1179/3/4 1173/3/4 1180/3/4
f 1180/5/4 1175/5/4 1181/5/4
f 1177/3/4 1178/3/4 1182/3/4
f 1178/4/4 1179/4/4 1183/4/4
f 1182/3/4 1178/3/4 1183/3/4
f 1179/5/4 1180/5/4 1184/5/4
f 1183/4/4 1179/4/4 1184/4/4
f 1184/5/4 1180/5/4 1185/5/4
f 1186/3/4 1187/3/4 1188/3/4
f 1188/3/4 1187/3/4 1189/3/4
f 1190/3/4 1191/3/4 1192/3/4
f 1192/3/4 1191/3/4 1193/3/4
f 1193/3/4 1194/3/4 1196/3/4
f 1196/3/4 1194/3/4 1197/3/4
f 1195/3/4 1196/3/4 1200/3/4
f 1200/3/4 1196/3/4 1201/3/4
f 1198/3/4 1199/3/4 1202/3/4
f 1202/3/4 1199/3/4 1203/3/4
f 1204/3/4 1205/3/4 1206/3/4
f 1206/3/4 1205/3/4 1207/3/4
f 1208/3/4 1209/3/4 1212/3/4
f 1212/3/4 1209/3/4 1213/3/4
f 1210/3/4 1211/3/4 1214/3/4
f 1214/3/4 1211/3/4 1215/3/4
f 1216/3/4 1217/3/4 1218/3/4
f 1218/3/4 1217/3/4 1219/3/4
f 1219/3/4 1220/3/4 1221/3/4
f 1221/3/4 1220/3/4 1222/3/4
f 1223/3/4 1224/3/4 1227/3/4
f 1227/3/4 1224/3/4 1228/3/4
f 1225/3/4 1226/3/4 1230/3/4
f 1230/3/4 1226/3/4 1231/3/4
f 1229/3/4 1230/3/4 1232/3/4
f 1232/3/4 1230/3/4 1233/3/4
f 1234/3/4 1235/3/4 1238/3/4
f 1234/3/4 1238/3/4 1240/3/4
f 1238/3/4 1239/3/4 1240/3/4
f 1240/3/4 1239/3/4 1241/3/4
f 1236/3/4 1237/3/4 1244/3/4
f 1244/3/4 1237/3/4 1245/3/4
f 1242/3/4 1243/3/4 1250/3/4
f 1250/3/4 1243/3/4 1251/3/4
f 1246/3/4 1247/3/4 1252/3/4
f 1252/3/4 1247/3/4 1253/3/4
f 1248/3/4 1249/3/4 1254/3/4
f 1254/3/4 1249/3/4 1255/3/4
f 1248/3/4 1254/3/4 1256/3/4
f 1256/3/4 1254/3/4 1257/3/4
f 1258/3/4 1259/3/4 1260/3/4
f 1260/3/4 1259/3/4 1261/3/4
f 1261/3/4 1259/3/4 1263/3/4
f 1262/3/4 1263/3/4 1264/3/4
f 1263/3/4 1259/3/4 1265/3/4
f 1264/3/4 1263/3/4 1265/3/4
f 1266/3/4 1267/3/4 1268/3/4
f 1268/3/4 1267/3/4 1269/3/4
f 1270/3/4 1271/3/4 1272/3/4
f 1272/3/4 1271/3/4 1273/3/4
f 1274/3/4 1275/3/4 1276/3/4
f 1276/3/4 1275/3/4 1277/3/4
f 1278/3/4 1279/3/4 1280/3/4
f 1280/3/4 1279/3/4 1281/3/4
f 1284/3/4 1285/3/4 1286/3/4
f 1286/3/4 1285/3/4 1287/3/4
f 1282/3/4 1283/3/4 1290/3/4
f 1290/3/4 1283/3/4 1291/3/4
f 1288/3/4 1289/3/4 1292/3/4
f 1292/3/4 1289/3/4 1293/3/4
f 1294/3/4 1295/3/4 1296/3/4
f 1296/3/4 1295/3/4 1297/3/4
f 1298/3/4 1299/3/4 1302/3/4
f 1302/3/4 1299/3/4 1303/3/4
f 1304/3/4 1305/3/4 1306/3/4
f 1306/3/4 1305/3/4 1307/3/4
f 1300/3/4 1301/3/4 1308/3/4
f 1308/3/4 1301/3/4 1309/3/4
f 1310/3/4 1311/3/4 1312/3/4
f 1312/3/4 1311/3/4 1313/3/4
f 1314/3/4 1315/3/4 1316/3/4
f 1316/3/4 1315/3/4 1317/3/4
f 1318/3/4 1319/3/4 1322/3/4
f 1322/3/4 1319/3/4 1323/3/4
f 1320/3/4 1321/3/4 1324/3/4
f 1324/3/4 1321/3/4 1325/3/4
f 1325/3/4 1326/3/4 1327/3/4
f 1327/3/4 1326/3/4 1328/3/4
f 1329/3/4 1330/3/4 1331/3/4
f 1331/3/4 1330/3/4 1332/3/4
f 1333/3/4 1334/3/4 1335/3/4
f 1335/3/4 1334/3/4 1336/3/4
f 1337/3/4 1338/3/4 1342/3/4
f 1342/3/4 1338/3/4 1343/3/4
f 1339/3/4 1340/3/4 1344/3/4
f 1344/3/4 1340/3/4 1345/3/4
f 1341/3/4 1342/3/4 1346/3/4
f 1346/3/4 1342/3/4 1347/3/4
f 1348/3/4 1349/3/4 1352/3/4
f 1352/3/4 1349/3/4 1353/3/4
f 1353/3/4 1354/3/4 1355/3/4
f 1350/3/4 1351/3/4 1357/3/4
f 1357/3/4 1351/3/4 1358/3/4
f 1355/3/4 1356/3/4 1359/3/4
f 1353/3/4 1355/3/4 1359/3/4
f 1359/3/4 1356/3/4 1360/3/4
f 1361/3/4 1362/3/4 1365/3/4
f 1365/3/4 1362/3/4 1366/3/4
f 1363/3/4 1364/3/4 1367/3/4
f 1367/3/4 1364/3/4 1368/3/4
f 1361/3/4 1365/3/4 1370/3/4
f 1370/3/4 1365/3/4 1371/3/4
f 1369/3/4 1370/3/4 1372/3/4
f 1372/3/4 1370/3/4 1373/3/4
f 1374/3/4 1375/3/4 1376/3/4
f 1376/3/4 1375/3/4 1377/3/4
f 1377/3/4 1375/3/4 1378/3/4
f 1378/3/4 1375/3/4 1379/3/4
f 1380/3/4 1381/3/4 1384/3/4
f 1384/3/4 1381/3/4 1385/3/4
f 1382/3/4 1383/3/4 1387/3/4
f 1386/3/4 1387/3/4 1388/3/4
f 1387/3/4 1383/3/4 1389/3/4
f 1388/3/4 1387/3/4 1389/3/4
f 1390/6/4 1391/6/4 1396/6/4
f 1391/5/4 1392/5/4 1397/5/4
f 1396/6/4 1391/6/4 1397/6/4
f 1397/5/4 1392/5/4 1398/5/4
f 1393/3/4 1394/3/4 1399/3/4
f 1399/3/4 1394/3/4 1400/3/4
f 1395/6/4 1396/6/4 1401/6/4
f 1396/5/4 1397/5/4 1402/5/4
f 1401/6/4 1396/6/4 1402/6/4
f 1402/5/4 1397/5/4 1403/5/4
f 1400/3/4 1394/3/4 1406/3/4
f 1402/6/4 1403/6/4 1407/6/4
f 1403/5/4 1404/5/4 1408/5/4
f 1407/6/4 1403/6/4 1408/6/4
f 1408/5/4 1404/5/4 1409/5/4
f 1405/3/4 1406/3/4 1410/3/4
f 1406/3/4 1394/3/4 1411/3/4
f 1410/3/4 1406/3/4 1411/3/4
f 1412/5/4 1413/5/4 1417/5/4
f 1413/4/4 1414/4/4 1418/4/4
f 1417/5/4 1413/5/4 1418/5/4
f 1414/3/4 1415/3/4 1419/3/4
f 1418/4/4 1414/4/4 1419/4/4
f 1419/3/4 1415/3/4 1420/3/4
f 1416/5/4 1417/5/4 1422/5/4
f 1417/4/4 1418/4/4 1423/4/4
f 1422/5/4 1417/5/4 1423/5/4
f 1420/3/4 1421/3/4 1424/3/4
f 1423/4/4 1418/4/4 1424/4/4
f 1418/3/4 1419/3/4 1424/3/4
f 1419/3/4 1420/3/4 1424/3/4
f 1424/3/4 1421/3/4 1425/3/4
f 1425/3/4 1421/3/4 1426/3/4
f 1426/3/4 1421/3/4 1427/3/4
f 1423/5/4 1424/5/4 1428/5/4
f 1424/4/4 1425/4/4 1429/4/4
f 1428/5/4 1424/5/4 1429/5/4
f 1425/3/4 1426/3/4 1430/3/4
f 1429/4/4 1425/4/4 1430/4/4
f 1430/3/4 1426/3/4 1431/3/4
f 1436/3/5 1433/3/5 1432/3/5
f 1437/3/5 1433/3/5 1436/3/5
f 1438/3/5 1435/3/5 1434/3/5
f 1439/3/5 1435/3/5 1438/3/5
f 1444/3/5 1441/3/5 1440/3/5
f 1445/3/5 1441/3/5 1444/3/5
f 1446/3/5 1443/3/5 1442/3/5
f 1447/3/5 1443/3/5 1446/3/5
f 1450/6/5 1449/6/5 1448/6/5
f 1451/6/5 1449/6/5 1450/6/5
f 1456/6/5 1453/6/5 1452/6/5
f 1457/6/5 1453/6/5 1456/6/5
f 1458/6/5 1455/6/5 1454/6/5
f 1459/6/5 1455/6/5 1458/6/5
f 1463/3/5 1461/3/5 1460/3/5
f 1464/3/5 1461/3/5 1463/3/5
f 1466/3/5 1463/3/5 1462/3/5
f 1466/3/5 1465/3/5 1464/3/5
f 1466/3/5 1464/3/5 1463/3/5
f 1467/3/5 1465/3/5 1466/3/5
f 1468/3/5 1465/3/5 1467/3/5
f 1469/3/5 1465/3/5 1468/3/5
f 1470/3/5 1468/3/5 1467/3/5
f 1471/3/5 1468/3/5 1470/3/5
f 1474/5/5 1473/5/5 1472/5/5
f 1475/5/5 1473/5/5 1474/5/5
f 1480/3/5 1477/3/5 1476/3/5
f 1480/3/5 1479/3/5 1478/3/5
f 1480/3/5 1478/3/5 1477/3/5
f 1481/3/5 1479/3/5 1480/3/5
f 1482/3/5 1480/3/5 1476/3/5
f 1483/3/5 1480/3/5 1482/3/5
f 1484/3/5 1479/3/5 1481/3/5
f 1485/3/5 1479/3/5 1484/3/5
f 1486/3/5 1482/3/5 1476/3/5
f 1489/3/5 1479/3/5 1485/3/5
f 1491/3/5 1487/3/5 1486/3/5
f 1491/3/5 1486/3/5 1476/3/5
f 1492/3/5 1487/3/5 1491/3/5
f 1493/3/5 1489/3/5 1488/3/5
f 1494/3/5 1479/3/5 1489/3/5
f 1494/3/5 1489/3/5 1493/3/5
f 1496/3/5 1492/3/5 1491/3/5
f 1496/3/5 1495/3/5 1494/3/5
f 1496/3/5 1494/3/5 1493/3/5
f 1496/3/5 1493/3/5 1492/3/5
f 1496/3/5 1491/3/5 1490/3/5
f 1497/3/5 1495/3/5 1496/3/5
f 1498/3/5 1495/3/5 1497/3/5
f 1499/3/5 1495/3/5 1498/3/5
f 1500/3/5 1496/3/5 1490/3/5
f 1501/3/5 1496/3/5 1500/3/5
f 1502/3/5 1495/3/5 1499/3/5
f 1503/3/5 1495/3/5 1502/3/5
f 1508/3/5 1505/3/5 1504/3/5
f 1509/3/5 1505/3/5 1508/3/5
f 1510/3/5 1507/3/5 1506/3/5
f 1511/3/5 1507/3/5 1510/3/5
f 1516/5/5 1513/5/5 1512/5/5
f 1517/5/5 1513/5/5 1516/5/5
f 1518/5/5 1515/5/5 1514/5/5
f 1519/5/5 1515/5/5 1518/5/5
f 1522/3/5 1521/3/5 1520/3/5
f 1523/3/5 1521/3/5 1522/3/5
f 1528/3/5 1525/3/5 1524/3/5
f 1529/3/5 1525/3/5 1528/3/5
f 1530/3/5 1527/3/5 1526/3/5
f 1531/3/5 1527/3/5 1530/3/5
f 1538/3/5 1535/3/5 1534/3/5
f 1539/3/5 1535/3/5 1538/3/5
f 1540/3/5 1533/3/5 1532/3/5
f 1541/3/5 1533/3/5 1540/3/5
f 1542/3/5 1537/3/5 1536/3/5
f 1543/3/5 1537/3/5 1542/3/5
f 1544/3/5 1540/3/5 1532/3/5
f 1545/3/5 1540/3/5 1544/3/5
f 1546/3/5 1533/3/5 1541/3/5
f 1547/3/5 1533/3/5 1546/3/5
f 1552/3/5 1549/3/5 1548/3/5
f 1553/3/5 1549/3/5 1552/3/5
f 1554/3/5 1551/3/5 1550/3/5
f 1555/3/5 1551/3/5 1554/3/5
f 1558/3/5 1557/3/5 1556/3/5
f 1559/3/5 1557/3/5 1558/3/5
f 1564/3/5 1561/3/5 1560/3/5
f 1565/3/5 1561/3/5 1564/3/5
f 1566/3/5 1563/3/5 1562/3/5
f 1567/3/5 1563/3/5 1566/3/5
f 1570/3/5 1569/3/5 1568/3/5
f 1571/3/5 1569/3/5 1570/3/5
f 1576/3/5 1573/3/5 1572/3/5
f 1577/3/5 1573/3/5 1576/3/5
f 1578/3/5 1575/3/5 1574/3/5
f 1579/3/5 1575/3/5 1578/3/5
f 1587/3/5 1581/3/5 1580/3/5
f 1588/3/5 1581/3/5 1587/3/5
f 1590/2/5 1583/2/5 1582/2/5
f 1591/2/5 1583/2/5 1590/2/5
f 1592/2/5 1585/2/5 1584/2/5
f 1593/2/5 1585/2/5 1592/2/5
f 1595/3/5 1587/3/5 1586/3/5
f 1596/3/5 1587/3/5 1595/3/5
f 1597/3/5 1589/3/5 1588/3/5
f 1598/3/5 1589/3/5 1597/3/5
f 1601/3/5 1596/3/5 1595/3/5
f 1601/3/5 1599/3/5 1598/3/5
f 1601/3/5 1598/3/5 1597/3/5
f 1601/3/5 1597/3/5 1596/3/5
f 1601/3/5 1595/3/5 1594/3/5
f 1602/3/5 1599/3/5 1601/3/5
f 1604/3/5 1601/3/5 1600/3/5
f 1604/3/5 1603/3/5 1602/3/5
f 1604/3/5 1602/3/5 1601/3/5
f 1605/3/5 1603/3/5 1604/3/5
f 1606/3/5 1603/3/5 1605/3/5
f 1607/3/5 1603/3/5 1606/3/5
f 1609/3/5 1606/3/5 1605/3/5
f 1610/3/5 1606/3/5 1609/3/5
f 1612/3/5 1610/3/5 1609/3/5
f 1612/3/5 1611/3/5 1610/3/5
f 1612/3/5 1609/3/5 1608/3/5
f 1613/3/5 1611/3/5 1612/3/5
f 1618/2/5 1615/2/5 1614/2/5
f 1619/2/5 1615/2/5 1618/2/5
f 1620/2/5 1617/2/5 1616/2/5
f 1621/2/5 1617/2/5 1620/2/5
f 1624/3/5 1621/3/5 1620/3/5
f 1625/3/5 1621/3/5 1624/3/5
f 1626/3/5 1623/3/5 1622/3/5
f 1627/3/5 1623/3/5 1626/3/5
f 1633/3/5 1629/3/5 1628/3/5
f 1634/3/5 1629/3/5 1633/3/5
f 1635/3/5 1631/3/5 1630/3/5
f 1636/3/5 1631/3/5 1635/3/5
f 1638/3/5 1633/3/5 1632/3/5
f 1641/3/5 1637/3/5 1636/3/5
f 1642/3/5 1639/3/5 1638/3/5
f 1642/3/5 1638/3/5 1632/3/5
f 1643/3/5 1639/3/5 1642/3/5
f 1644/3/5 1641/3/5 1640/3/5
f 1645/3/5 1637/3/5 1641/3/5
f 1645/3/5 1641/3/5 1644/3/5
f 1650/3/5 1647/3/5 1646/3/5
f 1651/3/5 1647/3/5 1650/3/5
f 1652/3/5 1649/3/5 1648/3/5
f 1653/3/5 1649/3/5 1652/3/5
f 1658/2/5 1655/2/5 1654/2/5
f 1659/2/5 1655/2/5 1658/2/5
f 1660/2/5 1657/2/5 1656/2/5
f 1661/2/5 1657/2/5 1660/2/5
f 1667/3/5 1663/3/5 1662/3/5
f 1668/3/5 1663/3/5 1667/3/5
f 1669/3/5 1665/3/5 1664/3/5
f 1670/3/5 1665/3/5 1669/3/5
f 1672/3/5 1667/3/5 1666/3/5
f 1673/3/5 1667/3/5 1672/3/5
f 1674/3/5 1671/3/5 1670/3/5
f 1675/3/5 1671/3/5 1674/3/5
f 1680/3/5 1677/3/5 1676/3/5
f 1681/3/5 1677/3/5 1680/3/5
f 1682/3/5 1679/3/5 1678/3/5
f 1683/3/5 1679/3/5 1682/3/5
f 1688/3/5 1685/3/5 1684/3/5
f 1689/3/5 1685/3/5 1688/3/5
f 1690/3/5 1687/3/5 1686/3/5
f 1691/3/5 1687/3/5 1690/3/5
f 1696/2/5 1693/2/5 1692/2/5
f 1697/2/5 1693/2/5 1696/2/5
f 1698/2/5 1695/2/5 1694/2/5
f 1699/2/5 1695/2/5 1698/2/5
f 1704/3/5 1701/3/5 1700/3/5
f 1705/3/5 1701/3/5 1704/3/5
f 1706/3/5 1703/3/5 1702/3/5
f 1707/3/5 1703/3/5 1706/3/5
f 1710/6/5 1709/6/5 1708/6/5
f 1711/6/5 1709/6/5 1710/6/5
f 1712/3/5 1711/3/5 1710/3/5
f 1713/3/5 1711/3/5 1712/3/5
f 1715/3/5 1713/3/5 1712/3/5
f 1716/3/5 1713/3/5 1715/3/5
f 1719/3/5 1716/3/5 1715/3/5
f 1719/3/5 1717/3/5 1716/3/5
f 1719/3/5 1715/3/5 1714/3/5
f 1720/3/5 1717/3/5 1719/3/5
f 1722/3/5 1719/3/5 1718/3/5
f 1722/3/5 1721/3/5 1720/3/5
f 1722/3/5 1720/3/5 1719/3/5
f 1723/3/5 1721/3/5 1722/3/5
f 1728/6/5 1725/6/5 1724/6/5
f 1729/6/5 1725/6/5 1728/6/5
f 1730/6/5 1727/6/5 1726/6/5
f 1731/6/5 1727/6/5 1730/6/5
f 1732/3/6 1733/3/6 1736/3/6
f 1736/3/6 1733/3/6 1737/3/6
f 1734/3/6 1735/3/6 1738/3/6
f 1738/3/6 1735/3/6 1739/3/6
f 1740/3/6 1741/3/6 1744/3/6
f 1744/3/6 1741/3/6 1745/3/6
f 1742/3/6 1743/3/6 1746/3/6
f 1746/3/6 1743/3/6 1747/3/6
f 1748/3/6 1749/3/6 1752/3/6
f 1752/3/6 1749/3/6 1753/3/6
f 1750/3/6 1751/3/6 1756/3/6
f 1756/3/6 1751/3/6 1757/3/6
f 1753/3/6 1754/3/6 1758/3/6
f 1758/3/6 1754/3/6 1759/3/6
f 1755/3/6 1756/3/6 1760/3/6
f 1760/3/6 1756/3/6 1761/3/6
f 1762/3/6 1763/3/6 1768/3/6
f 1768/3/6 1763/3/6 1769/3/6
f 1764/2/6 1765/2/6 1770/2/6
f 1770/2/6 1765/2/6 1771/2/6
f 1766/2/6 1767/2/6 1772/2/6
f 1772/2/6 1767/2/6 1773/2/6
f 1774/3/6 1775/3/6 1778/3/6
f 1778/3/6 1775/3/6 1779/3/6
f 1776/3/6 1777/3/6 1782/3/6
f 1782/3/6 1777/3/6 1783/3/6
f 1779/3/6 1780/3/6 1784/3/6
f 1784/3/6 1780/3/6 1785/3/6
f 1781/3/6 1782/3/6 1786/3/6
f 1786/3/6 1782/3/6 1787/3/6
f 1788/3/6 1789/3/6 1792/3/6
f 1792/3/6 1789/3/6 1793/3/6
f 1790/3/6 1791/3/6 1794/3/6
f 1794/3/6 1791/3/6 1795/3/6
f 1796/2/6 1797/2/6 1799/2/6
f 1799/2/6 1797/2/6 1800/2/6
f 1798/2/6 1799/2/6 1801/2/6
f 1801/2/6 1799/2/6 1802/2/6
f 1802/2/6 1799/2/6 1803/2/6
f 1801/3/6 1802/3/6 1805/3/6
f 1805/3/6 1802/3/6 1806/3/6
f 1803/3/6 1804/3/6 1807/3/6
f 1807/3/6 1804/3/6 1808/3/6
f 1809/3/6 1810/3/6 1813/3/6
f 1813/3/6 1810/3/6 1814/3/6
f 1814/3/6 1810/3/6 1815/3/6
f 1811/3/6 1812/3/6 1818/3/6
f 1818/3/6 1812/3/6 1819/3/6
f 1819/3/6 1812/3/6 1820/3/6
f 1815/3/6 1816/3/6 1821/3/6
f 1814/3/6 1815/3/6 1821/3/6
f 1821/3/6 1816/3/6 1822/3/6
f 1822/3/6 1816/3/6 1823/3/6
f 1818/3/6 1819/3/6 1826/3/6
f 1817/3/6 1818/3/6 1826/3/6
f 1826/3/6 1819/3/6 1827/3/6
f 1827/3/6 1819/3/6 1828/3/6
f 1823/3/6 1824/3/6 1829/3/6
f 1822/3/6 1823/3/6 1829/3/6
f 1829/3/6 1824/3/6 1830/3/6
f 1826/3/6 1827/3/6 1831/3/6
f 1825/3/6 1826/3/6 1831/3/6
f 1831/3/6 1827/3/6 1832/3/6
f 1833/3/6 1834/3/6 1835/3/6
f 1835/3/6 1834/3/6 1836/3/6
f 1837/2/6 1838/2/6 1841/2/6
f 1841/2/6 1838/2/6 1842/2/6
f 1839/2/6 1840/2/6 1843/2/6
f 1843/2/6 1840/2/6 1844/2/6
f 1845/1/6 1846/1/6 1848/1/6
f 1848/1/6 1846/1/6 1849/1/6
f 1847/3/6 1848/3/6 1851/3/6
f 1849/3/6 1850/3/6 1852/3/6
f 1851/3/6 1848/3/6 1853/3/6
f 1853/3/6 1848/3/6 1854/3/6
f 1849/3/6 1852/3/6 1855/3/6
f 1855/3/6 1852/3/6 1856/3/6
f 1857/3/6 1858/3/6 1861/3/6
f 1861/3/6 1858/3/6 1862/3/6
f 1859/3/6 1860/3/6 1863/3/6
f 1863/3/6 1860/3/6 1864/3/6
f 1865/3/6 1866/3/6 1869/3/6
f 1867/3/6 1868/3/6 1872/3/6
f 1869/3/6 1870/3/6 1873/3/6
f 1865/3/6 1869/3/6 1873/3/6
f 1873/3/6 1870/3/6 1874/3/6
f 1871/3/6 1872/3/6 1875/3/6
f 1872/3/6 1868/3/6 1876/3/6
f 1875/3/6 1872/3/6 1876/3/6
f 1865/3/6 1873/3/6 1877/3/6
f 1876/3/6 1868/3/6 1880/3/6
f 1877/3/6 1878/3/6 1881/3/6
f 1865/3/6 1877/3/6 1881/3/6
f 1881/3/6 1878/3/6 1882/3/6
f 1882/3/6 1878/3/6 1883/3/6
f 1879/3/6 1880/3/6 1884/3/6
f 1880/3/6 1868/3/6 1885/3/6
f 1884/3/6 1880/3/6 1885/3/6
f 1885/3/6 1868/3/6 1886/3/6
f 1882/3/6 1883/3/6 1887/3/6
f 1883/3/6 1884/3/6 1887/3/6
f 1884/3/6 1885/3/6 1887/3/6
f 1887/3/6 1885/3/6 1888/3/6
f 1888/3/6 1885/3/6 1889/3/6
f 1889/3/6 1885/3/6 1890/3/6
f 1891/3/6 1892/3/6 1893/3/6
f 1893/3/6 1892/3/6 1894/3/6
f 1895/1/6 1896/1/6 1897/1/6
f 1897/1/6 1896/1/6 1898/1/6
f 1899/3/6 1900/3/6 1903/3/6
f 1903/3/6 1900/3/6 1904/3/6
f 1901/3/6 1902/3/6 1907/3/6
f 1907/3/6 1902/3/6 1908/3/6
f 1904/3/6 1905/3/6 1909/3/6
f 1909/3/6 1905/3/6 1910/3/6
f 1906/3/6 1907/3/6 1911/3/6
f 1911/3/6 1907/3/6 1912/3/6
f 1913/3/6 1914/3/6 1915/3/6
f 1915/3/6 1914/3/6 1916/3/6
f 1916/3/6 1914/3/6 1917/3/6
f 1917/3/6 1914/3/6 1918/3/6
f 1916/3/6 1917/3/6 1920/3/6
f 1920/3/6 1917/3/6 1921/3/6
f 1919/3/6 1920/3/6 1923/3/6
f 1921/3/6 1922/3/6 1923/3/6
f 1920/3/6 1921/3/6 1923/3/6
f 1923/3/6 1922/3/6 1924/3/6
f 1924/3/6 1922/3/6 1925/3/6
f 1925/3/6 1922/3/6 1926/3/6
f 1924/3/6 1925/3/6 1927/3/6
f 1927/3/6 1925/3/6 1928/3/6
f 1929/3/6 1930/3/6 1931/3/6
f 1931/3/6 1930/3/6 1932/3/6
f 1933/3/6 1934/3/6 1937/3/6
f 1937/3/6 1934/3/6 1938/3/6
f 1935/3/6 1936/3/6 1939/3/6
f 1939/3/6 1936/3/6 1940/3/6
f 1941/3/6 1942/3/6 1945/3/6
f 1945/3/6 1942/3/6 1946/3/6
f 1943/3/6 1944/3/6 1947/3/6
f 1947/3/6 1944/3/6 1948/3/6
f 1949/3/6 1950/3/6 1951/3/6
f 1951/3/6 1950/3/6 1952/3/6
f 1953/6/6 1954/6/6 1955/6/6
f 1955/6/6 1954/6/6 1956/6/6
f 1955/3/6 1956/3/6 1958/3/6
f 1958/3/6 1956/3/6 1959/3/6
f 1957/3/6 1958/3/6 1961/3/6
f 1961/3/6 1958/3/6 1962/3/6
f 1959/3/6 1960/3/6 1963/3/6
f 1963/3/6 1960/3/6 1964/3/6
f 1965/3/6 1966/3/6 1969/3/6
f 1969/3/6 1966/3/6 1970/3/6
f 1967/3/6 1968/3/6 1971/3/6
f 1971/3/6 1968/3/6 1972/3/6
f 1973/3/6 1974/3/6 1975/3/6
f 1975/3/6 1974/3/6 1976/3/6
f 1977/3/6 1978/3/6 1980/3/6
f 1980/3/6 1978/3/6 1981/3/6
f 1979/3/6 1980/3/6 1983/3/6
f 1981/3/6 1982/3/6 1983/3/6
f 1980/3/6 1981/3/6 1983/3/6
f 1983/3/6 1982/3/6 1984/3/6
f 1983/3/6 1984/3/6 1987/3/6
f 1987/3/6 1984/3/6 1988/3/6
f 1985/3/6 1986/3/6 1991/3/6
f 1991/3/6 1986/3/6 1992/3/6
f 1989/3/6 1990/3/6 1993/3/6
f 1993/3/6 1990/3/6 1994/3/6
f 1995/3/6 1996/3/6 1999/3/6
f 1997/3/6 1998/3/6 2000/3/6
f 1995/3/6 1999/3/6 2001/3/6
f 2001/3/6 1999/3/6 2002/3/6
f 2000/3/6 1998/3/6 2003/3/6
f 2003/3/6 1998/3/6 2004/3/6
f 2005/3/6 2006/3/6 2007/3/6
f 2007/3/6 2006/3/6 2008/3/6
f 2009/6/6 2010/6/6 2013/6/6
f 2013/6/6 2010/6/6 2014/6/6
f 2011/6/6 2012/6/6 2015/6/6
f 2015/6/6 2012/6/6 2016/6/6
f 2013/3/6 2014/3/6 2018/3/6
f 2014/3/6 2015/3/6 2018/3/6
f 2015/3/6 2016/3/6 2018/3/6
f 2018/3/6 2016/3/6 2019/3/6
f 2018/3/6 2019/3/6 2021/3/6
f 2019/3/6 2020/3/6 2021/3/6
f 2017/3/6 2018/3/6 2021/3/6
f 2021/3/6 2020/3/6 2022/3/6
f 2017/3/6 2021/3/6 2023/3/6
f 2023/3/6 2021/3/6 2024/3/6
f 2024/3/6 2021/3/6 2025/3/6
f 2022/3/6 2020/3/6 2026/3/6
f 2026/3/6 2020/3/6 2027/3/6
f 2027/3/6 2020/3/6 2028/3/6
f 2029/3/6 2030/3/6 2033/3/6
f 2033/3/6 2030/3/6 2034/3/6
f 2031/3/6 2032/3/6 2035/3/6
f 2035/3/6 2032/3/6 2036/3/6
f 2034/3/6 2035/3/6 2037/3/6
f 2037/3/6 2035/3/6 2038/3/6
f 2039/3/6 2040/3/6 2041/3/6
f 2041/3/6 2040/3/6 2042/3/6
f 2042/3/6 2040/3/6 2043/3/6
f 2043/3/6 2040/3/6 2044/3/6
f 2044/3/6 2040/3/6 2045/3/6
f 2045/3/6 2040/3/6 2046/3/6
f 2047/5/6 2048/5/6 2051/5/6
f 2051/5/6 2048/5/6 2052/5/6
f 2043/3/6 2044/3/6 2055/3/6
f 2055/3/6 2044/3/6 2056/3/6
f 2049/5/6 2050/5/6 2059/5/6
f 2059/5/6 2050/5/6 2060/5/6
f 2057/3/6 2058/3/6 2061/3/6
f 2053/3/6 2054/3/6 2061/3/6
f 2056/3/6 2057/3/6 2061/3/6
f 2055/3/6 2056/3/6 2061/3/6
f 2054/3/6 2055/3/6 2061/3/6
f 2061/3/6 2058/3/6 2062/3/6
f 2063/3/6 2064/3/6 2069/3/6
f 2064/5/6 2065/5/6 2070/5/6
f 2069/3/6 2064/3/6 2070/3/6
f 2070/5/6 2065/5/6 2071/5/6
f 2066/5/6 2067/5/6 2072/5/6
f 2067/3/6 2068/3/6 2073/3/6
f 2072/5/6 2067/5/6 2073/5/6
f 2073/3/6 2068/3/6 2074/3/6
f 2075/5/6 2076/5/6 2079/5/6
f 2079/5/6 2076/5/6 2080/5/6
f 2077/5/6 2078/5/6 2085/5/6
f 2085/5/6 2078/5/6 2086/5/6
f 2081/5/6 2082/5/6 2087/5/6
f 2087/5/6 2082/5/6 2088/5/6
f 2083/5/6 2084/5/6 2089/5/6
f 2089/5/6 2084/5/6 2090/5/6
f 2091/5/6 2092/5/6 2099/5/6
f 2099/5/6 2092/5/6 2100/5/6
f 2093/5/6 2094/5/6 2101/5/6
f 2101/5/6 2094/5/6 2102/5/6
f 2095/5/6 2096/5/6 2103/5/6
f 2103/5/6 2096/5/6 2104/5/6
f 2097/5/6 2098/5/6 2105/5/6
f 2105/5/6 2098/5/6 2106/5/6
f 2107/6/6 2108/6/6 2111/6/6
f 2111/6/6 2108/6/6 2112/6/6
f 2109/6/6 2110/6/6 2113/6/6
f 2113/6/6 2110/6/6 2114/6/6
