# MagicaVoxel @ Ephtracy

# group
o 

# material
mtllib fox.mtl
usemtl palette

# normals
vn -1 0 0
vn 1 0 0
vn 0 0 1
vn 0 0 -1
vn 0 -1 0
vn 0 1 0

# texcoords
vt 0.0253906 0.5
vt 0.0292969 0.5
vt 0.0878906 0.5
vt 0.0917969 0.5
vt 0.990234 0.5
vt 0.994141 0.5

# verts
v -0.6 0.9 -0.9
v -0.6 0.9 -1.1
v -0.6 1 -0.8
v -0.6 1 -0.9
v -0.6 1 -1.1
v -0.6 1 -1.2
v -0.6 1.1 0.1
v -0.6 1.1 -0.8
v -0.6 1.2 0.2
v -0.6 1.2 0.1
v -0.6 1.3 0.3
v -0.6 1.3 0.2
v -0.6 1.3 -1.1
v -0.6 1.3 -1.2
v -0.6 1.5 0.4
v -0.6 1.5 0.3
v -0.6 1.5 -1
v -0.6 1.5 -1.1
v -0.6 1.6 0.8
v -0.6 1.6 0.6
v -0.6 1.6 0.4
v -0.6 1.6 0.3
v -0.6 1.6 0.2
v -0.6 1.6 -1
v -0.6 1.7 0.6
v -0.6 1.7 0.5
v -0.6 1.7 0.3
v -0.6 1.7 0.2
v -0.6 2 0.6
v -0.6 2 0.5
v -0.6 2.1 0.8
v -0.6 2.1 0.7
v -0.6 2.1 0.6
v -0.6 2.2 0.7
v -0.6 2.2 0.6
v -0.5 0 0.4
v -0.5 0 0.1
v -0.5 0 -0.9
v -0.5 0 -1.2
v -0.5 0.1 0.4
v -0.5 0.1 0.3
v -0.5 0.1 -0.9
v -0.5 0.1 -1
v -0.5 0.9 0.3
v -0.5 0.9 0.1
v -0.5 0.9 -0.1
v -0.5 0.9 -0.7
v -0.5 0.9 -0.9
v -0.5 0.9 -1
v -0.5 0.9 -1.1
v -0.5 0.9 -1.2
v -0.5 0.9 -1.3
v -0.5 1 -0.1
v -0.5 1 -0.7
v -0.5 1 -0.8
v -0.5 1 -0.9
v -0.5 1 -1.1
v -0.5 1 -1.2
v -0.5 1.1 0.1
v -0.5 1.1 -0.8
v -0.5 1.2 0.4
v -0.5 1.2 0.3
v -0.5 1.2 0.2
v -0.5 1.2 0.1
v -0.5 1.3 0.3
v -0.5 1.3 0.2
v -0.5 1.3 -1.1
v -0.5 1.3 -1.2
v -0.5 1.3 -1.3
v -0.5 1.4 0.5
v -0.5 1.4 0.4
v -0.5 1.5 0.8
v -0.5 1.5 0.5
v -0.5 1.5 0.4
v -0.5 1.5 0.3
v -0.5 1.5 -1
v -0.5 1.5 -1.1
v -0.5 1.5 -1.2
v -0.5 1.6 0.9
v -0.5 1.6 0.8
v -0.5 1.6 0.6
v -0.5 1.6 0.4
v -0.5 1.6 0.3
v -0.5 1.6 0.2
v -0.5 1.6 0.1
v -0.5 1.6 -1
v -0.5 1.6 -1.1
v -0.5 1.7 0.6
v -0.5 1.7 0.5
v -0.5 1.7 0.3
v -0.5 1.7 0.2
v -0.5 1.7 0.1
v -0.5 1.8 0.3
v -0.5 1.8 0.2
v -0.5 1.9 0.4
v -0.5 1.9 0.3
v -0.5 2 0.6
v -0.5 2 0.5
v -0.5 2.1 0.9
v -0.5 2.1 0.8
v -0.5 2.1 0.7
v -0.5 2.1 0.6
v -0.5 2.2 0.8
v -0.5 2.2 0.7
v -0.5 2.2 0.6
v -0.5 2.2 0.4
v -0.5 2.4 0.8
v -0.5 2.4 0.7
v -0.5 2.5 0.7
v -0.5 2.5 0.6
v -0.4 0.8 -0.1
v -0.4 0.8 -0.7
v -0.4 0.9 -0.1
v -0.4 0.9 -0.7
v -0.4 1.4 0.8
v -0.4 1.4 0.6
v -0.4 1.5 0.9
v -0.4 1.5 0.8
v -0.4 1.5 0.6
v -0.4 1.5 -1.1
v -0.4 1.5 -1.2
v -0.4 1.6 1
v -0.4 1.6 0.9
v -0.4 1.6 0.8
v -0.4 1.6 0.1
v -0.4 1.6 -1
v -0.4 1.6 -1.1
v -0.4 1.6 -1.2
v -0.4 1.7 0.2
v -0.4 1.7 0.1
v -0.4 1.7 -1
v -0.4 1.8 0.3
v -0.4 1.8 0.2
v -0.4 1.8 0.1
v -0.4 1.9 0.4
v -0.4 1.9 0.3
v -0.4 1.9 0.2
v -0.4 2 1
v -0.4 2 0.9
v -0.4 2 0.4
v -0.4 2 0.3
v -0.4 2.4 0.8
v -0.4 2.4 0.7
v -0.4 2.5 0.8
v -0.4 2.5 0.7
v -0.4 2.5 0.6
v -0.4 2.6 0.8
v -0.4 2.6 0.6
v -0.3 0.8 0
v -0.3 0.8 -0.1
v -0.3 0.8 -0.7
v -0.3 0.8 -0.9
v -0.3 0.9 0
v -0.3 0.9 -0.1
v -0.3 0.9 -0.7
v -0.3 0.9 -0.8
v -0.3 0.9 -0.9
v -0.3 1.4 0.6
v -0.3 1.4 0.5
v -0.3 1.5 1
v -0.3 1.5 0.9
v -0.3 1.5 0.6
v -0.3 1.5 0.5
v -0.3 1.6 1
v -0.3 1.6 0.9
v -0.3 1.6 -1
v -0.3 1.6 -1.1
v -0.3 1.7 0
v -0.3 1.7 -0.9
v -0.3 1.7 -1
v -0.3 1.7 -1.1
v -0.3 1.8 0
v -0.3 1.8 -0.9
v -0.3 1.9 1.1
v -0.3 1.9 1
v -0.3 2 1.1
v -0.3 2 1
v -0.3 2 0.9
v -0.3 2.1 1
v -0.3 2.1 0.9
v -0.2 0.7 -1.2
v -0.2 0.7 -1.4
v -0.2 0.8 -1.2
v -0.2 0.8 -1.3
v -0.2 0.8 -1.4
v -0.2 0.9 -1.3
v -0.2 0.9 -1.4
v -0.2 0.9 -1.5
v -0.2 1 -1.2
v -0.2 1 -1.3
v -0.2 1 -1.4
v -0.2 1 -1.5
v -0.2 1.3 -1.2
v -0.2 1.3 -1.3
v -0.2 1.5 1.2
v -0.2 1.5 1
v -0.2 1.5 -1.4
v -0.2 1.5 -1.5
v -0.2 1.6 1.3
v -0.2 1.6 1.2
v -0.2 1.6 1
v -0.2 1.6 -1.1
v -0.2 1.6 -1.2
v -0.2 1.7 1.3
v -0.2 1.7 1.2
v -0.2 1.7 0.1
v -0.2 1.7 0
v -0.2 1.7 -0.9
v -0.2 1.7 -1
v -0.2 1.7 -1.1
v -0.2 1.7 -1.3
v -0.2 1.7 -1.4
v -0.2 1.8 1.3
v -0.2 1.8 1.2
v -0.2 1.8 0.1
v -0.2 1.8 0
v -0.2 1.8 -0.9
v -0.2 1.8 -1
v -0.2 1.8 -1.1
v -0.2 1.8 -1.3
v -0.2 1.9 1.2
v -0.2 1.9 1.1
v -0.2 1.9 1
v -0.1 0.6 -1.2
v -0.1 0.6 -1.4
v -0.1 0.7 -1.2
v -0.1 0.7 -1.4
v -0.1 0.8 -1.4
v -0.1 0.8 -1.5
v -0.1 0.9 -1.4
v -0.1 0.9 -1.5
v -0.1 1.5 1.3
v -0.1 1.5 1.2
v -0.1 1.5 -1.4
v -0.1 1.5 -1.5
v -0.1 1.6 1.5
v -0.1 1.6 1.3
v -0.1 1.6 1.2
v -0.1 1.6 -1.4
v -0.1 1.6 -1.5
v -0.1 1.7 1.5
v -0.1 1.7 1.4
v -0.1 1.7 1.3
v -0.1 1.8 1.5
v -0.1 1.8 1.4
v -0.1 1.8 1.3
v -0.1 1.8 1.2
v -0.1 1.9 1.3
v -0.1 1.9 1.2
v 0.1 2.2 0.8
v 0.1 2.2 0.7
v 0.1 2.2 0.6
v 0.1 2.3 0.8
v 0.1 2.3 0.7
v 0.1 2.4 0.7
v 0.1 2.4 0.6
v 0.2 1.9 1.1
v 0.2 1.9 1
v 0.2 2 1.1
v 0.2 2 1
v 0.2 2.3 0.8
v 0.2 2.3 0.7
v 0.2 2.4 0.8
v 0.2 2.4 0.7
v 0.2 2.4 0.6
v 0.2 2.5 0.7
v 0.2 2.5 0.6
v 0.3 0 0.4
v 0.3 0 0.1
v 0.3 0 -0.9
v 0.3 0 -1.2
v 0.3 0.1 0.4
v 0.3 0.1 0.3
v 0.3 0.1 -0.9
v 0.3 0.1 -1
v 0.3 0.9 0.3
v 0.3 0.9 0.1
v 0.3 0.9 -1
v 0.3 0.9 -1.2
v 0.3 0.9 -1.3
v 0.3 1 0.3
v 0.3 1 0.1
v 0.3 1 -1
v 0.3 1 -1.3
v 0.3 2.4 0.8
v 0.3 2.4 0.7
v 0.3 2.5 0.8
v 0.3 2.5 0.7
v 0.3 2.5 0.6
v 0.3 2.6 0.8
v 0.3 2.6 0.6
v -0.3 0 0.4
v -0.3 0 0.1
v -0.3 0 -0.9
v -0.3 0 -1.2
v -0.3 0.1 0.4
v -0.3 0.1 0.3
v -0.3 0.1 -0.9
v -0.3 0.1 -1
v -0.3 0.9 0.3
v -0.3 0.9 0.1
v -0.3 0.9 -1
v -0.3 0.9 -1.2
v -0.3 0.9 -1.3
v -0.3 1 0.3
v -0.3 1 0.1
v -0.3 1 -1
v -0.3 1 -1.3
v -0.3 2.4 0.8
v -0.3 2.4 0.7
v -0.3 2.5 0.8
v -0.3 2.5 0.7
v -0.3 2.5 0.6
v -0.3 2.6 0.8
v -0.3 2.6 0.6
v -0.2 1.9 1.1
v -0.2 1.9 1
v -0.2 2 1.1
v -0.2 2 1
v -0.2 2.3 0.8
v -0.2 2.3 0.7
v -0.2 2.4 0.8
v -0.2 2.4 0.7
v -0.2 2.4 0.6
v -0.2 2.5 0.7
v -0.2 2.5 0.6
v -0.1 2.2 0.8
v -0.1 2.2 0.7
v -0.1 2.2 0.6
v -0.1 2.3 0.8
v -0.1 2.3 0.7
v -0.1 2.4 0.7
v -0.1 2.4 0.6
v 0.1 0.6 -1.2
v 0.1 0.6 -1.4
v 0.1 0.7 -1.2
v 0.1 0.7 -1.4
v 0.1 0.8 -1.4
v 0.1 0.8 -1.5
v 0.1 0.9 -1.4
v 0.1 0.9 -1.5
v 0.1 1.5 1.3
v 0.1 1.5 1.2
v 0.1 1.5 -1.4
v 0.1 1.5 -1.5
v 0.1 1.6 1.5
v 0.1 1.6 1.3
v 0.1 1.6 1.2
v 0.1 1.6 -1.4
v 0.1 1.6 -1.5
v 0.1 1.7 1.5
v 0.1 1.7 1.4
v 0.1 1.7 1.3
v 0.1 1.8 1.5
v 0.1 1.8 1.4
v 0.1 1.8 1.3
v 0.1 1.8 1.2
v 0.1 1.9 1.3
v 0.1 1.9 1.2
v 0.2 0.7 -1.2
v 0.2 0.7 -1.4
v 0.2 0.8 -1.2
v 0.2 0.8 -1.3
v 0.2 0.8 -1.4
v 0.2 0.9 -1.3
v 0.2 0.9 -1.4
v 0.2 0.9 -1.5
v 0.2 1 -1.2
v 0.2 1 -1.3
v 0.2 1 -1.4
v 0.2 1 -1.5
v 0.2 1.3 -1.2
v 0.2 1.3 -1.3
v 0.2 1.5 1.2
v 0.2 1.5 1
v 0.2 1.5 -1.4
v 0.2 1.5 -1.5
v 0.2 1.6 1.3
v 0.2 1.6 1.2
v 0.2 1.6 1
v 0.2 1.6 -1.1
v 0.2 1.6 -1.2
v 0.2 1.7 1.3
v 0.2 1.7 1.2
v 0.2 1.7 0.1
v 0.2 1.7 0
v 0.2 1.7 -0.9
v 0.2 1.7 -1
v 0.2 1.7 -1.1
v 0.2 1.7 -1.3
v 0.2 1.7 -1.4
v 0.2 1.8 1.3
v 0.2 1.8 1.2
v 0.2 1.8 0.1
v 0.2 1.8 0
v 0.2 1.8 -0.9
v 0.2 1.8 -1
v 0.2 1.8 -1.1
v 0.2 1.8 -1.3
v 0.2 1.9 1.2
v 0.2 1.9 1.1
v 0.2 1.9 1
v 0.3 0.8 0
v 0.3 0.8 -0.1
v 0.3 0.8 -0.7
v 0.3 0.8 -0.9
v 0.3 0.9 0
v 0.3 0.9 -0.1
v 0.3 0.9 -0.7
v 0.3 0.9 -0.8
v 0.3 0.9 -0.9
v 0.3 1.4 0.6
v 0.3 1.4 0.5
v 0.3 1.5 1
v 0.3 1.5 0.9
v 0.3 1.5 0.6
v 0.3 1.5 0.5
v 0.3 1.6 1
v 0.3 1.6 0.9
v 0.3 1.6 -1
v 0.3 1.6 -1.1
v 0.3 1.7 0
v 0.3 1.7 -0.9
v 0.3 1.7 -1
v 0.3 1.7 -1.1
v 0.3 1.8 0
v 0.3 1.8 -0.9
v 0.3 1.9 1.1
v 0.3 1.9 1
v 0.3 2 1.1
v 0.3 2 1
v 0.3 2 0.9
v 0.3 2.1 1
v 0.3 2.1 0.9
v 0.4 0.8 -0.1
v 0.4 0.8 -0.7
v 0.4 0.9 -0.1
v 0.4 0.9 -0.7
v 0.4 1.4 0.8
v 0.4 1.4 0.6
v 0.4 1.5 0.9
v 0.4 1.5 0.8
v 0.4 1.5 0.6
v 0.4 1.5 -1.1
v 0.4 1.5 -1.2
v 0.4 1.6 1
v 0.4 1.6 0.9
v 0.4 1.6 0.8
v 0.4 1.6 0.1
v 0.4 1.6 -1
v 0.4 1.6 -1.1
v 0.4 1.6 -1.2
v 0.4 1.7 0.2
v 0.4 1.7 0.1
v 0.4 1.7 -1
v 0.4 1.8 0.3
v 0.4 1.8 0.2
v 0.4 1.8 0.1
v 0.4 1.9 0.4
v 0.4 1.9 0.3
v 0.4 1.9 0.2
v 0.4 2 1
v 0.4 2 0.9
v 0.4 2 0.4
v 0.4 2 0.3
v 0.4 2.4 0.8
v 0.4 2.4 0.7
v 0.4 2.5 0.8
v 0.4 2.5 0.7
v 0.4 2.5 0.6
v 0.4 2.6 0.8
v 0.4 2.6 0.6
v 0.5 0 0.4
v 0.5 0 0.1
v 0.5 0 -0.9
v 0.5 0 -1.2
v 0.5 0.1 0.4
v 0.5 0.1 0.3
v 0.5 0.1 -0.9
v 0.5 0.1 -1
v 0.5 0.9 0.3
v 0.5 0.9 0.1
v 0.5 0.9 -0.1
v 0.5 0.9 -0.7
v 0.5 0.9 -0.9
v 0.5 0.9 -1
v 0.5 0.9 -1.1
v 0.5 0.9 -1.2
v 0.5 0.9 -1.3
v 0.5 1 -0.1
v 0.5 1 -0.7
v 0.5 1 -0.8
v 0.5 1 -0.9
v 0.5 1 -1.1
v 0.5 1 -1.2
v 0.5 1.1 0.1
v 0.5 1.1 -0.8
v 0.5 1.2 0.4
v 0.5 1.2 0.3
v 0.5 1.2 0.2
v 0.5 1.2 0.1
v 0.5 1.3 0.3
v 0.5 1.3 0.2
v 0.5 1.3 -1.1
v 0.5 1.3 -1.2
v 0.5 1.3 -1.3
v 0.5 1.4 0.5
v 0.5 1.4 0.4
v 0.5 1.5 0.8
v 0.5 1.5 0.5
v 0.5 1.5 0.4
v 0.5 1.5 0.3
v 0.5 1.5 -1
v 0.5 1.5 -1.1
v 0.5 1.5 -1.2
v 0.5 1.6 0.9
v 0.5 1.6 0.8
v 0.5 1.6 0.7
v 0.5 1.6 0.4
v 0.5 1.6 0.3
v 0.5 1.6 0.2
v 0.5 1.6 0.1
v 0.5 1.6 -1
v 0.5 1.6 -1.1
v 0.5 1.7 0.7
v 0.5 1.7 0.5
v 0.5 1.7 0.3
v 0.5 1.7 0.2
v 0.5 1.7 0.1
v 0.5 1.8 0.3
v 0.5 1.8 0.2
v 0.5 1.9 0.4
v 0.5 1.9 0.3
v 0.5 2 0.6
v 0.5 2 0.5
v 0.5 2.1 0.9
v 0.5 2.1 0.8
v 0.5 2.1 0.7
v 0.5 2.1 0.6
v 0.5 2.2 0.8
v 0.5 2.2 0.7
v 0.5 2.2 0.6
v 0.5 2.2 0.4
v 0.5 2.4 0.8
v 0.5 2.4 0.7
v 0.5 2.5 0.7
v 0.5 2.5 0.6
v 0.6 0.9 -0.9
v 0.6 0.9 -1.1
v 0.6 1 -0.8
v 0.6 1 -0.9
v 0.6 1 -1.1
v 0.6 1 -1.2
v 0.6 1.1 0.1
v 0.6 1.1 -0.8
v 0.6 1.2 0.2
v 0.6 1.2 0.1
v 0.6 1.3 0.3
v 0.6 1.3 0.2
v 0.6 1.3 -1.1
v 0.6 1.3 -1.2
v 0.6 1.5 0.4
v 0.6 1.5 0.3
v 0.6 1.5 -1
v 0.6 1.5 -1.1
v 0.6 1.6 0.8
v 0.6 1.6 0.7
v 0.6 1.6 0.4
v 0.6 1.6 0.3
v 0.6 1.6 0.2
v 0.6 1.6 -1
v 0.6 1.7 0.7
v 0.6 1.7 0.5
v 0.6 1.7 0.3
v 0.6 1.7 0.2
v 0.6 2 0.6
v 0.6 2 0.5
v 0.6 2.1 0.8
v 0.6 2.1 0.7
v 0.6 2.1 0.6
v 0.6 2.2 0.7
v 0.6 2.2 0.6
v -0.1 1.6 1.5
v -0.1 1.7 1.5
v -0.1 1.8 1.5
v 0.1 1.6 1.5
v 0.1 1.7 1.5
v 0.1 1.8 1.5
v -0.2 1.6 1.3
v -0.2 1.7 1.3
v -0.2 1.8 1.3
v -0.1 1.5 1.3
v -0.1 1.6 1.3
v -0.1 1.7 1.3
v -0.1 1.8 1.3
v -0.1 1.9 1.3
v 0.1 1.5 1.3
v 0.1 1.6 1.3
v 0.1 1.7 1.3
v 0.1 1.8 1.3
v 0.1 1.9 1.3
v 0.2 1.6 1.3
v 0.2 1.7 1.3
v 0.2 1.8 1.3
v -0.2 1.5 1.2
v -0.2 1.6 1.2
v -0.2 1.8 1.2
v -0.2 1.9 1.2
v -0.1 1.5 1.2
v -0.1 1.6 1.2
v -0.1 1.8 1.2
v -0.1 1.9 1.2
v 0.1 1.5 1.2
v 0.1 1.6 1.2
v 0.1 1.8 1.2
v 0.1 1.9 1.2
v 0.2 1.5 1.2
v 0.2 1.6 1.2
v 0.2 1.8 1.2
v 0.2 1.9 1.2
v -0.3 1.9 1.1
v -0.3 2 1.1
v -0.2 1.9 1.1
v -0.2 2 1.1
v 0.2 1.9 1.1
v 0.2 2 1.1
v 0.3 1.9 1.1
v 0.3 2 1.1
v -0.4 1.6 1
v -0.4 2 1
v -0.3 1.5 1
v -0.3 1.6 1
v -0.3 1.9 1
v -0.3 2 1
v -0.3 2.1 1
v -0.2 1.5 1
v -0.2 1.6 1
v -0.2 1.9 1
v -0.2 2 1
v 0.2 1.5 1
v 0.2 1.6 1
v 0.2 1.9 1
v 0.2 2 1
v 0.3 1.5 1
v 0.3 1.6 1
v 0.3 1.9 1
v 0.3 2 1
v 0.3 2.1 1
v 0.4 1.6 1
v 0.4 2 1
v -0.5 1.6 0.9
v -0.5 2.1 0.9
v -0.4 1.5 0.9
v -0.4 1.6 0.9
v -0.4 2 0.9
v -0.3 1.5 0.9
v -0.3 1.6 0.9
v -0.3 2 0.9
v -0.3 2.1 0.9
v 0.3 1.5 0.9
v 0.3 1.6 0.9
v 0.3 2 0.9
v 0.3 2.1 0.9
v 0.4 1.5 0.9
v 0.4 1.6 0.9
v 0.4 2 0.9
v 0.5 1.6 0.9
v 0.5 2.1 0.9
v -0.6 1.6 0.8
v -0.6 2.1 0.8
v -0.5 1.5 0.8
v -0.5 1.6 0.8
v -0.5 2.1 0.8
v -0.5 2.2 0.8
v -0.5 2.4 0.8
v -0.4 1.4 0.8
v -0.4 1.5 0.8
v -0.4 1.6 0.8
v -0.4 2.2 0.8
v -0.4 2.4 0.8
v -0.4 2.5 0.8
v -0.4 2.6 0.8
v -0.3 2.3 0.8
v -0.3 2.4 0.8
v -0.3 2.5 0.8
v -0.3 2.6 0.8
v -0.2 2.2 0.8
v -0.2 2.3 0.8
v -0.2 2.4 0.8
v -0.1 2.2 0.8
v -0.1 2.3 0.8
v 0.1 2.2 0.8
v 0.1 2.3 0.8
v 0.2 2.2 0.8
v 0.2 2.3 0.8
v 0.2 2.4 0.8
v 0.3 2.3 0.8
v 0.3 2.4 0.8
v 0.3 2.5 0.8
v 0.3 2.6 0.8
v 0.4 1.4 0.8
v 0.4 1.5 0.8
v 0.4 1.6 0.8
v 0.4 2.2 0.8
v 0.4 2.4 0.8
v 0.4 2.5 0.8
v 0.4 2.6 0.8
v 0.5 1.5 0.8
v 0.5 1.6 0.8
v 0.5 2.1 0.8
v 0.5 2.2 0.8
v 0.5 2.4 0.8
v 0.6 1.6 0.8
v 0.6 2.1 0.8
v -0.6 2.1 0.7
v -0.6 2.2 0.7
v -0.5 2.1 0.7
v -0.5 2.2 0.7
v -0.5 2.4 0.7
v -0.5 2.5 0.7
v -0.4 2.4 0.7
v -0.4 2.5 0.7
v -0.3 2.4 0.7
v -0.3 2.5 0.7
v -0.2 2.3 0.7
v -0.2 2.4 0.7
v -0.2 2.5 0.7
v -0.1 2.3 0.7
v -0.1 2.4 0.7
v 0.1 2.3 0.7
v 0.1 2.4 0.7
v 0.2 2.3 0.7
v 0.2 2.4 0.7
v 0.2 2.5 0.7
v 0.3 2.4 0.7
v 0.3 2.5 0.7
v 0.4 2.4 0.7
v 0.4 2.5 0.7
v 0.5 2.1 0.7
v 0.5 2.2 0.7
v 0.5 2.4 0.7
v 0.5 2.5 0.7
v 0.6 2.1 0.7
v 0.6 2.2 0.7
v -0.5 1.4 0.5
v -0.5 1.5 0.5
v -0.4 1.4 0.5
v -0.4 1.5 0.5
v -0.3 1.4 0.5
v -0.3 1.5 0.5
v 0.3 1.4 0.5
v 0.3 1.5 0.5
v 0.4 1.4 0.5
v 0.4 1.5 0.5
v 0.5 1.4 0.5
v 0.5 1.5 0.5
v -0.6 1.5 0.4
v -0.6 1.6 0.4
v -0.5 0 0.4
v -0.5 0.1 0.4
v -0.5 1.2 0.4
v -0.5 1.4 0.4
v -0.5 1.5 0.4
v -0.5 1.6 0.4
v -0.4 1.2 0.4
v -0.4 1.4 0.4
v -0.3 0 0.4
v -0.3 0.1 0.4
v 0.3 0 0.4
v 0.3 0.1 0.4
v 0.4 1.2 0.4
v 0.4 1.4 0.4
v 0.5 0 0.4
v 0.5 0.1 0.4
v 0.5 1.2 0.4
v 0.5 1.4 0.4
v 0.5 1.5 0.4
v 0.5 1.6 0.4
v 0.6 1.5 0.4
v 0.6 1.6 0.4
v -0.6 1.3 0.3
v -0.6 1.5 0.3
v -0.6 1.6 0.3
v -0.6 1.7 0.3
v -0.5 0.1 0.3
v -0.5 0.9 0.3
v -0.5 1.2 0.3
v -0.5 1.3 0.3
v -0.5 1.5 0.3
v -0.5 1.6 0.3
v -0.5 1.7 0.3
v -0.4 1.1 0.3
v -0.4 1.2 0.3
v -0.3 0.1 0.3
v -0.3 0.9 0.3
v -0.3 1 0.3
v -0.3 1.1 0.3
v 0.3 0.1 0.3
v 0.3 0.9 0.3
v 0.3 1 0.3
v 0.3 1.1 0.3
v 0.4 1.1 0.3
v 0.4 1.2 0.3
v 0.5 0.1 0.3
v 0.5 0.9 0.3
v 0.5 1.2 0.3
v 0.5 1.3 0.3
v 0.5 1.5 0.3
v 0.5 1.6 0.3
v 0.5 1.7 0.3
v 0.6 1.3 0.3
v 0.6 1.5 0.3
v 0.6 1.6 0.3
v 0.6 1.7 0.3
v -0.6 1.2 0.2
v -0.6 1.3 0.2
v -0.5 1.2 0.2
v -0.5 1.3 0.2
v 0.5 1.2 0.2
v 0.5 1.3 0.2
v 0.6 1.2 0.2
v 0.6 1.3 0.2
v -0.6 1.1 0.1
v -0.6 1.2 0.1
v -0.5 1.1 0.1
v -0.5 1.2 0.1
v -0.3 0.9 0.1
v -0.3 1 0.1
v 0.3 0.9 0.1
v 0.3 1 0.1
v 0.5 1.1 0.1
v 0.5 1.2 0.1
v 0.6 1.1 0.1
v 0.6 1.2 0.1
v -0.3 0.8 0
v -0.3 0.9 0
v -0.3 1.7 0
v -0.3 1.8 0
v -0.2 1.7 0
v -0.2 1.8 0
v 0.2 1.7 0
v 0.2 1.8 0
v 0.3 0.8 0
v 0.3 0.9 0
v 0.3 1.7 0
v 0.3 1.8 0
v -0.4 0.8 -0.1
v -0.4 0.9 -0.1
v -0.3 0.8 -0.1
v -0.3 0.9 -0.1
v 0.3 0.8 -0.1
v 0.3 0.9 -0.1
v 0.4 0.8 -0.1
v 0.4 0.9 -0.1
v -0.6 1 -0.8
v -0.6 1.1 -0.8
v -0.5 1 -0.8
v -0.5 1.1 -0.8
v 0.5 1 -0.8
v 0.5 1.1 -0.8
v 0.6 1 -0.8
v 0.6 1.1 -0.8
v -0.6 0.9 -0.9
v -0.6 1 -0.9
v -0.5 0 -0.9
v -0.5 0.1 -0.9
v -0.5 0.9 -0.9
v -0.5 1 -0.9
v -0.3 0 -0.9
v -0.3 0.1 -0.9
v 0.3 0 -0.9
v 0.3 0.1 -0.9
v 0.5 0 -0.9
v 0.5 0.1 -0.9
v 0.5 0.9 -0.9
v 0.5 1 -0.9
v 0.6 0.9 -0.9
v 0.6 1 -0.9
v -0.5 0.1 -1
v -0.5 0.9 -1
v -0.3 0.1 -1
v -0.3 0.9 -1
v 0.3 0.1 -1
v 0.3 0.9 -1
v 0.5 0.1 -1
v 0.5 0.9 -1
v -0.2 1.7 -1.1
v -0.2 1.8 -1.1
v 0.2 1.7 -1.1
v 0.2 1.8 -1.1
v -0.2 0.7 -1.2
v -0.2 0.8 -1.2
v -0.2 1 -1.2
v -0.1 0.6 -1.2
v -0.1 0.7 -1.2
v -0.1 0.8 -1.2
v 0.1 0.6 -1.2
v 0.1 0.7 -1.2
v 0.1 0.8 -1.2
v 0.2 0.7 -1.2
v 0.2 0.8 -1.2
v 0.2 1 -1.2
v 0.5 1.6 0.7
v 0.5 1.7 0.7
v 0.6 1.6 0.7
v 0.6 1.7 0.7
v -0.6 1.6 0.6
v -0.6 1.7 0.6
v -0.6 2 0.6
v -0.6 2.1 0.6
v -0.6 2.2 0.6
v -0.5 1.6 0.6
v -0.5 1.7 0.6
v -0.5 2 0.6
v -0.5 2.1 0.6
v -0.5 2.2 0.6
v -0.5 2.5 0.6
v -0.4 1.4 0.6
v -0.4 1.5 0.6
v -0.4 2.5 0.6
v -0.4 2.6 0.6
v -0.3 1.4 0.6
v -0.3 1.5 0.6
v -0.3 2.5 0.6
v -0.3 2.6 0.6
v -0.2 2.4 0.6
v -0.2 2.5 0.6
v -0.1 2.2 0.6
v -0.1 2.4 0.6
v 0.1 2.2 0.6
v 0.1 2.4 0.6
v 0.2 2.4 0.6
v 0.2 2.5 0.6
v 0.3 1.4 0.6
v 0.3 1.5 0.6
v 0.3 2.5 0.6
v 0.3 2.6 0.6
v 0.4 1.4 0.6
v 0.4 1.5 0.6
v 0.4 2.5 0.6
v 0.4 2.6 0.6
v 0.5 2 0.6
v 0.5 2.1 0.6
v 0.5 2.2 0.6
v 0.5 2.5 0.6
v 0.6 2 0.6
v 0.6 2.1 0.6
v 0.6 2.2 0.6
v -0.6 1.7 0.5
v -0.6 2 0.5
v -0.5 1.7 0.5
v -0.5 2 0.5
v 0.5 1.7 0.5
v 0.5 2 0.5
v 0.6 1.7 0.5
v 0.6 2 0.5
v -0.5 1.9 0.4
v -0.5 2.2 0.4
v -0.4 1.9 0.4
v -0.4 2 0.4
v 0.4 1.9 0.4
v 0.4 2 0.4
v 0.5 1.9 0.4
v 0.5 2.2 0.4
v -0.5 1.8 0.3
v -0.5 1.9 0.3
v -0.4 1.8 0.3
v -0.4 1.9 0.3
v -0.4 2 0.3
v 0.4 1.8 0.3
v 0.4 1.9 0.3
v 0.4 2 0.3
v 0.5 1.8 0.3
v 0.5 1.9 0.3
v -0.6 1.6 0.2
v -0.6 1.7 0.2
v -0.5 1.6 0.2
v -0.5 1.7 0.2
v -0.5 1.8 0.2
v -0.4 1.7 0.2
v -0.4 1.8 0.2
v -0.4 1.9 0.2
v 0.4 1.7 0.2
v 0.4 1.8 0.2
v 0.4 1.9 0.2
v 0.5 1.6 0.2
v 0.5 1.7 0.2
v 0.5 1.8 0.2
v 0.6 1.6 0.2
v 0.6 1.7 0.2
v -0.5 0 0.1
v -0.5 0.9 0.1
v -0.5 1.6 0.1
v -0.5 1.7 0.1
v -0.4 0.9 0.1
v -0.4 1.6 0.1
v -0.4 1.7 0.1
v -0.4 1.8 0.1
v -0.3 0 0.1
v -0.3 0.9 0.1
v -0.2 1.7 0.1
v -0.2 1.8 0.1
v 0.2 1.7 0.1
v 0.2 1.8 0.1
v 0.3 0 0.1
v 0.3 0.9 0.1
v 0.4 0.9 0.1
v 0.4 1.6 0.1
v 0.4 1.7 0.1
v 0.4 1.8 0.1
v 0.5 0 0.1
v 0.5 0.9 0.1
v 0.5 1.6 0.1
v 0.5 1.7 0.1
v -0.4 0.8 -0.7
v -0.4 0.9 -0.7
v -0.3 0.8 -0.7
v -0.3 0.9 -0.7
v 0.3 0.8 -0.7
v 0.3 0.9 -0.7
v 0.4 0.8 -0.7
v 0.4 0.9 -0.7
v -0.3 0.8 -0.9
v -0.3 0.9 -0.9
v -0.3 1.7 -0.9
v -0.3 1.8 -0.9
v -0.2 0.9 -0.9
v -0.2 1.7 -0.9
v -0.2 1.8 -0.9
v 0.2 0.9 -0.9
v 0.2 1.7 -0.9
v 0.2 1.8 -0.9
v 0.3 0.8 -0.9
v 0.3 0.9 -0.9
v 0.3 1.7 -0.9
v 0.3 1.8 -0.9
v -0.6 1.5 -1
v -0.6 1.6 -1
v -0.5 1.5 -1
v -0.5 1.6 -1
v -0.4 1.6 -1
v -0.4 1.7 -1
v -0.3 0.9 -1
v -0.3 1 -1
v -0.3 1.6 -1
v -0.3 1.7 -1
v -0.2 0.9 -1
v -0.2 1 -1
v -0.2 1.7 -1
v -0.2 1.8 -1
v 0.2 0.9 -1
v 0.2 1 -1
v 0.2 1.7 -1
v 0.2 1.8 -1
v 0.3 0.9 -1
v 0.3 1 -1
v 0.3 1.6 -1
v 0.3 1.7 -1
v 0.4 1.6 -1
v 0.4 1.7 -1
v 0.5 1.5 -1
v 0.5 1.6 -1
v 0.6 1.5 -1
v 0.6 1.6 -1
v -0.6 0.9 -1.1
v -0.6 1 -1.1
v -0.6 1.3 -1.1
v -0.6 1.5 -1.1
v -0.5 0.9 -1.1
v -0.5 1 -1.1
v -0.5 1.3 -1.1
v -0.5 1.5 -1.1
v -0.5 1.6 -1.1
v -0.4 1.5 -1.1
v -0.4 1.6 -1.1
v -0.3 1.6 -1.1
v -0.3 1.7 -1.1
v -0.2 1.6 -1.1
v -0.2 1.7 -1.1
v 0.2 1.6 -1.1
v 0.2 1.7 -1.1
v 0.3 1.6 -1.1
v 0.3 1.7 -1.1
v 0.4 1.5 -1.1
v 0.4 1.6 -1.1
v 0.5 0.9 -1.1
v 0.5 1 -1.1
v 0.5 1.3 -1.1
v 0.5 1.5 -1.1
v 0.5 1.6 -1.1
v 0.6 0.9 -1.1
v 0.6 1 -1.1
v 0.6 1.3 -1.1
v 0.6 1.5 -1.1
v -0.6 1 -1.2
v -0.6 1.3 -1.2
v -0.5 0 -1.2
v -0.5 0.9 -1.2
v -0.5 1 -1.2
v -0.5 1.3 -1.2
v -0.5 1.5 -1.2
v -0.4 1.5 -1.2
v -0.4 1.6 -1.2
v -0.3 0 -1.2
v -0.3 0.9 -1.2
v -0.2 1.3 -1.2
v -0.2 1.6 -1.2
v 0.2 1.3 -1.2
v 0.2 1.6 -1.2
v 0.3 0 -1.2
v 0.3 0.9 -1.2
v 0.4 1.5 -1.2
v 0.4 1.6 -1.2
v 0.5 0 -1.2
v 0.5 0.9 -1.2
v 0.5 1 -1.2
v 0.5 1.3 -1.2
v 0.5 1.5 -1.2
v 0.6 1 -1.2
v 0.6 1.3 -1.2
v -0.5 0.9 -1.3
v -0.5 1.3 -1.3
v -0.3 0.9 -1.3
v -0.3 1 -1.3
v -0.2 1 -1.3
v -0.2 1.3 -1.3
v -0.2 1.7 -1.3
v -0.2 1.8 -1.3
v 0.2 1 -1.3
v 0.2 1.3 -1.3
v 0.2 1.7 -1.3
v 0.2 1.8 -1.3
v 0.3 0.9 -1.3
v 0.3 1 -1.3
v 0.5 0.9 -1.3
v 0.5 1.3 -1.3
v -0.2 0.7 -1.4
v -0.2 0.8 -1.4
v -0.2 0.9 -1.4
v -0.2 1.5 -1.4
v -0.2 1.7 -1.4
v -0.1 0.6 -1.4
v -0.1 0.7 -1.4
v -0.1 0.8 -1.4
v -0.1 0.9 -1.4
v -0.1 1.5 -1.4
v -0.1 1.6 -1.4
v 0.1 0.6 -1.4
v 0.1 0.7 -1.4
v 0.1 0.8 -1.4
v 0.1 0.9 -1.4
v 0.1 1.5 -1.4
v 0.1 1.6 -1.4
v 0.2 0.7 -1.4
v 0.2 0.8 -1.4
v 0.2 0.9 -1.4
v 0.2 1.5 -1.4
v 0.2 1.7 -1.4
v -0.2 0.9 -1.5
v -0.2 1 -1.5
v -0.2 1.5 -1.5
v -0.1 0.8 -1.5
v -0.1 0.9 -1.5
v -0.1 1 -1.5
v -0.1 1.5 -1.5
v -0.1 1.6 -1.5
v 0.1 0.8 -1.5
v 0.1 0.9 -1.5
v 0.1 1 -1.5
v 0.1 1.5 -1.5
v 0.1 1.6 -1.5
v 0.2 0.9 -1.5
v 0.2 1 -1.5
v 0.2 1.5 -1.5
v -0.5 0 0.4
v -0.3 0 0.4
v 0.3 0 0.4
v 0.5 0 0.4
v -0.5 0 0.1
v -0.3 0 0.1
v 0.3 0 0.1
v 0.5 0 0.1
v -0.5 0 -0.9
v -0.3 0 -0.9
v 0.3 0 -0.9
v 0.5 0 -0.9
v -0.5 0 -1.2
v -0.3 0 -1.2
v 0.3 0 -1.2
v 0.5 0 -1.2
v -0.1 0.6 -1.2
v 0.1 0.6 -1.2
v -0.1 0.6 -1.4
v 0.1 0.6 -1.4
v -0.2 0.7 -1.2
v -0.1 0.7 -1.2
v 0.1 0.7 -1.2
v 0.2 0.7 -1.2
v -0.2 0.7 -1.4
v -0.1 0.7 -1.4
v 0.1 0.7 -1.4
v 0.2 0.7 -1.4
v -0.3 0.8 0
v 0.3 0.8 0
v -0.4 0.8 -0.1
v -0.3 0.8 -0.1
v 0.3 0.8 -0.1
v 0.4 0.8 -0.1
v -0.4 0.8 -0.7
v -0.3 0.8 -0.7
v 0.3 0.8 -0.7
v 0.4 0.8 -0.7
v -0.3 0.8 -0.9
v 0.3 0.8 -0.9
v -0.1 0.8 -1.4
v 0.1 0.8 -1.4
v -0.1 0.8 -1.5
v 0.1 0.8 -1.5
v -0.5 0.9 0.1
v -0.4 0.9 0.1
v -0.3 0.9 0.1
v 0.3 0.9 0.1
v 0.4 0.9 0.1
v 0.5 0.9 0.1
v -0.3 0.9 0
v 0.3 0.9 0
v -0.5 0.9 -0.1
v -0.4 0.9 -0.1
v -0.3 0.9 -0.1
v 0.3 0.9 -0.1
v 0.4 0.9 -0.1
v 0.5 0.9 -0.1
v -0.5 0.9 -0.7
v -0.4 0.9 -0.7
v -0.3 0.9 -0.7
v 0.3 0.9 -0.7
v 0.4 0.9 -0.7
v 0.5 0.9 -0.7
v -0.4 0.9 -0.8
v -0.3 0.9 -0.8
v 0.3 0.9 -0.8
v 0.4 0.9 -0.8
v -0.6 0.9 -0.9
v -0.5 0.9 -0.9
v -0.3 0.9 -0.9
v -0.2 0.9 -0.9
v 0.2 0.9 -0.9
v 0.3 0.9 -0.9
v 0.5 0.9 -0.9
v 0.6 0.9 -0.9
v -0.5 0.9 -1
v -0.3 0.9 -1
v -0.2 0.9 -1
v 0.2 0.9 -1
v 0.3 0.9 -1
v 0.5 0.9 -1
v -0.6 0.9 -1.1
v -0.5 0.9 -1.1
v 0.5 0.9 -1.1
v 0.6 0.9 -1.1
v -0.5 0.9 -1.2
v -0.3 0.9 -1.2
v 0.3 0.9 -1.2
v 0.5 0.9 -1.2
v -0.5 0.9 -1.3
v -0.3 0.9 -1.3
v 0.3 0.9 -1.3
v 0.5 0.9 -1.3
v -0.2 0.9 -1.4
v -0.1 0.9 -1.4
v 0.1 0.9 -1.4
v 0.2 0.9 -1.4
v -0.2 0.9 -1.5
v -0.1 0.9 -1.5
v 0.1 0.9 -1.5
v 0.2 0.9 -1.5
v -0.3 1 0.3
v 0.3 1 0.3
v -0.3 1 0.1
v 0.3 1 0.1
v -0.6 1 -0.8
v -0.5 1 -0.8
v 0.5 1 -0.8
v 0.6 1 -0.8
v -0.6 1 -0.9
v -0.5 1 -0.9
v 0.5 1 -0.9
v 0.6 1 -0.9
v -0.3 1 -1
v -0.2 1 -1
v 0.2 1 -1
v 0.3 1 -1
v -0.6 1 -1.1
v -0.5 1 -1.1
v 0.5 1 -1.1
v 0.6 1 -1.1
v -0.6 1 -1.2
v -0.5 1 -1.2
v -0.2 1 -1.2
v 0.2 1 -1.2
v 0.5 1 -1.2
v 0.6 1 -1.2
v -0.3 1 -1.3
v -0.2 1 -1.3
v 0.2 1 -1.3
v 0.3 1 -1.3
v -0.6 1.1 0.1
v -0.5 1.1 0.1
v 0.5 1.1 0.1
v 0.6 1.1 0.1
v -0.6 1.1 -0.8
v -0.5 1.1 -0.8
v 0.5 1.1 -0.8
v 0.6 1.1 -0.8
v -0.5 1.2 0.4
v -0.4 1.2 0.4
v 0.4 1.2 0.4
v 0.5 1.2 0.4
v -0.5 1.2 0.3
v -0.4 1.2 0.3
v 0.4 1.2 0.3
v 0.5 1.2 0.3
v -0.6 1.2 0.2
v -0.5 1.2 0.2
v 0.5 1.2 0.2
v 0.6 1.2 0.2
v -0.6 1.2 0.1
v -0.5 1.2 0.1
v 0.5 1.2 0.1
v 0.6 1.2 0.1
v -0.6 1.3 0.3
v -0.5 1.3 0.3
v 0.5 1.3 0.3
v 0.6 1.3 0.3
v -0.6 1.3 0.2
v -0.5 1.3 0.2
v 0.5 1.3 0.2
v 0.6 1.3 0.2
v -0.4 1.4 0.8
v 0.4 1.4 0.8
v -0.4 1.4 0.6
v -0.3 1.4 0.6
v 0.3 1.4 0.6
v 0.4 1.4 0.6
v -0.5 1.4 0.5
v -0.4 1.4 0.5
v -0.3 1.4 0.5
v 0.3 1.4 0.5
v 0.4 1.4 0.5
v 0.5 1.4 0.5
v -0.5 1.4 0.4
v -0.4 1.4 0.4
v 0.4 1.4 0.4
v 0.5 1.4 0.4
v -0.1 1.5 1.3
v 0.1 1.5 1.3
v -0.2 1.5 1.2
v -0.1 1.5 1.2
v 0.1 1.5 1.2
v 0.2 1.5 1.2
v -0.3 1.5 1
v -0.2 1.5 1
v 0.2 1.5 1
v 0.3 1.5 1
v -0.4 1.5 0.9
v -0.3 1.5 0.9
v 0.3 1.5 0.9
v 0.4 1.5 0.9
v -0.5 1.5 0.8
v -0.4 1.5 0.8
v 0.4 1.5 0.8
v 0.5 1.5 0.8
v -0.4 1.5 0.6
v -0.3 1.5 0.6
v 0.3 1.5 0.6
v 0.4 1.5 0.6
v -0.5 1.5 0.5
v -0.4 1.5 0.5
v -0.3 1.5 0.5
v 0.3 1.5 0.5
v 0.4 1.5 0.5
v 0.5 1.5 0.5
v -0.6 1.5 0.4
v -0.5 1.5 0.4
v 0.5 1.5 0.4
v 0.6 1.5 0.4
v -0.6 1.5 0.3
v -0.5 1.5 0.3
v 0.5 1.5 0.3
v 0.6 1.5 0.3
v -0.1 1.6 1.5
v 0.1 1.6 1.5
v -0.2 1.6 1.3
v -0.1 1.6 1.3
v 0.1 1.6 1.3
v 0.2 1.6 1.3
v -0.2 1.6 1.2
v -0.1 1.6 1.2
v 0.1 1.6 1.2
v 0.2 1.6 1.2
v -0.4 1.6 1
v -0.3 1.6 1
v 0.3 1.6 1
v 0.4 1.6 1
v -0.5 1.6 0.9
v -0.4 1.6 0.9
v -0.3 1.6 0.9
v 0.3 1.6 0.9
v 0.4 1.6 0.9
v 0.5 1.6 0.9
v -0.6 1.6 0.8
v -0.5 1.6 0.8
v -0.4 1.6 0.8
v 0.4 1.6 0.8
v 0.5 1.6 0.8
v 0.6 1.6 0.8
v 0.5 1.6 0.7
v 0.6 1.6 0.7
v -0.6 1.6 0.6
v -0.5 1.6 0.6
v 0.5 1.7 0.7
v 0.6 1.7 0.7
v -0.6 1.7 0.6
v -0.5 1.7 0.6
v -0.6 1.7 0.5
v -0.5 1.7 0.5
v 0.5 1.7 0.5
v 0.6 1.7 0.5
v -0.3 1.9 1.1
v -0.2 1.9 1.1
v 0.2 1.9 1.1
v 0.3 1.9 1.1
v -0.3 1.9 1
v -0.2 1.9 1
v 0.2 1.9 1
v 0.3 1.9 1
v -0.5 0.1 0.4
v -0.3 0.1 0.4
v 0.3 0.1 0.4
v 0.5 0.1 0.4
v -0.5 0.1 0.3
v -0.3 0.1 0.3
v 0.3 0.1 0.3
v 0.5 0.1 0.3
v -0.5 0.1 -0.9
v -0.3 0.1 -0.9
v 0.3 0.1 -0.9
v 0.5 0.1 -0.9
v -0.5 0.1 -1
v -0.3 0.1 -1
v 0.3 0.1 -1
v 0.5 0.1 -1
v -0.6 1.3 -1.1
v -0.5 1.3 -1.1
v 0.5 1.3 -1.1
v 0.6 1.3 -1.1
v -0.6 1.3 -1.2
v -0.5 1.3 -1.2
v -0.2 1.3 -1.2
v 0.2 1.3 -1.2
v 0.5 1.3 -1.2
v 0.6 1.3 -1.2
v -0.5 1.3 -1.3
v -0.2 1.3 -1.3
v 0.2 1.3 -1.3
v 0.5 1.3 -1.3
v -0.6 1.5 -1
v -0.5 1.5 -1
v 0.5 1.5 -1
v 0.6 1.5 -1
v -0.6 1.5 -1.1
v -0.5 1.5 -1.1
v -0.4 1.5 -1.1
v 0.4 1.5 -1.1
v 0.5 1.5 -1.1
v 0.6 1.5 -1.1
v -0.5 1.5 -1.2
v -0.4 1.5 -1.2
v 0.4 1.5 -1.2
v 0.5 1.5 -1.2
v -0.2 1.5 -1.4
v -0.1 1.5 -1.4
v 0.1 1.5 -1.4
v 0.2 1.5 -1.4
v -0.2 1.5 -1.5
v -0.1 1.5 -1.5
v 0.1 1.5 -1.5
v 0.2 1.5 -1.5
v -0.6 1.6 0.4
v -0.5 1.6 0.4
v 0.5 1.6 0.4
v 0.6 1.6 0.4
v -0.6 1.6 0.3
v -0.5 1.6 0.3
v 0.5 1.6 0.3
v 0.6 1.6 0.3
v -0.6 1.6 0.2
v -0.5 1.6 0.2
v 0.5 1.6 0.2
v 0.6 1.6 0.2
v -0.5 1.6 0.1
v -0.4 1.6 0.1
v 0.4 1.6 0.1
v 0.5 1.6 0.1
v -0.6 1.6 -1
v -0.5 1.6 -1
v -0.4 1.6 -1
v -0.3 1.6 -1
v 0.3 1.6 -1
v 0.4 1.6 -1
v 0.5 1.6 -1
v 0.6 1.6 -1
v -0.5 1.6 -1.1
v -0.4 1.6 -1.1
v -0.3 1.6 -1.1
v -0.2 1.6 -1.1
v 0.2 1.6 -1.1
v 0.3 1.6 -1.1
v 0.4 1.6 -1.1
v 0.5 1.6 -1.1
v -0.4 1.6 -1.2
v -0.2 1.6 -1.2
v 0.2 1.6 -1.2
v 0.4 1.6 -1.2
v -0.1 1.6 -1.4
v 0.1 1.6 -1.4
v -0.1 1.6 -1.5
v 0.1 1.6 -1.5
v -0.6 1.7 0.3
v -0.5 1.7 0.3
v 0.5 1.7 0.3
v 0.6 1.7 0.3
v -0.6 1.7 0.2
v -0.5 1.7 0.2
v -0.4 1.7 0.2
v 0.4 1.7 0.2
v 0.5 1.7 0.2
v 0.6 1.7 0.2
v -0.5 1.7 0.1
v -0.4 1.7 0.1
v -0.2 1.7 0.1
v 0.2 1.7 0.1
v 0.4 1.7 0.1
v 0.5 1.7 0.1
v -0.3 1.7 0
v -0.2 1.7 0
v 0.2 1.7 0
v 0.3 1.7 0
v -0.3 1.7 -0.9
v -0.2 1.7 -0.9
v 0.2 1.7 -0.9
v 0.3 1.7 -0.9
v -0.4 1.7 -1
v -0.3 1.7 -1
v -0.2 1.7 -1
v 0.2 1.7 -1
v 0.3 1.7 -1
v 0.4 1.7 -1
v -0.3 1.7 -1.1
v -0.2 1.7 -1.1
v 0.2 1.7 -1.1
v 0.3 1.7 -1.1
v -0.2 1.7 -1.3
v 0.2 1.7 -1.3
v -0.2 1.7 -1.4
v 0.2 1.7 -1.4
v -0.1 1.8 1.5
v 0.1 1.8 1.5
v -0.1 1.8 1.4
v 0.1 1.8 1.4
v -0.2 1.8 1.3
v -0.1 1.8 1.3
v 0.1 1.8 1.3
v 0.2 1.8 1.3
v -0.2 1.8 1.2
v -0.1 1.8 1.2
v 0.1 1.8 1.2
v 0.2 1.8 1.2
v -0.5 1.8 0.3
v -0.4 1.8 0.3
v 0.4 1.8 0.3
v 0.5 1.8 0.3
v -0.5 1.8 0.2
v -0.4 1.8 0.2
v 0.4 1.8 0.2
v 0.5 1.8 0.2
v -0.4 1.8 0.1
v -0.2 1.8 0.1
v 0.2 1.8 0.1
v 0.4 1.8 0.1
v -0.3 1.8 0
v -0.2 1.8 0
v 0.2 1.8 0
v 0.3 1.8 0
v -0.3 1.8 -0.9
v -0.2 1.8 -0.9
v 0.2 1.8 -0.9
v 0.3 1.8 -0.9
v -0.2 1.8 -1
v 0.2 1.8 -1
v -0.2 1.8 -1.1
v 0.2 1.8 -1.1
v -0.2 1.8 -1.3
v 0.2 1.8 -1.3
v -0.1 1.9 1.3
v 0.1 1.9 1.3
v -0.2 1.9 1.2
v -0.1 1.9 1.2
v 0.1 1.9 1.2
v 0.2 1.9 1.2
v -0.2 1.9 1.1
v 0.2 1.9 1.1
v -0.2 1.9 1
v 0.2 1.9 1
v -0.5 1.9 0.4
v -0.4 1.9 0.4
v 0.4 1.9 0.4
v 0.5 1.9 0.4
v -0.5 1.9 0.3
v -0.4 1.9 0.3
v 0.4 1.9 0.3
v 0.5 1.9 0.3
v -0.4 1.9 0.2
v 0.4 1.9 0.2
v -0.3 2 1.1
v -0.2 2 1.1
v 0.2 2 1.1
v 0.3 2 1.1
v -0.4 2 1
v -0.3 2 1
v -0.2 2 1
v 0.2 2 1
v 0.3 2 1
v 0.4 2 1
v -0.4 2 0.9
v -0.3 2 0.9
v 0.3 2 0.9
v 0.4 2 0.9
v -0.6 2 0.6
v -0.5 2 0.6
v 0.5 2 0.6
v 0.6 2 0.6
v -0.6 2 0.5
v -0.5 2 0.5
v 0.5 2 0.5
v 0.6 2 0.5
v -0.4 2 0.4
v 0.4 2 0.4
v -0.4 2 0.3
v 0.4 2 0.3
v -0.3 2.1 1
v 0.3 2.1 1
v -0.5 2.1 0.9
v -0.3 2.1 0.9
v 0.3 2.1 0.9
v 0.5 2.1 0.9
v -0.6 2.1 0.8
v -0.5 2.1 0.8
v 0.5 2.1 0.8
v 0.6 2.1 0.8
v -0.6 2.1 0.7
v -0.5 2.1 0.7
v 0.5 2.1 0.7
v 0.6 2.1 0.7
v -0.1 2.2 0.8
v 0.1 2.2 0.8
v -0.6 2.2 0.7
v -0.5 2.2 0.7
v -0.1 2.2 0.7
v 0.1 2.2 0.7
v 0.5 2.2 0.7
v 0.6 2.2 0.7
v -0.6 2.2 0.6
v -0.5 2.2 0.6
v -0.1 2.2 0.6
v 0.1 2.2 0.6
v 0.5 2.2 0.6
v 0.6 2.2 0.6
v -0.5 2.2 0.4
v 0.5 2.2 0.4
v -0.2 2.3 0.8
v -0.1 2.3 0.8
v 0.1 2.3 0.8
v 0.2 2.3 0.8
v -0.2 2.3 0.7
v -0.1 2.3 0.7
v 0.1 2.3 0.7
v 0.2 2.3 0.7
v -0.5 2.4 0.8
v -0.4 2.4 0.8
v -0.3 2.4 0.8
v -0.2 2.4 0.8
v 0.2 2.4 0.8
v 0.3 2.4 0.8
v 0.4 2.4 0.8
v 0.5 2.4 0.8
v -0.5 2.4 0.7
v -0.4 2.4 0.7
v -0.3 2.4 0.7
v -0.2 2.4 0.7
v -0.1 2.4 0.7
v 0.1 2.4 0.7
v 0.2 2.4 0.7
v 0.3 2.4 0.7
v 0.4 2.4 0.7
v 0.5 2.4 0.7
v -0.2 2.4 0.6
v -0.1 2.4 0.6
v 0.1 2.4 0.6
v 0.2 2.4 0.6
v -0.5 2.5 0.7
v -0.4 2.5 0.7
v -0.3 2.5 0.7
v -0.2 2.5 0.7
v 0.2 2.5 0.7
v 0.3 2.5 0.7
v 0.4 2.5 0.7
v 0.5 2.5 0.7
v -0.5 2.5 0.6
v -0.4 2.5 0.6
v -0.3 2.5 0.6
v -0.2 2.5 0.6
v 0.2 2.5 0.6
v 0.3 2.5 0.6
v 0.4 2.5 0.6
v 0.5 2.5 0.6
v -0.4 2.6 0.8
v -0.3 2.6 0.8
v 0.3 2.6 0.8
v 0.4 2.6 0.8
v -0.4 2.6 0.6
v -0.3 2.6 0.6
v 0.3 2.6 0.6
v 0.4 2.6 0.6

# faces
f 4/4/1 2/4/1 1/4/1
f 5/4/1 2/4/1 4/4/1
f 8/4/1 4/4/1 3/4/1
f 8/4/1 6/4/1 5/4/1
f 8/4/1 5/4/1 4/4/1
f 10/4/1 8/4/1 7/4/1
f 12/4/1 10/4/1 9/4/1
f 13/4/1 6/4/1 8/4/1
f 13/4/1 8/4/1 10/4/1
f 13/4/1 10/4/1 12/4/1
f 14/4/1 6/4/1 13/4/1
f 16/4/1 12/4/1 11/4/1
f 16/4/1 13/4/1 12/4/1
f 17/4/1 13/4/1 16/4/1
f 18/4/1 13/4/1 17/4/1
f 21/4/1 16/4/1 15/4/1
f 21/4/1 17/4/1 16/4/1
f 22/4/1 17/4/1 21/4/1
f 23/4/1 17/4/1 22/4/1
f 24/4/1 17/4/1 23/4/1
f 25/4/1 20/4/1 19/4/1
f 27/4/1 23/4/1 22/4/1
f 28/4/1 23/4/1 27/4/1
f 29/4/1 26/4/1 25/4/1
f 29/4/1 25/4/1 19/4/1
f 30/4/1 26/4/1 29/4/1
f 31/4/1 29/4/1 19/4/1
f 32/4/1 29/4/1 31/4/1
f 33/4/1 29/4/1 32/4/1
f 34/6/1 33/6/1 32/6/1
f 35/6/1 33/6/1 34/6/1
f 40/1/1 37/1/1 36/1/1
f 41/1/1 37/1/1 40/1/1
f 42/1/1 39/1/1 38/1/1
f 43/1/1 39/1/1 42/1/1
f 44/1/1 37/1/1 41/1/1
f 45/1/1 37/1/1 44/1/1
f 49/1/1 39/1/1 43/1/1
f 50/1/1 39/1/1 49/1/1
f 51/1/1 39/1/1 50/1/1
f 53/4/1 45/4/1 44/4/1
f 53/4/1 46/4/1 45/4/1
f 53/2/1 47/2/1 46/2/1
f 54/4/1 48/4/1 47/4/1
f 54/2/1 47/2/1 53/2/1
f 55/4/1 48/4/1 54/4/1
f 56/4/1 48/4/1 55/4/1
f 57/4/1 52/4/1 51/4/1
f 57/4/1 51/4/1 50/4/1
f 58/4/1 52/4/1 57/4/1
f 59/4/1 53/4/1 44/4/1
f 59/4/1 55/4/1 54/4/1
f 59/4/1 54/4/1 53/4/1
f 60/4/1 55/4/1 59/4/1
f 62/4/1 59/4/1 44/4/1
f 63/4/1 59/4/1 62/4/1
f 64/4/1 59/4/1 63/4/1
f 65/4/1 62/4/1 61/4/1
f 65/4/1 63/4/1 62/4/1
f 66/4/1 63/4/1 65/4/1
f 68/4/1 52/4/1 58/4/1
f 69/4/1 52/4/1 68/4/1
f 71/4/1 65/4/1 61/4/1
f 73/4/1 71/4/1 70/4/1
f 74/4/1 65/4/1 71/4/1
f 74/4/1 71/4/1 73/4/1
f 75/4/1 65/4/1 74/4/1
f 77/4/1 68/4/1 67/4/1
f 78/4/1 68/4/1 77/4/1
f 80/4/1 73/4/1 72/4/1
f 80/4/1 74/4/1 73/4/1
f 81/4/1 74/4/1 80/4/1
f 82/4/1 74/4/1 81/4/1
f 86/4/1 77/4/1 76/4/1
f 87/4/1 77/4/1 86/4/1
f 88/4/1 82/4/1 81/4/1
f 88/4/1 83/4/1 82/4/1
f 89/4/1 83/4/1 88/4/1
f 90/4/1 83/4/1 89/4/1
f 91/4/1 85/4/1 84/4/1
f 92/4/1 85/4/1 91/4/1
f 93/4/1 90/4/1 89/4/1
f 93/4/1 91/4/1 90/4/1
f 94/4/1 91/4/1 93/4/1
f 95/4/1 93/4/1 89/4/1
f 96/4/1 93/4/1 95/4/1
f 98/4/1 95/4/1 89/4/1
f 99/4/1 80/4/1 79/4/1
f 100/4/1 80/4/1 99/4/1
f 102/4/1 98/4/1 97/4/1
f 103/4/1 101/4/1 100/4/1
f 104/4/1 101/4/1 103/4/1
f 105/4/1 98/4/1 102/4/1
f 106/4/1 95/4/1 98/4/1
f 106/4/1 98/4/1 105/4/1
f 107/3/1 104/3/1 103/3/1
f 108/6/1 105/6/1 104/6/1
f 108/3/1 104/3/1 107/3/1
f 109/6/1 105/6/1 108/6/1
f 110/6/1 105/6/1 109/6/1
f 113/2/1 112/2/1 111/2/1
f 114/2/1 112/2/1 113/2/1
f 118/2/1 116/2/1 115/2/1
f 119/2/1 116/2/1 118/2/1
f 123/2/1 118/2/1 117/2/1
f 124/2/1 118/2/1 123/2/1
f 127/4/1 121/4/1 120/4/1
f 128/4/1 121/4/1 127/4/1
f 130/4/1 126/4/1 125/4/1
f 131/4/1 126/4/1 130/4/1
f 133/4/1 130/4/1 129/4/1
f 134/4/1 130/4/1 133/4/1
f 136/4/1 133/4/1 132/4/1
f 137/4/1 133/4/1 136/4/1
f 138/4/1 123/4/1 122/4/1
f 139/4/1 123/4/1 138/4/1
f 140/4/1 136/4/1 135/4/1
f 141/4/1 136/4/1 140/4/1
f 144/3/1 143/3/1 142/3/1
f 145/3/1 143/3/1 144/3/1
f 147/6/1 145/6/1 144/6/1
f 147/6/1 146/6/1 145/6/1
f 148/6/1 146/6/1 147/6/1
f 153/2/1 150/2/1 149/2/1
f 154/2/1 150/2/1 153/2/1
f 155/2/1 152/2/1 151/2/1
f 156/2/1 152/2/1 155/2/1
f 157/2/1 152/2/1 156/2/1
f 162/2/1 159/2/1 158/2/1
f 163/2/1 159/2/1 162/2/1
f 164/2/1 161/2/1 160/2/1
f 165/2/1 161/2/1 164/2/1
f 170/4/1 167/4/1 166/4/1
f 171/4/1 167/4/1 170/4/1
f 172/4/1 169/4/1 168/4/1
f 173/4/1 169/4/1 172/4/1
f 176/6/1 175/6/1 174/6/1
f 177/6/1 175/6/1 176/6/1
f 179/4/1 178/4/1 177/4/1
f 180/4/1 178/4/1 179/4/1
f 183/1/1 182/1/1 181/1/1
f 184/1/1 182/1/1 183/1/1
f 185/1/1 182/1/1 184/1/1
f 186/4/1 184/4/1 183/4/1
f 186/5/1 185/5/1 184/5/1
f 187/5/1 185/5/1 186/5/1
f 189/4/1 187/4/1 186/4/1
f 189/4/1 186/4/1 183/4/1
f 190/4/1 187/4/1 189/4/1
f 191/5/1 188/5/1 187/5/1
f 191/4/1 187/4/1 190/4/1
f 192/5/1 188/5/1 191/5/1
f 194/4/1 191/4/1 190/4/1
f 194/4/1 192/4/1 191/4/1
f 197/4/1 192/4/1 194/4/1
f 197/4/1 194/4/1 193/4/1
f 198/4/1 192/4/1 197/4/1
f 200/2/1 196/2/1 195/2/1
f 201/2/1 196/2/1 200/2/1
f 203/4/1 197/4/1 193/4/1
f 204/2/1 200/2/1 199/2/1
f 205/4/1 201/4/1 200/4/1
f 205/2/1 200/2/1 204/2/1
f 210/4/1 203/4/1 202/4/1
f 211/4/1 197/4/1 203/4/1
f 211/4/1 203/4/1 210/4/1
f 212/4/1 197/4/1 211/4/1
f 213/4/1 205/4/1 204/4/1
f 214/4/1 201/4/1 205/4/1
f 214/4/1 205/4/1 213/4/1
f 215/4/1 207/4/1 206/4/1
f 216/4/1 207/4/1 215/4/1
f 217/4/1 209/4/1 208/4/1
f 218/4/1 209/4/1 217/4/1
f 219/4/1 211/4/1 210/4/1
f 220/4/1 211/4/1 219/4/1
f 221/4/1 201/4/1 214/4/1
f 222/4/1 201/4/1 221/4/1
f 223/4/1 201/4/1 222/4/1
f 226/1/1 225/1/1 224/1/1
f 227/1/1 225/1/1 226/1/1
f 230/5/1 229/5/1 228/5/1
f 231/5/1 229/5/1 230/5/1
f 237/2/1 233/2/1 232/2/1
f 238/2/1 233/2/1 237/2/1
f 239/4/1 235/4/1 234/4/1
f 240/4/1 235/4/1 239/4/1
f 241/2/1 237/2/1 236/2/1
f 242/2/1 237/2/1 241/2/1
f 243/2/1 237/2/1 242/2/1
f 244/6/1 242/6/1 241/6/1
f 245/4/1 243/4/1 242/4/1
f 245/6/1 242/6/1 244/6/1
f 246/4/1 243/4/1 245/4/1
f 248/4/1 247/4/1 246/4/1
f 249/4/1 247/4/1 248/4/1
f 253/3/1 251/3/1 250/3/1
f 254/6/1 252/6/1 251/6/1
f 254/3/1 251/3/1 253/3/1
f 255/6/1 252/6/1 254/6/1
f 256/6/1 252/6/1 255/6/1
f 259/6/1 258/6/1 257/6/1
f 260/6/1 258/6/1 259/6/1
f 263/3/1 262/3/1 261/3/1
f 264/3/1 262/3/1 263/3/1
f 266/6/1 265/6/1 264/6/1
f 267/6/1 265/6/1 266/6/1
f 272/1/1 269/1/1 268/1/1
f 273/1/1 269/1/1 272/1/1
f 274/1/1 271/1/1 270/1/1
f 275/1/1 271/1/1 274/1/1
f 276/1/1 269/1/1 273/1/1
f 277/1/1 269/1/1 276/1/1
f 278/1/1 271/1/1 275/1/1
f 279/1/1 271/1/1 278/1/1
f 281/4/1 277/4/1 276/4/1
f 282/4/1 277/4/1 281/4/1
f 283/4/1 280/4/1 279/4/1
f 283/4/1 279/4/1 278/4/1
f 284/4/1 280/4/1 283/4/1
f 287/3/1 286/3/1 285/3/1
f 288/3/1 286/3/1 287/3/1
f 290/6/1 288/6/1 287/6/1
f 290/6/1 289/6/1 288/6/1
f 291/6/1 289/6/1 290/6/1
f 292/1/2 293/1/2 296/1/2
f 296/1/2 293/1/2 297/1/2
f 294/1/2 295/1/2 298/1/2
f 298/1/2 295/1/2 299/1/2
f 297/1/2 293/1/2 300/1/2
f 300/1/2 293/1/2 301/1/2
f 299/1/2 295/1/2 302/1/2
f 302/1/2 295/1/2 303/1/2
f 300/4/2 301/4/2 305/4/2
f 305/4/2 301/4/2 306/4/2
f 303/4/2 304/4/2 307/4/2
f 302/4/2 303/4/2 307/4/2
f 307/4/2 304/4/2 308/4/2
f 309/3/2 310/3/2 311/3/2
f 311/3/2 310/3/2 312/3/2
f 311/6/2 312/6/2 314/6/2
f 312/6/2 313/6/2 314/6/2
f 314/6/2 313/6/2 315/6/2
f 316/6/2 317/6/2 318/6/2
f 318/6/2 317/6/2 319/6/2
f 320/3/2 321/3/2 322/3/2
f 322/3/2 321/3/2 323/3/2
f 323/6/2 324/6/2 325/6/2
f 325/6/2 324/6/2 326/6/2
f 327/3/2 328/3/2 330/3/2
f 328/6/2 329/6/2 331/6/2
f 330/3/2 328/3/2 331/3/2
f 331/6/2 329/6/2 332/6/2
f 332/6/2 329/6/2 333/6/2
f 334/1/2 335/1/2 336/1/2
f 336/1/2 335/1/2 337/1/2
f 338/5/2 339/5/2 340/5/2
f 340/5/2 339/5/2 341/5/2
f 342/2/2 343/2/2 347/2/2
f 347/2/2 343/2/2 348/2/2
f 344/4/2 345/4/2 349/4/2
f 349/4/2 345/4/2 350/4/2
f 346/2/2 347/2/2 351/2/2
f 351/2/2 347/2/2 352/2/2
f 352/2/2 347/2/2 353/2/2
f 351/6/2 352/6/2 354/6/2
f 352/4/2 353/4/2 355/4/2
f 354/6/2 352/6/2 355/6/2
f 355/4/2 353/4/2 356/4/2
f 356/4/2 357/4/2 358/4/2
f 358/4/2 357/4/2 359/4/2
f 360/1/2 361/1/2 362/1/2
f 362/1/2 361/1/2 363/1/2
f 363/1/2 361/1/2 364/1/2
f 362/4/2 363/4/2 365/4/2
f 363/5/2 364/5/2 365/5/2
f 365/5/2 364/5/2 366/5/2
f 365/4/2 366/4/2 368/4/2
f 362/4/2 365/4/2 368/4/2
f 368/4/2 366/4/2 369/4/2
f 366/5/2 367/5/2 370/5/2
f 369/4/2 366/4/2 370/4/2
f 370/5/2 367/5/2 371/5/2
f 369/4/2 370/4/2 373/4/2
f 370/4/2 371/4/2 373/4/2
f 373/4/2 371/4/2 376/4/2
f 372/4/2 373/4/2 376/4/2
f 376/4/2 371/4/2 377/4/2
f 374/2/2 375/2/2 379/2/2
f 379/2/2 375/2/2 380/2/2
f 372/4/2 376/4/2 382/4/2
f 378/2/2 379/2/2 383/2/2
f 379/4/2 380/4/2 384/4/2
f 383/2/2 379/2/2 384/2/2
f 381/4/2 382/4/2 389/4/2
f 382/4/2 376/4/2 390/4/2
f 389/4/2 382/4/2 390/4/2
f 390/4/2 376/4/2 391/4/2
f 383/4/2 384/4/2 392/4/2
f 384/4/2 380/4/2 393/4/2
f 392/4/2 384/4/2 393/4/2
f 385/4/2 386/4/2 394/4/2
f 394/4/2 386/4/2 395/4/2
f 387/4/2 388/4/2 396/4/2
f 396/4/2 388/4/2 397/4/2
f 389/4/2 390/4/2 398/4/2
f 398/4/2 390/4/2 399/4/2
f 393/4/2 380/4/2 400/4/2
f 400/4/2 380/4/2 401/4/2
f 401/4/2 380/4/2 402/4/2
f 403/2/2 404/2/2 407/2/2
f 407/2/2 404/2/2 408/2/2
f 405/2/2 406/2/2 409/2/2
f 409/2/2 406/2/2 410/2/2
f 410/2/2 406/2/2 411/2/2
f 412/2/2 413/2/2 416/2/2
f 416/2/2 413/2/2 417/2/2
f 414/2/2 415/2/2 418/2/2
f 418/2/2 415/2/2 419/2/2
f 420/4/2 421/4/2 424/4/2
f 424/4/2 421/4/2 425/4/2
f 422/4/2 423/4/2 426/4/2
f 426/4/2 423/4/2 427/4/2
f 428/6/2 429/6/2 430/6/2
f 430/6/2 429/6/2 431/6/2
f 431/4/2 432/4/2 433/4/2
f 433/4/2 432/4/2 434/4/2
f 435/2/2 436/2/2 437/2/2
f 437/2/2 436/2/2 438/2/2
f 439/2/2 440/2/2 442/2/2
f 442/2/2 440/2/2 443/2/2
f 441/2/2 442/2/2 447/2/2
f 447/2/2 442/2/2 448/2/2
f 444/4/2 445/4/2 451/4/2
f 451/4/2 445/4/2 452/4/2
f 449/4/2 450/4/2 454/4/2
f 454/4/2 450/4/2 455/4/2
f 453/4/2 454/4/2 457/4/2
f 457/4/2 454/4/2 458/4/2
f 456/4/2 457/4/2 460/4/2
f 460/4/2 457/4/2 461/4/2
f 446/4/2 447/4/2 462/4/2
f 462/4/2 447/4/2 463/4/2
f 459/4/2 460/4/2 464/4/2
f 464/4/2 460/4/2 465/4/2
f 466/3/2 467/3/2 468/3/2
f 468/3/2 467/3/2 469/3/2
f 468/6/2 469/6/2 471/6/2
f 469/6/2 470/6/2 471/6/2
f 471/6/2 470/6/2 472/6/2
f 473/1/2 474/1/2 477/1/2
f 477/1/2 474/1/2 478/1/2
f 475/1/2 476/1/2 479/1/2
f 479/1/2 476/1/2 480/1/2
f 478/1/2 474/1/2 481/1/2
f 481/1/2 474/1/2 482/1/2
f 480/1/2 476/1/2 486/1/2
f 486/1/2 476/1/2 487/1/2
f 487/1/2 476/1/2 488/1/2
f 481/4/2 482/4/2 490/4/2
f 482/4/2 483/4/2 490/4/2
f 483/2/2 484/2/2 490/2/2
f 484/4/2 485/4/2 491/4/2
f 490/2/2 484/2/2 491/2/2
f 491/4/2 485/4/2 492/4/2
f 492/4/2 485/4/2 493/4/2
f 488/4/2 489/4/2 494/4/2
f 487/4/2 488/4/2 494/4/2
f 494/4/2 489/4/2 495/4/2
f 481/4/2 490/4/2 496/4/2
f 491/4/2 492/4/2 496/4/2
f 490/4/2 491/4/2 496/4/2
f 496/4/2 492/4/2 497/4/2
f 481/4/2 496/4/2 499/4/2
f 499/4/2 496/4/2 500/4/2
f 500/4/2 496/4/2 501/4/2
f 498/4/2 499/4/2 502/4/2
f 499/4/2 500/4/2 502/4/2
f 502/4/2 500/4/2 503/4/2
f 495/4/2 489/4/2 505/4/2
f 505/4/2 489/4/2 506/4/2
f 498/4/2 502/4/2 508/4/2
f 507/4/2 508/4/2 510/4/2
f 508/4/2 502/4/2 511/4/2
f 510/4/2 508/4/2 511/4/2
f 511/4/2 502/4/2 512/4/2
f 504/4/2 505/4/2 514/4/2
f 514/4/2 505/4/2 515/4/2
f 509/4/2 510/4/2 517/4/2
f 510/4/2 511/4/2 517/4/2
f 517/4/2 511/4/2 518/4/2
f 518/4/2 511/4/2 519/4/2
f 513/4/2 514/4/2 523/4/2
f 523/4/2 514/4/2 524/4/2
f 518/4/2 519/4/2 525/4/2
f 519/4/2 520/4/2 525/4/2
f 525/4/2 520/4/2 526/4/2
f 526/4/2 520/4/2 527/4/2
f 521/4/2 522/4/2 528/4/2
f 528/4/2 522/4/2 529/4/2
f 526/4/2 527/4/2 530/4/2
f 527/4/2 528/4/2 530/4/2
f 530/4/2 528/4/2 531/4/2
f 526/4/2 530/4/2 532/4/2
f 532/4/2 530/4/2 533/4/2
f 526/4/2 532/4/2 535/4/2
f 516/4/2 517/4/2 536/4/2
f 536/4/2 517/4/2 537/4/2
f 534/4/2 535/4/2 539/4/2
f 537/4/2 538/4/2 540/4/2
f 540/4/2 538/4/2 541/4/2
f 539/4/2 535/4/2 542/4/2
f 535/4/2 532/4/2 543/4/2
f 542/4/2 535/4/2 543/4/2
f 540/3/2 541/3/2 544/3/2
f 541/6/2 542/6/2 545/6/2
f 544/3/2 541/3/2 545/3/2
f 545/6/2 542/6/2 546/6/2
f 546/6/2 542/6/2 547/6/2
f 548/4/2 549/4/2 551/4/2
f 551/4/2 549/4/2 552/4/2
f 550/4/2 551/4/2 555/4/2
f 552/4/2 553/4/2 555/4/2
f 551/4/2 552/4/2 555/4/2
f 554/4/2 555/4/2 557/4/2
f 556/4/2 557/4/2 559/4/2
f 555/4/2 553/4/2 560/4/2
f 557/4/2 555/4/2 560/4/2
f 559/4/2 557/4/2 560/4/2
f 560/4/2 553/4/2 561/4/2
f 558/4/2 559/4/2 563/4/2
f 559/4/2 560/4/2 563/4/2
f 563/4/2 560/4/2 564/4/2
f 564/4/2 560/4/2 565/4/2
f 562/4/2 563/4/2 568/4/2
f 563/4/2 564/4/2 568/4/2
f 568/4/2 564/4/2 569/4/2
f 569/4/2 564/4/2 570/4/2
f 570/4/2 564/4/2 571/4/2
f 566/4/2 567/4/2 572/4/2
f 569/4/2 570/4/2 574/4/2
f 574/4/2 570/4/2 575/4/2
f 572/4/2 573/4/2 576/4/2
f 576/4/2 573/4/2 577/4/2
f 566/4/2 572/4/2 578/4/2
f 572/4/2 576/4/2 578/4/2
f 578/4/2 576/4/2 579/4/2
f 579/4/2 576/4/2 580/4/2
f 579/6/2 580/6/2 581/6/2
f 581/6/2 580/6/2 582/6/2
f 586/2/3 584/2/3 583/2/3
f 587/6/3 585/6/3 584/6/3
f 587/2/3 584/2/3 586/2/3
f 588/6/3 585/6/3 587/6/3
f 593/2/3 590/2/3 589/2/3
f 594/4/3 591/4/3 590/4/3
f 594/2/3 590/2/3 593/2/3
f 595/4/3 591/4/3 594/4/3
f 597/2/3 593/2/3 592/2/3
f 598/2/3 593/2/3 597/2/3
f 600/4/3 596/4/3 595/4/3
f 601/4/3 596/4/3 600/4/3
f 602/2/3 599/2/3 598/2/3
f 603/4/3 600/4/3 599/4/3
f 603/2/3 599/2/3 602/2/3
f 604/4/3 600/4/3 603/4/3
f 609/2/3 606/2/3 605/2/3
f 610/2/3 606/2/3 609/2/3
f 611/4/3 608/4/3 607/4/3
f 612/4/3 608/4/3 611/4/3
f 617/2/3 614/2/3 613/2/3
f 618/2/3 614/2/3 617/2/3
f 619/4/3 616/4/3 615/4/3
f 620/4/3 616/4/3 619/4/3
f 623/6/3 622/6/3 621/6/3
f 624/6/3 622/6/3 623/6/3
f 627/6/3 626/6/3 625/6/3
f 628/6/3 626/6/3 627/6/3
f 632/4/3 630/4/3 629/4/3
f 633/4/3 630/4/3 632/4/3
f 634/4/3 630/4/3 633/4/3
f 636/2/3 632/2/3 631/2/3
f 637/4/3 633/4/3 632/4/3
f 637/2/3 632/2/3 636/2/3
f 638/4/3 633/4/3 637/4/3
f 639/4/3 635/4/3 634/4/3
f 642/4/3 639/4/3 638/4/3
f 643/4/3 635/4/3 639/4/3
f 643/4/3 639/4/3 642/4/3
f 644/2/3 641/2/3 640/2/3
f 645/4/3 642/4/3 641/4/3
f 645/2/3 641/2/3 644/2/3
f 646/4/3 642/4/3 645/4/3
f 647/4/3 635/4/3 643/4/3
f 648/4/3 635/4/3 647/4/3
f 649/4/3 646/4/3 645/4/3
f 649/4/3 647/4/3 646/4/3
f 650/4/3 647/4/3 649/4/3
f 654/4/3 652/4/3 651/4/3
f 655/4/3 652/4/3 654/4/3
f 656/2/3 654/2/3 653/2/3
f 657/2/3 654/2/3 656/2/3
f 658/4/3 652/4/3 655/4/3
f 659/4/3 652/4/3 658/4/3
f 664/2/3 661/2/3 660/2/3
f 665/2/3 661/2/3 664/2/3
f 666/4/3 663/4/3 662/4/3
f 667/4/3 666/4/3 665/4/3
f 668/4/3 663/4/3 666/4/3
f 668/4/3 666/4/3 667/4/3
f 672/4/3 670/4/3 669/4/3
f 673/4/3 670/4/3 672/4/3
f 677/4/3 672/4/3 671/4/3
f 678/4/3 672/4/3 677/4/3
f 679/4/3 674/4/3 673/4/3
f 679/3/3 675/3/3 674/3/3
f 680/3/3 675/3/3 679/3/3
f 683/4/3 680/4/3 679/4/3
f 684/3/3 681/3/3 680/3/3
f 684/4/3 680/4/3 683/4/3
f 685/6/3 682/6/3 681/6/3
f 685/3/3 681/3/3 684/3/3
f 686/6/3 682/6/3 685/6/3
f 687/4/3 679/4/3 673/4/3
f 687/4/3 683/4/3 679/4/3
f 688/3/3 684/3/3 683/3/3
f 688/4/3 683/4/3 687/4/3
f 689/3/3 684/3/3 688/3/3
f 690/4/3 687/4/3 673/4/3
f 690/3/3 688/3/3 687/3/3
f 691/3/3 688/3/3 690/3/3
f 692/4/3 690/4/3 673/4/3
f 694/4/3 692/4/3 673/4/3
f 694/3/3 693/3/3 692/3/3
f 695/3/3 693/3/3 694/3/3
f 697/4/3 695/4/3 694/4/3
f 697/3/3 696/3/3 695/3/3
f 698/3/3 696/3/3 697/3/3
f 701/2/3 677/2/3 676/2/3
f 702/2/3 677/2/3 701/2/3
f 704/4/3 698/4/3 697/4/3
f 704/4/3 694/4/3 673/4/3
f 704/4/3 697/4/3 694/4/3
f 705/3/3 699/3/3 698/3/3
f 705/4/3 698/4/3 704/4/3
f 706/6/3 700/6/3 699/6/3
f 706/3/3 699/3/3 705/3/3
f 707/6/3 700/6/3 706/6/3
f 708/4/3 703/4/3 702/4/3
f 709/4/3 703/4/3 708/4/3
f 710/4/3 704/4/3 673/4/3
f 711/3/3 705/3/3 704/3/3
f 711/4/3 704/4/3 710/4/3
f 712/3/3 705/3/3 711/3/3
f 713/4/3 710/4/3 709/4/3
f 714/4/3 710/4/3 713/4/3
f 717/6/3 716/6/3 715/6/3
f 718/6/3 716/6/3 717/6/3
f 721/6/3 720/6/3 719/6/3
f 722/6/3 720/6/3 721/6/3
f 726/6/3 724/6/3 723/6/3
f 727/6/3 724/6/3 726/6/3
f 728/6/3 726/6/3 725/6/3
f 729/6/3 726/6/3 728/6/3
f 732/6/3 731/6/3 730/6/3
f 733/6/3 731/6/3 732/6/3
f 735/6/3 734/6/3 733/6/3
f 736/6/3 734/6/3 735/6/3
f 741/6/3 738/6/3 737/6/3
f 742/6/3 738/6/3 741/6/3
f 743/6/3 740/6/3 739/6/3
f 744/6/3 740/6/3 743/6/3
f 747/4/3 746/4/3 745/4/3
f 748/4/3 746/4/3 747/4/3
f 749/2/3 748/2/3 747/2/3
f 750/2/3 748/2/3 749/2/3
f 753/2/3 752/2/3 751/2/3
f 754/2/3 752/2/3 753/2/3
f 755/4/3 754/4/3 753/4/3
f 756/4/3 754/4/3 755/4/3
f 763/4/3 758/4/3 757/4/3
f 764/4/3 758/4/3 763/4/3
f 765/4/3 762/4/3 761/4/3
f 766/4/3 762/4/3 765/4/3
f 767/1/3 760/1/3 759/1/3
f 768/1/3 760/1/3 767/1/3
f 771/2/3 766/2/3 765/2/3
f 772/2/3 766/2/3 771/2/3
f 773/1/3 770/1/3 769/1/3
f 774/1/3 770/1/3 773/1/3
f 775/4/3 772/4/3 771/4/3
f 776/4/3 772/4/3 775/4/3
f 779/4/3 778/4/3 777/4/3
f 780/4/3 778/4/3 779/4/3
f 788/4/3 782/4/3 781/4/3
f 789/4/3 782/4/3 788/4/3
f 790/4/3 784/4/3 783/4/3
f 791/4/3 784/4/3 790/4/3
f 792/4/3 787/4/3 786/4/3
f 793/4/3 787/4/3 792/4/3
f 794/1/3 786/1/3 785/1/3
f 795/4/3 792/4/3 786/4/3
f 795/1/3 786/1/3 794/1/3
f 796/4/3 792/4/3 795/4/3
f 797/2/3 793/2/3 792/2/3
f 797/4/3 792/4/3 796/4/3
f 800/2/3 797/2/3 796/2/3
f 801/2/3 793/2/3 797/2/3
f 801/2/3 797/2/3 800/2/3
f 802/4/3 800/4/3 799/4/3
f 802/2/3 793/2/3 801/2/3
f 802/4/3 801/4/3 800/4/3
f 803/2/3 793/2/3 802/2/3
f 804/1/3 799/1/3 798/1/3
f 805/4/3 802/4/3 799/4/3
f 805/1/3 799/1/3 804/1/3
f 805/4/3 803/4/3 802/4/3
f 806/4/3 803/4/3 805/4/3
f 811/4/3 808/4/3 807/4/3
f 812/4/3 808/4/3 811/4/3
f 813/4/3 810/4/3 809/4/3
f 814/4/3 810/4/3 813/4/3
f 817/4/3 816/4/3 815/4/3
f 818/4/3 816/4/3 817/4/3
f 821/4/3 820/4/3 819/4/3
f 822/4/3 820/4/3 821/4/3
f 825/4/3 824/4/3 823/4/3
f 826/4/3 824/4/3 825/4/3
f 829/2/3 828/2/3 827/2/3
f 830/2/3 828/2/3 829/2/3
f 833/4/3 832/4/3 831/4/3
f 834/4/3 832/4/3 833/4/3
f 839/4/3 838/4/3 837/4/3
f 840/4/3 838/4/3 839/4/3
f 843/2/3 836/2/3 835/2/3
f 844/2/3 836/2/3 843/2/3
f 845/4/3 842/4/3 841/4/3
f 846/4/3 842/4/3 845/4/3
f 849/2/3 848/2/3 847/2/3
f 850/2/3 848/2/3 849/2/3
f 853/2/3 852/2/3 851/2/3
f 854/2/3 852/2/3 853/2/3
f 857/4/3 856/4/3 855/4/3
f 858/4/3 856/4/3 857/4/3
f 861/4/3 860/4/3 859/4/3
f 862/4/3 860/4/3 861/4/3
f 867/4/3 864/4/3 863/4/3
f 868/4/3 864/4/3 867/4/3
f 869/1/3 866/1/3 865/1/3
f 870/1/3 866/1/3 869/1/3
f 873/1/3 872/1/3 871/1/3
f 874/1/3 872/1/3 873/1/3
f 877/4/3 876/4/3 875/4/3
f 878/4/3 876/4/3 877/4/3
f 881/1/3 880/1/3 879/1/3
f 882/1/3 880/1/3 881/1/3
f 885/1/3 884/1/3 883/1/3
f 886/1/3 884/1/3 885/1/3
f 889/4/3 888/4/3 887/4/3
f 890/4/3 888/4/3 889/4/3
f 895/1/3 892/1/3 891/1/3
f 896/4/3 893/4/3 892/4/3
f 896/1/3 892/1/3 895/1/3
f 897/1/3 895/1/3 894/1/3
f 898/4/3 896/4/3 895/4/3
f 898/1/3 895/1/3 897/1/3
f 899/4/3 893/4/3 896/4/3
f 899/4/3 896/4/3 898/4/3
f 900/1/3 899/1/3 898/1/3
f 901/4/3 893/4/3 899/4/3
f 901/1/3 899/1/3 900/1/3
f 902/4/3 893/4/3 901/4/3
f 903/4/4 904/4/4 905/4/4
f 905/4/4 904/4/4 906/4/4
f 907/4/4 908/4/4 912/4/4
f 912/4/4 908/4/4 913/4/4
f 909/4/4 910/4/4 914/4/4
f 910/6/4 911/6/4 915/6/4
f 914/4/4 910/4/4 915/4/4
f 915/6/4 911/6/4 916/6/4
f 916/6/4 917/6/4 920/6/4
f 918/2/4 919/2/4 922/2/4
f 922/2/4 919/2/4 923/2/4
f 920/6/4 921/6/4 924/6/4
f 916/6/4 920/6/4 924/6/4
f 924/6/4 921/6/4 925/6/4
f 916/6/4 924/6/4 926/6/4
f 926/6/4 924/6/4 927/6/4
f 916/6/4 926/6/4 928/6/4
f 928/6/4 926/6/4 929/6/4
f 930/6/4 931/6/4 932/6/4
f 932/6/4 933/6/4 936/6/4
f 934/2/4 935/2/4 938/2/4
f 938/2/4 935/2/4 939/2/4
f 932/6/4 936/6/4 940/6/4
f 936/6/4 937/6/4 940/6/4
f 940/6/4 937/6/4 941/6/4
f 930/6/4 932/6/4 944/6/4
f 932/6/4 940/6/4 944/6/4
f 944/6/4 940/6/4 945/6/4
f 942/4/4 943/4/4 946/4/4
f 943/6/4 944/6/4 947/6/4
f 946/4/4 943/4/4 947/4/4
f 947/6/4 944/6/4 948/6/4
f 949/4/4 950/4/4 951/4/4
f 951/4/4 950/4/4 952/4/4
f 953/4/4 954/4/4 955/4/4
f 955/4/4 954/4/4 956/4/4
f 957/4/4 958/4/4 959/4/4
f 959/4/4 958/4/4 960/4/4
f 960/4/4 958/4/4 962/4/4
f 961/4/4 962/4/4 963/4/4
f 962/4/4 958/4/4 964/4/4
f 963/4/4 962/4/4 964/4/4
f 965/4/4 966/4/4 967/4/4
f 967/4/4 966/4/4 968/4/4
f 968/4/4 969/4/4 971/4/4
f 971/4/4 969/4/4 972/4/4
f 970/4/4 971/4/4 973/4/4
f 973/4/4 971/4/4 974/4/4
f 975/4/4 976/4/4 977/4/4
f 977/4/4 976/4/4 978/4/4
f 978/4/4 979/4/4 980/4/4
f 980/4/4 979/4/4 981/4/4
f 981/4/4 982/4/4 984/4/4
f 984/4/4 982/4/4 985/4/4
f 983/4/4 984/4/4 987/4/4
f 987/4/4 984/4/4 988/4/4
f 986/4/4 987/4/4 989/4/4
f 989/4/4 987/4/4 990/4/4
f 991/1/4 992/1/4 995/1/4
f 993/4/4 994/4/4 996/4/4
f 996/4/4 994/4/4 997/4/4
f 991/1/4 995/1/4 999/1/4
f 999/1/4 995/1/4 1000/1/4
f 997/4/4 998/4/4 1001/4/4
f 1001/4/4 998/4/4 1002/4/4
f 1005/1/4 1006/1/4 1007/1/4
f 1003/4/4 1004/4/4 1009/4/4
f 1009/4/4 1004/4/4 1010/4/4
f 1005/1/4 1007/1/4 1011/1/4
f 1011/1/4 1007/1/4 1012/1/4
f 1008/4/4 1009/4/4 1013/4/4
f 1013/4/4 1009/4/4 1014/4/4
f 1015/2/4 1016/2/4 1017/2/4
f 1017/2/4 1016/2/4 1018/2/4
f 1019/2/4 1020/2/4 1021/2/4
f 1021/2/4 1020/2/4 1022/2/4
f 1023/2/4 1024/2/4 1027/2/4
f 1025/4/4 1026/4/4 1028/4/4
f 1028/4/4 1026/4/4 1029/4/4
f 1023/2/4 1027/2/4 1030/2/4
f 1023/2/4 1030/2/4 1033/2/4
f 1033/2/4 1030/2/4 1034/2/4
f 1031/4/4 1032/4/4 1035/4/4
f 1035/4/4 1032/4/4 1036/4/4
f 1037/4/4 1038/4/4 1039/4/4
f 1039/4/4 1038/4/4 1040/4/4
f 1041/4/4 1042/4/4 1045/4/4
f 1045/4/4 1042/4/4 1046/4/4
f 1043/4/4 1044/4/4 1047/4/4
f 1047/4/4 1044/4/4 1048/4/4
f 1047/2/4 1048/2/4 1051/2/4
f 1051/2/4 1048/2/4 1052/2/4
f 1049/4/4 1050/4/4 1053/4/4
f 1053/4/4 1050/4/4 1054/4/4
f 1051/4/4 1052/4/4 1055/4/4
f 1055/4/4 1052/4/4 1056/4/4
f 1057/4/4 1058/4/4 1059/4/4
f 1059/4/4 1058/4/4 1060/4/4
f 1061/4/4 1062/4/4 1063/4/4
f 1063/4/4 1062/4/4 1064/4/4
f 1065/4/4 1066/4/4 1069/4/4
f 1069/4/4 1066/4/4 1070/4/4
f 1067/4/4 1068/4/4 1071/4/4
f 1071/4/4 1068/4/4 1072/4/4
f 1072/4/4 1073/4/4 1074/4/4
f 1074/4/4 1073/4/4 1075/4/4
f 1076/4/4 1077/4/4 1078/4/4
f 1078/4/4 1077/4/4 1079/4/4
f 1080/4/4 1081/4/4 1082/4/4
f 1082/4/4 1081/4/4 1083/4/4
f 1084/4/4 1085/4/4 1089/4/4
f 1089/4/4 1085/4/4 1090/4/4
f 1086/4/4 1087/4/4 1091/4/4
f 1091/4/4 1087/4/4 1092/4/4
f 1088/4/4 1089/4/4 1093/4/4
f 1093/4/4 1089/4/4 1094/4/4
f 1095/4/4 1096/4/4 1099/4/4
f 1099/4/4 1096/4/4 1100/4/4
f 1100/4/4 1101/4/4 1102/4/4
f 1097/1/4 1098/1/4 1104/1/4
f 1104/1/4 1098/1/4 1105/1/4
f 1102/4/4 1103/4/4 1106/4/4
f 1100/4/4 1102/4/4 1106/4/4
f 1106/4/4 1103/4/4 1107/4/4
f 1108/4/4 1109/4/4 1112/4/4
f 1112/4/4 1109/4/4 1113/4/4
f 1110/1/4 1111/1/4 1114/1/4
f 1114/1/4 1111/1/4 1115/1/4
f 1108/4/4 1112/4/4 1117/4/4
f 1117/4/4 1112/4/4 1118/4/4
f 1116/4/4 1117/4/4 1119/4/4
f 1119/4/4 1117/4/4 1120/4/4
f 1121/4/4 1122/4/4 1123/4/4
f 1123/4/4 1122/4/4 1124/4/4
f 1124/4/4 1122/4/4 1125/4/4
f 1125/4/4 1122/4/4 1126/4/4
f 1127/4/4 1128/4/4 1131/4/4
f 1131/4/4 1128/4/4 1132/4/4
f 1129/4/4 1130/4/4 1134/4/4
f 1133/4/4 1134/4/4 1135/4/4
f 1134/4/4 1130/4/4 1136/4/4
f 1135/4/4 1134/4/4 1136/4/4
f 1137/1/4 1138/1/4 1143/1/4
f 1138/5/4 1139/5/4 1144/5/4
f 1143/1/4 1138/1/4 1144/1/4
f 1144/5/4 1139/5/4 1145/5/4
f 1140/4/4 1141/4/4 1146/4/4
f 1146/4/4 1141/4/4 1147/4/4
f 1142/1/4 1143/1/4 1148/1/4
f 1143/5/4 1144/5/4 1149/5/4
f 1148/1/4 1143/1/4 1149/1/4
f 1149/5/4 1144/5/4 1150/5/4
f 1147/4/4 1141/4/4 1153/4/4
f 1149/1/4 1150/1/4 1154/1/4
f 1150/5/4 1151/5/4 1155/5/4
f 1154/1/4 1150/1/4 1155/1/4
f 1155/5/4 1151/5/4 1156/5/4
f 1152/4/4 1153/4/4 1157/4/4
f 1153/4/4 1141/4/4 1158/4/4
f 1157/4/4 1153/4/4 1158/4/4
f 1159/5/4 1160/5/4 1163/5/4
f 1160/4/4 1161/4/4 1164/4/4
f 1163/5/4 1160/5/4 1164/5/4
f 1164/4/4 1161/4/4 1165/4/4
f 1162/5/4 1163/5/4 1167/5/4
f 1165/4/4 1166/4/4 1168/4/4
f 1167/5/4 1163/5/4 1168/5/4
f 1163/4/4 1164/4/4 1168/4/4
f 1164/4/4 1165/4/4 1168/4/4
f 1168/4/4 1166/4/4 1169/4/4
f 1169/4/4 1166/4/4 1170/4/4
f 1170/4/4 1166/4/4 1171/4/4
f 1168/5/4 1169/5/4 1172/5/4
f 1169/4/4 1170/4/4 1173/4/4
f 1172/5/4 1169/5/4 1173/5/4
f 1173/4/4 1170/4/4 1174/4/4
f 1179/1/5 1176/1/5 1175/1/5
f 1180/1/5 1176/1/5 1179/1/5
f 1181/1/5 1178/1/5 1177/1/5
f 1182/1/5 1178/1/5 1181/1/5
f 1187/1/5 1184/1/5 1183/1/5
f 1188/1/5 1184/1/5 1187/1/5
f 1189/1/5 1186/1/5 1185/1/5
f 1190/1/5 1186/1/5 1189/1/5
f 1193/1/5 1192/1/5 1191/1/5
f 1194/1/5 1192/1/5 1193/1/5
f 1199/1/5 1196/1/5 1195/1/5
f 1200/1/5 1196/1/5 1199/1/5
f 1201/1/5 1198/1/5 1197/1/5
f 1202/1/5 1198/1/5 1201/1/5
f 1206/2/5 1204/2/5 1203/2/5
f 1207/2/5 1204/2/5 1206/2/5
f 1209/2/5 1206/2/5 1205/2/5
f 1209/2/5 1208/2/5 1207/2/5
f 1209/2/5 1207/2/5 1206/2/5
f 1210/2/5 1208/2/5 1209/2/5
f 1211/2/5 1208/2/5 1210/2/5
f 1212/2/5 1208/2/5 1211/2/5
f 1213/2/5 1211/2/5 1210/2/5
f 1214/2/5 1211/2/5 1213/2/5
f 1217/5/5 1216/5/5 1215/5/5
f 1218/5/5 1216/5/5 1217/5/5
f 1225/2/5 1221/2/5 1220/2/5
f 1225/2/5 1222/2/5 1221/2/5
f 1225/2/5 1223/2/5 1222/2/5
f 1226/2/5 1223/2/5 1225/2/5
f 1227/4/5 1220/4/5 1219/4/5
f 1228/2/5 1225/2/5 1220/2/5
f 1228/4/5 1220/4/5 1227/4/5
f 1229/2/5 1225/2/5 1228/2/5
f 1230/2/5 1223/2/5 1226/2/5
f 1231/4/5 1224/4/5 1223/4/5
f 1231/2/5 1223/2/5 1230/2/5
f 1232/4/5 1224/4/5 1231/4/5
f 1233/2/5 1228/2/5 1227/2/5
f 1234/2/5 1228/2/5 1233/2/5
f 1237/2/5 1232/2/5 1231/2/5
f 1238/2/5 1232/2/5 1237/2/5
f 1239/2/5 1235/2/5 1234/2/5
f 1239/4/5 1234/4/5 1233/4/5
f 1240/2/5 1235/2/5 1239/2/5
f 1241/2/5 1237/2/5 1236/2/5
f 1242/4/5 1238/4/5 1237/4/5
f 1242/2/5 1237/2/5 1241/2/5
f 1244/4/5 1240/4/5 1239/4/5
f 1244/4/5 1239/4/5 1233/4/5
f 1245/4/5 1240/4/5 1244/4/5
f 1248/4/5 1242/4/5 1241/4/5
f 1249/4/5 1238/4/5 1242/4/5
f 1249/4/5 1242/4/5 1248/4/5
f 1251/4/5 1244/4/5 1243/4/5
f 1251/4/5 1245/4/5 1244/4/5
f 1251/4/5 1246/4/5 1245/4/5
f 1252/4/5 1246/4/5 1251/4/5
f 1253/2/5 1247/2/5 1246/2/5
f 1253/4/5 1246/4/5 1252/4/5
f 1254/4/5 1249/4/5 1248/4/5
f 1254/2/5 1247/2/5 1253/2/5
f 1254/4/5 1248/4/5 1247/4/5
f 1254/4/5 1250/4/5 1249/4/5
f 1255/4/5 1250/4/5 1254/4/5
f 1256/4/5 1250/4/5 1255/4/5
f 1257/4/5 1251/4/5 1243/4/5
f 1258/4/5 1251/4/5 1257/4/5
f 1259/4/5 1250/4/5 1256/4/5
f 1260/4/5 1250/4/5 1259/4/5
f 1265/4/5 1262/4/5 1261/4/5
f 1266/4/5 1262/4/5 1265/4/5
f 1267/4/5 1264/4/5 1263/4/5
f 1268/4/5 1264/4/5 1267/4/5
f 1273/5/5 1270/5/5 1269/5/5
f 1274/5/5 1270/5/5 1273/5/5
f 1275/5/5 1272/5/5 1271/5/5
f 1276/5/5 1272/5/5 1275/5/5
f 1279/2/5 1278/2/5 1277/2/5
f 1280/2/5 1278/2/5 1279/2/5
f 1285/4/5 1282/4/5 1281/4/5
f 1286/4/5 1282/4/5 1285/4/5
f 1287/4/5 1284/4/5 1283/4/5
f 1288/4/5 1284/4/5 1287/4/5
f 1297/4/5 1294/4/5 1293/4/5
f 1298/4/5 1294/4/5 1297/4/5
f 1299/4/5 1290/4/5 1289/4/5
f 1299/4/5 1291/4/5 1290/4/5
f 1299/4/5 1292/4/5 1291/4/5
f 1300/4/5 1292/4/5 1299/4/5
f 1301/4/5 1296/4/5 1295/4/5
f 1302/4/5 1296/4/5 1301/4/5
f 1303/4/5 1299/4/5 1289/4/5
f 1304/4/5 1299/4/5 1303/4/5
f 1305/4/5 1292/4/5 1300/4/5
f 1306/4/5 1292/4/5 1305/4/5
f 1311/4/5 1308/4/5 1307/4/5
f 1312/4/5 1308/4/5 1311/4/5
f 1313/4/5 1310/4/5 1309/4/5
f 1314/4/5 1310/4/5 1313/4/5
f 1319/4/5 1316/4/5 1315/4/5
f 1320/2/5 1317/2/5 1316/2/5
f 1320/4/5 1316/4/5 1319/4/5
f 1321/4/5 1318/4/5 1317/4/5
f 1321/2/5 1317/2/5 1320/2/5
f 1322/4/5 1318/4/5 1321/4/5
f 1327/4/5 1324/4/5 1323/4/5
f 1328/4/5 1324/4/5 1327/4/5
f 1329/4/5 1326/4/5 1325/4/5
f 1330/4/5 1326/4/5 1329/4/5
f 1335/4/5 1332/4/5 1331/4/5
f 1336/4/5 1332/4/5 1335/4/5
f 1337/4/5 1334/4/5 1333/4/5
f 1338/4/5 1334/4/5 1337/4/5
f 1341/2/5 1340/2/5 1339/2/5
f 1342/2/5 1340/2/5 1341/2/5
f 1343/2/5 1340/2/5 1342/2/5
f 1344/2/5 1340/2/5 1343/2/5
f 1347/2/5 1343/2/5 1342/2/5
f 1348/2/5 1343/2/5 1347/2/5
f 1351/4/5 1346/4/5 1345/4/5
f 1352/2/5 1349/2/5 1348/2/5
f 1352/4/5 1346/4/5 1351/4/5
f 1352/2/5 1347/2/5 1346/2/5
f 1352/2/5 1348/2/5 1347/2/5
f 1353/4/5 1350/4/5 1349/4/5
f 1353/2/5 1349/2/5 1352/2/5
f 1354/4/5 1350/4/5 1353/4/5
f 1358/2/5 1356/2/5 1355/2/5
f 1359/2/5 1356/2/5 1358/2/5
f 1362/2/5 1358/2/5 1357/2/5
f 1362/2/5 1360/2/5 1359/2/5
f 1362/2/5 1359/2/5 1358/2/5
f 1363/2/5 1360/2/5 1362/2/5
f 1366/2/5 1362/2/5 1361/2/5
f 1366/2/5 1364/2/5 1363/2/5
f 1366/2/5 1363/2/5 1362/2/5
f 1367/2/5 1364/2/5 1366/2/5
f 1370/2/5 1366/2/5 1365/2/5
f 1370/2/5 1368/2/5 1367/2/5
f 1370/2/5 1367/2/5 1366/2/5
f 1371/2/5 1368/2/5 1370/2/5
f 1373/4/5 1370/4/5 1369/4/5
f 1376/4/5 1372/4/5 1371/4/5
f 1377/4/5 1374/4/5 1373/4/5
f 1377/4/5 1373/4/5 1369/4/5
f 1378/4/5 1374/4/5 1377/4/5
f 1379/4/5 1374/4/5 1378/4/5
f 1380/4/5 1376/4/5 1375/4/5
f 1381/4/5 1372/4/5 1376/4/5
f 1381/4/5 1376/4/5 1380/4/5
f 1382/4/5 1372/4/5 1381/4/5
f 1387/4/5 1384/4/5 1383/4/5
f 1388/4/5 1384/4/5 1387/4/5
f 1389/4/5 1386/4/5 1385/4/5
f 1390/4/5 1386/4/5 1389/4/5
f 1394/2/5 1392/2/5 1391/2/5
f 1395/2/5 1392/2/5 1394/2/5
f 1397/2/5 1394/2/5 1393/2/5
f 1398/2/5 1394/2/5 1397/2/5
f 1399/2/5 1396/2/5 1395/2/5
f 1400/2/5 1396/2/5 1399/2/5
f 1406/4/5 1402/4/5 1401/4/5
f 1407/4/5 1402/4/5 1406/4/5
f 1408/4/5 1404/4/5 1403/4/5
f 1409/4/5 1404/4/5 1408/4/5
f 1412/4/5 1406/4/5 1405/4/5
f 1413/4/5 1406/4/5 1412/4/5
f 1414/4/5 1410/4/5 1409/4/5
f 1415/4/5 1410/4/5 1414/4/5
f 1417/4/5 1416/4/5 1415/4/5
f 1418/4/5 1416/4/5 1417/4/5
f 1419/4/5 1412/4/5 1411/4/5
f 1420/4/5 1412/4/5 1419/4/5
f 1425/4/5 1424/4/5 1423/4/5
f 1426/4/5 1424/4/5 1425/4/5
f 1427/4/5 1422/4/5 1421/4/5
f 1428/4/5 1422/4/5 1427/4/5
f 1433/6/5 1430/6/5 1429/6/5
f 1434/6/5 1430/6/5 1433/6/5
f 1435/6/5 1432/6/5 1431/6/5
f 1436/6/5 1432/6/5 1435/6/5
f 1437/1/6 1438/1/6 1441/1/6
f 1441/1/6 1438/1/6 1442/1/6
f 1439/1/6 1440/1/6 1443/1/6
f 1443/1/6 1440/1/6 1444/1/6
f 1445/1/6 1446/1/6 1449/1/6
f 1449/1/6 1446/1/6 1450/1/6
f 1447/1/6 1448/1/6 1451/1/6
f 1451/1/6 1448/1/6 1452/1/6
f 1453/4/6 1454/4/6 1457/4/6
f 1457/4/6 1454/4/6 1458/4/6
f 1455/4/6 1456/4/6 1461/4/6
f 1461/4/6 1456/4/6 1462/4/6
f 1458/4/6 1459/4/6 1463/4/6
f 1463/4/6 1459/4/6 1464/4/6
f 1460/4/6 1461/4/6 1465/4/6
f 1465/4/6 1461/4/6 1466/4/6
f 1467/4/6 1468/4/6 1471/4/6
f 1471/4/6 1468/4/6 1472/4/6
f 1469/4/6 1470/4/6 1475/4/6
f 1475/4/6 1470/4/6 1476/4/6
f 1472/4/6 1473/4/6 1477/4/6
f 1477/4/6 1473/4/6 1478/4/6
f 1474/4/6 1475/4/6 1479/4/6
f 1479/4/6 1475/4/6 1480/4/6
f 1481/4/6 1482/4/6 1485/4/6
f 1485/4/6 1482/4/6 1486/4/6
f 1483/4/6 1484/4/6 1487/4/6
f 1487/4/6 1484/4/6 1488/4/6
f 1489/4/6 1490/4/6 1493/4/6
f 1493/4/6 1490/4/6 1494/4/6
f 1491/4/6 1492/4/6 1495/4/6
f 1495/4/6 1492/4/6 1496/4/6
f 1497/4/6 1498/4/6 1501/4/6
f 1499/4/6 1500/4/6 1504/4/6
f 1501/4/6 1502/4/6 1505/4/6
f 1497/4/6 1501/4/6 1505/4/6
f 1505/4/6 1502/4/6 1506/4/6
f 1506/4/6 1502/4/6 1507/4/6
f 1503/4/6 1504/4/6 1510/4/6
f 1504/4/6 1500/4/6 1511/4/6
f 1510/4/6 1504/4/6 1511/4/6
f 1511/4/6 1500/4/6 1512/4/6
f 1507/4/6 1508/4/6 1513/4/6
f 1506/4/6 1507/4/6 1513/4/6
f 1513/4/6 1508/4/6 1514/4/6
f 1514/4/6 1508/4/6 1515/4/6
f 1509/4/6 1510/4/6 1518/4/6
f 1510/4/6 1511/4/6 1518/4/6
f 1518/4/6 1511/4/6 1519/4/6
f 1519/4/6 1511/4/6 1520/4/6
f 1515/4/6 1516/4/6 1521/4/6
f 1514/4/6 1515/4/6 1521/4/6
f 1521/4/6 1516/4/6 1522/4/6
f 1518/4/6 1519/4/6 1523/4/6
f 1517/4/6 1518/4/6 1523/4/6
f 1523/4/6 1519/4/6 1524/4/6
f 1525/4/6 1526/4/6 1527/4/6
f 1527/4/6 1526/4/6 1528/4/6
f 1529/4/6 1530/4/6 1533/4/6
f 1533/4/6 1530/4/6 1534/4/6
f 1531/4/6 1532/4/6 1537/4/6
f 1537/4/6 1532/4/6 1538/4/6
f 1534/4/6 1535/4/6 1539/4/6
f 1539/4/6 1535/4/6 1540/4/6
f 1536/4/6 1537/4/6 1543/4/6
f 1543/4/6 1537/4/6 1544/4/6
f 1540/4/6 1541/4/6 1545/4/6
f 1545/4/6 1541/4/6 1546/4/6
f 1542/4/6 1543/4/6 1547/4/6
f 1547/4/6 1543/4/6 1548/4/6
f 1540/4/6 1545/4/6 1549/4/6
f 1548/4/6 1543/4/6 1552/4/6
f 1549/4/6 1550/4/6 1553/4/6
f 1540/4/6 1549/4/6 1553/4/6
f 1553/4/6 1550/4/6 1554/4/6
f 1554/4/6 1550/4/6 1555/4/6
f 1551/4/6 1552/4/6 1556/4/6
f 1552/4/6 1543/4/6 1557/4/6
f 1556/4/6 1552/4/6 1557/4/6
f 1557/4/6 1543/4/6 1558/4/6
f 1554/4/6 1555/4/6 1559/4/6
f 1555/4/6 1556/4/6 1559/4/6
f 1556/4/6 1557/4/6 1559/4/6
f 1559/4/6 1557/4/6 1560/4/6
f 1560/4/6 1557/4/6 1561/4/6
f 1561/4/6 1557/4/6 1562/4/6
f 1563/4/6 1564/4/6 1565/4/6
f 1565/4/6 1564/4/6 1566/4/6
f 1567/6/6 1568/6/6 1569/6/6
f 1569/6/6 1568/6/6 1570/6/6
f 1569/4/6 1570/4/6 1572/4/6
f 1572/4/6 1570/4/6 1573/4/6
f 1571/4/6 1572/4/6 1575/4/6
f 1575/4/6 1572/4/6 1576/4/6
f 1573/4/6 1574/4/6 1577/4/6
f 1577/4/6 1574/4/6 1578/4/6
f 1579/4/6 1580/4/6 1583/4/6
f 1583/4/6 1580/4/6 1584/4/6
f 1581/4/6 1582/4/6 1585/4/6
f 1585/4/6 1582/4/6 1586/4/6
f 1584/4/6 1585/4/6 1587/4/6
f 1587/4/6 1585/4/6 1588/4/6
f 1588/4/6 1585/4/6 1589/4/6
f 1589/4/6 1585/4/6 1590/4/6
f 1588/4/6 1589/4/6 1592/4/6
f 1592/4/6 1589/4/6 1593/4/6
f 1591/4/6 1592/4/6 1595/4/6
f 1593/4/6 1594/4/6 1595/4/6
f 1592/4/6 1593/4/6 1595/4/6
f 1595/4/6 1594/4/6 1596/4/6
f 1596/4/6 1594/4/6 1597/4/6
f 1597/4/6 1594/4/6 1598/4/6
f 1596/4/6 1597/4/6 1599/4/6
f 1599/4/6 1597/4/6 1600/4/6
f 1601/4/6 1602/4/6 1603/4/6
f 1603/4/6 1602/4/6 1604/4/6
f 1605/4/6 1606/4/6 1608/4/6
f 1608/4/6 1606/4/6 1609/4/6
f 1607/4/6 1608/4/6 1611/4/6
f 1609/4/6 1610/4/6 1611/4/6
f 1608/4/6 1609/4/6 1611/4/6
f 1611/4/6 1610/4/6 1612/4/6
f 1611/4/6 1612/4/6 1613/4/6
f 1613/4/6 1612/4/6 1614/4/6
f 1615/4/6 1616/4/6 1619/4/6
f 1619/4/6 1616/4/6 1620/4/6
f 1617/4/6 1618/4/6 1621/4/6
f 1621/4/6 1618/4/6 1622/4/6
f 1620/4/6 1621/4/6 1623/4/6
f 1623/4/6 1621/4/6 1624/4/6
f 1625/6/6 1626/6/6 1630/6/6
f 1630/6/6 1626/6/6 1631/6/6
f 1627/6/6 1628/6/6 1632/6/6
f 1632/6/6 1628/6/6 1633/6/6
f 1629/4/6 1630/4/6 1635/4/6
f 1635/4/6 1630/4/6 1636/4/6
f 1633/4/6 1634/4/6 1637/4/6
f 1637/4/6 1634/4/6 1638/4/6
f 1639/4/6 1640/4/6 1643/4/6
f 1643/4/6 1640/4/6 1644/4/6
f 1641/4/6 1642/4/6 1645/4/6
f 1645/4/6 1642/4/6 1646/4/6
f 1647/4/6 1648/4/6 1649/4/6
f 1649/4/6 1648/4/6 1650/4/6
f 1651/4/6 1652/4/6 1654/4/6
f 1654/4/6 1652/4/6 1655/4/6
f 1653/4/6 1654/4/6 1658/4/6
f 1655/4/6 1656/4/6 1658/4/6
f 1654/4/6 1655/4/6 1658/4/6
f 1658/4/6 1656/4/6 1659/4/6
f 1657/4/6 1658/4/6 1661/4/6
f 1661/4/6 1658/4/6 1662/4/6
f 1659/4/6 1660/4/6 1663/4/6
f 1663/4/6 1660/4/6 1664/4/6
f 1665/4/6 1666/4/6 1669/4/6
f 1669/4/6 1666/4/6 1670/4/6
f 1667/6/6 1668/6/6 1673/6/6
f 1673/6/6 1668/6/6 1674/6/6
f 1669/4/6 1670/4/6 1675/4/6
f 1675/4/6 1670/4/6 1676/4/6
f 1671/6/6 1672/6/6 1677/6/6
f 1677/6/6 1672/6/6 1678/6/6
f 1675/4/6 1676/4/6 1679/4/6
f 1676/4/6 1677/4/6 1679/4/6
f 1674/4/6 1675/4/6 1679/4/6
f 1679/4/6 1677/4/6 1680/4/6
f 1681/3/6 1682/3/6 1685/3/6
f 1685/3/6 1682/3/6 1686/3/6
f 1683/3/6 1684/3/6 1687/3/6
f 1687/3/6 1684/3/6 1688/3/6
f 1689/3/6 1690/3/6 1697/3/6
f 1697/3/6 1690/3/6 1698/3/6
f 1691/3/6 1692/3/6 1699/3/6
f 1699/3/6 1692/3/6 1700/3/6
f 1693/3/6 1694/3/6 1703/3/6
f 1703/3/6 1694/3/6 1704/3/6
f 1695/3/6 1696/3/6 1705/3/6
f 1705/3/6 1696/3/6 1706/3/6
f 1700/6/6 1701/6/6 1707/6/6
f 1707/6/6 1701/6/6 1708/6/6
f 1702/6/6 1703/6/6 1709/6/6
f 1709/6/6 1703/6/6 1710/6/6
f 1711/6/6 1712/6/6 1719/6/6
f 1719/6/6 1712/6/6 1720/6/6
f 1713/6/6 1714/6/6 1721/6/6
f 1721/6/6 1714/6/6 1722/6/6
f 1715/6/6 1716/6/6 1723/6/6
f 1723/6/6 1716/6/6 1724/6/6
f 1717/6/6 1718/6/6 1725/6/6
f 1725/6/6 1718/6/6 1726/6/6
f 1727/6/6 1728/6/6 1731/6/6
f 1731/6/6 1728/6/6 1732/6/6
f 1729/6/6 1730/6/6 1733/6/6
f 1733/6/6 1730/6/6 1734/6/6
