# MagicaVoxel @ Ephtracy

# group
o 

# material
mtllib ground.mtl
usemtl palette

# normals
vn -1 0 0
vn 1 0 0
vn 0 0 1
vn 0 0 -1
vn 0 -1 0
vn 0 1 0

# texcoords
vt 0.537109 0.5
vt 0.892578 0.5
vt 0.900391 0.5
vt 0.904297 0.5

# verts
v -0.5 0 0.5
v -0.5 0 -0.5
v -0.5 0.6 0.5
v -0.5 0.6 0.4
v -0.5 0.6 0.3
v -0.5 0.6 -0.2
v -0.5 0.7 0.4
v -0.5 0.7 0.3
v -0.5 0.7 0.2
v -0.5 0.7 -0.1
v -0.5 0.7 -0.2
v -0.5 0.7 -0.5
v -0.5 0.8 0.5
v -0.5 0.8 0.4
v -0.5 0.8 0.3
v -0.5 0.8 0.2
v -0.5 0.8 -0.1
v -0.5 0.8 -0.5
v -0.5 0.9 0.4
v -0.5 0.9 0.3
v -0.5 0.9 -0.3
v -0.5 0.9 -0.4
v -0.5 1 0.5
v -0.5 1 -0.3
v -0.5 1 -0.4
v -0.5 1 -0.5
v 0.5 0 0.5
v 0.5 0 -0.5
v 0.5 0.6 0.5
v 0.5 0.6 0.4
v 0.5 0.6 0.2
v 0.5 0.6 -0.1
v 0.5 0.6 -0.2
v 0.5 0.6 -0.5
v 0.5 0.7 0.4
v 0.5 0.7 0.2
v 0.5 0.7 -0.1
v 0.5 0.7 -0.2
v 0.5 0.8 0.5
v 0.5 0.8 0.4
v 0.5 0.8 0.2
v 0.5 0.8 -0.1
v 0.5 0.8 -0.2
v 0.5 0.8 -0.5
v 0.5 0.9 0.4
v 0.5 0.9 0.3
v 0.5 0.9 0.2
v 0.5 0.9 -0.1
v 0.5 0.9 -0.2
v 0.5 0.9 -0.3
v 0.5 0.9 -0.4
v 0.5 1 0.5
v 0.5 1 0.3
v 0.5 1 0.2
v 0.5 1 -0.3
v 0.5 1 -0.4
v 0.5 1 -0.5
v -0.5 0 0.5
v -0.5 0.6 0.5
v -0.5 0.8 0.5
v -0.5 1 0.5
v -0.4 0.6 0.5
v -0.4 0.7 0.5
v -0.4 0.8 0.5
v -0.4 0.9 0.5
v -0.1 0.6 0.5
v -0.1 0.7 0.5
v -0.1 0.9 0.5
v 0.1 0.7 0.5
v 0.1 0.9 0.5
v 0.1 1 0.5
v 0.2 0.6 0.5
v 0.2 0.7 0.5
v 0.2 0.9 0.5
v 0.2 1 0.5
v 0.3 0.6 0.5
v 0.3 0.7 0.5
v 0.3 0.8 0.5
v 0.3 0.9 0.5
v 0.5 0 0.5
v 0.5 0.6 0.5
v 0.5 0.8 0.5
v 0.5 1 0.5
v -0.5 0 -0.5
v -0.5 0.7 -0.5
v -0.5 0.8 -0.5
v -0.5 1 -0.5
v -0.4 0.8 -0.5
v -0.4 0.9 -0.5
v -0.4 1 -0.5
v -0.3 0.6 -0.5
v -0.3 0.7 -0.5
v -0.3 0.9 -0.5
v -0.3 1 -0.5
v -0.2 0.7 -0.5
v -0.2 0.9 -0.5
v -0.1 0.9 -0.5
v -0.1 1 -0.5
v 0 0.9 -0.5
v 0 1 -0.5
v 0.1 0.6 -0.5
v 0.1 0.7 -0.5
v 0.1 0.9 -0.5
v 0.4 0.6 -0.5
v 0.4 0.7 -0.5
v 0.4 0.8 -0.5
v 0.4 0.9 -0.5
v 0.5 0 -0.5
v 0.5 0.6 -0.5
v 0.5 0.8 -0.5
v 0.5 1 -0.5
v -0.5 0 0.5
v 0.5 0 0.5
v -0.5 0 -0.5
v 0.5 0 -0.5
v -0.5 1 0.5
v 0.1 1 0.5
v 0.2 1 0.5
v 0.5 1 0.5
v -0.4 1 0.4
v -0.3 1 0.4
v 0.1 1 0.4
v 0.2 1 0.4
v 0.3 1 0.4
v -0.4 1 0.3
v -0.3 1 0.3
v -0.1 1 0.3
v 0 1 0.3
v 0.2 1 0.3
v 0.3 1 0.3
v 0.4 1 0.3
v 0.5 1 0.3
v -0.1 1 0.2
v 0 1 0.2
v 0.4 1 0.2
v 0.5 1 0.2
v -0.4 1 0.1
v -0.3 1 0.1
v 0.2 1 0.1
v 0.3 1 0.1
v -0.4 1 0
v -0.3 1 0
v -0.2 1 0
v 0.1 1 0
v 0.2 1 0
v 0.3 1 0
v 0.4 1 0
v -0.3 1 -0.1
v -0.2 1 -0.1
v -0.1 1 -0.1
v 0 1 -0.1
v 0.1 1 -0.1
v 0.2 1 -0.1
v 0.3 1 -0.1
v 0.4 1 -0.1
v -0.1 1 -0.2
v 0 1 -0.2
v 0.3 1 -0.2
v 0.4 1 -0.2
v -0.5 1 -0.3
v -0.4 1 -0.3
v 0.3 1 -0.3
v 0.4 1 -0.3
v 0.5 1 -0.3
v -0.5 1 -0.4
v -0.4 1 -0.4
v -0.3 1 -0.4
v -0.1 1 -0.4
v 0 1 -0.4
v 0.4 1 -0.4
v 0.5 1 -0.4
v -0.5 1 -0.5
v -0.4 1 -0.5
v -0.3 1 -0.5
v -0.1 1 -0.5
v 0 1 -0.5
v 0.5 1 -0.5

# faces
f 3/1/1 2/1/1 1/1/1
f 4/1/1 2/1/1 3/1/1
f 5/1/1 2/1/1 4/1/1
f 6/1/1 2/1/1 5/1/1
f 7/4/1 4/4/1 3/4/1
f 7/1/1 5/1/1 4/1/1
f 8/4/1 6/4/1 5/4/1
f 8/1/1 5/1/1 7/1/1
f 9/4/1 6/4/1 8/4/1
f 10/4/1 6/4/1 9/4/1
f 11/1/1 2/1/1 6/1/1
f 11/4/1 6/4/1 10/4/1
f 12/1/1 2/1/1 11/1/1
f 13/4/1 7/4/1 3/4/1
f 13/4/1 8/4/1 7/4/1
f 13/4/1 9/4/1 8/4/1
f 14/4/1 9/4/1 13/4/1
f 15/4/1 9/4/1 14/4/1
f 16/3/1 10/3/1 9/3/1
f 16/4/1 9/4/1 15/4/1
f 17/4/1 12/4/1 11/4/1
f 17/3/1 10/3/1 16/3/1
f 17/4/1 11/4/1 10/4/1
f 18/4/1 12/4/1 17/4/1
f 19/4/1 15/4/1 14/4/1
f 19/3/1 14/3/1 13/3/1
f 20/3/1 16/3/1 15/3/1
f 20/4/1 15/4/1 19/4/1
f 20/3/1 18/3/1 17/3/1
f 20/3/1 17/3/1 16/3/1
f 21/3/1 18/3/1 20/3/1
f 22/3/1 18/3/1 21/3/1
f 23/3/1 19/3/1 13/3/1
f 23/3/1 20/3/1 19/3/1
f 23/3/1 21/3/1 20/3/1
f 24/2/1 22/2/1 21/2/1
f 24/3/1 21/3/1 23/3/1
f 25/3/1 18/3/1 22/3/1
f 25/2/1 22/2/1 24/2/1
f 26/3/1 18/3/1 25/3/1
f 27/1/2 28/1/2 29/1/2
f 29/1/2 28/1/2 30/1/2
f 30/1/2 28/1/2 31/1/2
f 31/1/2 28/1/2 32/1/2
f 32/1/2 28/1/2 33/1/2
f 33/1/2 28/1/2 34/1/2
f 29/4/2 30/4/2 35/4/2
f 30/1/2 31/1/2 35/1/2
f 31/4/2 32/4/2 36/4/2
f 35/1/2 31/1/2 36/1/2
f 32/1/2 33/1/2 37/1/2
f 36/4/2 32/4/2 37/4/2
f 33/4/2 34/4/2 38/4/2
f 37/1/2 33/1/2 38/1/2
f 36/4/2 37/4/2 39/4/2
f 29/4/2 35/4/2 39/4/2
f 37/4/2 38/4/2 39/4/2
f 35/4/2 36/4/2 39/4/2
f 39/4/2 38/4/2 40/4/2
f 40/4/2 38/4/2 41/4/2
f 41/4/2 38/4/2 42/4/2
f 38/4/2 34/4/2 43/4/2
f 42/4/2 38/4/2 43/4/2
f 43/4/2 34/4/2 44/4/2
f 39/3/2 40/3/2 45/3/2
f 40/4/2 41/4/2 45/4/2
f 45/4/2 41/4/2 46/4/2
f 41/3/2 42/3/2 47/3/2
f 46/4/2 41/4/2 47/4/2
f 42/4/2 43/4/2 48/4/2
f 47/3/2 42/3/2 48/3/2
f 43/3/2 44/3/2 49/3/2
f 48/4/2 43/4/2 49/4/2
f 49/3/2 44/3/2 50/3/2
f 50/3/2 44/3/2 51/3/2
f 45/3/2 46/3/2 52/3/2
f 39/3/2 45/3/2 52/3/2
f 46/2/2 47/2/2 53/2/2
f 52/3/2 46/3/2 53/3/2
f 47/3/2 48/3/2 54/3/2
f 53/2/2 47/2/2 54/2/2
f 48/3/2 49/3/2 54/3/2
f 49/3/2 50/3/2 54/3/2
f 50/2/2 51/2/2 55/2/2
f 54/3/2 50/3/2 55/3/2
f 51/3/2 44/3/2 56/3/2
f 55/2/2 51/2/2 56/2/2
f 56/3/2 44/3/2 57/3/2
f 62/1/3 59/1/3 58/1/3
f 62/4/3 60/4/3 59/4/3
f 63/4/3 60/4/3 62/4/3
f 64/3/3 61/3/3 60/3/3
f 64/4/3 60/4/3 63/4/3
f 65/3/3 61/3/3 64/3/3
f 66/1/3 63/1/3 62/1/3
f 66/1/3 62/1/3 58/1/3
f 67/4/3 65/4/3 64/4/3
f 67/1/3 63/1/3 66/1/3
f 67/4/3 64/4/3 63/4/3
f 68/3/3 61/3/3 65/3/3
f 68/4/3 65/4/3 67/4/3
f 69/4/3 67/4/3 66/4/3
f 69/3/3 68/3/3 67/3/3
f 70/3/3 61/3/3 68/3/3
f 70/3/3 68/3/3 69/3/3
f 71/3/3 61/3/3 70/3/3
f 72/4/3 69/4/3 66/4/3
f 72/1/3 66/1/3 58/1/3
f 72/4/3 70/4/3 69/4/3
f 73/4/3 70/4/3 72/4/3
f 74/2/3 71/2/3 70/2/3
f 74/4/3 70/4/3 73/4/3
f 75/2/3 71/2/3 74/2/3
f 76/1/3 73/1/3 72/1/3
f 76/1/3 72/1/3 58/1/3
f 77/4/3 74/4/3 73/4/3
f 77/1/3 73/1/3 76/1/3
f 78/4/3 74/4/3 77/4/3
f 79/3/3 75/3/3 74/3/3
f 79/4/3 74/4/3 78/4/3
f 80/1/3 76/1/3 58/1/3
f 81/4/3 78/4/3 77/4/3
f 81/1/3 76/1/3 80/1/3
f 81/4/3 77/4/3 76/4/3
f 82/3/3 79/3/3 78/3/3
f 82/4/3 78/4/3 81/4/3
f 83/3/3 75/3/3 79/3/3
f 83/3/3 79/3/3 82/3/3
f 85/4/4 86/4/4 88/4/4
f 86/3/4 87/3/4 88/3/4
f 88/3/4 87/3/4 89/3/4
f 89/3/4 87/3/4 90/3/4
f 84/1/4 85/1/4 91/1/4
f 85/4/4 88/4/4 92/4/4
f 91/1/4 85/1/4 92/1/4
f 88/4/4 89/4/4 92/4/4
f 89/2/4 90/2/4 93/2/4
f 92/4/4 89/4/4 93/4/4
f 93/2/4 90/2/4 94/2/4
f 91/4/4 92/4/4 95/4/4
f 92/4/4 93/4/4 95/4/4
f 93/3/4 94/3/4 96/3/4
f 95/4/4 93/4/4 96/4/4
f 95/3/4 96/3/4 97/3/4
f 96/3/4 94/3/4 97/3/4
f 97/3/4 94/3/4 98/3/4
f 95/3/4 97/3/4 99/3/4
f 97/2/4 98/2/4 99/2/4
f 99/2/4 98/2/4 100/2/4
f 84/1/4 91/1/4 101/1/4
f 91/4/4 95/4/4 101/4/4
f 99/3/4 100/3/4 102/3/4
f 101/4/4 95/4/4 102/4/4
f 95/3/4 99/3/4 102/3/4
f 102/3/4 100/3/4 103/3/4
f 84/1/4 101/1/4 104/1/4
f 101/1/4 102/1/4 104/1/4
f 102/4/4 103/4/4 105/4/4
f 104/1/4 102/1/4 105/1/4
f 105/4/4 103/4/4 106/4/4
f 103/3/4 100/3/4 107/3/4
f 106/4/4 103/4/4 107/4/4
f 84/1/4 104/1/4 108/1/4
f 105/4/4 106/4/4 109/4/4
f 108/1/4 104/1/4 109/1/4
f 104/4/4 105/4/4 109/4/4
f 106/3/4 107/3/4 110/3/4
f 109/4/4 106/4/4 110/4/4
f 107/3/4 100/3/4 111/3/4
f 110/3/4 107/3/4 111/3/4
f 114/1/5 113/1/5 112/1/5
f 115/1/5 113/1/5 114/1/5
f 116/3/6 117/3/6 120/3/6
f 120/3/6 117/3/6 121/3/6
f 117/2/6 118/2/6 122/2/6
f 121/3/6 117/3/6 122/3/6
f 118/3/6 119/3/6 123/3/6
f 122/2/6 118/2/6 123/2/6
f 123/3/6 119/3/6 124/3/6
f 120/2/6 121/2/6 125/2/6
f 116/3/6 120/3/6 125/3/6
f 121/3/6 122/3/6 126/3/6
f 125/2/6 121/2/6 126/2/6
f 122/3/6 123/3/6 126/3/6
f 126/3/6 123/3/6 127/3/6
f 127/3/6 123/3/6 128/3/6
f 123/2/6 124/2/6 129/2/6
f 128/3/6 123/3/6 129/3/6
f 124/3/6 119/3/6 130/3/6
f 129/2/6 124/2/6 130/2/6
f 130/3/6 119/3/6 131/3/6
f 131/3/6 119/3/6 132/3/6
f 127/2/6 128/2/6 133/2/6
f 125/3/6 126/3/6 133/3/6
f 126/3/6 127/3/6 133/3/6
f 128/3/6 129/3/6 134/3/6
f 133/2/6 128/2/6 134/2/6
f 130/3/6 131/3/6 134/3/6
f 129/3/6 130/3/6 134/3/6
f 131/2/6 132/2/6 135/2/6
f 134/3/6 131/3/6 135/3/6
f 135/2/6 132/2/6 136/2/6
f 116/3/6 125/3/6 137/3/6
f 125/3/6 133/3/6 137/3/6
f 135/3/6 136/3/6 137/3/6
f 134/3/6 135/3/6 137/3/6
f 133/3/6 134/3/6 137/3/6
f 137/3/6 136/3/6 138/3/6
f 138/3/6 136/3/6 139/3/6
f 139/3/6 136/3/6 140/3/6
f 116/3/6 137/3/6 141/3/6
f 137/2/6 138/2/6 141/2/6
f 138/3/6 139/3/6 142/3/6
f 141/2/6 138/2/6 142/2/6
f 142/3/6 139/3/6 143/3/6
f 143/3/6 139/3/6 144/3/6
f 139/2/6 140/2/6 145/2/6
f 144/3/6 139/3/6 145/3/6
f 140/3/6 136/3/6 146/3/6
f 145/2/6 140/2/6 146/2/6
f 146/3/6 136/3/6 147/3/6
f 141/3/6 142/3/6 148/3/6
f 142/2/6 143/2/6 148/2/6
f 143/3/6 144/3/6 149/3/6
f 148/2/6 143/2/6 149/2/6
f 149/3/6 144/3/6 150/3/6
f 150/3/6 144/3/6 151/3/6
f 144/2/6 145/2/6 152/2/6
f 151/3/6 144/3/6 152/3/6
f 145/3/6 146/3/6 153/3/6
f 152/2/6 145/2/6 153/2/6
f 146/2/6 147/2/6 154/2/6
f 153/3/6 146/3/6 154/3/6
f 147/3/6 136/3/6 155/3/6
f 154/2/6 147/2/6 155/2/6
f 150/2/6 151/2/6 156/2/6
f 148/3/6 149/3/6 156/3/6
f 149/3/6 150/3/6 156/3/6
f 153/3/6 154/3/6 157/3/6
f 156/2/6 151/2/6 157/2/6
f 152/3/6 153/3/6 157/3/6
f 154/3/6 155/3/6 157/3/6
f 151/3/6 152/3/6 157/3/6
f 157/3/6 155/3/6 158/3/6
f 155/3/6 136/3/6 159/3/6
f 158/3/6 155/3/6 159/3/6
f 157/3/6 158/3/6 160/3/6
f 141/3/6 148/3/6 160/3/6
f 116/3/6 141/3/6 160/3/6
f 156/3/6 157/3/6 160/3/6
f 148/3/6 156/3/6 160/3/6
f 160/3/6 158/3/6 161/3/6
f 158/2/6 159/2/6 162/2/6
f 161/3/6 158/3/6 162/3/6
f 159/3/6 136/3/6 163/3/6
f 162/2/6 159/2/6 163/2/6
f 163/3/6 136/3/6 164/3/6
f 160/2/6 161/2/6 165/2/6
f 161/3/6 162/3/6 166/3/6
f 165/2/6 161/2/6 166/2/6
f 162/3/6 163/3/6 166/3/6
f 166/3/6 163/3/6 167/3/6
f 167/3/6 163/3/6 168/3/6
f 168/3/6 163/3/6 169/3/6
f 163/2/6 164/2/6 170/2/6
f 169/3/6 163/3/6 170/3/6
f 170/2/6 164/2/6 171/2/6
f 165/3/6 166/3/6 172/3/6
f 166/2/6 167/2/6 173/2/6
f 172/3/6 166/3/6 173/3/6
f 167/3/6 168/3/6 174/3/6
f 173/2/6 167/2/6 174/2/6
f 168/2/6 169/2/6 175/2/6
f 174/3/6 168/3/6 175/3/6
f 169/3/6 170/3/6 176/3/6
f 175/2/6 169/2/6 176/2/6
f 170/3/6 171/3/6 176/3/6
f 176/3/6 171/3/6 177/3/6
