# MagicaVoxel @ Ephtracy

# group
o 

# material
mtllib open mouse.mtl
usemtl palette

# normals
vn -1 0 0
vn 1 0 0
vn 0 0 1
vn 0 0 -1
vn 0 -1 0
vn 0 1 0

# texcoords
vt 0.841797 0.5
vt 0.958984 0.5
vt 0.978516 0.5
vt 0.986328 0.5
vt 0.990234 0.5
vt 0.994141 0.5

# verts
v -0.6 0.9 -0.9
v -0.6 0.9 -1.1
v -0.6 1 -0.8
v -0.6 1 -0.9
v -0.6 1 -1.1
v -0.6 1 -1.2
v -0.6 1.1 0.1
v -0.6 1.1 -0.8
v -0.6 1.2 0.2
v -0.6 1.2 0.1
v -0.6 1.3 0.3
v -0.6 1.3 0.2
v -0.6 1.3 -1.1
v -0.6 1.3 -1.2
v -0.6 1.5 0.4
v -0.6 1.5 0.3
v -0.6 1.5 -1
v -0.6 1.5 -1.1
v -0.6 1.6 0.7
v -0.6 1.6 0.4
v -0.6 1.6 0.1
v -0.6 1.6 -1
v -0.6 1.7 0.8
v -0.6 1.7 0.7
v -0.6 1.7 0.2
v -0.6 1.7 0.1
v -0.6 1.8 0.4
v -0.6 1.8 0.2
v -0.6 1.9 0.5
v -0.6 1.9 0.4
v -0.6 2.1 0.8
v -0.6 2.1 0.6
v -0.6 2.1 0.5
v -0.6 2.2 0.7
v -0.6 2.2 0.6
v -0.6 2.2 0.5
v -0.6 2.3 0.7
v -0.6 2.3 0.5
v -0.5 0 0.4
v -0.5 0 0.1
v -0.5 0 -0.9
v -0.5 0 -1.2
v -0.5 0.1 0.4
v -0.5 0.1 0.3
v -0.5 0.1 -0.9
v -0.5 0.1 -1
v -0.5 0.9 0.1
v -0.5 0.9 -0.9
v -0.5 0.9 -1
v -0.5 0.9 -1.1
v -0.5 0.9 -1.2
v -0.5 0.9 -1.3
v -0.5 1 -0.8
v -0.5 1 -0.9
v -0.5 1 -1.1
v -0.5 1 -1.2
v -0.5 1.1 0.1
v -0.5 1.1 -0.8
v -0.5 1.2 0.4
v -0.5 1.2 0.3
v -0.5 1.2 0.2
v -0.5 1.2 0.1
v -0.5 1.3 0.3
v -0.5 1.3 0.2
v -0.5 1.3 -1.1
v -0.5 1.3 -1.2
v -0.5 1.3 -1.3
v -0.5 1.4 0.5
v -0.5 1.4 0.4
v -0.5 1.5 0.8
v -0.5 1.5 0.5
v -0.5 1.5 0.4
v -0.5 1.5 0.3
v -0.5 1.5 -1
v -0.5 1.5 -1.1
v -0.5 1.5 -1.2
v -0.5 1.6 0.9
v -0.5 1.6 0.8
v -0.5 1.6 0.7
v -0.5 1.6 0.4
v -0.5 1.6 -1
v -0.5 1.6 -1.1
v -0.5 1.7 0.8
v -0.5 1.7 0.7
v -0.5 1.7 0.2
v -0.5 1.7 0.1
v -0.5 1.8 0.4
v -0.5 1.8 0.2
v -0.5 1.8 0.1
v -0.5 1.9 0.5
v -0.5 1.9 0.4
v -0.5 1.9 0.3
v -0.5 1.9 0.2
v -0.5 2 0.4
v -0.5 2 0.3
v -0.5 2.1 0.8
v -0.5 2.1 0.7
v -0.5 2.1 0.6
v -0.5 2.1 0.5
v -0.5 2.2 0.9
v -0.5 2.2 0.7
v -0.5 2.2 0.6
v -0.5 2.2 0.5
v -0.5 2.2 0.4
v -0.5 2.3 0.7
v -0.5 2.3 0.5
v -0.5 2.5 0.7
v -0.5 2.5 0.6
v -0.5 2.6 0.6
v -0.5 2.6 0.5
v -0.4 0.8 -0.1
v -0.4 0.8 -0.7
v -0.4 0.9 -0.1
v -0.4 0.9 -0.7
v -0.4 1.4 0.8
v -0.4 1.4 0.6
v -0.4 1.5 0.9
v -0.4 1.5 0.8
v -0.4 1.5 0.6
v -0.4 1.5 -1.1
v -0.4 1.5 -1.2
v -0.4 1.6 1
v -0.4 1.6 0.9
v -0.4 1.6 0.8
v -0.4 1.6 0.1
v -0.4 1.6 -1
v -0.4 1.6 -1.1
v -0.4 1.6 -1.2
v -0.4 1.7 1
v -0.4 1.7 0.9
v -0.4 1.7 0
v -0.4 1.7 -1
v -0.4 1.8 0.2
v -0.4 1.8 0.1
v -0.4 1.9 1
v -0.4 1.9 0.9
v -0.4 1.9 0.3
v -0.4 1.9 0.2
v -0.4 1.9 0.1
v -0.4 1.9 0
v -0.4 2 0.4
v -0.4 2 0.3
v -0.4 2 0.2
v -0.4 2 0.1
v -0.4 2.1 1
v -0.4 2.1 0.9
v -0.4 2.1 0.3
v -0.4 2.1 0.2
v -0.4 2.2 0.5
v -0.4 2.2 0.4
v -0.4 2.2 0.3
v -0.4 2.3 0.5
v -0.4 2.3 0.4
v -0.4 2.5 0.7
v -0.4 2.5 0.6
v -0.4 2.6 0.7
v -0.4 2.6 0.6
v -0.4 2.6 0.5
v -0.4 2.7 0.7
v -0.4 2.7 0.5
v -0.3 0.8 0
v -0.3 0.8 -0.1
v -0.3 0.8 -0.7
v -0.3 0.8 -0.9
v -0.3 0.9 0
v -0.3 0.9 -0.1
v -0.3 0.9 -0.7
v -0.3 0.9 -0.9
v -0.3 1.4 1
v -0.3 1.4 0.8
v -0.3 1.4 0.6
v -0.3 1.4 0.5
v -0.3 1.5 1.1
v -0.3 1.5 1
v -0.3 1.5 0.9
v -0.3 1.5 0.8
v -0.3 1.5 0.6
v -0.3 1.5 0.5
v -0.3 1.6 1.1
v -0.3 1.6 1
v -0.3 1.6 0.9
v -0.3 1.6 -1
v -0.3 1.6 -1.1
v -0.3 1.7 0
v -0.3 1.7 -0.1
v -0.3 1.7 -0.2
v -0.3 1.7 -0.9
v -0.3 1.7 -1
v -0.3 1.7 -1.1
v -0.3 1.8 0
v -0.3 1.8 -0.1
v -0.3 1.8 -0.2
v -0.3 1.8 -0.9
v -0.3 2.1 1.1
v -0.3 2.1 1
v -0.3 2.1 0.9
v -0.3 2.2 1.1
v -0.3 2.2 1
v -0.3 2.2 0.9
v -0.3 2.2 0.8
v -0.3 2.2 0.7
v -0.3 2.3 0.8
v -0.3 2.3 0.7
v -0.2 0.7 -1.2
v -0.2 0.7 -1.4
v -0.2 0.8 -1.2
v -0.2 0.8 -1.3
v -0.2 0.8 -1.4
v -0.2 0.9 -1.2
v -0.2 0.9 -1.3
v -0.2 0.9 -1.4
v -0.2 0.9 -1.5
v -0.2 1 -1.2
v -0.2 1 -1.3
v -0.2 1 -1.4
v -0.2 1 -1.5
v -0.2 1.1 -1.4
v -0.2 1.1 -1.5
v -0.2 1.3 -1.2
v -0.2 1.3 -1.3
v -0.2 1.4 1.2
v -0.2 1.4 1
v -0.2 1.5 1.2
v -0.2 1.5 1.1
v -0.2 1.5 1
v -0.2 1.5 -1.4
v -0.2 1.5 -1.5
v -0.2 1.6 1.1
v -0.2 1.6 1
v -0.2 1.6 -1.1
v -0.2 1.6 -1.2
v -0.2 1.7 1.1
v -0.2 1.7 1
v -0.2 1.7 0.8
v -0.2 1.7 -0.1
v -0.2 1.7 -0.2
v -0.2 1.7 -0.9
v -0.2 1.7 -1
v -0.2 1.7 -1.1
v -0.2 1.7 -1.3
v -0.2 1.7 -1.4
v -0.2 1.8 1.3
v -0.2 1.8 1.2
v -0.2 1.8 1
v -0.2 1.8 0.9
v -0.2 1.8 0.8
v -0.2 1.8 -0.1
v -0.2 1.8 -0.2
v -0.2 1.8 -0.9
v -0.2 1.8 -1
v -0.2 1.8 -1.1
v -0.2 1.8 -1.3
v -0.2 1.9 1.3
v -0.2 1.9 1.2
v -0.2 1.9 1
v -0.2 2 1.3
v -0.2 2 1.2
v -0.2 2.1 1.2
v -0.2 2.1 1.1
v -0.2 2.1 1
v -0.1 0.6 -1.2
v -0.1 0.6 -1.4
v -0.1 0.7 -1.2
v -0.1 0.7 -1.4
v -0.1 0.8 -1.4
v -0.1 0.8 -1.5
v -0.1 0.9 -1.4
v -0.1 0.9 -1.5
v -0.1 1.3 1.2
v -0.1 1.3 1
v -0.1 1.4 1.3
v -0.1 1.4 1.2
v -0.1 1.4 1
v -0.1 1.5 1.3
v -0.1 1.5 1.2
v -0.1 1.5 1.1
v -0.1 1.5 -1.4
v -0.1 1.5 -1.5
v -0.1 1.6 1.2
v -0.1 1.6 1.1
v -0.1 1.6 -1.4
v -0.1 1.6 -1.5
v -0.1 1.9 1.5
v -0.1 1.9 1.4
v -0.1 1.9 1.3
v -0.1 2 1.5
v -0.1 2 1.4
v -0.1 2 1.3
v -0.1 2 1.2
v -0.1 2.1 1.3
v -0.1 2.1 1.2
v 0.1 1.8 1.3
v 0.1 1.8 1.2
v 0.1 1.9 1.3
v 0.1 1.9 1.2
v 0.1 2.3 0.7
v 0.1 2.3 0.5
v 0.1 2.4 0.7
v 0.1 2.4 0.6
v 0.1 2.5 0.6
v 0.1 2.5 0.5
v 0.2 2.1 1.1
v 0.2 2.1 1
v 0.2 2.2 1.1
v 0.2 2.2 1
v 0.2 2.5 0.6
v 0.2 2.5 0.5
v 0.2 2.6 0.6
v 0.2 2.6 0.5
v 0.3 0 0.4
v 0.3 0 0.1
v 0.3 0 -0.9
v 0.3 0 -1.2
v 0.3 0.1 0.4
v 0.3 0.1 0.3
v 0.3 0.1 -0.9
v 0.3 0.1 -1
v 0.3 0.9 0.1
v 0.3 0.9 -1
v 0.3 0.9 -1.2
v 0.3 0.9 -1.3
v 0.3 1 0.3
v 0.3 1 0.1
v 0.3 1 -1
v 0.3 1 -1.3
v 0.3 2.4 0.7
v 0.3 2.4 0.6
v 0.3 2.5 0.7
v 0.3 2.5 0.6
v 0.3 2.6 0.7
v 0.3 2.6 0.6
v 0.3 2.6 0.5
v 0.3 2.7 0.7
v 0.3 2.7 0.5
v 0.4 1.7 0.9
v 0.4 1.7 0.8
v 0.4 1.8 0.9
v 0.4 1.8 0.8
v -0.4 1.7 0.9
v -0.4 1.7 0.8
v -0.4 1.8 0.9
v -0.4 1.8 0.8
v -0.3 0 0.4
v -0.3 0 0.1
v -0.3 0 -0.9
v -0.3 0 -1.2
v -0.3 0.1 0.4
v -0.3 0.1 0.3
v -0.3 0.1 -0.9
v -0.3 0.1 -1
v -0.3 0.9 0.1
v -0.3 0.9 -1
v -0.3 0.9 -1.2
v -0.3 0.9 -1.3
v -0.3 1 0.3
v -0.3 1 0.1
v -0.3 1 -1
v -0.3 1 -1.3
v -0.3 2.4 0.7
v -0.3 2.4 0.6
v -0.3 2.5 0.7
v -0.3 2.5 0.6
v -0.3 2.6 0.7
v -0.3 2.6 0.6
v -0.3 2.6 0.5
v -0.3 2.7 0.7
v -0.3 2.7 0.5
v -0.2 2.1 1.1
v -0.2 2.1 1
v -0.2 2.2 1.1
v -0.2 2.2 1
v -0.2 2.5 0.6
v -0.2 2.5 0.5
v -0.2 2.6 0.6
v -0.2 2.6 0.5
v -0.1 1.8 1.3
v -0.1 1.8 1.2
v -0.1 1.9 1.3
v -0.1 1.9 1.2
v -0.1 2.3 0.7
v -0.1 2.3 0.5
v -0.1 2.4 0.7
v -0.1 2.4 0.6
v -0.1 2.5 0.6
v -0.1 2.5 0.5
v 0.1 0.6 -1.2
v 0.1 0.6 -1.4
v 0.1 0.7 -1.2
v 0.1 0.7 -1.4
v 0.1 0.8 -1.4
v 0.1 0.8 -1.5
v 0.1 0.9 -1.4
v 0.1 0.9 -1.5
v 0.1 1.3 1.2
v 0.1 1.3 1
v 0.1 1.4 1.3
v 0.1 1.4 1.2
v 0.1 1.4 1
v 0.1 1.5 1.3
v 0.1 1.5 1.2
v 0.1 1.5 1.1
v 0.1 1.5 -1.4
v 0.1 1.5 -1.5
v 0.1 1.6 1.2
v 0.1 1.6 1.1
v 0.1 1.6 -1.4
v 0.1 1.6 -1.5
v 0.1 1.9 1.5
v 0.1 1.9 1.4
v 0.1 1.9 1.3
v 0.1 2 1.5
v 0.1 2 1.4
v 0.1 2 1.3
v 0.1 2 1.2
v 0.1 2.1 1.3
v 0.1 2.1 1.2
v 0.2 0.7 -1.2
v 0.2 0.7 -1.4
v 0.2 0.8 -1.2
v 0.2 0.8 -1.3
v 0.2 0.8 -1.4
v 0.2 0.9 -1.2
v 0.2 0.9 -1.3
v 0.2 0.9 -1.4
v 0.2 0.9 -1.5
v 0.2 1 -1.2
v 0.2 1 -1.3
v 0.2 1 -1.4
v 0.2 1 -1.5
v 0.2 1.1 -1.4
v 0.2 1.1 -1.5
v 0.2 1.3 -1.2
v 0.2 1.3 -1.3
v 0.2 1.4 1.2
v 0.2 1.4 1
v 0.2 1.5 1.2
v 0.2 1.5 1.1
v 0.2 1.5 1
v 0.2 1.5 -1.4
v 0.2 1.5 -1.5
v 0.2 1.6 1.1
v 0.2 1.6 1
v 0.2 1.6 -1.1
v 0.2 1.6 -1.2
v 0.2 1.7 1.1
v 0.2 1.7 1
v 0.2 1.7 0.8
v 0.2 1.7 -0.1
v 0.2 1.7 -0.2
v 0.2 1.7 -0.9
v 0.2 1.7 -1
v 0.2 1.7 -1.1
v 0.2 1.7 -1.3
v 0.2 1.7 -1.4
v 0.2 1.8 1.3
v 0.2 1.8 1.2
v 0.2 1.8 1
v 0.2 1.8 0.9
v 0.2 1.8 0.8
v 0.2 1.8 -0.1
v 0.2 1.8 -0.2
v 0.2 1.8 -0.9
v 0.2 1.8 -1
v 0.2 1.8 -1.1
v 0.2 1.8 -1.3
v 0.2 1.9 1.3
v 0.2 1.9 1.2
v 0.2 1.9 1
v 0.2 2 1.3
v 0.2 2 1.2
v 0.2 2.1 1.2
v 0.2 2.1 1.1
v 0.2 2.1 1
v 0.3 0.8 0
v 0.3 0.8 -0.1
v 0.3 0.8 -0.7
v 0.3 0.8 -0.9
v 0.3 0.9 0
v 0.3 0.9 -0.1
v 0.3 0.9 -0.7
v 0.3 0.9 -0.9
v 0.3 1.4 1
v 0.3 1.4 0.8
v 0.3 1.4 0.6
v 0.3 1.4 0.5
v 0.3 1.5 1.1
v 0.3 1.5 1
v 0.3 1.5 0.9
v 0.3 1.5 0.8
v 0.3 1.5 0.6
v 0.3 1.5 0.5
v 0.3 1.6 1.1
v 0.3 1.6 1
v 0.3 1.6 0.9
v 0.3 1.6 -1
v 0.3 1.6 -1.1
v 0.3 1.7 0
v 0.3 1.7 -0.1
v 0.3 1.7 -0.2
v 0.3 1.7 -0.9
v 0.3 1.7 -1
v 0.3 1.7 -1.1
v 0.3 1.8 0
v 0.3 1.8 -0.1
v 0.3 1.8 -0.2
v 0.3 1.8 -0.9
v 0.3 2.1 1.1
v 0.3 2.1 1
v 0.3 2.1 0.9
v 0.3 2.2 1.1
v 0.3 2.2 1
v 0.3 2.2 0.9
v 0.3 2.2 0.8
v 0.3 2.2 0.7
v 0.3 2.3 0.8
v 0.3 2.3 0.7
v 0.4 0.8 -0.1
v 0.4 0.8 -0.7
v 0.4 0.9 -0.1
v 0.4 0.9 -0.7
v 0.4 1.4 0.8
v 0.4 1.4 0.6
v 0.4 1.5 0.9
v 0.4 1.5 0.8
v 0.4 1.5 0.6
v 0.4 1.5 -1.1
v 0.4 1.5 -1.2
v 0.4 1.6 1
v 0.4 1.6 0.9
v 0.4 1.6 0.8
v 0.4 1.6 0.1
v 0.4 1.6 -1
v 0.4 1.6 -1.1
v 0.4 1.6 -1.2
v 0.4 1.7 1
v 0.4 1.7 0.9
v 0.4 1.7 0
v 0.4 1.7 -1
v 0.4 1.8 0.2
v 0.4 1.8 0.1
v 0.4 1.9 1
v 0.4 1.9 0.9
v 0.4 1.9 0.3
v 0.4 1.9 0.2
v 0.4 1.9 0.1
v 0.4 1.9 0
v 0.4 2 0.4
v 0.4 2 0.3
v 0.4 2 0.2
v 0.4 2 0.1
v 0.4 2.1 1
v 0.4 2.1 0.9
v 0.4 2.1 0.3
v 0.4 2.1 0.2
v 0.4 2.2 0.5
v 0.4 2.2 0.4
v 0.4 2.2 0.3
v 0.4 2.3 0.5
v 0.4 2.3 0.4
v 0.4 2.5 0.7
v 0.4 2.5 0.6
v 0.4 2.6 0.7
v 0.4 2.6 0.6
v 0.4 2.6 0.5
v 0.4 2.7 0.7
v 0.4 2.7 0.5
v 0.5 0 0.4
v 0.5 0 0.1
v 0.5 0 -0.9
v 0.5 0 -1.2
v 0.5 0.1 0.4
v 0.5 0.1 0.3
v 0.5 0.1 -0.9
v 0.5 0.1 -1
v 0.5 0.9 0.1
v 0.5 0.9 -0.9
v 0.5 0.9 -1
v 0.5 0.9 -1.1
v 0.5 0.9 -1.2
v 0.5 0.9 -1.3
v 0.5 1 -0.8
v 0.5 1 -0.9
v 0.5 1 -1.1
v 0.5 1 -1.2
v 0.5 1.1 0.1
v 0.5 1.1 -0.8
v 0.5 1.2 0.4
v 0.5 1.2 0.3
v 0.5 1.2 0.2
v 0.5 1.2 0.1
v 0.5 1.3 0.3
v 0.5 1.3 0.2
v 0.5 1.3 -1.1
v 0.5 1.3 -1.2
v 0.5 1.3 -1.3
v 0.5 1.4 0.5
v 0.5 1.4 0.4
v 0.5 1.5 0.8
v 0.5 1.5 0.5
v 0.5 1.5 0.4
v 0.5 1.5 0.3
v 0.5 1.5 -1
v 0.5 1.5 -1.1
v 0.5 1.5 -1.2
v 0.5 1.6 0.9
v 0.5 1.6 0.8
v 0.5 1.6 0.7
v 0.5 1.6 0.4
v 0.5 1.6 -1
v 0.5 1.6 -1.1
v 0.5 1.7 0.8
v 0.5 1.7 0.7
v 0.5 1.7 0.2
v 0.5 1.7 0.1
v 0.5 1.8 0.4
v 0.5 1.8 0.2
v 0.5 1.8 0.1
v 0.5 1.9 0.5
v 0.5 1.9 0.4
v 0.5 1.9 0.3
v 0.5 1.9 0.2
v 0.5 2 0.4
v 0.5 2 0.3
v 0.5 2.1 0.8
v 0.5 2.1 0.7
v 0.5 2.1 0.6
v 0.5 2.1 0.5
v 0.5 2.2 0.9
v 0.5 2.2 0.7
v 0.5 2.2 0.6
v 0.5 2.2 0.5
v 0.5 2.2 0.4
v 0.5 2.3 0.7
v 0.5 2.3 0.6
v 0.5 2.3 0.5
v 0.5 2.5 0.7
v 0.5 2.5 0.6
v 0.5 2.6 0.6
v 0.5 2.6 0.5
v 0.6 0.9 -0.9
v 0.6 0.9 -1.1
v 0.6 1 -0.8
v 0.6 1 -0.9
v 0.6 1 -1.1
v 0.6 1 -1.2
v 0.6 1.1 0.1
v 0.6 1.1 -0.8
v 0.6 1.2 0.2
v 0.6 1.2 0.1
v 0.6 1.3 0.3
v 0.6 1.3 0.2
v 0.6 1.3 -1.1
v 0.6 1.3 -1.2
v 0.6 1.5 0.4
v 0.6 1.5 0.3
v 0.6 1.5 -1
v 0.6 1.5 -1.1
v 0.6 1.6 0.7
v 0.6 1.6 0.4
v 0.6 1.6 0.1
v 0.6 1.6 -1
v 0.6 1.7 0.8
v 0.6 1.7 0.7
v 0.6 1.7 0.2
v 0.6 1.7 0.1
v 0.6 1.8 0.4
v 0.6 1.8 0.2
v 0.6 1.9 0.5
v 0.6 1.9 0.4
v 0.6 2.1 0.8
v 0.6 2.1 0.6
v 0.6 2.1 0.5
v 0.6 2.2 0.6
v 0.6 2.2 0.5
v 0.6 2.3 0.6
v 0.6 2.3 0.5
v -0.1 1.9 1.5
v -0.1 2 1.5
v 0.1 1.9 1.5
v 0.1 2 1.5
v -0.2 1.8 1.3
v -0.2 1.9 1.3
v -0.2 2 1.3
v -0.1 1.4 1.3
v -0.1 1.5 1.3
v -0.1 1.8 1.3
v -0.1 1.9 1.3
v -0.1 2 1.3
v -0.1 2.1 1.3
v 0.1 1.4 1.3
v 0.1 1.5 1.3
v 0.1 1.8 1.3
v 0.1 1.9 1.3
v 0.1 2 1.3
v 0.1 2.1 1.3
v 0.2 1.8 1.3
v 0.2 1.9 1.3
v 0.2 2 1.3
v -0.2 1.4 1.2
v -0.2 1.5 1.2
v -0.2 2 1.2
v -0.2 2.1 1.2
v -0.1 1.3 1.2
v -0.1 1.4 1.2
v -0.1 1.5 1.2
v -0.1 1.6 1.2
v -0.1 2 1.2
v -0.1 2.1 1.2
v 0.1 1.3 1.2
v 0.1 1.4 1.2
v 0.1 1.5 1.2
v 0.1 1.6 1.2
v 0.1 2 1.2
v 0.1 2.1 1.2
v 0.2 1.4 1.2
v 0.2 1.5 1.2
v 0.2 2 1.2
v 0.2 2.1 1.2
v -0.3 1.5 1.1
v -0.3 1.6 1.1
v -0.3 2.1 1.1
v -0.3 2.2 1.1
v -0.2 1.5 1.1
v -0.2 1.6 1.1
v -0.2 1.7 1.1
v -0.2 2.1 1.1
v -0.2 2.2 1.1
v -0.1 1.5 1.1
v -0.1 1.6 1.1
v 0.1 1.5 1.1
v 0.1 1.6 1.1
v 0.2 1.5 1.1
v 0.2 1.6 1.1
v 0.2 1.7 1.1
v 0.2 2.1 1.1
v 0.2 2.2 1.1
v 0.3 1.5 1.1
v 0.3 1.6 1.1
v 0.3 2.1 1.1
v 0.3 2.2 1.1
v -0.4 1.6 1
v -0.4 1.7 1
v -0.4 1.9 1
v -0.4 2.1 1
v -0.3 1.4 1
v -0.3 1.5 1
v -0.3 1.6 1
v -0.3 2.1 1
v -0.2 1.4 1
v -0.2 1.5 1
v -0.2 1.6 1
v -0.2 1.7 1
v -0.2 1.8 1
v -0.2 1.9 1
v -0.2 2.1 1
v -0.2 2.2 1
v 0.2 1.4 1
v 0.2 1.5 1
v 0.2 1.6 1
v 0.2 1.7 1
v 0.2 1.8 1
v 0.2 1.9 1
v 0.2 2.1 1
v 0.2 2.2 1
v 0.3 1.4 1
v 0.3 1.5 1
v 0.3 1.6 1
v 0.3 2.1 1
v 0.4 1.6 1
v 0.4 1.7 1
v 0.4 1.9 1
v 0.4 2.1 1
v -0.5 1.6 0.9
v -0.5 2.2 0.9
v -0.4 1.5 0.9
v -0.4 1.6 0.9
v -0.4 1.7 0.9
v -0.4 1.8 0.9
v -0.4 1.9 0.9
v -0.4 2.1 0.9
v -0.3 1.5 0.9
v -0.3 1.6 0.9
v -0.3 2.1 0.9
v -0.3 2.2 0.9
v -0.2 1.8 0.9
v 0.2 1.8 0.9
v 0.3 1.5 0.9
v 0.3 1.6 0.9
v 0.3 2.1 0.9
v 0.3 2.2 0.9
v 0.4 1.5 0.9
v 0.4 1.6 0.9
v 0.4 1.7 0.9
v 0.4 1.8 0.9
v 0.4 1.9 0.9
v 0.4 2.1 0.9
v 0.5 1.6 0.9
v 0.5 2.2 0.9
v -0.6 1.7 0.8
v -0.6 2.1 0.8
v -0.5 1.5 0.8
v -0.5 1.6 0.8
v -0.5 1.7 0.8
v -0.5 2.1 0.8
v -0.4 1.4 0.8
v -0.4 1.5 0.8
v -0.4 1.6 0.8
v -0.4 1.7 0.8
v -0.4 1.8 0.8
v -0.3 1.4 0.8
v -0.3 1.5 0.8
v -0.3 2.2 0.8
v -0.3 2.3 0.8
v -0.2 1.7 0.8
v -0.2 1.8 0.8
v 0.2 1.7 0.8
v 0.2 1.8 0.8
v 0.3 1.4 0.8
v 0.3 1.5 0.8
v 0.3 2.2 0.8
v 0.3 2.3 0.8
v 0.4 1.4 0.8
v 0.4 1.5 0.8
v 0.4 1.6 0.8
v 0.4 1.7 0.8
v 0.4 1.8 0.8
v 0.5 1.5 0.8
v 0.5 1.6 0.8
v 0.5 1.7 0.8
v 0.5 2.1 0.8
v 0.6 1.7 0.8
v 0.6 2.1 0.8
v -0.6 1.6 0.7
v -0.6 1.7 0.7
v -0.6 2.2 0.7
v -0.6 2.3 0.7
v -0.5 1.6 0.7
v -0.5 1.7 0.7
v -0.5 2.2 0.7
v -0.5 2.3 0.7
v -0.5 2.5 0.7
v -0.4 2.2 0.7
v -0.4 2.3 0.7
v -0.4 2.5 0.7
v -0.4 2.6 0.7
v -0.4 2.7 0.7
v -0.3 2.2 0.7
v -0.3 2.3 0.7
v -0.3 2.4 0.7
v -0.3 2.5 0.7
v -0.3 2.6 0.7
v -0.3 2.7 0.7
v -0.2 2.3 0.7
v -0.2 2.4 0.7
v -0.1 2.3 0.7
v -0.1 2.4 0.7
v 0.1 2.3 0.7
v 0.1 2.4 0.7
v 0.2 2.3 0.7
v 0.2 2.4 0.7
v 0.3 2.2 0.7
v 0.3 2.3 0.7
v 0.3 2.4 0.7
v 0.3 2.5 0.7
v 0.3 2.6 0.7
v 0.3 2.7 0.7
v 0.4 2.2 0.7
v 0.4 2.3 0.7
v 0.4 2.5 0.7
v 0.4 2.6 0.7
v 0.4 2.7 0.7
v 0.5 1.6 0.7
v 0.5 1.7 0.7
v 0.5 2.2 0.7
v 0.5 2.3 0.7
v 0.5 2.5 0.7
v 0.6 1.6 0.7
v 0.6 1.7 0.7
v -0.6 2.1 0.6
v -0.6 2.2 0.6
v -0.5 2.1 0.6
v -0.5 2.2 0.6
v -0.5 2.5 0.6
v -0.5 2.6 0.6
v -0.4 2.5 0.6
v -0.4 2.6 0.6
v -0.3 2.4 0.6
v -0.3 2.5 0.6
v -0.3 2.6 0.6
v -0.2 2.4 0.6
v -0.2 2.5 0.6
v -0.2 2.6 0.6
v -0.1 2.4 0.6
v -0.1 2.5 0.6
v 0.1 2.4 0.6
v 0.1 2.5 0.6
v 0.2 2.4 0.6
v 0.2 2.5 0.6
v 0.2 2.6 0.6
v 0.3 2.4 0.6
v 0.3 2.5 0.6
v 0.3 2.6 0.6
v 0.4 2.5 0.6
v 0.4 2.6 0.6
v 0.5 2.1 0.6
v 0.5 2.2 0.6
v 0.5 2.3 0.6
v 0.5 2.5 0.6
v 0.5 2.6 0.6
v 0.6 2.1 0.6
v 0.6 2.2 0.6
v 0.6 2.3 0.6
v -0.5 1.4 0.5
v -0.5 1.5 0.5
v -0.3 1.4 0.5
v -0.3 1.5 0.5
v 0.3 1.4 0.5
v 0.3 1.5 0.5
v 0.5 1.4 0.5
v 0.5 1.5 0.5
v -0.6 1.5 0.4
v -0.6 1.6 0.4
v -0.5 0 0.4
v -0.5 0.1 0.4
v -0.5 1.2 0.4
v -0.5 1.4 0.4
v -0.5 1.5 0.4
v -0.5 1.6 0.4
v -0.3 0 0.4
v -0.3 0.1 0.4
v 0.3 0 0.4
v 0.3 0.1 0.4
v 0.5 0 0.4
v 0.5 0.1 0.4
v 0.5 1.2 0.4
v 0.5 1.4 0.4
v 0.5 1.5 0.4
v 0.5 1.6 0.4
v 0.6 1.5 0.4
v 0.6 1.6 0.4
v -0.6 1.3 0.3
v -0.6 1.5 0.3
v -0.5 0.1 0.3
v -0.5 1.2 0.3
v -0.5 1.3 0.3
v -0.5 1.5 0.3
v -0.3 0.1 0.3
v -0.3 1 0.3
v 0.3 0.1 0.3
v 0.3 1 0.3
v 0.5 0.1 0.3
v 0.5 1.2 0.3
v 0.5 1.3 0.3
v 0.5 1.5 0.3
v 0.6 1.3 0.3
v 0.6 1.5 0.3
v -0.6 1.2 0.2
v -0.6 1.3 0.2
v -0.5 1.2 0.2
v -0.5 1.3 0.2
v 0.5 1.2 0.2
v 0.5 1.3 0.2
v 0.6 1.2 0.2
v 0.6 1.3 0.2
v -0.6 1.1 0.1
v -0.6 1.2 0.1
v -0.5 1.1 0.1
v -0.5 1.2 0.1
v -0.3 0.9 0.1
v -0.3 1 0.1
v 0.3 0.9 0.1
v 0.3 1 0.1
v 0.5 1.1 0.1
v 0.5 1.2 0.1
v 0.6 1.1 0.1
v 0.6 1.2 0.1
v -0.3 0.8 0
v -0.3 0.9 0
v 0.3 0.8 0
v 0.3 0.9 0
v -0.4 0.8 -0.1
v -0.4 0.9 -0.1
v -0.3 0.8 -0.1
v -0.3 0.9 -0.1
v 0.3 0.8 -0.1
v 0.3 0.9 -0.1
v 0.4 0.8 -0.1
v 0.4 0.9 -0.1
v -0.3 1.7 -0.2
v -0.3 1.8 -0.2
v -0.2 1.7 -0.2
v -0.2 1.8 -0.2
v 0.2 1.7 -0.2
v 0.2 1.8 -0.2
v 0.3 1.7 -0.2
v 0.3 1.8 -0.2
v -0.6 1 -0.8
v -0.6 1.1 -0.8
v -0.5 1 -0.8
v -0.5 1.1 -0.8
v 0.5 1 -0.8
v 0.5 1.1 -0.8
v 0.6 1 -0.8
v 0.6 1.1 -0.8
v -0.6 0.9 -0.9
v -0.6 1 -0.9
v -0.5 0 -0.9
v -0.5 0.1 -0.9
v -0.5 0.9 -0.9
v -0.5 1 -0.9
v -0.3 0 -0.9
v -0.3 0.1 -0.9
v 0.3 0 -0.9
v 0.3 0.1 -0.9
v 0.5 0 -0.9
v 0.5 0.1 -0.9
v 0.5 0.9 -0.9
v 0.5 1 -0.9
v 0.6 0.9 -0.9
v 0.6 1 -0.9
v -0.5 0.1 -1
v -0.5 0.9 -1
v -0.3 0.1 -1
v -0.3 0.9 -1
v 0.3 0.1 -1
v 0.3 0.9 -1
v 0.5 0.1 -1
v 0.5 0.9 -1
v -0.2 1.7 -1.1
v -0.2 1.8 -1.1
v 0.2 1.7 -1.1
v 0.2 1.8 -1.1
v -0.2 0.7 -1.2
v -0.2 0.8 -1.2
v -0.2 0.9 -1.2
v -0.2 1 -1.2
v -0.1 0.6 -1.2
v -0.1 0.7 -1.2
v -0.1 0.8 -1.2
v -0.1 0.9 -1.2
v 0.1 0.6 -1.2
v 0.1 0.7 -1.2
v 0.1 0.8 -1.2
v 0.1 0.9 -1.2
v 0.2 0.7 -1.2
v 0.2 0.8 -1.2
v 0.2 0.9 -1.2
v 0.2 1 -1.2
v -0.2 1.8 1.2
v -0.2 1.9 1.2
v -0.1 1.8 1.2
v -0.1 1.9 1.2
v 0.1 1.8 1.2
v 0.1 1.9 1.2
v 0.2 1.8 1.2
v 0.2 1.9 1.2
v -0.1 1.3 1
v -0.1 1.4 1
v 0.1 1.3 1
v 0.1 1.4 1
v -0.4 1.4 0.6
v -0.4 1.5 0.6
v -0.3 1.4 0.6
v -0.3 1.5 0.6
v 0.3 1.4 0.6
v 0.3 1.5 0.6
v 0.4 1.4 0.6
v 0.4 1.5 0.6
v -0.6 1.9 0.5
v -0.6 2.1 0.5
v -0.6 2.2 0.5
v -0.6 2.3 0.5
v -0.5 1.9 0.5
v -0.5 2.1 0.5
v -0.5 2.2 0.5
v -0.5 2.3 0.5
v -0.5 2.6 0.5
v -0.4 2.2 0.5
v -0.4 2.3 0.5
v -0.4 2.5 0.5
v -0.4 2.6 0.5
v -0.4 2.7 0.5
v -0.3 2.6 0.5
v -0.3 2.7 0.5
v -0.2 2.3 0.5
v -0.2 2.5 0.5
v -0.2 2.6 0.5
v -0.1 2.3 0.5
v -0.1 2.5 0.5
v 0.1 2.3 0.5
v 0.1 2.5 0.5
v 0.2 2.3 0.5
v 0.2 2.5 0.5
v 0.2 2.6 0.5
v 0.3 2.6 0.5
v 0.3 2.7 0.5
v 0.4 2.2 0.5
v 0.4 2.3 0.5
v 0.4 2.5 0.5
v 0.4 2.6 0.5
v 0.4 2.7 0.5
v 0.5 1.9 0.5
v 0.5 2.1 0.5
v 0.5 2.2 0.5
v 0.5 2.3 0.5
v 0.5 2.6 0.5
v 0.6 1.9 0.5
v 0.6 2.1 0.5
v 0.6 2.2 0.5
v 0.6 2.3 0.5
v -0.6 1.8 0.4
v -0.6 1.9 0.4
v -0.5 1.8 0.4
v -0.5 1.9 0.4
v -0.5 2 0.4
v -0.5 2.2 0.4
v -0.4 2 0.4
v -0.4 2.2 0.4
v -0.4 2.3 0.4
v 0.4 2 0.4
v 0.4 2.2 0.4
v 0.4 2.3 0.4
v 0.5 1.8 0.4
v 0.5 1.9 0.4
v 0.5 2 0.4
v 0.5 2.2 0.4
v 0.6 1.8 0.4
v 0.6 1.9 0.4
v -0.5 1.9 0.3
v -0.5 2 0.3
v -0.4 1.9 0.3
v -0.4 2 0.3
v -0.4 2.1 0.3
v -0.4 2.2 0.3
v 0.4 1.9 0.3
v 0.4 2 0.3
v 0.4 2.1 0.3
v 0.4 2.2 0.3
v 0.5 1.9 0.3
v 0.5 2 0.3
v -0.6 1.7 0.2
v -0.6 1.8 0.2
v -0.5 1.7 0.2
v -0.5 1.8 0.2
v -0.5 1.9 0.2
v -0.4 1.8 0.2
v -0.4 1.9 0.2
v -0.4 2 0.2
v -0.4 2.1 0.2
v 0.4 1.8 0.2
v 0.4 1.9 0.2
v 0.4 2 0.2
v 0.4 2.1 0.2
v 0.5 1.7 0.2
v 0.5 1.8 0.2
v 0.5 1.9 0.2
v 0.6 1.7 0.2
v 0.6 1.8 0.2
v -0.6 1.6 0.1
v -0.6 1.7 0.1
v -0.5 0 0.1
v -0.5 0.9 0.1
v -0.5 1.7 0.1
v -0.5 1.8 0.1
v -0.4 1.6 0.1
v -0.4 1.8 0.1
v -0.4 1.9 0.1
v -0.4 2 0.1
v -0.3 0 0.1
v -0.3 0.9 0.1
v 0.3 0 0.1
v 0.3 0.9 0.1
v 0.4 1.6 0.1
v 0.4 1.8 0.1
v 0.4 1.9 0.1
v 0.4 2 0.1
v 0.5 0 0.1
v 0.5 0.9 0.1
v 0.5 1.7 0.1
v 0.5 1.8 0.1
v 0.6 1.6 0.1
v 0.6 1.7 0.1
v -0.4 1.7 0
v -0.4 1.9 0
v -0.3 1.7 0
v -0.3 1.8 0
v 0.3 1.7 0
v 0.3 1.8 0
v 0.4 1.7 0
v 0.4 1.9 0
v -0.3 1.7 -0.1
v -0.3 1.8 -0.1
v -0.2 1.7 -0.1
v -0.2 1.8 -0.1
v 0.2 1.7 -0.1
v 0.2 1.8 -0.1
v 0.3 1.7 -0.1
v 0.3 1.8 -0.1
v -0.4 0.8 -0.7
v -0.4 0.9 -0.7
v -0.3 0.8 -0.7
v -0.3 0.9 -0.7
v 0.3 0.8 -0.7
v 0.3 0.9 -0.7
v 0.4 0.8 -0.7
v 0.4 0.9 -0.7
v -0.3 0.8 -0.9
v -0.3 0.9 -0.9
v -0.3 1.7 -0.9
v -0.3 1.8 -0.9
v -0.2 1.7 -0.9
v -0.2 1.8 -0.9
v 0.2 1.7 -0.9
v 0.2 1.8 -0.9
v 0.3 0.8 -0.9
v 0.3 0.9 -0.9
v 0.3 1.7 -0.9
v 0.3 1.8 -0.9
v -0.6 1.5 -1
v -0.6 1.6 -1
v -0.5 1.5 -1
v -0.5 1.6 -1
v -0.4 1.6 -1
v -0.4 1.7 -1
v -0.3 0.9 -1
v -0.3 1 -1
v -0.3 1.6 -1
v -0.3 1.7 -1
v -0.2 1.7 -1
v -0.2 1.8 -1
v 0.2 1.7 -1
v 0.2 1.8 -1
v 0.3 0.9 -1
v 0.3 1 -1
v 0.3 1.6 -1
v 0.3 1.7 -1
v 0.4 1.6 -1
v 0.4 1.7 -1
v 0.5 1.5 -1
v 0.5 1.6 -1
v 0.6 1.5 -1
v 0.6 1.6 -1
v -0.6 0.9 -1.1
v -0.6 1 -1.1
v -0.6 1.3 -1.1
v -0.6 1.5 -1.1
v -0.5 0.9 -1.1
v -0.5 1 -1.1
v -0.5 1.3 -1.1
v -0.5 1.5 -1.1
v -0.5 1.6 -1.1
v -0.4 1.5 -1.1
v -0.4 1.6 -1.1
v -0.3 1.6 -1.1
v -0.3 1.7 -1.1
v -0.2 1.6 -1.1
v -0.2 1.7 -1.1
v 0.2 1.6 -1.1
v 0.2 1.7 -1.1
v 0.3 1.6 -1.1
v 0.3 1.7 -1.1
v 0.4 1.5 -1.1
v 0.4 1.6 -1.1
v 0.5 0.9 -1.1
v 0.5 1 -1.1
v 0.5 1.3 -1.1
v 0.5 1.5 -1.1
v 0.5 1.6 -1.1
v 0.6 0.9 -1.1
v 0.6 1 -1.1
v 0.6 1.3 -1.1
v 0.6 1.5 -1.1
v -0.6 1 -1.2
v -0.6 1.3 -1.2
v -0.5 0 -1.2
v -0.5 0.9 -1.2
v -0.5 1 -1.2
v -0.5 1.3 -1.2
v -0.5 1.5 -1.2
v -0.4 1.5 -1.2
v -0.4 1.6 -1.2
v -0.3 0 -1.2
v -0.3 0.9 -1.2
v -0.2 1.3 -1.2
v -0.2 1.6 -1.2
v 0.2 1.3 -1.2
v 0.2 1.6 -1.2
v 0.3 0 -1.2
v 0.3 0.9 -1.2
v 0.4 1.5 -1.2
v 0.4 1.6 -1.2
v 0.5 0 -1.2
v 0.5 0.9 -1.2
v 0.5 1 -1.2
v 0.5 1.3 -1.2
v 0.5 1.5 -1.2
v 0.6 1 -1.2
v 0.6 1.3 -1.2
v -0.5 0.9 -1.3
v -0.5 1.3 -1.3
v -0.3 0.9 -1.3
v -0.3 1 -1.3
v -0.2 1 -1.3
v -0.2 1.3 -1.3
v -0.2 1.7 -1.3
v -0.2 1.8 -1.3
v 0.2 1 -1.3
v 0.2 1.3 -1.3
v 0.2 1.7 -1.3
v 0.2 1.8 -1.3
v 0.3 0.9 -1.3
v 0.3 1 -1.3
v 0.5 0.9 -1.3
v 0.5 1.3 -1.3
v -0.2 0.7 -1.4
v -0.2 0.8 -1.4
v -0.2 0.9 -1.4
v -0.2 1.5 -1.4
v -0.2 1.7 -1.4
v -0.1 0.6 -1.4
v -0.1 0.7 -1.4
v -0.1 0.8 -1.4
v -0.1 0.9 -1.4
v -0.1 1.5 -1.4
v -0.1 1.6 -1.4
v 0.1 0.6 -1.4
v 0.1 0.7 -1.4
v 0.1 0.8 -1.4
v 0.1 0.9 -1.4
v 0.1 1.5 -1.4
v 0.1 1.6 -1.4
v 0.2 0.7 -1.4
v 0.2 0.8 -1.4
v 0.2 0.9 -1.4
v 0.2 1.5 -1.4
v 0.2 1.7 -1.4
v -0.2 0.9 -1.5
v -0.2 1 -1.5
v -0.2 1.1 -1.5
v -0.2 1.5 -1.5
v -0.1 0.8 -1.5
v -0.1 0.9 -1.5
v -0.1 1 -1.5
v -0.1 1.1 -1.5
v -0.1 1.5 -1.5
v -0.1 1.6 -1.5
v 0.1 0.8 -1.5
v 0.1 0.9 -1.5
v 0.1 1 -1.5
v 0.1 1.1 -1.5
v 0.1 1.5 -1.5
v 0.1 1.6 -1.5
v 0.2 0.9 -1.5
v 0.2 1 -1.5
v 0.2 1.1 -1.5
v 0.2 1.5 -1.5
v -0.5 0 0.4
v -0.3 0 0.4
v 0.3 0 0.4
v 0.5 0 0.4
v -0.5 0 0.1
v -0.3 0 0.1
v 0.3 0 0.1
v 0.5 0 0.1
v -0.5 0 -0.9
v -0.3 0 -0.9
v 0.3 0 -0.9
v 0.5 0 -0.9
v -0.5 0 -1.2
v -0.3 0 -1.2
v 0.3 0 -1.2
v 0.5 0 -1.2
v -0.1 0.6 -1.2
v 0.1 0.6 -1.2
v -0.1 0.6 -1.4
v 0.1 0.6 -1.4
v -0.2 0.7 -1.2
v -0.1 0.7 -1.2
v 0.1 0.7 -1.2
v 0.2 0.7 -1.2
v -0.2 0.7 -1.4
v -0.1 0.7 -1.4
v 0.1 0.7 -1.4
v 0.2 0.7 -1.4
v -0.3 0.8 0
v 0.3 0.8 0
v -0.4 0.8 -0.1
v -0.3 0.8 -0.1
v 0.3 0.8 -0.1
v 0.4 0.8 -0.1
v -0.4 0.8 -0.7
v -0.3 0.8 -0.7
v 0.3 0.8 -0.7
v 0.4 0.8 -0.7
v -0.3 0.8 -0.9
v 0.3 0.8 -0.9
v -0.1 0.8 -1.4
v 0.1 0.8 -1.4
v -0.1 0.8 -1.5
v 0.1 0.8 -1.5
v -0.5 0.9 0.1
v -0.3 0.9 0.1
v 0.3 0.9 0.1
v 0.5 0.9 0.1
v -0.3 0.9 0
v 0.3 0.9 0
v -0.4 0.9 -0.1
v -0.3 0.9 -0.1
v 0.3 0.9 -0.1
v 0.4 0.9 -0.1
v -0.4 0.9 -0.7
v -0.3 0.9 -0.7
v 0.3 0.9 -0.7
v 0.4 0.9 -0.7
v -0.6 0.9 -0.9
v -0.5 0.9 -0.9
v -0.3 0.9 -0.9
v 0.3 0.9 -0.9
v 0.5 0.9 -0.9
v 0.6 0.9 -0.9
v -0.5 0.9 -1
v -0.3 0.9 -1
v 0.3 0.9 -1
v 0.5 0.9 -1
v -0.6 0.9 -1.1
v -0.5 0.9 -1.1
v 0.5 0.9 -1.1
v 0.6 0.9 -1.1
v -0.5 0.9 -1.2
v -0.3 0.9 -1.2
v 0.3 0.9 -1.2
v 0.5 0.9 -1.2
v -0.5 0.9 -1.3
v -0.3 0.9 -1.3
v 0.3 0.9 -1.3
v 0.5 0.9 -1.3
v -0.2 0.9 -1.4
v -0.1 0.9 -1.4
v 0.1 0.9 -1.4
v 0.2 0.9 -1.4
v -0.2 0.9 -1.5
v -0.1 0.9 -1.5
v 0.1 0.9 -1.5
v 0.2 0.9 -1.5
v -0.3 1 0.3
v 0.3 1 0.3
v -0.3 1 0.1
v 0.3 1 0.1
v -0.6 1 -0.8
v -0.5 1 -0.8
v 0.5 1 -0.8
v 0.6 1 -0.8
v -0.6 1 -0.9
v -0.5 1 -0.9
v 0.5 1 -0.9
v 0.6 1 -0.9
v -0.3 1 -1
v 0.3 1 -1
v -0.6 1 -1.1
v -0.5 1 -1.1
v 0.5 1 -1.1
v 0.6 1 -1.1
v -0.6 1 -1.2
v -0.5 1 -1.2
v -0.2 1 -1.2
v 0.2 1 -1.2
v 0.5 1 -1.2
v 0.6 1 -1.2
v -0.3 1 -1.3
v -0.2 1 -1.3
v 0.2 1 -1.3
v 0.3 1 -1.3
v -0.6 1.1 0.1
v -0.5 1.1 0.1
v 0.5 1.1 0.1
v 0.6 1.1 0.1
v -0.6 1.1 -0.8
v -0.5 1.1 -0.8
v 0.5 1.1 -0.8
v 0.6 1.1 -0.8
v -0.5 1.2 0.4
v 0.5 1.2 0.4
v -0.5 1.2 0.3
v 0.5 1.2 0.3
v -0.6 1.2 0.2
v -0.5 1.2 0.2
v 0.5 1.2 0.2
v 0.6 1.2 0.2
v -0.6 1.2 0.1
v -0.5 1.2 0.1
v 0.5 1.2 0.1
v 0.6 1.2 0.1
v -0.1 1.3 1.2
v 0.1 1.3 1.2
v -0.1 1.3 1
v 0.1 1.3 1
v -0.6 1.3 0.3
v -0.5 1.3 0.3
v 0.5 1.3 0.3
v 0.6 1.3 0.3
v -0.6 1.3 0.2
v -0.5 1.3 0.2
v 0.5 1.3 0.2
v 0.6 1.3 0.2
v -0.1 1.4 1.3
v 0.1 1.4 1.3
v -0.2 1.4 1.2
v -0.1 1.4 1.2
v 0.1 1.4 1.2
v 0.2 1.4 1.2
v -0.3 1.4 1
v -0.2 1.4 1
v -0.1 1.4 1
v 0.1 1.4 1
v 0.2 1.4 1
v 0.3 1.4 1
v -0.4 1.4 0.8
v -0.3 1.4 0.8
v 0.3 1.4 0.8
v 0.4 1.4 0.8
v -0.4 1.4 0.6
v -0.3 1.4 0.6
v 0.3 1.4 0.6
v 0.4 1.4 0.6
v -0.5 1.4 0.5
v -0.3 1.4 0.5
v 0.3 1.4 0.5
v 0.5 1.4 0.5
v -0.5 1.4 0.4
v 0.5 1.4 0.4
v -0.3 1.5 1.1
v -0.2 1.5 1.1
v 0.2 1.5 1.1
v 0.3 1.5 1.1
v -0.3 1.5 1
v -0.2 1.5 1
v 0.2 1.5 1
v 0.3 1.5 1
v -0.4 1.5 0.9
v -0.3 1.5 0.9
v 0.3 1.5 0.9
v 0.4 1.5 0.9
v -0.5 1.5 0.8
v -0.4 1.5 0.8
v -0.3 1.5 0.8
v 0.3 1.5 0.8
v 0.4 1.5 0.8
v 0.5 1.5 0.8
v -0.4 1.5 0.6
v -0.3 1.5 0.6
v 0.3 1.5 0.6
v 0.4 1.5 0.6
v -0.5 1.5 0.5
v -0.3 1.5 0.5
v 0.3 1.5 0.5
v 0.5 1.5 0.5
v -0.6 1.5 0.4
v -0.5 1.5 0.4
v 0.5 1.5 0.4
v 0.6 1.5 0.4
v -0.6 1.5 0.3
v -0.5 1.5 0.3
v 0.5 1.5 0.3
v 0.6 1.5 0.3
v -0.4 1.6 1
v -0.3 1.6 1
v 0.3 1.6 1
v 0.4 1.6 1
v -0.5 1.6 0.9
v -0.4 1.6 0.9
v -0.3 1.6 0.9
v 0.3 1.6 0.9
v 0.4 1.6 0.9
v 0.5 1.6 0.9
v -0.5 1.6 0.8
v -0.4 1.6 0.8
v 0.4 1.6 0.8
v 0.5 1.6 0.8
v -0.6 1.6 0.7
v -0.5 1.6 0.7
v 0.5 1.6 0.7
v 0.6 1.6 0.7
v -0.6 1.6 0.4
v -0.5 1.6 0.4
v 0.5 1.6 0.4
v 0.6 1.6 0.4
v -0.6 1.7 0.8
v -0.5 1.7 0.8
v 0.5 1.7 0.8
v 0.6 1.7 0.8
v -0.6 1.7 0.7
v -0.5 1.7 0.7
v 0.5 1.7 0.7
v 0.6 1.7 0.7
v -0.2 1.8 1.3
v -0.1 1.8 1.3
v 0.1 1.8 1.3
v 0.2 1.8 1.3
v -0.2 1.8 1.2
v -0.1 1.8 1.2
v 0.1 1.8 1.2
v 0.2 1.8 1.2
v -0.4 1.8 0.9
v -0.2 1.8 0.9
v 0.2 1.8 0.9
v 0.4 1.8 0.9
v -0.4 1.8 0.8
v -0.2 1.8 0.8
v 0.2 1.8 0.8
v 0.4 1.8 0.8
v -0.1 1.9 1.5
v 0.1 1.9 1.5
v -0.1 1.9 1.4
v 0.1 1.9 1.4
v -0.1 1.9 1.3
v 0.1 1.9 1.3
v -0.2 1.9 1.2
v -0.1 1.9 1.2
v 0.1 1.9 1.2
v 0.2 1.9 1.2
v -0.4 1.9 1
v -0.2 1.9 1
v 0.2 1.9 1
v 0.4 1.9 1
v -0.4 1.9 0.9
v 0.4 1.9 0.9
v -0.3 2.1 1.1
v -0.2 2.1 1.1
v 0.2 2.1 1.1
v 0.3 2.1 1.1
v -0.3 2.1 1
v -0.2 2.1 1
v 0.2 2.1 1
v 0.3 2.1 1
v -0.6 2.2 0.7
v -0.5 2.2 0.7
v -0.6 2.2 0.6
v -0.5 2.2 0.6
v -0.5 0.1 0.4
v -0.3 0.1 0.4
v 0.3 0.1 0.4
v 0.5 0.1 0.4
v -0.5 0.1 0.3
v -0.3 0.1 0.3
v 0.3 0.1 0.3
v 0.5 0.1 0.3
v -0.5 0.1 -0.9
v -0.3 0.1 -0.9
v 0.3 0.1 -0.9
v 0.5 0.1 -0.9
v -0.5 0.1 -1
v -0.3 0.1 -1
v 0.3 0.1 -1
v 0.5 0.1 -1
v -0.6 1.3 -1.1
v -0.5 1.3 -1.1
v 0.5 1.3 -1.1
v 0.6 1.3 -1.1
v -0.6 1.3 -1.2
v -0.5 1.3 -1.2
v -0.2 1.3 -1.2
v 0.2 1.3 -1.2
v 0.5 1.3 -1.2
v 0.6 1.3 -1.2
v -0.5 1.3 -1.3
v -0.2 1.3 -1.3
v 0.2 1.3 -1.3
v 0.5 1.3 -1.3
v -0.1 1.5 1.3
v 0.1 1.5 1.3
v -0.2 1.5 1.2
v -0.1 1.5 1.2
v 0.1 1.5 1.2
v 0.2 1.5 1.2
v -0.2 1.5 1.1
v -0.1 1.5 1.1
v 0.1 1.5 1.1
v 0.2 1.5 1.1
v -0.6 1.5 -1
v -0.5 1.5 -1
v 0.5 1.5 -1
v 0.6 1.5 -1
v -0.6 1.5 -1.1
v -0.5 1.5 -1.1
v -0.4 1.5 -1.1
v 0.4 1.5 -1.1
v 0.5 1.5 -1.1
v 0.6 1.5 -1.1
v -0.5 1.5 -1.2
v -0.4 1.5 -1.2
v 0.4 1.5 -1.2
v 0.5 1.5 -1.2
v -0.2 1.5 -1.4
v -0.1 1.5 -1.4
v 0.1 1.5 -1.4
v 0.2 1.5 -1.4
v -0.2 1.5 -1.5
v -0.1 1.5 -1.5
v 0.1 1.5 -1.5
v 0.2 1.5 -1.5
v -0.1 1.6 1.2
v 0.1 1.6 1.2
v -0.3 1.6 1.1
v -0.2 1.6 1.1
v -0.1 1.6 1.1
v 0.1 1.6 1.1
v 0.2 1.6 1.1
v 0.3 1.6 1.1
v -0.3 1.6 1
v -0.2 1.6 1
v 0.2 1.6 1
v 0.3 1.6 1
v -0.6 1.6 0.1
v -0.4 1.6 0.1
v 0.4 1.6 0.1
v 0.6 1.6 0.1
v -0.6 1.6 -1
v -0.5 1.6 -1
v -0.4 1.6 -1
v -0.3 1.6 -1
v 0.3 1.6 -1
v 0.4 1.6 -1
v 0.5 1.6 -1
v 0.6 1.6 -1
v -0.5 1.6 -1.1
v -0.4 1.6 -1.1
v -0.3 1.6 -1.1
v -0.2 1.6 -1.1
v 0.2 1.6 -1.1
v 0.3 1.6 -1.1
v 0.4 1.6 -1.1
v 0.5 1.6 -1.1
v -0.4 1.6 -1.2
v -0.2 1.6 -1.2
v 0.2 1.6 -1.2
v 0.4 1.6 -1.2
v -0.1 1.6 -1.4
v 0.1 1.6 -1.4
v -0.1 1.6 -1.5
v 0.1 1.6 -1.5
v -0.2 1.7 1.1
v 0.2 1.7 1.1
v -0.4 1.7 1
v -0.2 1.7 1
v 0.2 1.7 1
v 0.4 1.7 1
v -0.4 1.7 0.9
v 0.4 1.7 0.9
v -0.4 1.7 0.8
v -0.2 1.7 0.8
v 0.2 1.7 0.8
v 0.4 1.7 0.8
v -0.6 1.7 0.2
v -0.5 1.7 0.2
v 0.5 1.7 0.2
v 0.6 1.7 0.2
v -0.6 1.7 0.1
v -0.5 1.7 0.1
v 0.5 1.7 0.1
v 0.6 1.7 0.1
v -0.4 1.7 0
v -0.3 1.7 0
v 0.3 1.7 0
v 0.4 1.7 0
v -0.3 1.7 -0.1
v -0.2 1.7 -0.1
v 0.2 1.7 -0.1
v 0.3 1.7 -0.1
v -0.3 1.7 -0.2
v -0.2 1.7 -0.2
v 0.2 1.7 -0.2
v 0.3 1.7 -0.2
v -0.3 1.7 -0.9
v -0.2 1.7 -0.9
v 0.2 1.7 -0.9
v 0.3 1.7 -0.9
v -0.4 1.7 -1
v -0.3 1.7 -1
v -0.2 1.7 -1
v 0.2 1.7 -1
v 0.3 1.7 -1
v 0.4 1.7 -1
v -0.3 1.7 -1.1
v -0.2 1.7 -1.1
v 0.2 1.7 -1.1
v 0.3 1.7 -1.1
v -0.2 1.7 -1.3
v 0.2 1.7 -1.3
v -0.2 1.7 -1.4
v 0.2 1.7 -1.4
v -0.2 1.8 1
v 0.2 1.8 1
v -0.2 1.8 0.9
v 0.2 1.8 0.9
v -0.6 1.8 0.4
v -0.5 1.8 0.4
v 0.5 1.8 0.4
v 0.6 1.8 0.4
v -0.6 1.8 0.2
v -0.5 1.8 0.2
v -0.4 1.8 0.2
v 0.4 1.8 0.2
v 0.5 1.8 0.2
v 0.6 1.8 0.2
v -0.5 1.8 0.1
v -0.4 1.8 0.1
v 0.4 1.8 0.1
v 0.5 1.8 0.1
v -0.3 1.8 0
v 0.3 1.8 0
v -0.3 1.8 -0.1
v -0.2 1.8 -0.1
v 0.2 1.8 -0.1
v 0.3 1.8 -0.1
v -0.3 1.8 -0.2
v -0.2 1.8 -0.2
v 0.2 1.8 -0.2
v 0.3 1.8 -0.2
v -0.3 1.8 -0.9
v -0.2 1.8 -0.9
v 0.2 1.8 -0.9
v 0.3 1.8 -0.9
v -0.2 1.8 -1
v 0.2 1.8 -1
v -0.2 1.8 -1.1
v 0.2 1.8 -1.1
v -0.2 1.8 -1.3
v 0.2 1.8 -1.3
v -0.6 1.9 0.5
v -0.5 1.9 0.5
v 0.5 1.9 0.5
v 0.6 1.9 0.5
v -0.6 1.9 0.4
v -0.5 1.9 0.4
v 0.5 1.9 0.4
v 0.6 1.9 0.4
v -0.5 1.9 0.3
v -0.4 1.9 0.3
v 0.4 1.9 0.3
v 0.5 1.9 0.3
v -0.5 1.9 0.2
v -0.4 1.9 0.2
v 0.4 1.9 0.2
v 0.5 1.9 0.2
v -0.4 1.9 0.1
v 0.4 1.9 0.1
v -0.4 1.9 0
v 0.4 1.9 0
v -0.1 2 1.5
v 0.1 2 1.5
v -0.1 2 1.4
v 0.1 2 1.4
v -0.2 2 1.3
v -0.1 2 1.3
v 0.1 2 1.3
v 0.2 2 1.3
v -0.2 2 1.2
v -0.1 2 1.2
v 0.1 2 1.2
v 0.2 2 1.2
v -0.5 2 0.4
v -0.4 2 0.4
v 0.4 2 0.4
v 0.5 2 0.4
v -0.5 2 0.3
v -0.4 2 0.3
v 0.4 2 0.3
v 0.5 2 0.3
v -0.4 2 0.2
v 0.4 2 0.2
v -0.4 2 0.1
v 0.4 2 0.1
v -0.1 2.1 1.3
v 0.1 2.1 1.3
v -0.2 2.1 1.2
v -0.1 2.1 1.2
v 0.1 2.1 1.2
v 0.2 2.1 1.2
v -0.2 2.1 1.1
v 0.2 2.1 1.1
v -0.4 2.1 1
v -0.3 2.1 1
v -0.2 2.1 1
v 0.2 2.1 1
v 0.3 2.1 1
v 0.4 2.1 1
v -0.4 2.1 0.9
v -0.3 2.1 0.9
v 0.3 2.1 0.9
v 0.4 2.1 0.9
v -0.6 2.1 0.8
v -0.5 2.1 0.8
v 0.5 2.1 0.8
v 0.6 2.1 0.8
v -0.5 2.1 0.7
v 0.5 2.1 0.7
v -0.6 2.1 0.6
v -0.5 2.1 0.6
v 0.5 2.1 0.6
v 0.6 2.1 0.6
v -0.4 2.1 0.3
v 0.4 2.1 0.3
v -0.4 2.1 0.2
v 0.4 2.1 0.2
v -0.3 2.2 1.1
v -0.2 2.2 1.1
v 0.2 2.2 1.1
v 0.3 2.2 1.1
v -0.3 2.2 1
v -0.2 2.2 1
v 0.2 2.2 1
v 0.3 2.2 1
v -0.5 2.2 0.9
v -0.3 2.2 0.9
v 0.3 2.2 0.9
v 0.5 2.2 0.9
v -0.3 2.2 0.8
v 0.3 2.2 0.8
v -0.5 2.2 0.7
v -0.4 2.2 0.7
v -0.3 2.2 0.7
v 0.3 2.2 0.7
v 0.4 2.2 0.7
v 0.5 2.2 0.7
v -0.5 2.2 0.5
v -0.4 2.2 0.5
v 0.4 2.2 0.5
v 0.5 2.2 0.5
v -0.5 2.2 0.4
v -0.4 2.2 0.4
v 0.4 2.2 0.4
v 0.5 2.2 0.4
v -0.4 2.2 0.3
v 0.4 2.2 0.3
v -0.3 2.3 0.8
v 0.3 2.3 0.8
v -0.6 2.3 0.7
v -0.5 2.3 0.7
v -0.3 2.3 0.7
v -0.2 2.3 0.7
v -0.1 2.3 0.7
v 0.1 2.3 0.7
v 0.2 2.3 0.7
v 0.3 2.3 0.7
v 0.5 2.3 0.6
v 0.6 2.3 0.6
v -0.6 2.3 0.5
v -0.5 2.3 0.5
v -0.4 2.3 0.5
v -0.2 2.3 0.5
v -0.1 2.3 0.5
v 0.1 2.3 0.5
v 0.2 2.3 0.5
v 0.4 2.3 0.5
v 0.5 2.3 0.5
v 0.6 2.3 0.5
v -0.4 2.3 0.4
v 0.4 2.3 0.4
v -0.3 2.4 0.7
v -0.2 2.4 0.7
v -0.1 2.4 0.7
v 0.1 2.4 0.7
v 0.2 2.4 0.7
v 0.3 2.4 0.7
v -0.3 2.4 0.6
v -0.2 2.4 0.6
v -0.1 2.4 0.6
v 0.1 2.4 0.6
v 0.2 2.4 0.6
v 0.3 2.4 0.6
v -0.5 2.5 0.7
v -0.4 2.5 0.7
v 0.4 2.5 0.7
v 0.5 2.5 0.7
v -0.5 2.5 0.6
v -0.4 2.5 0.6
v -0.2 2.5 0.6
v -0.1 2.5 0.6
v 0.1 2.5 0.6
v 0.2 2.5 0.6
v 0.4 2.5 0.6
v 0.5 2.5 0.6
v -0.2 2.5 0.5
v -0.1 2.5 0.5
v 0.1 2.5 0.5
v 0.2 2.5 0.5
v -0.5 2.6 0.6
v -0.4 2.6 0.6
v -0.3 2.6 0.6
v -0.2 2.6 0.6
v 0.2 2.6 0.6
v 0.3 2.6 0.6
v 0.4 2.6 0.6
v 0.5 2.6 0.6
v -0.5 2.6 0.5
v -0.4 2.6 0.5
v -0.3 2.6 0.5
v -0.2 2.6 0.5
v 0.2 2.6 0.5
v 0.3 2.6 0.5
v 0.4 2.6 0.5
v 0.5 2.6 0.5
v -0.4 2.7 0.7
v -0.3 2.7 0.7
v 0.3 2.7 0.7
v 0.4 2.7 0.7
v -0.4 2.7 0.5
v -0.3 2.7 0.5
v 0.3 2.7 0.5
v 0.4 2.7 0.5

# faces
f 4/3/1 2/3/1 1/3/1
f 5/3/1 2/3/1 4/3/1
f 8/3/1 4/3/1 3/3/1
f 8/3/1 6/3/1 5/3/1
f 8/3/1 5/3/1 4/3/1
f 10/3/1 8/3/1 7/3/1
f 12/3/1 10/3/1 9/3/1
f 13/3/1 6/3/1 8/3/1
f 13/3/1 8/3/1 10/3/1
f 13/3/1 10/3/1 12/3/1
f 14/3/1 6/3/1 13/3/1
f 16/3/1 12/3/1 11/3/1
f 16/3/1 13/3/1 12/3/1
f 17/3/1 13/3/1 16/3/1
f 18/3/1 13/3/1 17/3/1
f 20/3/1 16/3/1 15/3/1
f 20/3/1 17/3/1 16/3/1
f 21/3/1 17/3/1 20/3/1
f 22/3/1 17/3/1 21/3/1
f 24/3/1 20/3/1 19/3/1
f 24/3/1 21/3/1 20/3/1
f 25/3/1 21/3/1 24/3/1
f 26/3/1 21/3/1 25/3/1
f 27/3/1 24/3/1 23/3/1
f 27/3/1 25/3/1 24/3/1
f 28/3/1 25/3/1 27/3/1
f 29/3/1 27/3/1 23/3/1
f 30/3/1 27/3/1 29/3/1
f 31/3/1 29/3/1 23/3/1
f 32/3/1 29/3/1 31/3/1
f 33/3/1 29/3/1 32/3/1
f 35/4/1 33/4/1 32/4/1
f 36/4/1 33/4/1 35/4/1
f 37/5/1 35/5/1 34/5/1
f 37/5/1 36/5/1 35/5/1
f 38/5/1 36/5/1 37/5/1
f 43/3/1 40/3/1 39/3/1
f 44/3/1 40/3/1 43/3/1
f 45/3/1 42/3/1 41/3/1
f 46/3/1 42/3/1 45/3/1
f 47/3/1 40/3/1 44/3/1
f 49/3/1 42/3/1 46/3/1
f 50/3/1 42/3/1 49/3/1
f 51/3/1 42/3/1 50/3/1
f 53/3/1 48/3/1 47/3/1
f 54/3/1 48/3/1 53/3/1
f 55/3/1 52/3/1 51/3/1
f 55/3/1 51/3/1 50/3/1
f 56/3/1 52/3/1 55/3/1
f 57/3/1 47/3/1 44/3/1
f 57/3/1 53/3/1 47/3/1
f 58/3/1 53/3/1 57/3/1
f 60/3/1 57/3/1 44/3/1
f 61/3/1 57/3/1 60/3/1
f 62/3/1 57/3/1 61/3/1
f 63/3/1 60/3/1 59/3/1
f 63/3/1 61/3/1 60/3/1
f 64/3/1 61/3/1 63/3/1
f 66/3/1 52/3/1 56/3/1
f 67/3/1 52/3/1 66/3/1
f 69/3/1 63/3/1 59/3/1
f 71/3/1 69/3/1 68/3/1
f 72/3/1 63/3/1 69/3/1
f 72/3/1 69/3/1 71/3/1
f 73/3/1 63/3/1 72/3/1
f 75/3/1 66/3/1 65/3/1
f 76/3/1 66/3/1 75/3/1
f 78/3/1 71/3/1 70/3/1
f 78/3/1 72/3/1 71/3/1
f 79/3/1 72/3/1 78/3/1
f 80/3/1 72/3/1 79/3/1
f 81/3/1 75/3/1 74/3/1
f 82/3/1 75/3/1 81/3/1
f 83/3/1 78/3/1 77/3/1
f 83/3/1 79/3/1 78/3/1
f 84/3/1 79/3/1 83/3/1
f 88/3/1 86/3/1 85/3/1
f 89/3/1 86/3/1 88/3/1
f 91/3/1 88/3/1 87/3/1
f 92/3/1 88/3/1 91/3/1
f 93/3/1 88/3/1 92/3/1
f 94/3/1 91/3/1 90/3/1
f 94/3/1 92/3/1 91/3/1
f 95/3/1 92/3/1 94/3/1
f 96/3/1 83/3/1 77/3/1
f 99/3/1 94/3/1 90/3/1
f 100/3/1 96/3/1 77/3/1
f 100/3/1 97/3/1 96/3/1
f 101/4/1 98/4/1 97/4/1
f 101/3/1 97/3/1 100/3/1
f 102/4/1 98/4/1 101/4/1
f 103/3/1 94/3/1 99/3/1
f 104/3/1 94/3/1 103/3/1
f 107/5/1 106/5/1 105/5/1
f 108/5/1 106/5/1 107/5/1
f 109/5/1 106/5/1 108/5/1
f 110/5/1 106/5/1 109/5/1
f 113/3/1 112/3/1 111/3/1
f 114/3/1 112/3/1 113/3/1
f 118/3/1 116/3/1 115/3/1
f 119/3/1 116/3/1 118/3/1
f 123/3/1 118/3/1 117/3/1
f 124/3/1 118/3/1 123/3/1
f 127/3/1 121/3/1 120/3/1
f 128/3/1 121/3/1 127/3/1
f 129/3/1 123/3/1 122/3/1
f 130/3/1 123/3/1 129/3/1
f 131/3/1 126/3/1 125/3/1
f 132/3/1 126/3/1 131/3/1
f 134/3/1 131/3/1 125/3/1
f 138/3/1 134/3/1 133/3/1
f 139/3/1 131/3/1 134/3/1
f 139/3/1 134/3/1 138/3/1
f 140/3/1 131/3/1 139/3/1
f 142/3/1 138/3/1 137/3/1
f 142/3/1 139/3/1 138/3/1
f 143/3/1 139/3/1 142/3/1
f 144/3/1 139/3/1 143/3/1
f 145/3/1 136/3/1 135/3/1
f 146/3/1 136/3/1 145/3/1
f 147/3/1 142/3/1 141/3/1
f 147/3/1 143/3/1 142/3/1
f 148/3/1 143/3/1 147/3/1
f 150/3/1 147/3/1 141/3/1
f 151/3/1 147/3/1 150/3/1
f 152/3/1 150/3/1 149/3/1
f 153/3/1 150/3/1 152/3/1
f 156/5/1 155/5/1 154/5/1
f 157/5/1 155/5/1 156/5/1
f 159/6/1 157/6/1 156/6/1
f 159/6/1 158/6/1 157/6/1
f 160/6/1 158/6/1 159/6/1
f 165/3/1 162/3/1 161/3/1
f 166/3/1 162/3/1 165/3/1
f 167/3/1 164/3/1 163/3/1
f 168/3/1 164/3/1 167/3/1
f 174/3/1 170/3/1 169/3/1
f 175/3/1 170/3/1 174/3/1
f 176/3/1 170/3/1 175/3/1
f 177/3/1 172/3/1 171/3/1
f 178/3/1 172/3/1 177/3/1
f 179/3/1 174/3/1 173/3/1
f 179/3/1 175/3/1 174/3/1
f 180/3/1 175/3/1 179/3/1
f 181/3/1 175/3/1 180/3/1
f 188/3/1 183/3/1 182/3/1
f 189/3/1 183/3/1 188/3/1
f 190/3/1 185/3/1 184/3/1
f 191/3/1 185/3/1 190/3/1
f 192/3/1 187/3/1 186/3/1
f 193/3/1 187/3/1 192/3/1
f 197/6/1 195/6/1 194/6/1
f 198/3/1 196/3/1 195/3/1
f 198/6/1 195/6/1 197/6/1
f 199/3/1 196/3/1 198/3/1
f 202/3/1 201/3/1 200/3/1
f 203/3/1 201/3/1 202/3/1
f 206/6/1 205/6/1 204/6/1
f 207/6/1 205/6/1 206/6/1
f 208/6/1 205/6/1 207/6/1
f 209/4/1 207/4/1 206/4/1
f 210/5/1 208/5/1 207/5/1
f 210/4/1 207/4/1 209/4/1
f 211/5/1 208/5/1 210/5/1
f 213/3/1 210/3/1 209/3/1
f 214/4/1 211/4/1 210/4/1
f 214/3/1 210/3/1 213/3/1
f 215/5/1 212/5/1 211/5/1
f 215/4/1 211/4/1 214/4/1
f 216/5/1 212/5/1 215/5/1
f 217/3/1 215/3/1 214/3/1
f 217/4/1 216/4/1 215/4/1
f 218/4/1 216/4/1 217/4/1
f 220/3/1 217/3/1 214/3/1
f 220/3/1 218/3/1 217/3/1
f 223/3/1 222/3/1 221/3/1
f 224/3/1 222/3/1 223/3/1
f 225/3/1 222/3/1 224/3/1
f 226/3/1 218/3/1 220/3/1
f 226/3/1 220/3/1 219/3/1
f 227/3/1 218/3/1 226/3/1
f 231/3/1 226/3/1 219/3/1
f 232/1/1 229/1/1 228/1/1
f 233/1/1 229/1/1 232/1/1
f 239/3/1 231/3/1 230/3/1
f 240/3/1 226/3/1 231/3/1
f 240/3/1 231/3/1 239/3/1
f 241/3/1 226/3/1 240/3/1
f 244/1/1 234/1/1 233/1/1
f 245/1/1 234/1/1 244/1/1
f 246/1/1 234/1/1 245/1/1
f 247/3/1 236/3/1 235/3/1
f 248/3/1 236/3/1 247/3/1
f 249/3/1 238/3/1 237/3/1
f 250/3/1 238/3/1 249/3/1
f 251/3/1 240/3/1 239/3/1
f 252/3/1 240/3/1 251/3/1
f 253/2/1 243/2/1 242/2/1
f 254/2/1 243/2/1 253/2/1
f 256/3/1 254/3/1 253/3/1
f 256/3/1 255/3/1 254/3/1
f 257/3/1 255/3/1 256/3/1
f 258/3/1 255/3/1 257/3/1
f 259/3/1 255/3/1 258/3/1
f 260/3/1 255/3/1 259/3/1
f 263/6/1 262/6/1 261/6/1
f 264/6/1 262/6/1 263/6/1
f 267/5/1 266/5/1 265/5/1
f 268/5/1 266/5/1 267/5/1
f 272/3/1 270/3/1 269/3/1
f 273/3/1 270/3/1 272/3/1
f 274/3/1 272/3/1 271/3/1
f 275/3/1 272/3/1 274/3/1
f 279/1/1 276/1/1 275/1/1
f 280/1/1 276/1/1 279/1/1
f 281/3/1 278/3/1 277/3/1
f 282/3/1 278/3/1 281/3/1
f 286/6/1 284/6/1 283/6/1
f 287/3/1 285/3/1 284/3/1
f 287/6/1 284/6/1 286/6/1
f 288/3/1 285/3/1 287/3/1
f 290/3/1 289/3/1 288/3/1
f 291/3/1 289/3/1 290/3/1
f 294/2/1 293/2/1 292/2/1
f 295/2/1 293/2/1 294/2/1
f 298/5/1 297/5/1 296/5/1
f 299/5/1 297/5/1 298/5/1
f 300/5/1 297/5/1 299/5/1
f 301/5/1 297/5/1 300/5/1
f 304/6/1 303/6/1 302/6/1
f 305/6/1 303/6/1 304/6/1
f 308/5/1 307/5/1 306/5/1
f 309/5/1 307/5/1 308/5/1
f 314/3/1 311/3/1 310/3/1
f 315/3/1 311/3/1 314/3/1
f 316/3/1 313/3/1 312/3/1
f 317/3/1 313/3/1 316/3/1
f 318/3/1 311/3/1 315/3/1
f 319/3/1 313/3/1 317/3/1
f 320/3/1 313/3/1 319/3/1
f 322/3/1 318/3/1 315/3/1
f 323/3/1 318/3/1 322/3/1
f 324/3/1 321/3/1 320/3/1
f 324/3/1 320/3/1 319/3/1
f 325/3/1 321/3/1 324/3/1
f 328/3/1 327/3/1 326/3/1
f 329/3/1 327/3/1 328/3/1
f 330/5/1 329/5/1 328/5/1
f 331/5/1 329/5/1 330/5/1
f 333/6/1 331/6/1 330/6/1
f 333/6/1 332/6/1 331/6/1
f 334/6/1 332/6/1 333/6/1
f 337/3/1 336/3/1 335/3/1
f 338/3/1 336/3/1 337/3/1
f 339/3/2 340/3/2 341/3/2
f 341/3/2 340/3/2 342/3/2
f 343/3/2 344/3/2 347/3/2
f 347/3/2 344/3/2 348/3/2
f 345/3/2 346/3/2 349/3/2
f 349/3/2 346/3/2 350/3/2
f 348/3/2 344/3/2 351/3/2
f 350/3/2 346/3/2 352/3/2
f 352/3/2 346/3/2 353/3/2
f 348/3/2 351/3/2 355/3/2
f 355/3/2 351/3/2 356/3/2
f 353/3/2 354/3/2 357/3/2
f 352/3/2 353/3/2 357/3/2
f 357/3/2 354/3/2 358/3/2
f 359/3/2 360/3/2 361/3/2
f 361/3/2 360/3/2 362/3/2
f 361/5/2 362/5/2 363/5/2
f 363/5/2 362/5/2 364/5/2
f 363/6/2 364/6/2 366/6/2
f 364/6/2 365/6/2 366/6/2
f 366/6/2 365/6/2 367/6/2
f 368/6/2 369/6/2 370/6/2
f 370/6/2 369/6/2 371/6/2
f 372/5/2 373/5/2 374/5/2
f 374/5/2 373/5/2 375/5/2
f 376/2/2 377/2/2 378/2/2
f 378/2/2 377/2/2 379/2/2
f 380/5/2 381/5/2 382/5/2
f 382/5/2 381/5/2 383/5/2
f 383/5/2 381/5/2 384/5/2
f 384/5/2 381/5/2 385/5/2
f 386/6/2 387/6/2 388/6/2
f 388/6/2 387/6/2 389/6/2
f 390/5/2 391/5/2 392/5/2
f 392/5/2 391/5/2 393/5/2
f 394/3/2 395/3/2 397/3/2
f 397/3/2 395/3/2 398/3/2
f 396/3/2 397/3/2 399/3/2
f 399/3/2 397/3/2 400/3/2
f 400/1/2 401/1/2 404/1/2
f 404/1/2 401/1/2 405/1/2
f 402/3/2 403/3/2 406/3/2
f 406/3/2 403/3/2 407/3/2
f 408/6/2 409/6/2 411/6/2
f 409/3/2 410/3/2 412/3/2
f 411/6/2 409/6/2 412/6/2
f 412/3/2 410/3/2 413/3/2
f 413/3/2 414/3/2 415/3/2
f 415/3/2 414/3/2 416/3/2
f 417/6/2 418/6/2 419/6/2
f 419/6/2 418/6/2 420/6/2
f 420/6/2 418/6/2 421/6/2
f 419/4/2 420/4/2 422/4/2
f 420/5/2 421/5/2 423/5/2
f 422/4/2 420/4/2 423/4/2
f 423/5/2 421/5/2 424/5/2
f 422/3/2 423/3/2 426/3/2
f 423/4/2 424/4/2 427/4/2
f 426/3/2 423/3/2 427/3/2
f 424/5/2 425/5/2 428/5/2
f 427/4/2 424/4/2 428/4/2
f 428/5/2 425/5/2 429/5/2
f 427/3/2 428/3/2 430/3/2
f 428/4/2 429/4/2 430/4/2
f 430/4/2 429/4/2 431/4/2
f 427/3/2 430/3/2 433/3/2
f 430/3/2 431/3/2 433/3/2
f 434/3/2 435/3/2 436/3/2
f 436/3/2 435/3/2 437/3/2
f 437/3/2 435/3/2 438/3/2
f 433/3/2 431/3/2 439/3/2
f 432/3/2 433/3/2 439/3/2
f 439/3/2 431/3/2 440/3/2
f 432/3/2 439/3/2 444/3/2
f 441/1/2 442/1/2 445/1/2
f 445/1/2 442/1/2 446/1/2
f 443/3/2 444/3/2 452/3/2
f 444/3/2 439/3/2 453/3/2
f 452/3/2 444/3/2 453/3/2
f 453/3/2 439/3/2 454/3/2
f 446/1/2 447/1/2 457/1/2
f 457/1/2 447/1/2 458/1/2
f 458/1/2 447/1/2 459/1/2
f 448/3/2 449/3/2 460/3/2
f 460/3/2 449/3/2 461/3/2
f 450/3/2 451/3/2 462/3/2
f 462/3/2 451/3/2 463/3/2
f 452/3/2 453/3/2 464/3/2
f 464/3/2 453/3/2 465/3/2
f 455/2/2 456/2/2 466/2/2
f 466/2/2 456/2/2 467/2/2
f 466/3/2 467/3/2 469/3/2
f 467/3/2 468/3/2 469/3/2
f 469/3/2 468/3/2 470/3/2
f 470/3/2 468/3/2 471/3/2
f 471/3/2 468/3/2 472/3/2
f 472/3/2 468/3/2 473/3/2
f 474/3/2 475/3/2 478/3/2
f 478/3/2 475/3/2 479/3/2
f 476/3/2 477/3/2 480/3/2
f 480/3/2 477/3/2 481/3/2
f 482/3/2 483/3/2 487/3/2
f 487/3/2 483/3/2 488/3/2
f 488/3/2 483/3/2 489/3/2
f 484/3/2 485/3/2 490/3/2
f 490/3/2 485/3/2 491/3/2
f 486/3/2 487/3/2 492/3/2
f 487/3/2 488/3/2 492/3/2
f 492/3/2 488/3/2 493/3/2
f 493/3/2 488/3/2 494/3/2
f 495/3/2 496/3/2 501/3/2
f 501/3/2 496/3/2 502/3/2
f 497/3/2 498/3/2 503/3/2
f 503/3/2 498/3/2 504/3/2
f 499/3/2 500/3/2 505/3/2
f 505/3/2 500/3/2 506/3/2
f 507/6/2 508/6/2 510/6/2
f 508/3/2 509/3/2 511/3/2
f 510/6/2 508/6/2 511/6/2
f 511/3/2 509/3/2 512/3/2
f 513/3/2 514/3/2 515/3/2
f 515/3/2 514/3/2 516/3/2
f 517/3/2 518/3/2 519/3/2
f 519/3/2 518/3/2 520/3/2
f 521/3/2 522/3/2 524/3/2
f 524/3/2 522/3/2 525/3/2
f 523/3/2 524/3/2 529/3/2
f 529/3/2 524/3/2 530/3/2
f 526/3/2 527/3/2 533/3/2
f 533/3/2 527/3/2 534/3/2
f 528/3/2 529/3/2 535/3/2
f 535/3/2 529/3/2 536/3/2
f 531/3/2 532/3/2 537/3/2
f 537/3/2 532/3/2 538/3/2
f 531/3/2 537/3/2 540/3/2
f 539/3/2 540/3/2 544/3/2
f 540/3/2 537/3/2 545/3/2
f 544/3/2 540/3/2 545/3/2
f 545/3/2 537/3/2 546/3/2
f 543/3/2 544/3/2 548/3/2
f 544/3/2 545/3/2 548/3/2
f 548/3/2 545/3/2 549/3/2
f 549/3/2 545/3/2 550/3/2
f 541/3/2 542/3/2 551/3/2
f 551/3/2 542/3/2 552/3/2
f 547/3/2 548/3/2 553/3/2
f 548/3/2 549/3/2 553/3/2
f 553/3/2 549/3/2 554/3/2
f 547/3/2 553/3/2 556/3/2
f 556/3/2 553/3/2 557/3/2
f 555/3/2 556/3/2 558/3/2
f 558/3/2 556/3/2 559/3/2
f 560/5/2 561/5/2 562/5/2
f 562/5/2 561/5/2 563/5/2
f 562/6/2 563/6/2 565/6/2
f 563/6/2 564/6/2 565/6/2
f 565/6/2 564/6/2 566/6/2
f 567/3/2 568/3/2 571/3/2
f 571/3/2 568/3/2 572/3/2
f 569/3/2 570/3/2 573/3/2
f 573/3/2 570/3/2 574/3/2
f 572/3/2 568/3/2 575/3/2
f 574/3/2 570/3/2 577/3/2
f 577/3/2 570/3/2 578/3/2
f 578/3/2 570/3/2 579/3/2
f 575/3/2 576/3/2 581/3/2
f 581/3/2 576/3/2 582/3/2
f 579/3/2 580/3/2 583/3/2
f 578/3/2 579/3/2 583/3/2
f 583/3/2 580/3/2 584/3/2
f 572/3/2 575/3/2 585/3/2
f 575/3/2 581/3/2 585/3/2
f 585/3/2 581/3/2 586/3/2
f 572/3/2 585/3/2 588/3/2
f 588/3/2 585/3/2 589/3/2
f 589/3/2 585/3/2 590/3/2
f 587/3/2 588/3/2 591/3/2
f 588/3/2 589/3/2 591/3/2
f 591/3/2 589/3/2 592/3/2
f 584/3/2 580/3/2 594/3/2
f 594/3/2 580/3/2 595/3/2
f 587/3/2 591/3/2 597/3/2
f 596/3/2 597/3/2 599/3/2
f 597/3/2 591/3/2 600/3/2
f 599/3/2 597/3/2 600/3/2
f 600/3/2 591/3/2 601/3/2
f 593/3/2 594/3/2 603/3/2
f 603/3/2 594/3/2 604/3/2
f 598/3/2 599/3/2 606/3/2
f 599/3/2 600/3/2 606/3/2
f 606/3/2 600/3/2 607/3/2
f 607/3/2 600/3/2 608/3/2
f 602/3/2 603/3/2 609/3/2
f 609/3/2 603/3/2 610/3/2
f 605/3/2 606/3/2 611/3/2
f 606/3/2 607/3/2 611/3/2
f 611/3/2 607/3/2 612/3/2
f 613/3/2 614/3/2 616/3/2
f 616/3/2 614/3/2 617/3/2
f 615/3/2 616/3/2 619/3/2
f 619/3/2 616/3/2 620/3/2
f 620/3/2 616/3/2 621/3/2
f 618/3/2 619/3/2 622/3/2
f 619/3/2 620/3/2 622/3/2
f 622/3/2 620/3/2 623/3/2
f 605/3/2 611/3/2 624/3/2
f 618/3/2 622/3/2 627/3/2
f 605/3/2 624/3/2 628/3/2
f 624/3/2 625/3/2 628/3/2
f 625/4/2 626/4/2 629/4/2
f 628/3/2 625/3/2 629/3/2
f 629/4/2 626/4/2 630/4/2
f 627/3/2 622/3/2 631/3/2
f 631/3/2 622/3/2 632/3/2
f 629/4/2 630/4/2 633/4/2
f 633/4/2 630/4/2 634/4/2
f 633/5/2 634/5/2 636/5/2
f 634/5/2 635/5/2 636/5/2
f 636/5/2 635/5/2 637/5/2
f 637/5/2 635/5/2 638/5/2
f 638/5/2 635/5/2 639/5/2
f 640/3/2 641/3/2 643/3/2
f 643/3/2 641/3/2 644/3/2
f 642/3/2 643/3/2 647/3/2
f 644/3/2 645/3/2 647/3/2
f 643/3/2 644/3/2 647/3/2
f 646/3/2 647/3/2 649/3/2
f 648/3/2 649/3/2 651/3/2
f 647/3/2 645/3/2 652/3/2
f 649/3/2 647/3/2 652/3/2
f 651/3/2 649/3/2 652/3/2
f 652/3/2 645/3/2 653/3/2
f 650/3/2 651/3/2 655/3/2
f 651/3/2 652/3/2 655/3/2
f 655/3/2 652/3/2 656/3/2
f 656/3/2 652/3/2 657/3/2
f 654/3/2 655/3/2 659/3/2
f 655/3/2 656/3/2 659/3/2
f 659/3/2 656/3/2 660/3/2
f 660/3/2 656/3/2 661/3/2
f 658/3/2 659/3/2 663/3/2
f 659/3/2 660/3/2 663/3/2
f 663/3/2 660/3/2 664/3/2
f 664/3/2 660/3/2 665/3/2
f 662/3/2 663/3/2 666/3/2
f 663/3/2 664/3/2 666/3/2
f 666/3/2 664/3/2 667/3/2
f 662/3/2 666/3/2 668/3/2
f 668/3/2 666/3/2 669/3/2
f 662/3/2 668/3/2 670/3/2
f 670/3/2 668/3/2 671/3/2
f 671/3/2 668/3/2 672/3/2
f 671/4/2 672/4/2 673/4/2
f 673/4/2 672/4/2 674/4/2
f 673/5/2 674/5/2 675/5/2
f 675/5/2 674/5/2 676/5/2
f 679/6/3 678/6/3 677/6/3
f 680/6/3 678/6/3 679/6/3
f 686/2/3 682/2/3 681/2/3
f 687/3/3 683/3/3 682/3/3
f 687/2/3 682/2/3 686/2/3
f 688/3/3 683/3/3 687/3/3
f 690/3/3 685/3/3 684/3/3
f 691/3/3 685/3/3 690/3/3
f 694/3/3 689/3/3 688/3/3
f 695/3/3 689/3/3 694/3/3
f 696/2/3 693/2/3 692/2/3
f 697/3/3 694/3/3 693/3/3
f 697/2/3 693/2/3 696/2/3
f 698/3/3 694/3/3 697/3/3
f 704/3/3 700/3/3 699/3/3
f 705/3/3 700/3/3 704/3/3
f 707/3/3 702/3/3 701/3/3
f 708/3/3 702/3/3 707/3/3
f 709/3/3 704/3/3 703/3/3
f 710/3/3 704/3/3 709/3/3
f 711/1/3 706/1/3 705/1/3
f 712/1/3 706/1/3 711/1/3
f 715/3/3 711/3/3 710/3/3
f 716/3/3 711/3/3 715/3/3
f 717/3/3 714/3/3 713/3/3
f 718/3/3 714/3/3 717/3/3
f 723/3/3 720/3/3 719/3/3
f 724/3/3 720/3/3 723/3/3
f 726/6/3 722/6/3 721/6/3
f 727/6/3 722/6/3 726/6/3
f 728/3/3 724/3/3 723/3/3
f 729/1/3 725/1/3 724/1/3
f 729/3/3 724/3/3 728/3/3
f 731/1/3 725/1/3 729/1/3
f 732/3/3 731/3/3 730/3/3
f 733/1/3 725/1/3 731/1/3
f 733/3/3 731/3/3 732/3/3
f 734/1/3 725/1/3 733/1/3
f 737/3/3 733/3/3 732/3/3
f 738/3/3 733/3/3 737/3/3
f 739/6/3 736/6/3 735/6/3
f 740/6/3 736/6/3 739/6/3
f 747/3/3 742/3/3 741/3/3
f 748/3/3 744/3/3 743/3/3
f 749/3/3 746/3/3 745/3/3
f 750/3/3 746/3/3 749/3/3
f 751/3/3 742/3/3 747/3/3
f 752/3/3 742/3/3 751/3/3
f 754/3/3 748/3/3 743/3/3
f 755/3/3 748/3/3 754/3/3
f 760/1/3 753/1/3 752/1/3
f 761/1/3 753/1/3 760/1/3
f 763/3/3 756/3/3 755/3/3
f 764/3/3 756/3/3 763/3/3
f 765/3/3 758/3/3 757/3/3
f 766/3/3 758/3/3 765/3/3
f 767/3/3 760/3/3 759/3/3
f 768/3/3 763/3/3 762/3/3
f 769/3/3 760/3/3 767/3/3
f 770/3/3 760/3/3 769/3/3
f 771/3/3 768/3/3 762/3/3
f 772/3/3 768/3/3 771/3/3
f 776/3/3 774/3/3 773/3/3
f 777/3/3 774/3/3 776/3/3
f 778/3/3 774/3/3 777/3/3
f 779/3/3 774/3/3 778/3/3
f 780/3/3 774/3/3 779/3/3
f 781/3/3 776/3/3 775/3/3
f 782/3/3 776/3/3 781/3/3
f 783/3/3 774/3/3 780/3/3
f 784/3/3 774/3/3 783/3/3
f 785/3/3 779/3/3 778/3/3
f 786/3/3 779/3/3 785/3/3
f 791/3/3 788/3/3 787/3/3
f 792/3/3 788/3/3 791/3/3
f 794/3/3 779/3/3 786/3/3
f 795/3/3 779/3/3 794/3/3
f 796/3/3 790/3/3 789/3/3
f 797/3/3 793/3/3 792/3/3
f 797/3/3 796/3/3 795/3/3
f 797/3/3 795/3/3 794/3/3
f 797/3/3 794/3/3 793/3/3
f 798/3/3 790/3/3 796/3/3
f 798/3/3 796/3/3 797/3/3
f 803/3/3 800/3/3 799/3/3
f 804/3/3 800/3/3 803/3/3
f 806/3/3 802/3/3 801/3/3
f 807/3/3 802/3/3 806/3/3
f 810/3/3 806/3/3 805/3/3
f 811/3/3 806/3/3 810/3/3
f 814/3/3 809/3/3 808/3/3
f 815/3/3 809/3/3 814/3/3
f 820/3/3 813/3/3 812/3/3
f 821/3/3 813/3/3 820/3/3
f 822/3/3 819/3/3 818/3/3
f 823/3/3 819/3/3 822/3/3
f 825/3/3 817/3/3 816/3/3
f 826/3/3 817/3/3 825/3/3
f 827/3/3 824/3/3 823/3/3
f 828/3/3 824/3/3 827/3/3
f 831/3/3 830/3/3 829/3/3
f 832/3/3 830/3/3 831/3/3
f 837/3/3 834/3/3 833/3/3
f 838/3/3 834/3/3 837/3/3
f 839/5/3 836/5/3 835/5/3
f 840/5/3 836/5/3 839/5/3
f 842/4/3 840/4/3 839/4/3
f 843/5/3 841/5/3 840/5/3
f 843/4/3 840/4/3 842/4/3
f 844/5/3 841/5/3 843/5/3
f 847/3/3 843/3/3 842/3/3
f 847/3/3 844/3/3 843/3/3
f 848/3/3 844/3/3 847/3/3
f 849/3/3 844/3/3 848/3/3
f 850/5/3 845/5/3 844/5/3
f 850/3/3 844/3/3 849/3/3
f 851/6/3 846/6/3 845/6/3
f 851/5/3 845/5/3 850/5/3
f 852/6/3 846/6/3 851/6/3
f 853/3/3 849/3/3 848/3/3
f 854/3/3 849/3/3 853/3/3
f 855/5/3 854/5/3 853/5/3
f 856/5/3 854/5/3 855/5/3
f 859/5/3 858/5/3 857/5/3
f 860/5/3 858/5/3 859/5/3
f 862/3/3 860/3/3 859/3/3
f 863/3/3 860/3/3 862/3/3
f 867/3/3 863/3/3 862/3/3
f 867/3/3 862/3/3 861/3/3
f 867/3/3 864/3/3 863/3/3
f 868/3/3 864/3/3 867/3/3
f 869/5/3 865/5/3 864/5/3
f 869/3/3 864/3/3 868/3/3
f 870/6/3 866/6/3 865/6/3
f 870/5/3 865/5/3 869/5/3
f 871/6/3 866/6/3 870/6/3
f 874/4/3 868/4/3 867/4/3
f 875/5/3 869/5/3 868/5/3
f 875/4/3 868/4/3 874/4/3
f 876/5/3 869/5/3 875/5/3
f 877/3/3 873/3/3 872/3/3
f 878/3/3 873/3/3 877/3/3
f 881/4/3 880/4/3 879/4/3
f 882/4/3 880/4/3 881/4/3
f 885/5/3 884/5/3 883/5/3
f 886/5/3 884/5/3 885/5/3
f 890/4/3 888/4/3 887/4/3
f 891/5/3 889/5/3 888/5/3
f 891/4/3 888/4/3 890/4/3
f 892/5/3 889/5/3 891/5/3
f 893/5/3 891/5/3 890/5/3
f 894/5/3 891/5/3 893/5/3
f 897/5/3 896/5/3 895/5/3
f 898/5/3 896/5/3 897/5/3
f 900/4/3 898/4/3 897/4/3
f 901/5/3 899/5/3 898/5/3
f 901/4/3 898/4/3 900/4/3
f 902/5/3 899/5/3 901/5/3
f 908/5/3 904/5/3 903/5/3
f 909/5/3 904/5/3 908/5/3
f 910/4/3 906/4/3 905/4/3
f 911/5/3 907/5/3 906/5/3
f 911/4/3 906/4/3 910/4/3
f 912/5/3 907/5/3 911/5/3
f 915/3/3 914/3/3 913/3/3
f 916/3/3 914/3/3 915/3/3
f 919/3/3 918/3/3 917/3/3
f 920/3/3 918/3/3 919/3/3
f 927/3/3 922/3/3 921/3/3
f 928/3/3 922/3/3 927/3/3
f 929/3/3 924/3/3 923/3/3
f 930/3/3 924/3/3 929/3/3
f 933/3/3 932/3/3 931/3/3
f 934/3/3 932/3/3 933/3/3
f 935/3/3 926/3/3 925/3/3
f 936/3/3 926/3/3 935/3/3
f 939/3/3 938/3/3 937/3/3
f 940/3/3 938/3/3 939/3/3
f 945/3/3 942/3/3 941/3/3
f 946/3/3 942/3/3 945/3/3
f 947/3/3 944/3/3 943/3/3
f 948/3/3 944/3/3 947/3/3
f 950/3/3 944/3/3 948/3/3
f 951/3/3 950/3/3 949/3/3
f 952/3/3 944/3/3 950/3/3
f 952/3/3 950/3/3 951/3/3
f 955/3/3 954/3/3 953/3/3
f 956/3/3 954/3/3 955/3/3
f 959/3/3 958/3/3 957/3/3
f 960/3/3 958/3/3 959/3/3
f 963/3/3 962/3/3 961/3/3
f 964/3/3 962/3/3 963/3/3
f 967/3/3 966/3/3 965/3/3
f 968/3/3 966/3/3 967/3/3
f 971/3/3 970/3/3 969/3/3
f 972/3/3 970/3/3 971/3/3
f 975/3/3 974/3/3 973/3/3
f 976/3/3 974/3/3 975/3/3
f 979/3/3 978/3/3 977/3/3
f 980/3/3 978/3/3 979/3/3
f 983/3/3 982/3/3 981/3/3
f 984/3/3 982/3/3 983/3/3
f 987/3/3 986/3/3 985/3/3
f 988/3/3 986/3/3 987/3/3
f 991/3/3 990/3/3 989/3/3
f 992/3/3 990/3/3 991/3/3
f 995/3/3 994/3/3 993/3/3
f 996/3/3 994/3/3 995/3/3
f 999/3/3 998/3/3 997/3/3
f 1000/3/3 998/3/3 999/3/3
f 1003/3/3 1002/3/3 1001/3/3
f 1004/3/3 1002/3/3 1003/3/3
f 1009/3/3 1006/3/3 1005/3/3
f 1010/3/3 1006/3/3 1009/3/3
f 1011/3/3 1008/3/3 1007/3/3
f 1012/3/3 1008/3/3 1011/3/3
f 1015/3/3 1014/3/3 1013/3/3
f 1016/3/3 1014/3/3 1015/3/3
f 1019/3/3 1018/3/3 1017/3/3
f 1020/3/3 1018/3/3 1019/3/3
f 1023/3/3 1022/3/3 1021/3/3
f 1024/3/3 1022/3/3 1023/3/3
f 1027/3/3 1026/3/3 1025/3/3
f 1028/3/3 1026/3/3 1027/3/3
f 1031/3/3 1030/3/3 1029/3/3
f 1032/3/3 1030/3/3 1031/3/3
f 1038/6/3 1034/6/3 1033/6/3
f 1039/4/3 1035/4/3 1034/4/3
f 1039/6/3 1034/6/3 1038/6/3
f 1040/3/3 1036/3/3 1035/3/3
f 1040/4/3 1035/4/3 1039/4/3
f 1041/6/3 1038/6/3 1037/6/3
f 1042/4/3 1039/4/3 1038/4/3
f 1042/6/3 1038/6/3 1041/6/3
f 1043/3/3 1040/3/3 1039/3/3
f 1043/4/3 1039/4/3 1042/4/3
f 1044/3/3 1036/3/3 1040/3/3
f 1044/3/3 1040/3/3 1043/3/3
f 1045/6/3 1043/6/3 1042/6/3
f 1046/4/3 1044/4/3 1043/4/3
f 1046/6/3 1043/6/3 1045/6/3
f 1047/3/3 1036/3/3 1044/3/3
f 1047/4/3 1044/4/3 1046/4/3
f 1048/3/3 1036/3/3 1047/3/3
f 1049/2/4 1050/2/4 1051/2/4
f 1051/2/4 1050/2/4 1052/2/4
f 1053/2/4 1054/2/4 1055/2/4
f 1055/2/4 1054/2/4 1056/2/4
f 1057/3/4 1058/3/4 1059/3/4
f 1059/3/4 1058/3/4 1060/3/4
f 1061/3/4 1062/3/4 1063/3/4
f 1063/3/4 1062/3/4 1064/3/4
f 1065/3/4 1066/3/4 1067/3/4
f 1067/3/4 1066/3/4 1068/3/4
f 1069/3/4 1070/3/4 1073/3/4
f 1070/4/4 1071/4/4 1074/4/4
f 1073/3/4 1070/3/4 1074/3/4
f 1071/5/4 1072/5/4 1075/5/4
f 1074/4/4 1071/4/4 1075/4/4
f 1075/5/4 1072/5/4 1076/5/4
f 1075/3/4 1076/3/4 1078/3/4
f 1076/5/4 1077/5/4 1079/5/4
f 1078/3/4 1076/3/4 1079/3/4
f 1079/5/4 1077/5/4 1080/5/4
f 1080/5/4 1077/5/4 1081/5/4
f 1081/6/4 1082/6/4 1083/6/4
f 1080/5/4 1081/5/4 1083/5/4
f 1083/6/4 1082/6/4 1084/6/4
f 1079/4/4 1080/4/4 1085/4/4
f 1080/5/4 1083/5/4 1086/5/4
f 1085/4/4 1080/4/4 1086/4/4
f 1086/5/4 1083/5/4 1087/5/4
f 1085/5/4 1086/5/4 1088/5/4
f 1088/5/4 1086/5/4 1089/5/4
f 1090/5/4 1091/5/4 1092/5/4
f 1092/5/4 1091/5/4 1093/5/4
f 1093/5/4 1094/5/4 1095/5/4
f 1092/4/4 1093/4/4 1098/4/4
f 1093/5/4 1095/5/4 1099/5/4
f 1098/4/4 1093/4/4 1099/4/4
f 1095/6/4 1096/6/4 1100/6/4
f 1099/5/4 1095/5/4 1100/5/4
f 1100/6/4 1096/6/4 1101/6/4
f 1097/3/4 1098/3/4 1104/3/4
f 1098/5/4 1099/5/4 1105/5/4
f 1099/5/4 1100/5/4 1105/5/4
f 1104/3/4 1098/3/4 1105/3/4
f 1105/5/4 1100/5/4 1106/5/4
f 1102/3/4 1103/3/4 1107/3/4
f 1103/4/4 1104/4/4 1108/4/4
f 1107/3/4 1103/3/4 1108/3/4
f 1104/5/4 1105/5/4 1109/5/4
f 1108/4/4 1104/4/4 1109/4/4
f 1109/5/4 1105/5/4 1110/5/4
f 1111/3/4 1112/3/4 1113/3/4
f 1113/3/4 1112/3/4 1114/3/4
f 1115/3/4 1116/3/4 1117/3/4
f 1117/3/4 1116/3/4 1118/3/4
f 1118/3/4 1119/3/4 1121/3/4
f 1121/3/4 1119/3/4 1122/3/4
f 1120/3/4 1121/3/4 1125/3/4
f 1125/3/4 1121/3/4 1126/3/4
f 1123/3/4 1124/3/4 1127/3/4
f 1127/3/4 1124/3/4 1128/3/4
f 1129/3/4 1130/3/4 1131/3/4
f 1131/3/4 1130/3/4 1132/3/4
f 1133/3/4 1134/3/4 1137/3/4
f 1137/3/4 1134/3/4 1138/3/4
f 1135/3/4 1136/3/4 1139/3/4
f 1139/3/4 1136/3/4 1140/3/4
f 1141/3/4 1142/3/4 1143/3/4
f 1143/3/4 1142/3/4 1144/3/4
f 1144/3/4 1145/3/4 1146/3/4
f 1146/3/4 1145/3/4 1147/3/4
f 1148/3/4 1149/3/4 1152/3/4
f 1152/3/4 1149/3/4 1153/3/4
f 1150/3/4 1151/3/4 1155/3/4
f 1155/3/4 1151/3/4 1156/3/4
f 1154/3/4 1155/3/4 1157/3/4
f 1157/3/4 1155/3/4 1158/3/4
f 1159/3/4 1160/3/4 1163/3/4
f 1159/3/4 1163/3/4 1165/3/4
f 1163/3/4 1164/3/4 1165/3/4
f 1165/3/4 1164/3/4 1166/3/4
f 1161/3/4 1162/3/4 1169/3/4
f 1169/3/4 1162/3/4 1170/3/4
f 1167/3/4 1168/3/4 1175/3/4
f 1175/3/4 1168/3/4 1176/3/4
f 1171/3/4 1172/3/4 1177/3/4
f 1177/3/4 1172/3/4 1178/3/4
f 1173/3/4 1174/3/4 1179/3/4
f 1179/3/4 1174/3/4 1180/3/4
f 1173/3/4 1179/3/4 1181/3/4
f 1181/3/4 1179/3/4 1182/3/4
f 1183/3/4 1184/3/4 1185/3/4
f 1185/3/4 1184/3/4 1186/3/4
f 1186/3/4 1184/3/4 1188/3/4
f 1187/3/4 1188/3/4 1189/3/4
f 1188/3/4 1184/3/4 1190/3/4
f 1189/3/4 1188/3/4 1190/3/4
f 1191/3/4 1192/3/4 1193/3/4
f 1193/3/4 1192/3/4 1194/3/4
f 1195/3/4 1196/3/4 1197/3/4
f 1197/3/4 1196/3/4 1198/3/4
f 1199/3/4 1200/3/4 1201/3/4
f 1201/3/4 1200/3/4 1202/3/4
f 1203/3/4 1204/3/4 1205/3/4
f 1205/3/4 1204/3/4 1206/3/4
f 1209/3/4 1210/3/4 1211/3/4
f 1211/3/4 1210/3/4 1212/3/4
f 1207/3/4 1208/3/4 1215/3/4
f 1215/3/4 1208/3/4 1216/3/4
f 1213/3/4 1214/3/4 1217/3/4
f 1217/3/4 1214/3/4 1218/3/4
f 1219/3/4 1220/3/4 1221/3/4
f 1221/3/4 1220/3/4 1222/3/4
f 1223/3/4 1224/3/4 1227/3/4
f 1227/3/4 1224/3/4 1228/3/4
f 1229/3/4 1230/3/4 1231/3/4
f 1231/3/4 1230/3/4 1232/3/4
f 1225/3/4 1226/3/4 1233/3/4
f 1233/3/4 1226/3/4 1234/3/4
f 1235/3/4 1236/3/4 1237/3/4
f 1237/3/4 1236/3/4 1238/3/4
f 1239/3/4 1240/3/4 1241/3/4
f 1241/3/4 1240/3/4 1242/3/4
f 1243/3/4 1244/3/4 1247/3/4
f 1247/3/4 1244/3/4 1248/3/4
f 1245/3/4 1246/3/4 1249/3/4
f 1249/3/4 1246/3/4 1250/3/4
f 1250/3/4 1251/3/4 1252/3/4
f 1252/3/4 1251/3/4 1253/3/4
f 1254/3/4 1255/3/4 1256/3/4
f 1256/3/4 1255/3/4 1257/3/4
f 1258/3/4 1259/3/4 1260/3/4
f 1260/3/4 1259/3/4 1261/3/4
f 1262/3/4 1263/3/4 1267/3/4
f 1267/3/4 1263/3/4 1268/3/4
f 1264/3/4 1265/3/4 1269/3/4
f 1269/3/4 1265/3/4 1270/3/4
f 1266/3/4 1267/3/4 1271/3/4
f 1271/3/4 1267/3/4 1272/3/4
f 1273/3/4 1274/3/4 1277/3/4
f 1277/3/4 1274/3/4 1278/3/4
f 1278/3/4 1279/3/4 1280/3/4
f 1275/3/4 1276/3/4 1282/3/4
f 1282/3/4 1276/3/4 1283/3/4
f 1280/3/4 1281/3/4 1284/3/4
f 1278/3/4 1280/3/4 1284/3/4
f 1284/3/4 1281/3/4 1285/3/4
f 1286/3/4 1287/3/4 1290/3/4
f 1290/3/4 1287/3/4 1291/3/4
f 1288/3/4 1289/3/4 1292/3/4
f 1292/3/4 1289/3/4 1293/3/4
f 1286/3/4 1290/3/4 1295/3/4
f 1295/3/4 1290/3/4 1296/3/4
f 1294/3/4 1295/3/4 1297/3/4
f 1297/3/4 1295/3/4 1298/3/4
f 1299/3/4 1300/3/4 1301/3/4
f 1301/3/4 1300/3/4 1302/3/4
f 1302/3/4 1300/3/4 1303/3/4
f 1303/3/4 1300/3/4 1304/3/4
f 1305/3/4 1306/3/4 1309/3/4
f 1309/3/4 1306/3/4 1310/3/4
f 1307/3/4 1308/3/4 1312/3/4
f 1311/3/4 1312/3/4 1313/3/4
f 1312/3/4 1308/3/4 1314/3/4
f 1313/3/4 1312/3/4 1314/3/4
f 1315/6/4 1316/6/4 1321/6/4
f 1316/5/4 1317/5/4 1322/5/4
f 1321/6/4 1316/6/4 1322/6/4
f 1322/5/4 1317/5/4 1323/5/4
f 1318/3/4 1319/3/4 1324/3/4
f 1324/3/4 1319/3/4 1325/3/4
f 1320/6/4 1321/6/4 1326/6/4
f 1321/5/4 1322/5/4 1327/5/4
f 1326/6/4 1321/6/4 1327/6/4
f 1327/5/4 1322/5/4 1328/5/4
f 1325/3/4 1319/3/4 1331/3/4
f 1327/6/4 1328/6/4 1332/6/4
f 1328/5/4 1329/5/4 1333/5/4
f 1332/6/4 1328/6/4 1333/6/4
f 1333/5/4 1329/5/4 1334/5/4
f 1330/3/4 1331/3/4 1335/3/4
f 1331/3/4 1319/3/4 1336/3/4
f 1335/3/4 1331/3/4 1336/3/4
f 1337/5/4 1338/5/4 1342/5/4
f 1338/4/4 1339/4/4 1343/4/4
f 1342/5/4 1338/5/4 1343/5/4
f 1339/3/4 1340/3/4 1344/3/4
f 1343/4/4 1339/4/4 1344/4/4
f 1344/3/4 1340/3/4 1345/3/4
f 1341/5/4 1342/5/4 1347/5/4
f 1342/4/4 1343/4/4 1348/4/4
f 1347/5/4 1342/5/4 1348/5/4
f 1345/3/4 1346/3/4 1349/3/4
f 1348/4/4 1343/4/4 1349/4/4
f 1343/3/4 1344/3/4 1349/3/4
f 1344/3/4 1345/3/4 1349/3/4
f 1349/3/4 1346/3/4 1350/3/4
f 1350/3/4 1346/3/4 1351/3/4
f 1351/3/4 1346/3/4 1352/3/4
f 1348/5/4 1349/5/4 1353/5/4
f 1349/4/4 1350/4/4 1354/4/4
f 1353/5/4 1349/5/4 1354/5/4
f 1350/3/4 1351/3/4 1355/3/4
f 1354/4/4 1350/4/4 1355/4/4
f 1355/3/4 1351/3/4 1356/3/4
f 1361/3/5 1358/3/5 1357/3/5
f 1362/3/5 1358/3/5 1361/3/5
f 1363/3/5 1360/3/5 1359/3/5
f 1364/3/5 1360/3/5 1363/3/5
f 1369/3/5 1366/3/5 1365/3/5
f 1370/3/5 1366/3/5 1369/3/5
f 1371/3/5 1368/3/5 1367/3/5
f 1372/3/5 1368/3/5 1371/3/5
f 1375/6/5 1374/6/5 1373/6/5
f 1376/6/5 1374/6/5 1375/6/5
f 1381/6/5 1378/6/5 1377/6/5
f 1382/6/5 1378/6/5 1381/6/5
f 1383/6/5 1380/6/5 1379/6/5
f 1384/6/5 1380/6/5 1383/6/5
f 1388/3/5 1386/3/5 1385/3/5
f 1389/3/5 1386/3/5 1388/3/5
f 1391/3/5 1388/3/5 1387/3/5
f 1391/3/5 1390/3/5 1389/3/5
f 1391/3/5 1389/3/5 1388/3/5
f 1392/3/5 1390/3/5 1391/3/5
f 1393/3/5 1390/3/5 1392/3/5
f 1394/3/5 1390/3/5 1393/3/5
f 1395/3/5 1393/3/5 1392/3/5
f 1396/3/5 1393/3/5 1395/3/5
f 1399/5/5 1398/5/5 1397/5/5
f 1400/5/5 1398/5/5 1399/5/5
f 1405/3/5 1402/3/5 1401/3/5
f 1405/3/5 1404/3/5 1403/3/5
f 1405/3/5 1403/3/5 1402/3/5
f 1406/3/5 1404/3/5 1405/3/5
f 1407/3/5 1405/3/5 1401/3/5
f 1408/3/5 1405/3/5 1407/3/5
f 1409/3/5 1404/3/5 1406/3/5
f 1410/3/5 1404/3/5 1409/3/5
f 1411/3/5 1407/3/5 1401/3/5
f 1414/3/5 1404/3/5 1410/3/5
f 1416/3/5 1412/3/5 1411/3/5
f 1416/3/5 1411/3/5 1401/3/5
f 1417/3/5 1412/3/5 1416/3/5
f 1418/3/5 1414/3/5 1413/3/5
f 1419/3/5 1404/3/5 1414/3/5
f 1419/3/5 1414/3/5 1418/3/5
f 1421/3/5 1417/3/5 1416/3/5
f 1421/3/5 1420/3/5 1419/3/5
f 1421/3/5 1419/3/5 1418/3/5
f 1421/3/5 1418/3/5 1417/3/5
f 1421/3/5 1416/3/5 1415/3/5
f 1422/3/5 1420/3/5 1421/3/5
f 1423/3/5 1420/3/5 1422/3/5
f 1424/3/5 1420/3/5 1423/3/5
f 1425/3/5 1421/3/5 1415/3/5
f 1426/3/5 1421/3/5 1425/3/5
f 1427/3/5 1420/3/5 1424/3/5
f 1428/3/5 1420/3/5 1427/3/5
f 1433/3/5 1430/3/5 1429/3/5
f 1434/3/5 1430/3/5 1433/3/5
f 1435/3/5 1432/3/5 1431/3/5
f 1436/3/5 1432/3/5 1435/3/5
f 1441/5/5 1438/5/5 1437/5/5
f 1442/5/5 1438/5/5 1441/5/5
f 1443/5/5 1440/5/5 1439/5/5
f 1444/5/5 1440/5/5 1443/5/5
f 1447/3/5 1446/3/5 1445/3/5
f 1448/3/5 1446/3/5 1447/3/5
f 1453/3/5 1450/3/5 1449/3/5
f 1454/3/5 1450/3/5 1453/3/5
f 1455/3/5 1452/3/5 1451/3/5
f 1456/3/5 1452/3/5 1455/3/5
f 1463/3/5 1460/3/5 1459/3/5
f 1464/3/5 1460/3/5 1463/3/5
f 1465/3/5 1458/3/5 1457/3/5
f 1466/3/5 1458/3/5 1465/3/5
f 1467/3/5 1462/3/5 1461/3/5
f 1468/3/5 1462/3/5 1467/3/5
f 1469/3/5 1465/3/5 1457/3/5
f 1470/3/5 1465/3/5 1469/3/5
f 1471/3/5 1458/3/5 1466/3/5
f 1472/3/5 1458/3/5 1471/3/5
f 1477/3/5 1474/3/5 1473/3/5
f 1478/3/5 1474/3/5 1477/3/5
f 1479/3/5 1476/3/5 1475/3/5
f 1480/3/5 1476/3/5 1479/3/5
f 1483/3/5 1482/3/5 1481/3/5
f 1484/3/5 1482/3/5 1483/3/5
f 1489/3/5 1486/3/5 1485/3/5
f 1490/3/5 1486/3/5 1489/3/5
f 1491/3/5 1488/3/5 1487/3/5
f 1492/3/5 1488/3/5 1491/3/5
f 1495/3/5 1494/3/5 1493/3/5
f 1496/3/5 1494/3/5 1495/3/5
f 1501/3/5 1498/3/5 1497/3/5
f 1502/3/5 1498/3/5 1501/3/5
f 1503/3/5 1500/3/5 1499/3/5
f 1504/3/5 1500/3/5 1503/3/5
f 1508/3/5 1506/3/5 1505/3/5
f 1509/3/5 1506/3/5 1508/3/5
f 1512/3/5 1508/3/5 1507/3/5
f 1513/3/5 1508/3/5 1512/3/5
f 1514/3/5 1510/3/5 1509/3/5
f 1515/3/5 1510/3/5 1514/3/5
f 1518/3/5 1513/3/5 1512/3/5
f 1518/3/5 1516/3/5 1515/3/5
f 1518/3/5 1515/3/5 1514/3/5
f 1518/3/5 1514/3/5 1513/3/5
f 1518/3/5 1512/3/5 1511/3/5
f 1519/3/5 1516/3/5 1518/3/5
f 1521/3/5 1518/3/5 1517/3/5
f 1521/3/5 1520/3/5 1519/3/5
f 1521/3/5 1519/3/5 1518/3/5
f 1522/3/5 1520/3/5 1521/3/5
f 1523/3/5 1520/3/5 1522/3/5
f 1524/3/5 1520/3/5 1523/3/5
f 1526/3/5 1523/3/5 1522/3/5
f 1527/3/5 1523/3/5 1526/3/5
f 1529/3/5 1527/3/5 1526/3/5
f 1529/3/5 1528/3/5 1527/3/5
f 1529/3/5 1526/3/5 1525/3/5
f 1530/3/5 1528/3/5 1529/3/5
f 1535/3/5 1532/3/5 1531/3/5
f 1536/3/5 1532/3/5 1535/3/5
f 1537/3/5 1534/3/5 1533/3/5
f 1538/3/5 1534/3/5 1537/3/5
f 1544/3/5 1540/3/5 1539/3/5
f 1545/3/5 1540/3/5 1544/3/5
f 1546/3/5 1542/3/5 1541/3/5
f 1547/3/5 1542/3/5 1546/3/5
f 1549/3/5 1544/3/5 1543/3/5
f 1552/3/5 1548/3/5 1547/3/5
f 1553/3/5 1550/3/5 1549/3/5
f 1553/3/5 1549/3/5 1543/3/5
f 1554/3/5 1550/3/5 1553/3/5
f 1555/3/5 1552/3/5 1551/3/5
f 1556/3/5 1548/3/5 1552/3/5
f 1556/3/5 1552/3/5 1555/3/5
f 1561/3/5 1558/3/5 1557/3/5
f 1562/3/5 1558/3/5 1561/3/5
f 1563/3/5 1560/3/5 1559/3/5
f 1564/3/5 1560/3/5 1563/3/5
f 1570/3/5 1566/3/5 1565/3/5
f 1571/3/5 1566/3/5 1570/3/5
f 1572/3/5 1568/3/5 1567/3/5
f 1573/3/5 1568/3/5 1572/3/5
f 1575/3/5 1570/3/5 1569/3/5
f 1576/3/5 1570/3/5 1575/3/5
f 1577/3/5 1574/3/5 1573/3/5
f 1578/3/5 1574/3/5 1577/3/5
f 1583/3/5 1580/3/5 1579/3/5
f 1584/3/5 1580/3/5 1583/3/5
f 1585/3/5 1582/3/5 1581/3/5
f 1586/3/5 1582/3/5 1585/3/5
f 1591/3/5 1588/3/5 1587/3/5
f 1592/3/5 1588/3/5 1591/3/5
f 1593/3/5 1590/3/5 1589/3/5
f 1594/3/5 1590/3/5 1593/3/5
f 1599/2/5 1596/2/5 1595/2/5
f 1600/2/5 1596/2/5 1599/2/5
f 1601/2/5 1598/2/5 1597/2/5
f 1602/2/5 1598/2/5 1601/2/5
f 1607/3/5 1604/3/5 1603/3/5
f 1608/3/5 1604/3/5 1607/3/5
f 1609/3/5 1606/3/5 1605/3/5
f 1610/3/5 1606/3/5 1609/3/5
f 1613/6/5 1612/6/5 1611/6/5
f 1614/6/5 1612/6/5 1613/6/5
f 1615/3/5 1614/3/5 1613/3/5
f 1616/3/5 1614/3/5 1615/3/5
f 1618/3/5 1616/3/5 1615/3/5
f 1619/3/5 1616/3/5 1618/3/5
f 1622/3/5 1619/3/5 1618/3/5
f 1622/3/5 1620/3/5 1619/3/5
f 1622/3/5 1618/3/5 1617/3/5
f 1623/3/5 1620/3/5 1622/3/5
f 1625/3/5 1622/3/5 1621/3/5
f 1625/3/5 1624/3/5 1623/3/5
f 1625/3/5 1623/3/5 1622/3/5
f 1626/3/5 1624/3/5 1625/3/5
f 1631/6/5 1628/6/5 1627/6/5
f 1632/6/5 1628/6/5 1631/6/5
f 1633/6/5 1630/6/5 1629/6/5
f 1634/6/5 1630/6/5 1633/6/5
f 1637/5/5 1636/5/5 1635/5/5
f 1638/5/5 1636/5/5 1637/5/5
f 1639/3/6 1640/3/6 1643/3/6
f 1643/3/6 1640/3/6 1644/3/6
f 1641/3/6 1642/3/6 1645/3/6
f 1645/3/6 1642/3/6 1646/3/6
f 1647/3/6 1648/3/6 1651/3/6
f 1651/3/6 1648/3/6 1652/3/6
f 1649/3/6 1650/3/6 1653/3/6
f 1653/3/6 1650/3/6 1654/3/6
f 1655/3/6 1656/3/6 1659/3/6
f 1659/3/6 1656/3/6 1660/3/6
f 1657/3/6 1658/3/6 1663/3/6
f 1663/3/6 1658/3/6 1664/3/6
f 1660/3/6 1661/3/6 1665/3/6
f 1665/3/6 1661/3/6 1666/3/6
f 1662/3/6 1663/3/6 1667/3/6
f 1667/3/6 1663/3/6 1668/3/6
f 1669/3/6 1670/3/6 1672/3/6
f 1672/3/6 1670/3/6 1673/3/6
f 1671/3/6 1672/3/6 1675/3/6
f 1675/3/6 1672/3/6 1676/3/6
f 1673/3/6 1674/3/6 1677/3/6
f 1677/3/6 1674/3/6 1678/3/6
f 1679/3/6 1680/3/6 1683/3/6
f 1683/3/6 1680/3/6 1684/3/6
f 1681/3/6 1682/3/6 1687/3/6
f 1687/3/6 1682/3/6 1688/3/6
f 1684/3/6 1685/3/6 1689/3/6
f 1689/3/6 1685/3/6 1690/3/6
f 1686/3/6 1687/3/6 1691/3/6
f 1691/3/6 1687/3/6 1692/3/6
f 1693/3/6 1694/3/6 1697/3/6
f 1697/3/6 1694/3/6 1698/3/6
f 1695/3/6 1696/3/6 1699/3/6
f 1699/3/6 1696/3/6 1700/3/6
f 1701/1/6 1702/1/6 1705/1/6
f 1705/1/6 1702/1/6 1706/1/6
f 1703/3/6 1704/3/6 1709/3/6
f 1709/3/6 1704/3/6 1710/3/6
f 1707/3/6 1708/3/6 1711/3/6
f 1711/3/6 1708/3/6 1712/3/6
f 1713/3/6 1714/3/6 1717/3/6
f 1717/3/6 1714/3/6 1718/3/6
f 1718/3/6 1714/3/6 1719/3/6
f 1715/3/6 1716/3/6 1722/3/6
f 1722/3/6 1716/3/6 1723/3/6
f 1723/3/6 1716/3/6 1724/3/6
f 1719/3/6 1720/3/6 1725/3/6
f 1718/3/6 1719/3/6 1725/3/6
f 1725/3/6 1720/3/6 1726/3/6
f 1726/3/6 1720/3/6 1727/3/6
f 1722/3/6 1723/3/6 1730/3/6
f 1721/3/6 1722/3/6 1730/3/6
f 1730/3/6 1723/3/6 1731/3/6
f 1731/3/6 1723/3/6 1732/3/6
f 1727/3/6 1728/3/6 1733/3/6
f 1726/3/6 1727/3/6 1733/3/6
f 1733/3/6 1728/3/6 1734/3/6
f 1730/3/6 1731/3/6 1735/3/6
f 1729/3/6 1730/3/6 1735/3/6
f 1735/3/6 1731/3/6 1736/3/6
f 1737/3/6 1738/3/6 1739/3/6
f 1739/3/6 1738/3/6 1740/3/6
f 1741/1/6 1742/1/6 1744/1/6
f 1744/1/6 1742/1/6 1745/1/6
f 1743/3/6 1744/3/6 1747/3/6
f 1745/3/6 1746/3/6 1748/3/6
f 1747/3/6 1744/3/6 1749/3/6
f 1749/3/6 1744/3/6 1750/3/6
f 1745/3/6 1748/3/6 1751/3/6
f 1751/3/6 1748/3/6 1752/3/6
f 1753/3/6 1754/3/6 1757/3/6
f 1757/3/6 1754/3/6 1758/3/6
f 1755/3/6 1756/3/6 1759/3/6
f 1759/3/6 1756/3/6 1760/3/6
f 1761/3/6 1762/3/6 1765/3/6
f 1763/3/6 1764/3/6 1768/3/6
f 1765/3/6 1766/3/6 1769/3/6
f 1761/3/6 1765/3/6 1769/3/6
f 1769/3/6 1766/3/6 1770/3/6
f 1767/3/6 1768/3/6 1771/3/6
f 1768/3/6 1764/3/6 1772/3/6
f 1771/3/6 1768/3/6 1772/3/6
f 1761/3/6 1769/3/6 1773/3/6
f 1772/3/6 1764/3/6 1776/3/6
f 1773/3/6 1774/3/6 1777/3/6
f 1761/3/6 1773/3/6 1777/3/6
f 1777/3/6 1774/3/6 1778/3/6
f 1778/3/6 1774/3/6 1779/3/6
f 1775/3/6 1776/3/6 1780/3/6
f 1776/3/6 1764/3/6 1781/3/6
f 1780/3/6 1776/3/6 1781/3/6
f 1781/3/6 1764/3/6 1782/3/6
f 1778/3/6 1779/3/6 1783/3/6
f 1779/3/6 1780/3/6 1783/3/6
f 1780/3/6 1781/3/6 1783/3/6
f 1783/3/6 1781/3/6 1784/3/6
f 1784/3/6 1781/3/6 1785/3/6
f 1785/3/6 1781/3/6 1786/3/6
f 1787/3/6 1788/3/6 1789/3/6
f 1789/3/6 1788/3/6 1790/3/6
f 1791/1/6 1792/1/6 1793/1/6
f 1793/1/6 1792/1/6 1794/1/6
f 1795/3/6 1796/3/6 1799/3/6
f 1799/3/6 1796/3/6 1800/3/6
f 1797/3/6 1798/3/6 1803/3/6
f 1803/3/6 1798/3/6 1804/3/6
f 1800/3/6 1801/3/6 1805/3/6
f 1805/3/6 1801/3/6 1806/3/6
f 1802/3/6 1803/3/6 1807/3/6
f 1807/3/6 1803/3/6 1808/3/6
f 1809/3/6 1810/3/6 1811/3/6
f 1811/3/6 1810/3/6 1812/3/6
f 1812/3/6 1810/3/6 1813/3/6
f 1813/3/6 1810/3/6 1814/3/6
f 1812/3/6 1813/3/6 1816/3/6
f 1816/3/6 1813/3/6 1817/3/6
f 1815/3/6 1816/3/6 1819/3/6
f 1817/3/6 1818/3/6 1819/3/6
f 1816/3/6 1817/3/6 1819/3/6
f 1819/3/6 1818/3/6 1820/3/6
f 1820/3/6 1818/3/6 1821/3/6
f 1821/3/6 1818/3/6 1822/3/6
f 1820/3/6 1821/3/6 1823/3/6
f 1823/3/6 1821/3/6 1824/3/6
f 1825/3/6 1826/3/6 1827/3/6
f 1827/3/6 1826/3/6 1828/3/6
f 1829/3/6 1830/3/6 1833/3/6
f 1833/3/6 1830/3/6 1834/3/6
f 1831/3/6 1832/3/6 1835/3/6
f 1835/3/6 1832/3/6 1836/3/6
f 1837/3/6 1838/3/6 1841/3/6
f 1841/3/6 1838/3/6 1842/3/6
f 1839/3/6 1840/3/6 1843/3/6
f 1843/3/6 1840/3/6 1844/3/6
f 1845/3/6 1846/3/6 1847/3/6
f 1847/3/6 1846/3/6 1848/3/6
f 1849/6/6 1850/6/6 1851/6/6
f 1851/6/6 1850/6/6 1852/6/6
f 1851/3/6 1852/3/6 1854/3/6
f 1854/3/6 1852/3/6 1855/3/6
f 1853/3/6 1854/3/6 1857/3/6
f 1857/3/6 1854/3/6 1858/3/6
f 1855/3/6 1856/3/6 1859/3/6
f 1859/3/6 1856/3/6 1860/3/6
f 1861/3/6 1862/3/6 1865/3/6
f 1865/3/6 1862/3/6 1866/3/6
f 1863/3/6 1864/3/6 1867/3/6
f 1867/3/6 1864/3/6 1868/3/6
f 1869/3/6 1870/3/6 1871/3/6
f 1871/3/6 1870/3/6 1872/3/6
f 1873/3/6 1874/3/6 1876/3/6
f 1876/3/6 1874/3/6 1877/3/6
f 1875/3/6 1876/3/6 1879/3/6
f 1877/3/6 1878/3/6 1879/3/6
f 1876/3/6 1877/3/6 1879/3/6
f 1879/3/6 1878/3/6 1880/3/6
f 1879/3/6 1880/3/6 1883/3/6
f 1883/3/6 1880/3/6 1884/3/6
f 1881/3/6 1882/3/6 1887/3/6
f 1887/3/6 1882/3/6 1888/3/6
f 1885/3/6 1886/3/6 1889/3/6
f 1889/3/6 1886/3/6 1890/3/6
f 1891/3/6 1892/3/6 1895/3/6
f 1893/3/6 1894/3/6 1896/3/6
f 1891/3/6 1895/3/6 1897/3/6
f 1897/3/6 1895/3/6 1898/3/6
f 1896/3/6 1894/3/6 1899/3/6
f 1899/3/6 1894/3/6 1900/3/6
f 1901/3/6 1902/3/6 1903/3/6
f 1903/3/6 1902/3/6 1904/3/6
f 1905/6/6 1906/6/6 1909/6/6
f 1909/6/6 1906/6/6 1910/6/6
f 1907/6/6 1908/6/6 1911/6/6
f 1911/6/6 1908/6/6 1912/6/6
f 1909/3/6 1910/3/6 1914/3/6
f 1910/3/6 1911/3/6 1914/3/6
f 1911/3/6 1912/3/6 1914/3/6
f 1914/3/6 1912/3/6 1915/3/6
f 1914/3/6 1915/3/6 1917/3/6
f 1915/3/6 1916/3/6 1917/3/6
f 1913/3/6 1914/3/6 1917/3/6
f 1917/3/6 1916/3/6 1918/3/6
f 1913/3/6 1917/3/6 1919/3/6
f 1919/3/6 1917/3/6 1920/3/6
f 1920/3/6 1917/3/6 1921/3/6
f 1918/3/6 1916/3/6 1922/3/6
f 1922/3/6 1916/3/6 1923/3/6
f 1923/3/6 1916/3/6 1924/3/6
f 1925/3/6 1926/3/6 1929/3/6
f 1929/3/6 1926/3/6 1930/3/6
f 1927/3/6 1928/3/6 1931/3/6
f 1931/3/6 1928/3/6 1932/3/6
f 1930/3/6 1931/3/6 1933/3/6
f 1933/3/6 1931/3/6 1934/3/6
f 1935/3/6 1936/3/6 1939/3/6
f 1939/3/6 1936/3/6 1940/3/6
f 1940/3/6 1936/3/6 1941/3/6
f 1941/3/6 1936/3/6 1942/3/6
f 1942/3/6 1936/3/6 1943/3/6
f 1943/3/6 1936/3/6 1944/3/6
f 1937/5/6 1938/5/6 1947/5/6
f 1947/5/6 1938/5/6 1948/5/6
f 1941/3/6 1942/3/6 1951/3/6
f 1951/3/6 1942/3/6 1952/3/6
f 1945/5/6 1946/5/6 1955/5/6
f 1955/5/6 1946/5/6 1956/5/6
f 1953/3/6 1954/3/6 1957/3/6
f 1949/3/6 1950/3/6 1957/3/6
f 1952/3/6 1953/3/6 1957/3/6
f 1951/3/6 1952/3/6 1957/3/6
f 1950/3/6 1951/3/6 1957/3/6
f 1957/3/6 1954/3/6 1958/3/6
f 1959/3/6 1960/3/6 1965/3/6
f 1960/5/6 1961/5/6 1966/5/6
f 1965/3/6 1960/3/6 1966/3/6
f 1966/5/6 1961/5/6 1967/5/6
f 1962/5/6 1963/5/6 1968/5/6
f 1963/3/6 1964/3/6 1969/3/6
f 1968/5/6 1963/5/6 1969/5/6
f 1969/3/6 1964/3/6 1970/3/6
f 1971/5/6 1972/5/6 1975/5/6
f 1975/5/6 1972/5/6 1976/5/6
f 1973/5/6 1974/5/6 1981/5/6
f 1981/5/6 1974/5/6 1982/5/6
f 1977/5/6 1978/5/6 1983/5/6
f 1983/5/6 1978/5/6 1984/5/6
f 1979/5/6 1980/5/6 1985/5/6
f 1985/5/6 1980/5/6 1986/5/6
f 1987/5/6 1988/5/6 1995/5/6
f 1995/5/6 1988/5/6 1996/5/6
f 1989/5/6 1990/5/6 1997/5/6
f 1997/5/6 1990/5/6 1998/5/6
f 1991/5/6 1992/5/6 1999/5/6
f 1999/5/6 1992/5/6 2000/5/6
f 1993/5/6 1994/5/6 2001/5/6
f 2001/5/6 1994/5/6 2002/5/6
f 2003/6/6 2004/6/6 2007/6/6
f 2007/6/6 2004/6/6 2008/6/6
f 2005/6/6 2006/6/6 2009/6/6
f 2009/6/6 2006/6/6 2010/6/6
