# MagicaVoxel @ Ephtracy

# group
o 

# material
mtllib voxeltest1.mtl
usemtl palette

# normals
vn -1 0 0
vn 1 0 0
vn 0 0 1
vn 0 0 -1
vn 0 -1 0
vn 0 1 0

# texcoords
vt 0.970703 0.5
vt 0.974609 0.5
vt 0.978516 0.5
vt 0.982422 0.5
vt 0.994141 0.5

# verts
v -0.4 0.3 0.3
v -0.4 0.3 -0.4
v -0.4 0.4 0.4
v -0.4 0.4 0.3
v -0.4 0.4 0.2
v -0.4 0.4 0.1
v -0.4 0.4 0
v -0.4 0.4 -0.1
v -0.4 0.4 -0.3
v -0.4 0.4 -0.4
v -0.4 0.5 0.3
v -0.4 0.5 0.2
v -0.4 0.5 0.1
v -0.4 0.5 0
v -0.4 0.5 -0.1
v -0.4 0.5 -0.2
v -0.4 0.5 -0.3
v -0.4 0.6 0.4
v -0.4 0.6 0.3
v -0.4 0.6 0.2
v -0.4 0.6 0.1
v -0.4 0.6 0
v -0.4 0.7 0.2
v -0.4 0.7 0.1
v -0.4 0.7 -0.1
v -0.4 0.7 -0.2
v -0.4 0.8 0.3
v -0.4 0.8 0.2
v -0.4 0.8 0
v -0.4 0.8 -0.1
v -0.4 0.9 0.2
v -0.4 0.9 0
v -0.3 0 0.4
v -0.3 0 0.2
v -0.3 0 -0.1
v -0.3 0 -0.3
v -0.3 0.1 0.4
v -0.3 0.1 0.3
v -0.3 0.1 0.2
v -0.3 0.1 0.1
v -0.3 0.1 -0.1
v -0.3 0.1 -0.2
v -0.3 0.1 -0.3
v -0.3 0.1 -0.4
v -0.3 0.3 0.4
v -0.3 0.3 0.3
v -0.3 0.3 0.1
v -0.3 0.3 -0.2
v -0.3 0.3 -0.4
v -0.3 0.4 0.5
v -0.3 0.4 0.4
v -0.3 0.4 0.3
v -0.3 0.4 -0.3
v -0.3 0.4 -0.4
v -0.3 0.5 0.5
v -0.3 0.5 0.4
v -0.3 0.5 -0.2
v -0.3 0.5 -0.3
v -0.3 0.5 -0.4
v -0.3 0.6 0.4
v -0.3 0.6 0.3
v -0.3 0.6 -0.2
v -0.3 0.6 -0.3
v -0.3 0.8 0.4
v -0.3 0.8 0.3
v -0.3 0.8 0.2
v -0.3 0.9 0.2
v -0.3 0.9 0.1
v -0.3 0.9 0
v -0.3 1 0.3
v -0.3 1 0.1
v -0.3 1 0
v -0.2 0.2 0.1
v -0.2 0.2 -0.2
v -0.2 0.3 0.5
v -0.2 0.3 0.4
v -0.2 0.3 0.1
v -0.2 0.3 -0.2
v -0.2 0.4 0.5
v -0.2 0.4 0.4
v -0.1 0.4 -0.4
v -0.1 0.4 -0.5
v -0.1 0.5 -0.4
v -0.1 0.7 -0.4
v -0.1 0.7 -0.5
v 0 0.3 -0.4
v 0 0.3 -0.5
v 0 0.4 -0.4
v 0 0.4 -0.5
v 0.1 0.7 0
v 0.1 0.7 -0.1
v 0.1 0.8 0.2
v 0.1 0.8 0.1
v 0.1 0.8 0
v 0.1 0.8 -0.1
v 0.1 0.9 0.2
v 0.1 0.9 0
v 0.2 0 0.4
v 0.2 0 0.2
v 0.2 0 -0.1
v 0.2 0 -0.3
v 0.2 0.1 0.4
v 0.2 0.1 0.3
v 0.2 0.1 0.2
v 0.2 0.1 0.1
v 0.2 0.1 -0.1
v 0.2 0.1 -0.2
v 0.2 0.1 -0.3
v 0.2 0.1 -0.4
v 0.2 0.2 0.3
v 0.2 0.2 0.1
v 0.2 0.2 -0.2
v 0.2 0.2 -0.3
v 0.2 0.3 -0.3
v 0.2 0.3 -0.4
v 0.2 0.8 0.3
v 0.2 0.8 0.2
v 0.2 0.9 0.2
v 0.2 0.9 0.1
v 0.2 0.9 0
v 0.2 1 0.3
v 0.2 1 0.1
v 0.2 1 0
v -0.2 0 0.4
v -0.2 0 0.2
v -0.2 0 -0.1
v -0.2 0 -0.3
v -0.2 0.1 0.4
v -0.2 0.1 0.3
v -0.2 0.1 0.2
v -0.2 0.1 0.1
v -0.2 0.1 -0.1
v -0.2 0.1 -0.2
v -0.2 0.1 -0.3
v -0.2 0.1 -0.4
v -0.2 0.2 0.3
v -0.2 0.2 0.1
v -0.2 0.2 -0.2
v -0.2 0.2 -0.3
v -0.2 0.3 -0.3
v -0.2 0.3 -0.4
v -0.2 0.8 0.3
v -0.2 0.8 0.2
v -0.2 0.9 0.2
v -0.2 0.9 0.1
v -0.2 0.9 0
v -0.2 1 0.3
v -0.2 1 0.1
v -0.2 1 0
v -0.1 0.7 0
v -0.1 0.7 -0.1
v -0.1 0.8 0.2
v -0.1 0.8 0.1
v -0.1 0.8 0
v -0.1 0.8 -0.1
v -0.1 0.9 0.2
v -0.1 0.9 0
v 0 0.6 -0.4
v 0 0.6 -0.5
v 0 0.7 -0.4
v 0 0.7 -0.5
v 0.1 0.3 -0.4
v 0.1 0.3 -0.5
v 0.1 0.4 -0.4
v 0.1 0.5 -0.4
v 0.1 0.6 -0.4
v 0.1 0.6 -0.5
v 0.2 0.2 0.1
v 0.2 0.2 -0.2
v 0.2 0.3 0.5
v 0.2 0.3 0.4
v 0.2 0.3 0.1
v 0.2 0.3 -0.2
v 0.2 0.4 0.5
v 0.2 0.4 0.4
v 0.3 0 0.4
v 0.3 0 0.2
v 0.3 0 -0.1
v 0.3 0 -0.3
v 0.3 0.1 0.4
v 0.3 0.1 0.3
v 0.3 0.1 0.2
v 0.3 0.1 0.1
v 0.3 0.1 -0.1
v 0.3 0.1 -0.2
v 0.3 0.1 -0.3
v 0.3 0.1 -0.4
v 0.3 0.3 0.4
v 0.3 0.3 0.3
v 0.3 0.3 0.1
v 0.3 0.3 -0.2
v 0.3 0.3 -0.4
v 0.3 0.4 0.5
v 0.3 0.4 0.4
v 0.3 0.4 0.3
v 0.3 0.4 -0.3
v 0.3 0.4 -0.4
v 0.3 0.5 0.5
v 0.3 0.5 0.4
v 0.3 0.5 -0.2
v 0.3 0.5 -0.3
v 0.3 0.5 -0.4
v 0.3 0.6 0.4
v 0.3 0.6 0.3
v 0.3 0.6 -0.2
v 0.3 0.6 -0.3
v 0.3 0.8 0.4
v 0.3 0.8 0.3
v 0.3 0.8 0.2
v 0.3 0.9 0.2
v 0.3 0.9 0.1
v 0.3 0.9 0
v 0.3 1 0.3
v 0.3 1 0.1
v 0.3 1 0
v 0.4 0.3 0.3
v 0.4 0.3 -0.4
v 0.4 0.4 0.4
v 0.4 0.4 0.3
v 0.4 0.4 0.2
v 0.4 0.4 0.1
v 0.4 0.4 0
v 0.4 0.4 -0.1
v 0.4 0.4 -0.3
v 0.4 0.4 -0.4
v 0.4 0.5 0.3
v 0.4 0.5 0.2
v 0.4 0.5 0.1
v 0.4 0.5 0
v 0.4 0.5 -0.1
v 0.4 0.5 -0.2
v 0.4 0.5 -0.3
v 0.4 0.6 0.4
v 0.4 0.6 0.3
v 0.4 0.6 0.2
v 0.4 0.6 0.1
v 0.4 0.6 0
v 0.4 0.7 0.2
v 0.4 0.7 0.1
v 0.4 0.7 -0.1
v 0.4 0.7 -0.2
v 0.4 0.8 0.3
v 0.4 0.8 0.2
v 0.4 0.8 0
v 0.4 0.8 -0.1
v 0.4 0.9 0.2
v 0.4 0.9 0
v -0.3 0.4 0.5
v -0.3 0.5 0.5
v -0.2 0.3 0.5
v -0.2 0.4 0.5
v -0.1 0.4 0.5
v -0.1 0.5 0.5
v 0.1 0.4 0.5
v 0.1 0.5 0.5
v 0.2 0.3 0.5
v 0.2 0.4 0.5
v 0.3 0.4 0.5
v 0.3 0.5 0.5
v -0.4 0.4 0.4
v -0.4 0.6 0.4
v -0.3 0 0.4
v -0.3 0.1 0.4
v -0.3 0.3 0.4
v -0.3 0.4 0.4
v -0.3 0.5 0.4
v -0.3 0.6 0.4
v -0.3 0.8 0.4
v -0.2 0 0.4
v -0.2 0.1 0.4
v -0.2 0.3 0.4
v -0.2 0.4 0.4
v -0.2 0.6 0.4
v -0.2 0.7 0.4
v -0.1 0.5 0.4
v -0.1 0.6 0.4
v -0.1 0.7 0.4
v 0.1 0.5 0.4
v 0.1 0.6 0.4
v 0.1 0.7 0.4
v 0.2 0 0.4
v 0.2 0.1 0.4
v 0.2 0.3 0.4
v 0.2 0.4 0.4
v 0.2 0.6 0.4
v 0.2 0.7 0.4
v 0.3 0 0.4
v 0.3 0.1 0.4
v 0.3 0.3 0.4
v 0.3 0.4 0.4
v 0.3 0.5 0.4
v 0.3 0.6 0.4
v 0.3 0.8 0.4
v 0.4 0.4 0.4
v 0.4 0.6 0.4
v -0.4 0.3 0.3
v -0.4 0.4 0.3
v -0.4 0.6 0.3
v -0.4 0.8 0.3
v -0.3 0.1 0.3
v -0.3 0.3 0.3
v -0.3 0.4 0.3
v -0.3 0.6 0.3
v -0.3 0.8 0.3
v -0.3 1 0.3
v -0.2 0.1 0.3
v -0.2 0.2 0.3
v -0.2 0.3 0.3
v -0.2 0.8 0.3
v -0.2 1 0.3
v 0.2 0.1 0.3
v 0.2 0.2 0.3
v 0.2 0.3 0.3
v 0.2 0.8 0.3
v 0.2 1 0.3
v 0.3 0.1 0.3
v 0.3 0.3 0.3
v 0.3 0.4 0.3
v 0.3 0.6 0.3
v 0.3 0.8 0.3
v 0.3 1 0.3
v 0.4 0.3 0.3
v 0.4 0.4 0.3
v 0.4 0.6 0.3
v 0.4 0.8 0.3
v -0.4 0.8 0.2
v -0.4 0.9 0.2
v -0.3 0.8 0.2
v -0.3 0.9 0.2
v -0.2 0.8 0.2
v -0.2 0.9 0.2
v -0.1 0.8 0.2
v -0.1 0.9 0.2
v 0.1 0.8 0.2
v 0.1 0.9 0.2
v 0.2 0.8 0.2
v 0.2 0.9 0.2
v 0.3 0.8 0.2
v 0.3 0.9 0.2
v 0.4 0.8 0.2
v 0.4 0.9 0.2
v -0.3 0 -0.1
v -0.3 0.1 -0.1
v -0.2 0 -0.1
v -0.2 0.1 -0.1
v 0.2 0 -0.1
v 0.2 0.1 -0.1
v 0.3 0 -0.1
v 0.3 0.1 -0.1
v -0.3 0.1 -0.2
v -0.3 0.3 -0.2
v -0.2 0.1 -0.2
v -0.2 0.2 -0.2
v -0.2 0.3 -0.2
v 0.2 0.1 -0.2
v 0.2 0.2 -0.2
v 0.2 0.3 -0.2
v 0.3 0.1 -0.2
v 0.3 0.3 -0.2
v -0.1 0.5 -0.4
v -0.1 0.7 -0.4
v 0 0.6 -0.4
v 0 0.7 -0.4
v 0.1 0.5 -0.4
v 0.1 0.6 -0.4
v -0.3 0 0.2
v -0.3 0.1 0.2
v -0.2 0 0.2
v -0.2 0.1 0.2
v 0.2 0 0.2
v 0.2 0.1 0.2
v 0.3 0 0.2
v 0.3 0.1 0.2
v -0.3 0.1 0.1
v -0.3 0.3 0.1
v -0.2 0.1 0.1
v -0.2 0.2 0.1
v -0.2 0.3 0.1
v 0.2 0.1 0.1
v 0.2 0.2 0.1
v 0.2 0.3 0.1
v 0.3 0.1 0.1
v 0.3 0.3 0.1
v -0.4 0.8 0
v -0.4 0.9 0
v -0.3 0.9 0
v -0.3 1 0
v -0.2 0.9 0
v -0.2 1 0
v -0.1 0.7 0
v -0.1 0.8 0
v -0.1 0.9 0
v 0.1 0.7 0
v 0.1 0.8 0
v 0.1 0.9 0
v 0.2 0.9 0
v 0.2 1 0
v 0.3 0.9 0
v 0.3 1 0
v 0.4 0.8 0
v 0.4 0.9 0
v -0.4 0.7 -0.1
v -0.4 0.8 -0.1
v -0.2 0.7 -0.1
v -0.1 0.7 -0.1
v -0.1 0.8 -0.1
v 0.1 0.7 -0.1
v 0.1 0.8 -0.1
v 0.2 0.7 -0.1
v 0.4 0.7 -0.1
v 0.4 0.8 -0.1
v -0.4 0.5 -0.2
v -0.4 0.7 -0.2
v -0.3 0.5 -0.2
v -0.3 0.6 -0.2
v -0.2 0.6 -0.2
v -0.2 0.7 -0.2
v 0.2 0.6 -0.2
v 0.2 0.7 -0.2
v 0.3 0.5 -0.2
v 0.3 0.6 -0.2
v 0.4 0.5 -0.2
v 0.4 0.7 -0.2
v -0.4 0.4 -0.3
v -0.4 0.5 -0.3
v -0.3 0 -0.3
v -0.3 0.1 -0.3
v -0.3 0.4 -0.3
v -0.3 0.5 -0.3
v -0.3 0.6 -0.3
v -0.2 0 -0.3
v -0.2 0.1 -0.3
v -0.2 0.2 -0.3
v -0.2 0.3 -0.3
v -0.2 0.5 -0.3
v -0.2 0.6 -0.3
v 0.2 0 -0.3
v 0.2 0.1 -0.3
v 0.2 0.2 -0.3
v 0.2 0.3 -0.3
v 0.2 0.5 -0.3
v 0.2 0.6 -0.3
v 0.3 0 -0.3
v 0.3 0.1 -0.3
v 0.3 0.4 -0.3
v 0.3 0.5 -0.3
v 0.3 0.6 -0.3
v 0.4 0.4 -0.3
v 0.4 0.5 -0.3
v -0.4 0.3 -0.4
v -0.4 0.4 -0.4
v -0.3 0.1 -0.4
v -0.3 0.3 -0.4
v -0.3 0.4 -0.4
v -0.3 0.5 -0.4
v -0.2 0.1 -0.4
v -0.2 0.3 -0.4
v -0.2 0.4 -0.4
v -0.2 0.5 -0.4
v -0.1 0.4 -0.4
v -0.1 0.5 -0.4
v 0 0.3 -0.4
v 0 0.4 -0.4
v 0.1 0.3 -0.4
v 0.1 0.4 -0.4
v 0.1 0.5 -0.4
v 0.2 0.1 -0.4
v 0.2 0.3 -0.4
v 0.2 0.4 -0.4
v 0.2 0.5 -0.4
v 0.3 0.1 -0.4
v 0.3 0.3 -0.4
v 0.3 0.4 -0.4
v 0.3 0.5 -0.4
v 0.4 0.3 -0.4
v 0.4 0.4 -0.4
v -0.1 0.4 -0.5
v -0.1 0.7 -0.5
v 0 0.3 -0.5
v 0 0.4 -0.5
v 0 0.6 -0.5
v 0 0.7 -0.5
v 0.1 0.3 -0.5
v 0.1 0.6 -0.5
v -0.3 0 0.4
v -0.2 0 0.4
v 0.2 0 0.4
v 0.3 0 0.4
v -0.3 0 0.2
v -0.2 0 0.2
v 0.2 0 0.2
v 0.3 0 0.2
v -0.3 0 -0.1
v -0.2 0 -0.1
v 0.2 0 -0.1
v 0.3 0 -0.1
v -0.3 0 -0.3
v -0.2 0 -0.3
v 0.2 0 -0.3
v 0.3 0 -0.3
v -0.3 0.1 0.2
v -0.2 0.1 0.2
v 0.2 0.1 0.2
v 0.3 0.1 0.2
v -0.3 0.1 0.1
v -0.2 0.1 0.1
v 0.2 0.1 0.1
v 0.3 0.1 0.1
v -0.3 0.1 -0.3
v -0.2 0.1 -0.3
v 0.2 0.1 -0.3
v 0.3 0.1 -0.3
v -0.3 0.1 -0.4
v -0.2 0.1 -0.4
v 0.2 0.1 -0.4
v 0.3 0.1 -0.4
v -0.2 0.2 0.3
v 0.2 0.2 0.3
v -0.2 0.2 0.1
v 0.2 0.2 0.1
v -0.2 0.2 -0.2
v 0.2 0.2 -0.2
v -0.2 0.2 -0.3
v 0.2 0.2 -0.3
v -0.2 0.3 0.5
v 0.2 0.3 0.5
v -0.3 0.3 0.4
v -0.2 0.3 0.4
v 0.2 0.3 0.4
v 0.3 0.3 0.4
v -0.4 0.3 0.3
v -0.3 0.3 0.3
v -0.2 0.3 0.3
v 0.2 0.3 0.3
v 0.3 0.3 0.3
v 0.4 0.3 0.3
v -0.3 0.3 0.1
v -0.2 0.3 0.1
v 0.2 0.3 0.1
v 0.3 0.3 0.1
v -0.3 0.3 -0.2
v -0.2 0.3 -0.2
v 0.2 0.3 -0.2
v 0.3 0.3 -0.2
v -0.2 0.3 -0.3
v 0.2 0.3 -0.3
v -0.4 0.3 -0.4
v -0.3 0.3 -0.4
v -0.2 0.3 -0.4
v 0 0.3 -0.4
v 0.1 0.3 -0.4
v 0.2 0.3 -0.4
v 0.3 0.3 -0.4
v 0.4 0.3 -0.4
v 0 0.3 -0.5
v 0.1 0.3 -0.5
v -0.3 0.4 0.5
v -0.2 0.4 0.5
v 0.2 0.4 0.5
v 0.3 0.4 0.5
v -0.4 0.4 0.4
v -0.3 0.4 0.4
v -0.2 0.4 0.4
v 0.2 0.4 0.4
v 0.3 0.4 0.4
v 0.4 0.4 0.4
v -0.4 0.4 0.3
v -0.3 0.4 0.3
v 0.3 0.4 0.3
v 0.4 0.4 0.3
v -0.1 0.4 -0.4
v 0 0.4 -0.4
v -0.1 0.4 -0.5
v 0 0.4 -0.5
v -0.3 0.1 0.4
v -0.2 0.1 0.4
v 0.2 0.1 0.4
v 0.3 0.1 0.4
v -0.3 0.1 0.3
v -0.2 0.1 0.3
v 0.2 0.1 0.3
v 0.3 0.1 0.3
v -0.3 0.1 -0.1
v -0.2 0.1 -0.1
v 0.2 0.1 -0.1
v 0.3 0.1 -0.1
v -0.3 0.1 -0.2
v -0.2 0.1 -0.2
v 0.2 0.1 -0.2
v 0.3 0.1 -0.2
v -0.4 0.4 -0.3
v -0.3 0.4 -0.3
v 0.3 0.4 -0.3
v 0.4 0.4 -0.3
v -0.4 0.4 -0.4
v -0.3 0.4 -0.4
v 0.3 0.4 -0.4
v 0.4 0.4 -0.4
v -0.3 0.5 0.5
v -0.1 0.5 0.5
v 0.1 0.5 0.5
v 0.3 0.5 0.5
v -0.3 0.5 0.4
v -0.1 0.5 0.4
v 0.1 0.5 0.4
v 0.3 0.5 0.4
v -0.4 0.5 -0.2
v -0.3 0.5 -0.2
v 0.3 0.5 -0.2
v 0.4 0.5 -0.2
v -0.4 0.5 -0.3
v -0.3 0.5 -0.3
v -0.2 0.5 -0.3
v 0.2 0.5 -0.3
v 0.3 0.5 -0.3
v 0.4 0.5 -0.3
v -0.3 0.5 -0.4
v -0.2 0.5 -0.4
v -0.1 0.5 -0.4
v 0.1 0.5 -0.4
v 0.2 0.5 -0.4
v 0.3 0.5 -0.4
v -0.4 0.6 0.4
v -0.3 0.6 0.4
v 0.3 0.6 0.4
v 0.4 0.6 0.4
v -0.4 0.6 0.3
v -0.3 0.6 0.3
v 0.3 0.6 0.3
v 0.4 0.6 0.3
v -0.3 0.6 -0.2
v -0.2 0.6 -0.2
v 0.2 0.6 -0.2
v 0.3 0.6 -0.2
v -0.3 0.6 -0.3
v -0.2 0.6 -0.3
v 0.2 0.6 -0.3
v 0.3 0.6 -0.3
v 0 0.6 -0.4
v 0.1 0.6 -0.4
v 0 0.6 -0.5
v 0.1 0.6 -0.5
v -0.1 0.7 0
v 0.1 0.7 0
v -0.4 0.7 -0.1
v -0.2 0.7 -0.1
v -0.1 0.7 -0.1
v 0.1 0.7 -0.1
v 0.2 0.7 -0.1
v 0.4 0.7 -0.1
v -0.4 0.7 -0.2
v -0.2 0.7 -0.2
v 0.2 0.7 -0.2
v 0.4 0.7 -0.2
v -0.1 0.7 -0.4
v 0 0.7 -0.4
v -0.1 0.7 -0.5
v 0 0.7 -0.5
v -0.3 0.8 0.4
v 0.3 0.8 0.4
v -0.4 0.8 0.3
v -0.3 0.8 0.3
v -0.2 0.8 0.3
v 0.2 0.8 0.3
v 0.3 0.8 0.3
v 0.4 0.8 0.3
v -0.4 0.8 0.2
v -0.3 0.8 0.2
v -0.2 0.8 0.2
v -0.1 0.8 0.2
v 0.1 0.8 0.2
v 0.2 0.8 0.2
v 0.3 0.8 0.2
v 0.4 0.8 0.2
v -0.1 0.8 0.1
v 0.1 0.8 0.1
v -0.4 0.8 0
v -0.1 0.8 0
v 0.1 0.8 0
v 0.4 0.8 0
v -0.4 0.8 -0.1
v -0.1 0.8 -0.1
v 0.1 0.8 -0.1
v 0.4 0.8 -0.1
v -0.4 0.9 0.2
v -0.3 0.9 0.2
v -0.2 0.9 0.2
v -0.1 0.9 0.2
v 0.1 0.9 0.2
v 0.2 0.9 0.2
v 0.3 0.9 0.2
v 0.4 0.9 0.2
v -0.3 0.9 0.1
v -0.2 0.9 0.1
v 0.2 0.9 0.1
v 0.3 0.9 0.1
v -0.4 0.9 0
v -0.3 0.9 0
v -0.2 0.9 0
v -0.1 0.9 0
v 0.1 0.9 0
v 0.2 0.9 0
v 0.3 0.9 0
v 0.4 0.9 0
v -0.3 1 0.3
v -0.2 1 0.3
v 0.2 1 0.3
v 0.3 1 0.3
v -0.3 1 0.1
v -0.2 1 0.1
v 0.2 1 0.1
v 0.3 1 0.1
v -0.3 1 0
v -0.2 1 0
v 0.2 1 0
v 0.3 1 0

# faces
f 4/3/1 2/3/1 1/3/1
f 5/3/1 2/3/1 4/3/1
f 6/3/1 2/3/1 5/3/1
f 7/3/1 2/3/1 6/3/1
f 8/3/1 2/3/1 7/3/1
f 9/3/1 2/3/1 8/3/1
f 10/3/1 2/3/1 9/3/1
f 11/3/1 4/3/1 3/3/1
f 11/3/1 5/3/1 4/3/1
f 12/4/1 6/4/1 5/4/1
f 12/3/1 5/3/1 11/3/1
f 13/3/1 7/3/1 6/3/1
f 13/4/1 6/4/1 12/4/1
f 14/4/1 8/4/1 7/4/1
f 14/3/1 7/3/1 13/3/1
f 15/3/1 9/3/1 8/3/1
f 15/4/1 8/4/1 14/4/1
f 16/3/1 9/3/1 15/3/1
f 17/3/1 9/3/1 16/3/1
f 18/3/1 11/3/1 3/3/1
f 19/4/1 14/4/1 13/4/1
f 19/3/1 11/3/1 18/3/1
f 19/4/1 12/4/1 11/4/1
f 19/4/1 13/4/1 12/4/1
f 20/4/1 14/4/1 19/4/1
f 21/4/1 14/4/1 20/4/1
f 22/3/1 16/3/1 15/3/1
f 22/4/1 14/4/1 21/4/1
f 22/3/1 15/3/1 14/3/1
f 23/4/1 21/4/1 20/4/1
f 23/3/1 20/3/1 19/3/1
f 24/3/1 22/3/1 21/3/1
f 24/4/1 21/4/1 23/4/1
f 25/3/1 16/3/1 22/3/1
f 25/3/1 22/3/1 24/3/1
f 26/3/1 16/3/1 25/3/1
f 27/3/1 24/3/1 23/3/1
f 27/3/1 23/3/1 19/3/1
f 27/3/1 25/3/1 24/3/1
f 28/3/1 25/3/1 27/3/1
f 29/3/1 25/3/1 28/3/1
f 30/3/1 25/3/1 29/3/1
f 31/3/1 29/3/1 28/3/1
f 32/3/1 29/3/1 31/3/1
f 37/1/1 34/1/1 33/1/1
f 38/1/1 34/1/1 37/1/1
f 39/1/1 34/1/1 38/1/1
f 41/1/1 36/1/1 35/1/1
f 42/1/1 36/1/1 41/1/1
f 43/1/1 36/1/1 42/1/1
f 46/4/1 40/4/1 39/4/1
f 46/4/1 39/4/1 38/4/1
f 47/4/1 40/4/1 46/4/1
f 48/3/1 43/3/1 42/3/1
f 48/3/1 44/3/1 43/3/1
f 49/3/1 44/3/1 48/3/1
f 51/3/1 46/3/1 45/3/1
f 52/3/1 46/3/1 51/3/1
f 55/3/1 51/3/1 50/3/1
f 56/3/1 51/3/1 55/3/1
f 58/3/1 54/3/1 53/3/1
f 59/3/1 54/3/1 58/3/1
f 62/3/1 58/3/1 57/3/1
f 63/3/1 58/3/1 62/3/1
f 64/3/1 61/3/1 60/3/1
f 65/3/1 61/3/1 64/3/1
f 67/1/1 66/1/1 65/1/1
f 70/1/1 67/1/1 65/1/1
f 70/1/1 68/1/1 67/1/1
f 71/3/1 69/3/1 68/3/1
f 71/1/1 68/1/1 70/1/1
f 72/3/1 69/3/1 71/3/1
f 77/2/1 74/2/1 73/2/1
f 78/2/1 74/2/1 77/2/1
f 79/3/1 76/3/1 75/3/1
f 80/3/1 76/3/1 79/3/1
f 83/1/1 82/1/1 81/1/1
f 84/1/1 82/1/1 83/1/1
f 85/1/1 82/1/1 84/1/1
f 88/1/1 87/1/1 86/1/1
f 89/1/1 87/1/1 88/1/1
f 94/3/1 91/3/1 90/3/1
f 95/3/1 91/3/1 94/3/1
f 96/3/1 93/3/1 92/3/1
f 96/3/1 94/3/1 93/3/1
f 97/3/1 94/3/1 96/3/1
f 102/1/1 99/1/1 98/1/1
f 103/1/1 99/1/1 102/1/1
f 104/1/1 99/1/1 103/1/1
f 106/1/1 101/1/1 100/1/1
f 107/1/1 101/1/1 106/1/1
f 108/1/1 101/1/1 107/1/1
f 110/4/1 105/4/1 104/4/1
f 110/4/1 104/4/1 103/4/1
f 111/4/1 105/4/1 110/4/1
f 112/3/1 109/3/1 108/3/1
f 112/3/1 108/3/1 107/3/1
f 113/3/1 109/3/1 112/3/1
f 114/3/1 109/3/1 113/3/1
f 115/3/1 109/3/1 114/3/1
f 118/1/1 117/1/1 116/1/1
f 121/1/1 118/1/1 116/1/1
f 121/1/1 119/1/1 118/1/1
f 122/3/1 120/3/1 119/3/1
f 122/1/1 119/1/1 121/1/1
f 123/3/1 120/3/1 122/3/1
f 124/1/2 125/1/2 128/1/2
f 128/1/2 125/1/2 129/1/2
f 129/1/2 125/1/2 130/1/2
f 126/1/2 127/1/2 132/1/2
f 132/1/2 127/1/2 133/1/2
f 133/1/2 127/1/2 134/1/2
f 130/4/2 131/4/2 136/4/2
f 129/4/2 130/4/2 136/4/2
f 136/4/2 131/4/2 137/4/2
f 134/3/2 135/3/2 138/3/2
f 133/3/2 134/3/2 138/3/2
f 138/3/2 135/3/2 139/3/2
f 139/3/2 135/3/2 140/3/2
f 140/3/2 135/3/2 141/3/2
f 142/1/2 143/1/2 144/1/2
f 142/1/2 144/1/2 147/1/2
f 144/1/2 145/1/2 147/1/2
f 145/3/2 146/3/2 148/3/2
f 147/1/2 145/1/2 148/1/2
f 148/3/2 146/3/2 149/3/2
f 150/3/2 151/3/2 154/3/2
f 154/3/2 151/3/2 155/3/2
f 152/3/2 153/3/2 156/3/2
f 153/3/2 154/3/2 156/3/2
f 156/3/2 154/3/2 157/3/2
f 158/1/2 159/1/2 160/1/2
f 160/1/2 159/1/2 161/1/2
f 162/1/2 163/1/2 164/1/2
f 164/1/2 163/1/2 165/1/2
f 165/1/2 163/1/2 166/1/2
f 166/1/2 163/1/2 167/1/2
f 168/2/2 169/2/2 172/2/2
f 172/2/2 169/2/2 173/2/2
f 170/3/2 171/3/2 174/3/2
f 174/3/2 171/3/2 175/3/2
f 176/1/2 177/1/2 180/1/2
f 180/1/2 177/1/2 181/1/2
f 181/1/2 177/1/2 182/1/2
f 178/1/2 179/1/2 184/1/2
f 184/1/2 179/1/2 185/1/2
f 185/1/2 179/1/2 186/1/2
f 182/4/2 183/4/2 189/4/2
f 181/4/2 182/4/2 189/4/2
f 189/4/2 183/4/2 190/4/2
f 185/3/2 186/3/2 191/3/2
f 186/3/2 187/3/2 191/3/2
f 191/3/2 187/3/2 192/3/2
f 188/3/2 189/3/2 194/3/2
f 194/3/2 189/3/2 195/3/2
f 193/3/2 194/3/2 198/3/2
f 198/3/2 194/3/2 199/3/2
f 196/3/2 197/3/2 201/3/2
f 201/3/2 197/3/2 202/3/2
f 200/3/2 201/3/2 205/3/2
f 205/3/2 201/3/2 206/3/2
f 203/3/2 204/3/2 207/3/2
f 207/3/2 204/3/2 208/3/2
f 208/1/2 209/1/2 210/1/2
f 208/1/2 210/1/2 213/1/2
f 210/1/2 211/1/2 213/1/2
f 211/3/2 212/3/2 214/3/2
f 213/1/2 211/1/2 214/1/2
f 214/3/2 212/3/2 215/3/2
f 216/3/2 217/3/2 219/3/2
f 219/3/2 217/3/2 220/3/2
f 220/3/2 217/3/2 221/3/2
f 221/3/2 217/3/2 222/3/2
f 222/3/2 217/3/2 223/3/2
f 223/3/2 217/3/2 224/3/2
f 224/3/2 217/3/2 225/3/2
f 218/3/2 219/3/2 226/3/2
f 219/3/2 220/3/2 226/3/2
f 220/4/2 221/4/2 227/4/2
f 226/3/2 220/3/2 227/3/2
f 221/3/2 222/3/2 228/3/2
f 227/4/2 221/4/2 228/4/2
f 222/4/2 223/4/2 229/4/2
f 228/3/2 222/3/2 229/3/2
f 223/3/2 224/3/2 230/3/2
f 229/4/2 223/4/2 230/4/2
f 230/3/2 224/3/2 231/3/2
f 231/3/2 224/3/2 232/3/2
f 218/3/2 226/3/2 233/3/2
f 228/4/2 229/4/2 234/4/2
f 233/3/2 226/3/2 234/3/2
f 226/4/2 227/4/2 234/4/2
f 227/4/2 228/4/2 234/4/2
f 234/4/2 229/4/2 235/4/2
f 235/4/2 229/4/2 236/4/2
f 230/3/2 231/3/2 237/3/2
f 236/4/2 229/4/2 237/4/2
f 229/3/2 230/3/2 237/3/2
f 235/4/2 236/4/2 238/4/2
f 234/3/2 235/3/2 238/3/2
f 236/3/2 237/3/2 239/3/2
f 238/4/2 236/4/2 239/4/2
f 237/3/2 231/3/2 240/3/2
f 239/3/2 237/3/2 240/3/2
f 240/3/2 231/3/2 241/3/2
f 238/3/2 239/3/2 242/3/2
f 234/3/2 238/3/2 242/3/2
f 239/3/2 240/3/2 242/3/2
f 242/3/2 240/3/2 243/3/2
f 243/3/2 240/3/2 244/3/2
f 244/3/2 240/3/2 245/3/2
f 243/3/2 244/3/2 246/3/2
f 246/3/2 244/3/2 247/3/2
f 251/3/3 249/3/3 248/3/3
f 252/3/3 249/3/3 251/3/3
f 252/3/3 251/3/3 250/3/3
f 253/3/3 249/3/3 252/3/3
f 254/3/3 252/3/3 250/3/3
f 254/5/3 253/5/3 252/5/3
f 255/5/3 253/5/3 254/5/3
f 256/3/3 254/3/3 250/3/3
f 256/3/3 255/3/3 254/3/3
f 257/3/3 255/3/3 256/3/3
f 258/3/3 255/3/3 257/3/3
f 259/3/3 255/3/3 258/3/3
f 265/3/3 261/3/3 260/3/3
f 266/3/3 261/3/3 265/3/3
f 267/3/3 261/3/3 266/3/3
f 269/1/3 263/1/3 262/1/3
f 270/1/3 263/1/3 269/1/3
f 271/3/3 265/3/3 264/3/3
f 272/3/3 265/3/3 271/3/3
f 273/3/3 268/3/3 267/3/3
f 273/3/3 267/3/3 266/3/3
f 274/3/3 268/3/3 273/3/3
f 275/3/3 273/3/3 266/3/3
f 276/5/3 274/5/3 273/5/3
f 276/3/3 273/3/3 275/3/3
f 277/3/3 268/3/3 274/3/3
f 277/5/3 274/5/3 276/5/3
f 278/3/3 276/3/3 275/3/3
f 278/3/3 277/3/3 276/3/3
f 279/3/3 277/3/3 278/3/3
f 280/3/3 268/3/3 277/3/3
f 280/3/3 277/3/3 279/3/3
f 285/3/3 279/3/3 278/3/3
f 285/5/3 280/5/3 279/5/3
f 286/3/3 268/3/3 280/3/3
f 286/5/3 280/5/3 285/5/3
f 287/1/3 282/1/3 281/1/3
f 288/1/3 282/1/3 287/1/3
f 289/3/3 284/3/3 283/3/3
f 290/3/3 284/3/3 289/3/3
f 291/3/3 285/3/3 278/3/3
f 291/3/3 286/3/3 285/3/3
f 292/3/3 286/3/3 291/3/3
f 293/3/3 268/3/3 286/3/3
f 293/3/3 286/3/3 292/3/3
f 294/3/3 292/3/3 291/3/3
f 294/3/3 291/3/3 290/3/3
f 295/3/3 292/3/3 294/3/3
f 301/3/3 297/3/3 296/3/3
f 302/3/3 297/3/3 301/3/3
f 303/3/3 299/3/3 298/3/3
f 304/3/3 299/3/3 303/3/3
f 306/4/3 301/4/3 300/4/3
f 307/4/3 301/4/3 306/4/3
f 308/4/3 301/4/3 307/4/3
f 309/1/3 305/1/3 304/1/3
f 310/1/3 305/1/3 309/1/3
f 312/2/3 308/2/3 307/2/3
f 313/2/3 308/2/3 312/2/3
f 316/4/3 312/4/3 311/4/3
f 316/4/3 313/4/3 312/4/3
f 317/4/3 313/4/3 316/4/3
f 320/1/3 315/1/3 314/1/3
f 321/1/3 315/1/3 320/1/3
f 322/3/3 318/3/3 317/3/3
f 323/3/3 318/3/3 322/3/3
f 324/3/3 320/3/3 319/3/3
f 325/3/3 320/3/3 324/3/3
f 328/3/3 327/3/3 326/3/3
f 329/3/3 327/3/3 328/3/3
f 332/3/3 331/3/3 330/3/3
f 333/3/3 331/3/3 332/3/3
f 336/3/3 335/3/3 334/3/3
f 337/3/3 335/3/3 336/3/3
f 340/3/3 339/3/3 338/3/3
f 341/3/3 339/3/3 340/3/3
f 344/1/3 343/1/3 342/1/3
f 345/1/3 343/1/3 344/1/3
f 348/1/3 347/1/3 346/1/3
f 349/1/3 347/1/3 348/1/3
f 352/3/3 351/3/3 350/3/3
f 353/3/3 351/3/3 352/3/3
f 354/3/3 351/3/3 353/3/3
f 358/3/3 356/3/3 355/3/3
f 358/3/3 357/3/3 356/3/3
f 359/3/3 357/3/3 358/3/3
f 362/1/3 361/1/3 360/1/3
f 363/1/3 361/1/3 362/1/3
f 364/1/3 362/1/3 360/1/3
f 365/1/3 362/1/3 364/1/3
f 366/1/4 367/1/4 368/1/4
f 368/1/4 367/1/4 369/1/4
f 370/1/4 371/1/4 372/1/4
f 372/1/4 371/1/4 373/1/4
f 374/4/4 375/4/4 376/4/4
f 376/4/4 375/4/4 377/4/4
f 377/4/4 375/4/4 378/4/4
f 379/4/4 380/4/4 382/4/4
f 380/4/4 381/4/4 382/4/4
f 382/4/4 381/4/4 383/4/4
f 384/3/4 385/3/4 386/3/4
f 384/3/4 386/3/4 388/3/4
f 386/3/4 387/3/4 388/3/4
f 388/3/4 387/3/4 389/3/4
f 384/3/4 388/3/4 391/3/4
f 391/3/4 388/3/4 392/3/4
f 390/4/4 391/4/4 393/4/4
f 393/4/4 391/4/4 394/4/4
f 394/3/4 395/3/4 396/3/4
f 394/3/4 396/3/4 398/3/4
f 396/3/4 397/3/4 398/3/4
f 398/3/4 397/3/4 399/3/4
f 394/3/4 398/3/4 400/3/4
f 400/3/4 398/3/4 401/3/4
f 402/3/4 403/3/4 404/3/4
f 404/3/4 403/3/4 405/3/4
f 405/3/4 403/3/4 406/3/4
f 407/3/4 408/3/4 409/3/4
f 409/3/4 408/3/4 410/3/4
f 410/3/4 408/3/4 411/3/4
f 412/3/4 413/3/4 414/3/4
f 414/3/4 413/3/4 415/3/4
f 415/3/4 413/3/4 416/3/4
f 416/3/4 413/3/4 417/3/4
f 416/4/4 417/4/4 418/4/4
f 418/4/4 417/4/4 419/4/4
f 418/3/4 419/3/4 421/3/4
f 420/3/4 421/3/4 422/3/4
f 421/3/4 419/3/4 423/3/4
f 422/3/4 421/3/4 423/3/4
f 424/3/4 425/3/4 428/3/4
f 428/3/4 425/3/4 429/3/4
f 426/1/4 427/1/4 431/1/4
f 431/1/4 427/1/4 432/1/4
f 429/3/4 430/3/4 435/3/4
f 435/3/4 430/3/4 436/3/4
f 433/3/4 434/3/4 439/3/4
f 439/3/4 434/3/4 440/3/4
f 435/4/4 436/4/4 441/4/4
f 441/4/4 436/4/4 442/4/4
f 437/1/4 438/1/4 443/1/4
f 443/1/4 438/1/4 444/1/4
f 441/3/4 442/3/4 446/3/4
f 446/3/4 442/3/4 447/3/4
f 445/3/4 446/3/4 448/3/4
f 448/3/4 446/3/4 449/3/4
f 450/3/4 451/3/4 453/3/4
f 453/3/4 451/3/4 454/3/4
f 452/3/4 453/3/4 456/3/4
f 454/3/4 455/3/4 456/3/4
f 453/3/4 454/3/4 456/3/4
f 456/3/4 455/3/4 457/3/4
f 457/3/4 455/3/4 458/3/4
f 458/3/4 455/3/4 459/3/4
f 457/3/4 458/3/4 460/3/4
f 458/4/4 459/4/4 460/4/4
f 460/4/4 459/4/4 461/4/4
f 457/3/4 460/3/4 462/3/4
f 462/3/4 460/3/4 463/3/4
f 464/3/4 465/3/4 468/3/4
f 465/4/4 466/4/4 469/4/4
f 468/3/4 465/3/4 469/3/4
f 469/4/4 466/4/4 470/4/4
f 467/3/4 468/3/4 471/3/4
f 468/3/4 469/3/4 471/3/4
f 469/3/4 470/3/4 471/3/4
f 471/3/4 470/3/4 472/3/4
f 472/3/4 470/3/4 473/3/4
f 473/3/4 470/3/4 474/3/4
f 472/3/4 473/3/4 475/3/4
f 475/3/4 473/3/4 476/3/4
f 477/1/4 478/1/4 480/1/4
f 480/1/4 478/1/4 481/1/4
f 481/1/4 478/1/4 482/1/4
f 479/1/4 480/1/4 483/1/4
f 480/1/4 481/1/4 483/1/4
f 483/1/4 481/1/4 484/1/4
f 489/1/5 486/1/5 485/1/5
f 490/1/5 486/1/5 489/1/5
f 491/1/5 488/1/5 487/1/5
f 492/1/5 488/1/5 491/1/5
f 497/1/5 494/1/5 493/1/5
f 498/1/5 494/1/5 497/1/5
f 499/1/5 496/1/5 495/1/5
f 500/1/5 496/1/5 499/1/5
f 505/4/5 502/4/5 501/4/5
f 506/4/5 502/4/5 505/4/5
f 507/4/5 504/4/5 503/4/5
f 508/4/5 504/4/5 507/4/5
f 513/3/5 510/3/5 509/3/5
f 514/3/5 510/3/5 513/3/5
f 515/3/5 512/3/5 511/3/5
f 516/3/5 512/3/5 515/3/5
f 519/2/5 518/2/5 517/2/5
f 520/2/5 518/2/5 519/2/5
f 521/2/5 520/2/5 519/2/5
f 522/2/5 520/2/5 521/2/5
f 523/3/5 522/3/5 521/3/5
f 524/3/5 522/3/5 523/3/5
f 528/3/5 526/3/5 525/3/5
f 529/3/5 526/3/5 528/3/5
f 532/3/5 528/3/5 527/3/5
f 532/3/5 530/3/5 529/3/5
f 532/3/5 529/3/5 528/3/5
f 533/3/5 530/3/5 532/3/5
f 534/3/5 530/3/5 533/3/5
f 535/3/5 530/3/5 534/3/5
f 537/3/5 532/3/5 531/3/5
f 540/3/5 536/3/5 535/3/5
f 541/3/5 538/3/5 537/3/5
f 541/3/5 537/3/5 531/3/5
f 542/3/5 538/3/5 541/3/5
f 543/3/5 540/3/5 539/3/5
f 544/3/5 536/3/5 540/3/5
f 544/3/5 540/3/5 543/3/5
f 547/3/5 541/3/5 531/3/5
f 548/3/5 541/3/5 547/3/5
f 549/3/5 546/3/5 545/3/5
f 550/3/5 546/3/5 549/3/5
f 551/3/5 546/3/5 550/3/5
f 552/3/5 546/3/5 551/3/5
f 553/3/5 536/3/5 544/3/5
f 554/3/5 536/3/5 553/3/5
f 555/1/5 551/1/5 550/1/5
f 556/1/5 551/1/5 555/1/5
f 562/3/5 558/3/5 557/3/5
f 563/3/5 558/3/5 562/3/5
f 564/3/5 560/3/5 559/3/5
f 565/3/5 560/3/5 564/3/5
f 567/3/5 562/3/5 561/3/5
f 568/3/5 562/3/5 567/3/5
f 569/3/5 566/3/5 565/3/5
f 570/3/5 566/3/5 569/3/5
f 573/1/5 572/1/5 571/1/5
f 574/1/5 572/1/5 573/1/5
f 575/1/6 576/1/6 579/1/6
f 579/1/6 576/1/6 580/1/6
f 577/1/6 578/1/6 581/1/6
f 581/1/6 578/1/6 582/1/6
f 583/1/6 584/1/6 587/1/6
f 587/1/6 584/1/6 588/1/6
f 585/1/6 586/1/6 589/1/6
f 589/1/6 586/1/6 590/1/6
f 591/3/6 592/3/6 595/3/6
f 595/3/6 592/3/6 596/3/6
f 593/3/6 594/3/6 597/3/6
f 597/3/6 594/3/6 598/3/6
f 599/3/6 600/3/6 603/3/6
f 600/5/6 601/5/6 604/5/6
f 603/3/6 600/3/6 604/3/6
f 601/3/6 602/3/6 605/3/6
f 604/5/6 601/5/6 605/5/6
f 605/3/6 602/3/6 606/3/6
f 607/3/6 608/3/6 611/3/6
f 611/3/6 608/3/6 612/3/6
f 609/3/6 610/3/6 615/3/6
f 615/3/6 610/3/6 616/3/6
f 612/3/6 613/3/6 617/3/6
f 613/4/6 614/4/6 618/4/6
f 617/3/6 613/3/6 618/3/6
f 618/4/6 614/4/6 619/4/6
f 619/4/6 614/4/6 620/4/6
f 614/3/6 615/3/6 621/3/6
f 620/4/6 614/4/6 621/4/6
f 621/3/6 615/3/6 622/3/6
f 623/3/6 624/3/6 627/3/6
f 627/3/6 624/3/6 628/3/6
f 625/3/6 626/3/6 629/3/6
f 629/3/6 626/3/6 630/3/6
f 631/3/6 632/3/6 635/3/6
f 632/4/6 633/4/6 636/4/6
f 635/3/6 632/3/6 636/3/6
f 633/3/6 634/3/6 637/3/6
f 636/4/6 633/4/6 637/4/6
f 637/3/6 634/3/6 638/3/6
f 639/1/6 640/1/6 641/1/6
f 641/1/6 640/1/6 642/1/6
f 643/4/6 644/4/6 647/4/6
f 647/4/6 644/4/6 648/4/6
f 645/3/6 646/3/6 651/3/6
f 646/4/6 647/4/6 652/4/6
f 651/3/6 646/3/6 652/3/6
f 647/4/6 648/4/6 652/4/6
f 648/4/6 649/4/6 652/4/6
f 649/3/6 650/3/6 653/3/6
f 652/4/6 649/4/6 653/4/6
f 653/3/6 650/3/6 654/3/6
f 655/1/6 656/1/6 657/1/6
f 657/1/6 656/1/6 658/1/6
f 659/3/6 660/3/6 662/3/6
f 662/3/6 660/3/6 663/3/6
f 663/3/6 660/3/6 664/3/6
f 664/3/6 660/3/6 665/3/6
f 661/3/6 662/3/6 667/3/6
f 667/3/6 662/3/6 668/3/6
f 663/3/6 664/3/6 669/3/6
f 669/3/6 664/3/6 670/3/6
f 670/3/6 664/3/6 671/3/6
f 671/3/6 664/3/6 672/3/6
f 665/3/6 666/3/6 673/3/6
f 673/3/6 666/3/6 674/3/6
f 670/3/6 671/3/6 675/3/6
f 675/3/6 671/3/6 676/3/6
f 675/4/6 676/4/6 678/4/6
f 678/4/6 676/4/6 679/4/6
f 677/3/6 678/3/6 681/3/6
f 681/3/6 678/3/6 682/3/6
f 679/3/6 680/3/6 683/3/6
f 683/3/6 680/3/6 684/3/6
f 685/3/6 686/3/6 693/3/6
f 687/3/6 688/3/6 694/3/6
f 689/3/6 690/3/6 695/3/6
f 691/3/6 692/3/6 696/3/6
f 685/3/6 693/3/6 697/3/6
f 697/3/6 693/3/6 698/3/6
f 694/3/6 688/3/6 699/3/6
f 699/3/6 688/3/6 700/3/6
f 689/3/6 695/3/6 701/3/6
f 701/3/6 695/3/6 702/3/6
f 696/3/6 692/3/6 703/3/6
f 703/3/6 692/3/6 704/3/6
f 705/1/6 706/1/6 709/1/6
f 709/1/6 706/1/6 710/1/6
f 707/1/6 708/1/6 711/1/6
f 711/1/6 708/1/6 712/1/6
f 709/3/6 710/3/6 713/3/6
f 713/3/6 710/3/6 714/3/6
f 711/3/6 712/3/6 715/3/6
f 715/3/6 712/3/6 716/3/6
