# MagicaVoxel @ Ephtracy

# group
o 

# material
mtllib wolf.mtl
usemtl palette

# normals
vn -1 0 0
vn 1 0 0
vn 0 0 1
vn 0 0 -1
vn 0 -1 0
vn 0 1 0

# texcoords
vt 0.958984 0.5
vt 0.978516 0.5
vt 0.986328 0.5
vt 0.990234 0.5
vt 0.994141 0.5

# verts
v -0.6 0.9 -0.9
v -0.6 0.9 -1.1
v -0.6 1 -0.8
v -0.6 1 -0.9
v -0.6 1 -1.1
v -0.6 1 -1.2
v -0.6 1.1 0.1
v -0.6 1.1 -0.8
v -0.6 1.2 0.2
v -0.6 1.2 0.1
v -0.6 1.3 0.3
v -0.6 1.3 0.2
v -0.6 1.3 -1.1
v -0.6 1.3 -1.2
v -0.6 1.5 0.4
v -0.6 1.5 0.3
v -0.6 1.5 -1
v -0.6 1.5 -1.1
v -0.6 1.6 0.8
v -0.6 1.6 0.6
v -0.6 1.6 0.4
v -0.6 1.6 0.3
v -0.6 1.6 0.2
v -0.6 1.6 -1
v -0.6 1.7 0.6
v -0.6 1.7 0.5
v -0.6 1.7 0.3
v -0.6 1.7 0.2
v -0.6 2 0.7
v -0.6 2 0.6
v -0.6 2 0.5
v -0.6 2.1 0.8
v -0.6 2.1 0.7
v -0.6 2.1 0.6
v -0.6 2.2 0.7
v -0.6 2.2 0.6
v -0.5 0 0.4
v -0.5 0 0.1
v -0.5 0 -0.9
v -0.5 0 -1.2
v -0.5 0.1 0.4
v -0.5 0.1 0.3
v -0.5 0.1 -0.9
v -0.5 0.1 -1
v -0.5 0.9 0.1
v -0.5 0.9 -0.9
v -0.5 0.9 -1
v -0.5 0.9 -1.1
v -0.5 0.9 -1.2
v -0.5 0.9 -1.3
v -0.5 1 -0.8
v -0.5 1 -0.9
v -0.5 1 -1.1
v -0.5 1 -1.2
v -0.5 1.1 0.1
v -0.5 1.1 -0.8
v -0.5 1.2 0.4
v -0.5 1.2 0.3
v -0.5 1.2 0.2
v -0.5 1.2 0.1
v -0.5 1.3 0.3
v -0.5 1.3 0.2
v -0.5 1.3 -1.1
v -0.5 1.3 -1.2
v -0.5 1.3 -1.3
v -0.5 1.4 0.5
v -0.5 1.4 0.4
v -0.5 1.5 1.3
v -0.5 1.5 1.2
v -0.5 1.5 0.8
v -0.5 1.5 0.5
v -0.5 1.5 0.4
v -0.5 1.5 0.3
v -0.5 1.5 -1
v -0.5 1.5 -1.1
v -0.5 1.5 -1.2
v -0.5 1.6 1.3
v -0.5 1.6 1.2
v -0.5 1.6 0.9
v -0.5 1.6 0.8
v -0.5 1.6 0.6
v -0.5 1.6 0.4
v -0.5 1.6 0.3
v -0.5 1.6 0.2
v -0.5 1.6 0.1
v -0.5 1.6 -1
v -0.5 1.6 -1.1
v -0.5 1.7 1.3
v -0.5 1.7 1.2
v -0.5 1.7 0.6
v -0.5 1.7 0.5
v -0.5 1.7 0.3
v -0.5 1.7 0.2
v -0.5 1.7 0.1
v -0.5 1.8 1.3
v -0.5 1.8 1.2
v -0.5 1.8 0.3
v -0.5 1.8 0.2
v -0.5 1.9 0.4
v -0.5 1.9 0.3
v -0.5 2 0.6
v -0.5 2 0.5
v -0.5 2.1 0.9
v -0.5 2.1 0.8
v -0.5 2.1 0.7
v -0.5 2.1 0.6
v -0.5 2.2 0.8
v -0.5 2.2 0.7
v -0.5 2.2 0.6
v -0.5 2.2 0.4
v -0.5 2.4 0.8
v -0.5 2.4 0.7
v -0.5 2.5 0.7
v -0.5 2.5 0.6
v -0.4 0.8 -0.1
v -0.4 0.8 -0.7
v -0.4 0.9 -0.1
v -0.4 0.9 -0.7
v -0.4 1.4 0.8
v -0.4 1.4 0.6
v -0.4 1.5 0.9
v -0.4 1.5 0.8
v -0.4 1.5 0.6
v -0.4 1.5 -1.1
v -0.4 1.5 -1.2
v -0.4 1.6 1.3
v -0.4 1.6 1.2
v -0.4 1.6 1
v -0.4 1.6 0.9
v -0.4 1.6 0.8
v -0.4 1.6 0.1
v -0.4 1.6 -1
v -0.4 1.6 -1.1
v -0.4 1.6 -1.2
v -0.4 1.7 1.3
v -0.4 1.7 1.2
v -0.4 1.7 0.2
v -0.4 1.7 0.1
v -0.4 1.7 -1
v -0.4 1.8 0.3
v -0.4 1.8 0.2
v -0.4 1.8 0.1
v -0.4 1.9 0.4
v -0.4 1.9 0.3
v -0.4 1.9 0.2
v -0.4 2 1
v -0.4 2 0.9
v -0.4 2 0.4
v -0.4 2 0.3
v -0.4 2.4 0.8
v -0.4 2.4 0.7
v -0.4 2.5 0.8
v -0.4 2.5 0.7
v -0.4 2.5 0.6
v -0.4 2.6 0.8
v -0.4 2.6 0.6
v -0.3 0.8 0
v -0.3 0.8 -0.1
v -0.3 0.8 -0.7
v -0.3 0.8 -0.9
v -0.3 0.9 0
v -0.3 0.9 -0.1
v -0.3 0.9 -0.7
v -0.3 0.9 -0.9
v -0.3 1.4 0.6
v -0.3 1.4 0.5
v -0.3 1.5 1
v -0.3 1.5 0.9
v -0.3 1.5 0.6
v -0.3 1.5 0.5
v -0.3 1.6 1
v -0.3 1.6 0.9
v -0.3 1.6 -1
v -0.3 1.6 -1.1
v -0.3 1.7 0
v -0.3 1.7 -0.9
v -0.3 1.7 -1
v -0.3 1.7 -1.1
v -0.3 1.8 0
v -0.3 1.8 -0.9
v -0.3 1.9 1.1
v -0.3 1.9 1
v -0.3 2 1.1
v -0.3 2 1
v -0.3 2 0.9
v -0.3 2.1 1
v -0.3 2.1 0.9
v -0.2 0.7 -1.2
v -0.2 0.7 -1.4
v -0.2 0.8 -1.2
v -0.2 0.8 -1.3
v -0.2 0.8 -1.4
v -0.2 0.9 -1.2
v -0.2 0.9 -1.3
v -0.2 0.9 -1.4
v -0.2 0.9 -1.5
v -0.2 1 -1.2
v -0.2 1 -1.3
v -0.2 1 -1.4
v -0.2 1 -1.5
v -0.2 1.1 -1.4
v -0.2 1.1 -1.5
v -0.2 1.3 -1.2
v -0.2 1.3 -1.3
v -0.2 1.5 1.2
v -0.2 1.5 1
v -0.2 1.5 -1.4
v -0.2 1.5 -1.5
v -0.2 1.6 1.2
v -0.2 1.6 -1.1
v -0.2 1.6 -1.2
v -0.2 1.7 1.3
v -0.2 1.7 1.2
v -0.2 1.7 0.1
v -0.2 1.7 0
v -0.2 1.7 -0.9
v -0.2 1.7 -1
v -0.2 1.7 -1.1
v -0.2 1.7 -1.3
v -0.2 1.7 -1.4
v -0.2 1.8 1.3
v -0.2 1.8 1.2
v -0.2 1.8 0.1
v -0.2 1.8 0
v -0.2 1.8 -0.9
v -0.2 1.8 -1
v -0.2 1.8 -1.1
v -0.2 1.8 -1.3
v -0.2 1.9 1.2
v -0.2 1.9 1.1
v -0.2 1.9 1
v -0.1 0.6 -1.2
v -0.1 0.6 -1.4
v -0.1 0.7 -1.2
v -0.1 0.7 -1.4
v -0.1 0.8 -1.4
v -0.1 0.8 -1.5
v -0.1 0.9 -1.4
v -0.1 0.9 -1.5
v -0.1 1.5 1.3
v -0.1 1.5 1.2
v -0.1 1.5 -1.4
v -0.1 1.5 -1.5
v -0.1 1.6 1.5
v -0.1 1.6 1.3
v -0.1 1.6 1.2
v -0.1 1.6 -1.4
v -0.1 1.6 -1.5
v -0.1 1.7 1.5
v -0.1 1.7 1.4
v -0.1 1.7 1.3
v -0.1 1.8 1.5
v -0.1 1.8 1.4
v -0.1 1.8 1.3
v -0.1 1.8 1.2
v -0.1 1.9 1.3
v -0.1 1.9 1.2
v 0.1 2.2 0.8
v 0.1 2.2 0.6
v 0.1 2.3 0.8
v 0.1 2.3 0.7
v 0.1 2.4 0.7
v 0.1 2.4 0.6
v 0.2 1.9 1.1
v 0.2 1.9 1
v 0.2 2 1.1
v 0.2 2 1
v 0.2 2.4 0.7
v 0.2 2.4 0.6
v 0.2 2.5 0.7
v 0.2 2.5 0.6
v 0.3 0 0.4
v 0.3 0 0.1
v 0.3 0 -0.9
v 0.3 0 -1.2
v 0.3 0.1 0.4
v 0.3 0.1 0.3
v 0.3 0.1 -0.9
v 0.3 0.1 -1
v 0.3 0.9 0.1
v 0.3 0.9 -1
v 0.3 0.9 -1.2
v 0.3 0.9 -1.3
v 0.3 1 0.3
v 0.3 1 0.1
v 0.3 1 -1
v 0.3 1 -1.3
v 0.3 1.5 1.3
v 0.3 1.5 1.2
v 0.3 1.6 1.3
v 0.3 1.6 1.2
v 0.3 1.7 1.3
v 0.3 1.7 1.2
v 0.3 1.8 1.3
v 0.3 1.8 1.2
v 0.3 2.3 0.8
v 0.3 2.3 0.7
v 0.3 2.4 0.8
v 0.3 2.4 0.7
v 0.3 2.5 0.8
v 0.3 2.5 0.7
v 0.3 2.5 0.6
v 0.3 2.6 0.8
v 0.3 2.6 0.6
v -0.3 0 0.4
v -0.3 0 0.1
v -0.3 0 -0.9
v -0.3 0 -1.2
v -0.3 0.1 0.4
v -0.3 0.1 0.3
v -0.3 0.1 -0.9
v -0.3 0.1 -1
v -0.3 0.9 0.1
v -0.3 0.9 -1
v -0.3 0.9 -1.2
v -0.3 0.9 -1.3
v -0.3 1 0.3
v -0.3 1 0.1
v -0.3 1 -1
v -0.3 1 -1.3
v -0.3 1.5 1.3
v -0.3 1.5 1.2
v -0.3 1.6 1.3
v -0.3 1.6 1.2
v -0.3 1.7 1.3
v -0.3 1.7 1.2
v -0.3 1.8 1.3
v -0.3 1.8 1.2
v -0.3 2.3 0.8
v -0.3 2.3 0.7
v -0.3 2.4 0.8
v -0.3 2.4 0.7
v -0.3 2.5 0.8
v -0.3 2.5 0.7
v -0.3 2.5 0.6
v -0.3 2.6 0.8
v -0.3 2.6 0.6
v -0.2 1.9 1.1
v -0.2 1.9 1
v -0.2 2 1.1
v -0.2 2 1
v -0.2 2.4 0.7
v -0.2 2.4 0.6
v -0.2 2.5 0.7
v -0.2 2.5 0.6
v -0.1 2.2 0.8
v -0.1 2.2 0.6
v -0.1 2.3 0.8
v -0.1 2.3 0.7
v -0.1 2.4 0.7
v -0.1 2.4 0.6
v 0.1 0.6 -1.2
v 0.1 0.6 -1.4
v 0.1 0.7 -1.2
v 0.1 0.7 -1.4
v 0.1 0.8 -1.4
v 0.1 0.8 -1.5
v 0.1 0.9 -1.4
v 0.1 0.9 -1.5
v 0.1 1.5 1.3
v 0.1 1.5 1.2
v 0.1 1.5 -1.4
v 0.1 1.5 -1.5
v 0.1 1.6 1.5
v 0.1 1.6 1.3
v 0.1 1.6 1.2
v 0.1 1.6 -1.4
v 0.1 1.6 -1.5
v 0.1 1.7 1.5
v 0.1 1.7 1.4
v 0.1 1.7 1.3
v 0.1 1.8 1.5
v 0.1 1.8 1.4
v 0.1 1.8 1.3
v 0.1 1.8 1.2
v 0.1 1.9 1.3
v 0.1 1.9 1.2
v 0.2 0.7 -1.2
v 0.2 0.7 -1.4
v 0.2 0.8 -1.2
v 0.2 0.8 -1.3
v 0.2 0.8 -1.4
v 0.2 0.9 -1.2
v 0.2 0.9 -1.3
v 0.2 0.9 -1.4
v 0.2 0.9 -1.5
v 0.2 1 -1.2
v 0.2 1 -1.3
v 0.2 1 -1.4
v 0.2 1 -1.5
v 0.2 1.1 -1.4
v 0.2 1.1 -1.5
v 0.2 1.3 -1.2
v 0.2 1.3 -1.3
v 0.2 1.5 1.2
v 0.2 1.5 1
v 0.2 1.5 -1.4
v 0.2 1.5 -1.5
v 0.2 1.6 1.2
v 0.2 1.6 -1.1
v 0.2 1.6 -1.2
v 0.2 1.7 1.3
v 0.2 1.7 1.2
v 0.2 1.7 0.1
v 0.2 1.7 0
v 0.2 1.7 -0.9
v 0.2 1.7 -1
v 0.2 1.7 -1.1
v 0.2 1.7 -1.3
v 0.2 1.7 -1.4
v 0.2 1.8 1.3
v 0.2 1.8 1.2
v 0.2 1.8 0.1
v 0.2 1.8 0
v 0.2 1.8 -0.9
v 0.2 1.8 -1
v 0.2 1.8 -1.1
v 0.2 1.8 -1.3
v 0.2 1.9 1.2
v 0.2 1.9 1.1
v 0.2 1.9 1
v 0.3 0.8 0
v 0.3 0.8 -0.1
v 0.3 0.8 -0.7
v 0.3 0.8 -0.9
v 0.3 0.9 0
v 0.3 0.9 -0.1
v 0.3 0.9 -0.7
v 0.3 0.9 -0.9
v 0.3 1.4 0.6
v 0.3 1.4 0.5
v 0.3 1.5 1
v 0.3 1.5 0.9
v 0.3 1.5 0.6
v 0.3 1.5 0.5
v 0.3 1.6 1
v 0.3 1.6 0.9
v 0.3 1.6 -1
v 0.3 1.6 -1.1
v 0.3 1.7 0
v 0.3 1.7 -0.9
v 0.3 1.7 -1
v 0.3 1.7 -1.1
v 0.3 1.8 0
v 0.3 1.8 -0.9
v 0.3 1.9 1.1
v 0.3 1.9 1
v 0.3 2 1.1
v 0.3 2 1
v 0.3 2 0.9
v 0.3 2.1 1
v 0.3 2.1 0.9
v 0.4 0.8 -0.1
v 0.4 0.8 -0.7
v 0.4 0.9 -0.1
v 0.4 0.9 -0.7
v 0.4 1.4 0.8
v 0.4 1.4 0.6
v 0.4 1.5 0.9
v 0.4 1.5 0.8
v 0.4 1.5 0.6
v 0.4 1.5 -1.1
v 0.4 1.5 -1.2
v 0.4 1.6 1.3
v 0.4 1.6 1.2
v 0.4 1.6 1
v 0.4 1.6 0.9
v 0.4 1.6 0.8
v 0.4 1.6 0.1
v 0.4 1.6 -1
v 0.4 1.6 -1.1
v 0.4 1.6 -1.2
v 0.4 1.7 1.3
v 0.4 1.7 1.2
v 0.4 1.7 0.2
v 0.4 1.7 0.1
v 0.4 1.7 -1
v 0.4 1.8 0.3
v 0.4 1.8 0.2
v 0.4 1.8 0.1
v 0.4 1.9 0.4
v 0.4 1.9 0.3
v 0.4 1.9 0.2
v 0.4 2 1
v 0.4 2 0.9
v 0.4 2 0.4
v 0.4 2 0.3
v 0.4 2.4 0.8
v 0.4 2.4 0.7
v 0.4 2.5 0.8
v 0.4 2.5 0.7
v 0.4 2.5 0.6
v 0.4 2.6 0.8
v 0.4 2.6 0.6
v 0.5 0 0.4
v 0.5 0 0.1
v 0.5 0 -0.9
v 0.5 0 -1.2
v 0.5 0.1 0.4
v 0.5 0.1 0.3
v 0.5 0.1 -0.9
v 0.5 0.1 -1
v 0.5 0.9 0.1
v 0.5 0.9 -0.9
v 0.5 0.9 -1
v 0.5 0.9 -1.1
v 0.5 0.9 -1.2
v 0.5 0.9 -1.3
v 0.5 1 -0.8
v 0.5 1 -0.9
v 0.5 1 -1.1
v 0.5 1 -1.2
v 0.5 1.1 0.1
v 0.5 1.1 -0.8
v 0.5 1.2 0.4
v 0.5 1.2 0.3
v 0.5 1.2 0.2
v 0.5 1.2 0.1
v 0.5 1.3 0.3
v 0.5 1.3 0.2
v 0.5 1.3 -1.1
v 0.5 1.3 -1.2
v 0.5 1.3 -1.3
v 0.5 1.4 0.5
v 0.5 1.4 0.4
v 0.5 1.5 1.3
v 0.5 1.5 1.2
v 0.5 1.5 0.8
v 0.5 1.5 0.5
v 0.5 1.5 0.4
v 0.5 1.5 0.3
v 0.5 1.5 -1
v 0.5 1.5 -1.1
v 0.5 1.5 -1.2
v 0.5 1.6 1.3
v 0.5 1.6 1.2
v 0.5 1.6 0.9
v 0.5 1.6 0.8
v 0.5 1.6 0.7
v 0.5 1.6 0.4
v 0.5 1.6 0.3
v 0.5 1.6 0.2
v 0.5 1.6 0.1
v 0.5 1.6 -1
v 0.5 1.6 -1.1
v 0.5 1.7 1.3
v 0.5 1.7 1.2
v 0.5 1.7 0.7
v 0.5 1.7 0.5
v 0.5 1.7 0.3
v 0.5 1.7 0.2
v 0.5 1.7 0.1
v 0.5 1.8 1.3
v 0.5 1.8 1.2
v 0.5 1.8 0.3
v 0.5 1.8 0.2
v 0.5 1.9 0.4
v 0.5 1.9 0.3
v 0.5 2 0.6
v 0.5 2 0.5
v 0.5 2.1 0.9
v 0.5 2.1 0.8
v 0.5 2.1 0.7
v 0.5 2.1 0.6
v 0.5 2.2 0.8
v 0.5 2.2 0.7
v 0.5 2.2 0.6
v 0.5 2.2 0.4
v 0.5 2.4 0.8
v 0.5 2.4 0.7
v 0.5 2.5 0.7
v 0.5 2.5 0.6
v 0.6 0.9 -0.9
v 0.6 0.9 -1.1
v 0.6 1 -0.8
v 0.6 1 -0.9
v 0.6 1 -1.1
v 0.6 1 -1.2
v 0.6 1.1 0.1
v 0.6 1.1 -0.8
v 0.6 1.2 0.2
v 0.6 1.2 0.1
v 0.6 1.3 0.3
v 0.6 1.3 0.2
v 0.6 1.3 -1.1
v 0.6 1.3 -1.2
v 0.6 1.5 0.4
v 0.6 1.5 0.3
v 0.6 1.5 -1
v 0.6 1.5 -1.1
v 0.6 1.6 0.8
v 0.6 1.6 0.7
v 0.6 1.6 0.4
v 0.6 1.6 0.3
v 0.6 1.6 0.2
v 0.6 1.6 -1
v 0.6 1.7 0.7
v 0.6 1.7 0.5
v 0.6 1.7 0.3
v 0.6 1.7 0.2
v 0.6 2 0.7
v 0.6 2 0.6
v 0.6 2 0.5
v 0.6 2.1 0.8
v 0.6 2.1 0.7
v 0.6 2.1 0.6
v 0.6 2.2 0.7
v 0.6 2.2 0.6
v -0.1 1.6 1.5
v -0.1 1.7 1.5
v -0.1 1.8 1.5
v 0.1 1.6 1.5
v 0.1 1.7 1.5
v 0.1 1.8 1.5
v -0.5 1.5 1.3
v -0.5 1.6 1.3
v -0.5 1.7 1.3
v -0.5 1.8 1.3
v -0.4 1.6 1.3
v -0.4 1.7 1.3
v -0.3 1.5 1.3
v -0.3 1.6 1.3
v -0.3 1.7 1.3
v -0.3 1.8 1.3
v -0.2 1.7 1.3
v -0.2 1.8 1.3
v -0.1 1.5 1.3
v -0.1 1.6 1.3
v -0.1 1.7 1.3
v -0.1 1.8 1.3
v -0.1 1.9 1.3
v 0.1 1.5 1.3
v 0.1 1.6 1.3
v 0.1 1.7 1.3
v 0.1 1.8 1.3
v 0.1 1.9 1.3
v 0.2 1.7 1.3
v 0.2 1.8 1.3
v 0.3 1.5 1.3
v 0.3 1.6 1.3
v 0.3 1.7 1.3
v 0.3 1.8 1.3
v 0.4 1.6 1.3
v 0.4 1.7 1.3
v 0.5 1.5 1.3
v 0.5 1.6 1.3
v 0.5 1.7 1.3
v 0.5 1.8 1.3
v -0.2 1.5 1.2
v -0.2 1.6 1.2
v -0.2 1.8 1.2
v -0.2 1.9 1.2
v -0.1 1.5 1.2
v -0.1 1.6 1.2
v -0.1 1.8 1.2
v -0.1 1.9 1.2
v 0.1 1.5 1.2
v 0.1 1.6 1.2
v 0.1 1.8 1.2
v 0.1 1.9 1.2
v 0.2 1.5 1.2
v 0.2 1.6 1.2
v 0.2 1.8 1.2
v 0.2 1.9 1.2
v -0.3 1.9 1.1
v -0.3 2 1.1
v -0.2 1.9 1.1
v -0.2 2 1.1
v 0.2 1.9 1.1
v 0.2 2 1.1
v 0.3 1.9 1.1
v 0.3 2 1.1
v -0.4 1.6 1
v -0.4 2 1
v -0.3 1.5 1
v -0.3 1.6 1
v -0.3 1.9 1
v -0.3 2 1
v -0.3 2.1 1
v -0.2 1.5 1
v -0.2 1.9 1
v -0.2 2 1
v 0.2 1.5 1
v 0.2 1.9 1
v 0.2 2 1
v 0.3 1.5 1
v 0.3 1.6 1
v 0.3 1.9 1
v 0.3 2 1
v 0.3 2.1 1
v 0.4 1.6 1
v 0.4 2 1
v -0.5 1.6 0.9
v -0.5 2.1 0.9
v -0.4 1.5 0.9
v -0.4 1.6 0.9
v -0.4 2 0.9
v -0.3 1.5 0.9
v -0.3 1.6 0.9
v -0.3 2 0.9
v -0.3 2.1 0.9
v 0.3 1.5 0.9
v 0.3 1.6 0.9
v 0.3 2 0.9
v 0.3 2.1 0.9
v 0.4 1.5 0.9
v 0.4 1.6 0.9
v 0.4 2 0.9
v 0.5 1.6 0.9
v 0.5 2.1 0.9
v -0.6 1.6 0.8
v -0.6 2.1 0.8
v -0.5 1.5 0.8
v -0.5 1.6 0.8
v -0.5 2.1 0.8
v -0.5 2.2 0.8
v -0.5 2.4 0.8
v -0.4 1.4 0.8
v -0.4 1.5 0.8
v -0.4 1.6 0.8
v -0.4 2.1 0.8
v -0.4 2.2 0.8
v -0.4 2.4 0.8
v -0.4 2.5 0.8
v -0.4 2.6 0.8
v -0.3 2.3 0.8
v -0.3 2.4 0.8
v -0.3 2.5 0.8
v -0.3 2.6 0.8
v -0.2 2.2 0.8
v -0.2 2.3 0.8
v -0.1 2.2 0.8
v -0.1 2.3 0.8
v 0.1 2.2 0.8
v 0.1 2.3 0.8
v 0.2 2.2 0.8
v 0.2 2.3 0.8
v 0.3 2.3 0.8
v 0.3 2.4 0.8
v 0.3 2.5 0.8
v 0.3 2.6 0.8
v 0.4 1.4 0.8
v 0.4 1.5 0.8
v 0.4 1.6 0.8
v 0.4 2.1 0.8
v 0.4 2.2 0.8
v 0.4 2.4 0.8
v 0.4 2.5 0.8
v 0.4 2.6 0.8
v 0.5 1.5 0.8
v 0.5 1.6 0.8
v 0.5 2.1 0.8
v 0.5 2.2 0.8
v 0.5 2.4 0.8
v 0.6 1.6 0.8
v 0.6 2.1 0.8
v -0.6 2.1 0.7
v -0.6 2.2 0.7
v -0.5 2.1 0.7
v -0.5 2.2 0.7
v -0.5 2.4 0.7
v -0.5 2.5 0.7
v -0.4 2.4 0.7
v -0.4 2.5 0.7
v -0.3 2.3 0.7
v -0.3 2.4 0.7
v -0.3 2.5 0.7
v -0.2 2.3 0.7
v -0.2 2.4 0.7
v -0.2 2.5 0.7
v -0.1 2.3 0.7
v -0.1 2.4 0.7
v 0.1 2.3 0.7
v 0.1 2.4 0.7
v 0.2 2.3 0.7
v 0.2 2.4 0.7
v 0.2 2.5 0.7
v 0.3 2.3 0.7
v 0.3 2.4 0.7
v 0.3 2.5 0.7
v 0.4 2.4 0.7
v 0.4 2.5 0.7
v 0.5 2.1 0.7
v 0.5 2.2 0.7
v 0.5 2.4 0.7
v 0.5 2.5 0.7
v 0.6 2.1 0.7
v 0.6 2.2 0.7
v -0.5 1.4 0.5
v -0.5 1.5 0.5
v -0.3 1.4 0.5
v -0.3 1.5 0.5
v 0.3 1.4 0.5
v 0.3 1.5 0.5
v 0.5 1.4 0.5
v 0.5 1.5 0.5
v -0.6 1.5 0.4
v -0.6 1.6 0.4
v -0.5 0 0.4
v -0.5 0.1 0.4
v -0.5 1.2 0.4
v -0.5 1.4 0.4
v -0.5 1.5 0.4
v -0.5 1.6 0.4
v -0.3 0 0.4
v -0.3 0.1 0.4
v 0.3 0 0.4
v 0.3 0.1 0.4
v 0.5 0 0.4
v 0.5 0.1 0.4
v 0.5 1.2 0.4
v 0.5 1.4 0.4
v 0.5 1.5 0.4
v 0.5 1.6 0.4
v 0.6 1.5 0.4
v 0.6 1.6 0.4
v -0.6 1.3 0.3
v -0.6 1.5 0.3
v -0.6 1.6 0.3
v -0.6 1.7 0.3
v -0.5 0.1 0.3
v -0.5 1.2 0.3
v -0.5 1.3 0.3
v -0.5 1.5 0.3
v -0.5 1.6 0.3
v -0.5 1.7 0.3
v -0.3 0.1 0.3
v -0.3 1 0.3
v 0.3 0.1 0.3
v 0.3 1 0.3
v 0.5 0.1 0.3
v 0.5 1.2 0.3
v 0.5 1.3 0.3
v 0.5 1.5 0.3
v 0.5 1.6 0.3
v 0.5 1.7 0.3
v 0.6 1.3 0.3
v 0.6 1.5 0.3
v 0.6 1.6 0.3
v 0.6 1.7 0.3
v -0.6 1.2 0.2
v -0.6 1.3 0.2
v -0.5 1.2 0.2
v -0.5 1.3 0.2
v 0.5 1.2 0.2
v 0.5 1.3 0.2
v 0.6 1.2 0.2
v 0.6 1.3 0.2
v -0.6 1.1 0.1
v -0.6 1.2 0.1
v -0.5 1.1 0.1
v -0.5 1.2 0.1
v -0.3 0.9 0.1
v -0.3 1 0.1
v 0.3 0.9 0.1
v 0.3 1 0.1
v 0.5 1.1 0.1
v 0.5 1.2 0.1
v 0.6 1.1 0.1
v 0.6 1.2 0.1
v -0.3 0.8 0
v -0.3 0.9 0
v -0.3 1.7 0
v -0.3 1.8 0
v -0.2 1.7 0
v -0.2 1.8 0
v 0.2 1.7 0
v 0.2 1.8 0
v 0.3 0.8 0
v 0.3 0.9 0
v 0.3 1.7 0
v 0.3 1.8 0
v -0.4 0.8 -0.1
v -0.4 0.9 -0.1
v -0.3 0.8 -0.1
v -0.3 0.9 -0.1
v 0.3 0.8 -0.1
v 0.3 0.9 -0.1
v 0.4 0.8 -0.1
v 0.4 0.9 -0.1
v -0.6 1 -0.8
v -0.6 1.1 -0.8
v -0.5 1 -0.8
v -0.5 1.1 -0.8
v 0.5 1 -0.8
v 0.5 1.1 -0.8
v 0.6 1 -0.8
v 0.6 1.1 -0.8
v -0.6 0.9 -0.9
v -0.6 1 -0.9
v -0.5 0 -0.9
v -0.5 0.1 -0.9
v -0.5 0.9 -0.9
v -0.5 1 -0.9
v -0.3 0 -0.9
v -0.3 0.1 -0.9
v 0.3 0 -0.9
v 0.3 0.1 -0.9
v 0.5 0 -0.9
v 0.5 0.1 -0.9
v 0.5 0.9 -0.9
v 0.5 1 -0.9
v 0.6 0.9 -0.9
v 0.6 1 -0.9
v -0.5 0.1 -1
v -0.5 0.9 -1
v -0.3 0.1 -1
v -0.3 0.9 -1
v 0.3 0.1 -1
v 0.3 0.9 -1
v 0.5 0.1 -1
v 0.5 0.9 -1
v -0.2 1.7 -1.1
v -0.2 1.8 -1.1
v 0.2 1.7 -1.1
v 0.2 1.8 -1.1
v -0.2 0.7 -1.2
v -0.2 0.8 -1.2
v -0.2 0.9 -1.2
v -0.2 1 -1.2
v -0.1 0.6 -1.2
v -0.1 0.7 -1.2
v -0.1 0.8 -1.2
v -0.1 0.9 -1.2
v 0.1 0.6 -1.2
v 0.1 0.7 -1.2
v 0.1 0.8 -1.2
v 0.1 0.9 -1.2
v 0.2 0.7 -1.2
v 0.2 0.8 -1.2
v 0.2 0.9 -1.2
v 0.2 1 -1.2
v -0.5 1.5 1.2
v -0.5 1.6 1.2
v -0.5 1.7 1.2
v -0.5 1.8 1.2
v -0.4 1.6 1.2
v -0.4 1.7 1.2
v -0.3 1.5 1.2
v -0.3 1.6 1.2
v -0.3 1.7 1.2
v -0.3 1.8 1.2
v -0.2 1.6 1.2
v -0.2 1.7 1.2
v 0.2 1.6 1.2
v 0.2 1.7 1.2
v 0.3 1.5 1.2
v 0.3 1.6 1.2
v 0.3 1.7 1.2
v 0.3 1.8 1.2
v 0.4 1.6 1.2
v 0.4 1.7 1.2
v 0.5 1.5 1.2
v 0.5 1.6 1.2
v 0.5 1.7 1.2
v 0.5 1.8 1.2
v 0.5 1.6 0.7
v 0.5 1.7 0.7
v 0.6 1.6 0.7
v 0.6 1.7 0.7
v -0.6 1.6 0.6
v -0.6 1.7 0.6
v -0.6 2 0.6
v -0.6 2.1 0.6
v -0.6 2.2 0.6
v -0.5 1.6 0.6
v -0.5 1.7 0.6
v -0.5 2 0.6
v -0.5 2.1 0.6
v -0.5 2.2 0.6
v -0.5 2.5 0.6
v -0.4 1.4 0.6
v -0.4 1.5 0.6
v -0.4 2.2 0.6
v -0.4 2.4 0.6
v -0.4 2.5 0.6
v -0.4 2.6 0.6
v -0.3 1.4 0.6
v -0.3 1.5 0.6
v -0.3 2.5 0.6
v -0.3 2.6 0.6
v -0.2 2.2 0.6
v -0.2 2.4 0.6
v -0.2 2.5 0.6
v -0.1 2.2 0.6
v -0.1 2.4 0.6
v 0.1 2.2 0.6
v 0.1 2.4 0.6
v 0.2 2.2 0.6
v 0.2 2.4 0.6
v 0.2 2.5 0.6
v 0.3 1.4 0.6
v 0.3 1.5 0.6
v 0.3 2.5 0.6
v 0.3 2.6 0.6
v 0.4 1.4 0.6
v 0.4 1.5 0.6
v 0.4 2.2 0.6
v 0.4 2.4 0.6
v 0.4 2.5 0.6
v 0.4 2.6 0.6
v 0.5 2 0.6
v 0.5 2.1 0.6
v 0.5 2.2 0.6
v 0.5 2.5 0.6
v 0.6 2 0.6
v 0.6 2.1 0.6
v 0.6 2.2 0.6
v -0.6 1.7 0.5
v -0.6 2 0.5
v -0.5 1.7 0.5
v -0.5 2 0.5
v 0.5 1.7 0.5
v 0.5 2 0.5
v 0.6 1.7 0.5
v 0.6 2 0.5
v -0.5 1.9 0.4
v -0.5 2.2 0.4
v -0.4 1.9 0.4
v -0.4 2 0.4
v 0.4 1.9 0.4
v 0.4 2 0.4
v 0.5 1.9 0.4
v 0.5 2.2 0.4
v -0.5 1.8 0.3
v -0.5 1.9 0.3
v -0.4 1.8 0.3
v -0.4 1.9 0.3
v -0.4 2 0.3
v 0.4 1.8 0.3
v 0.4 1.9 0.3
v 0.4 2 0.3
v 0.5 1.8 0.3
v 0.5 1.9 0.3
v -0.6 1.6 0.2
v -0.6 1.7 0.2
v -0.5 1.6 0.2
v -0.5 1.7 0.2
v -0.5 1.8 0.2
v -0.4 1.7 0.2
v -0.4 1.8 0.2
v -0.4 1.9 0.2
v 0.4 1.7 0.2
v 0.4 1.8 0.2
v 0.4 1.9 0.2
v 0.5 1.6 0.2
v 0.5 1.7 0.2
v 0.5 1.8 0.2
v 0.6 1.6 0.2
v 0.6 1.7 0.2
v -0.5 0 0.1
v -0.5 0.9 0.1
v -0.5 1.6 0.1
v -0.5 1.7 0.1
v -0.4 1.6 0.1
v -0.4 1.7 0.1
v -0.4 1.8 0.1
v -0.3 0 0.1
v -0.3 0.9 0.1
v -0.2 1.7 0.1
v -0.2 1.8 0.1
v 0.2 1.7 0.1
v 0.2 1.8 0.1
v 0.3 0 0.1
v 0.3 0.9 0.1
v 0.4 1.6 0.1
v 0.4 1.7 0.1
v 0.4 1.8 0.1
v 0.5 0 0.1
v 0.5 0.9 0.1
v 0.5 1.6 0.1
v 0.5 1.7 0.1
v -0.4 0.8 -0.7
v -0.4 0.9 -0.7
v -0.3 0.8 -0.7
v -0.3 0.9 -0.7
v 0.3 0.8 -0.7
v 0.3 0.9 -0.7
v 0.4 0.8 -0.7
v 0.4 0.9 -0.7
v -0.3 0.8 -0.9
v -0.3 0.9 -0.9
v -0.3 1.7 -0.9
v -0.3 1.8 -0.9
v -0.2 1.7 -0.9
v -0.2 1.8 -0.9
v 0.2 1.7 -0.9
v 0.2 1.8 -0.9
v 0.3 0.8 -0.9
v 0.3 0.9 -0.9
v 0.3 1.7 -0.9
v 0.3 1.8 -0.9
v -0.6 1.5 -1
v -0.6 1.6 -1
v -0.5 1.5 -1
v -0.5 1.6 -1
v -0.4 1.6 -1
v -0.4 1.7 -1
v -0.3 0.9 -1
v -0.3 1 -1
v -0.3 1.6 -1
v -0.3 1.7 -1
v -0.2 1.7 -1
v -0.2 1.8 -1
v 0.2 1.7 -1
v 0.2 1.8 -1
v 0.3 0.9 -1
v 0.3 1 -1
v 0.3 1.6 -1
v 0.3 1.7 -1
v 0.4 1.6 -1
v 0.4 1.7 -1
v 0.5 1.5 -1
v 0.5 1.6 -1
v 0.6 1.5 -1
v 0.6 1.6 -1
v -0.6 0.9 -1.1
v -0.6 1 -1.1
v -0.6 1.3 -1.1
v -0.6 1.5 -1.1
v -0.5 0.9 -1.1
v -0.5 1 -1.1
v -0.5 1.3 -1.1
v -0.5 1.5 -1.1
v -0.5 1.6 -1.1
v -0.4 1.5 -1.1
v -0.4 1.6 -1.1
v -0.3 1.6 -1.1
v -0.3 1.7 -1.1
v -0.2 1.6 -1.1
v -0.2 1.7 -1.1
v 0.2 1.6 -1.1
v 0.2 1.7 -1.1
v 0.3 1.6 -1.1
v 0.3 1.7 -1.1
v 0.4 1.5 -1.1
v 0.4 1.6 -1.1
v 0.5 0.9 -1.1
v 0.5 1 -1.1
v 0.5 1.3 -1.1
v 0.5 1.5 -1.1
v 0.5 1.6 -1.1
v 0.6 0.9 -1.1
v 0.6 1 -1.1
v 0.6 1.3 -1.1
v 0.6 1.5 -1.1
v -0.6 1 -1.2
v -0.6 1.3 -1.2
v -0.5 0 -1.2
v -0.5 0.9 -1.2
v -0.5 1 -1.2
v -0.5 1.3 -1.2
v -0.5 1.5 -1.2
v -0.4 1.5 -1.2
v -0.4 1.6 -1.2
v -0.3 0 -1.2
v -0.3 0.9 -1.2
v -0.2 1.3 -1.2
v -0.2 1.6 -1.2
v 0.2 1.3 -1.2
v 0.2 1.6 -1.2
v 0.3 0 -1.2
v 0.3 0.9 -1.2
v 0.4 1.5 -1.2
v 0.4 1.6 -1.2
v 0.5 0 -1.2
v 0.5 0.9 -1.2
v 0.5 1 -1.2
v 0.5 1.3 -1.2
v 0.5 1.5 -1.2
v 0.6 1 -1.2
v 0.6 1.3 -1.2
v -0.5 0.9 -1.3
v -0.5 1.3 -1.3
v -0.3 0.9 -1.3
v -0.3 1 -1.3
v -0.2 1 -1.3
v -0.2 1.3 -1.3
v -0.2 1.7 -1.3
v -0.2 1.8 -1.3
v 0.2 1 -1.3
v 0.2 1.3 -1.3
v 0.2 1.7 -1.3
v 0.2 1.8 -1.3
v 0.3 0.9 -1.3
v 0.3 1 -1.3
v 0.5 0.9 -1.3
v 0.5 1.3 -1.3
v -0.2 0.7 -1.4
v -0.2 0.8 -1.4
v -0.2 0.9 -1.4
v -0.2 1.5 -1.4
v -0.2 1.7 -1.4
v -0.1 0.6 -1.4
v -0.1 0.7 -1.4
v -0.1 0.8 -1.4
v -0.1 0.9 -1.4
v -0.1 1.5 -1.4
v -0.1 1.6 -1.4
v 0.1 0.6 -1.4
v 0.1 0.7 -1.4
v 0.1 0.8 -1.4
v 0.1 0.9 -1.4
v 0.1 1.5 -1.4
v 0.1 1.6 -1.4
v 0.2 0.7 -1.4
v 0.2 0.8 -1.4
v 0.2 0.9 -1.4
v 0.2 1.5 -1.4
v 0.2 1.7 -1.4
v -0.2 0.9 -1.5
v -0.2 1 -1.5
v -0.2 1.1 -1.5
v -0.2 1.5 -1.5
v -0.1 0.8 -1.5
v -0.1 0.9 -1.5
v -0.1 1 -1.5
v -0.1 1.1 -1.5
v -0.1 1.5 -1.5
v -0.1 1.6 -1.5
v 0.1 0.8 -1.5
v 0.1 0.9 -1.5
v 0.1 1 -1.5
v 0.1 1.1 -1.5
v 0.1 1.5 -1.5
v 0.1 1.6 -1.5
v 0.2 0.9 -1.5
v 0.2 1 -1.5
v 0.2 1.1 -1.5
v 0.2 1.5 -1.5
v -0.5 0 0.4
v -0.3 0 0.4
v 0.3 0 0.4
v 0.5 0 0.4
v -0.5 0 0.1
v -0.3 0 0.1
v 0.3 0 0.1
v 0.5 0 0.1
v -0.5 0 -0.9
v -0.3 0 -0.9
v 0.3 0 -0.9
v 0.5 0 -0.9
v -0.5 0 -1.2
v -0.3 0 -1.2
v 0.3 0 -1.2
v 0.5 0 -1.2
v -0.1 0.6 -1.2
v 0.1 0.6 -1.2
v -0.1 0.6 -1.4
v 0.1 0.6 -1.4
v -0.2 0.7 -1.2
v -0.1 0.7 -1.2
v 0.1 0.7 -1.2
v 0.2 0.7 -1.2
v -0.2 0.7 -1.4
v -0.1 0.7 -1.4
v 0.1 0.7 -1.4
v 0.2 0.7 -1.4
v -0.3 0.8 0
v 0.3 0.8 0
v -0.4 0.8 -0.1
v -0.3 0.8 -0.1
v 0.3 0.8 -0.1
v 0.4 0.8 -0.1
v -0.4 0.8 -0.7
v -0.3 0.8 -0.7
v 0.3 0.8 -0.7
v 0.4 0.8 -0.7
v -0.3 0.8 -0.9
v 0.3 0.8 -0.9
v -0.1 0.8 -1.4
v 0.1 0.8 -1.4
v -0.1 0.8 -1.5
v 0.1 0.8 -1.5
v -0.5 0.9 0.1
v -0.3 0.9 0.1
v 0.3 0.9 0.1
v 0.5 0.9 0.1
v -0.3 0.9 0
v 0.3 0.9 0
v -0.4 0.9 -0.1
v -0.3 0.9 -0.1
v 0.3 0.9 -0.1
v 0.4 0.9 -0.1
v -0.4 0.9 -0.7
v -0.3 0.9 -0.7
v 0.3 0.9 -0.7
v 0.4 0.9 -0.7
v -0.6 0.9 -0.9
v -0.5 0.9 -0.9
v -0.3 0.9 -0.9
v 0.3 0.9 -0.9
v 0.5 0.9 -0.9
v 0.6 0.9 -0.9
v -0.5 0.9 -1
v -0.3 0.9 -1
v 0.3 0.9 -1
v 0.5 0.9 -1
v -0.6 0.9 -1.1
v -0.5 0.9 -1.1
v 0.5 0.9 -1.1
v 0.6 0.9 -1.1
v -0.5 0.9 -1.2
v -0.3 0.9 -1.2
v 0.3 0.9 -1.2
v 0.5 0.9 -1.2
v -0.5 0.9 -1.3
v -0.3 0.9 -1.3
v 0.3 0.9 -1.3
v 0.5 0.9 -1.3
v -0.2 0.9 -1.4
v -0.1 0.9 -1.4
v 0.1 0.9 -1.4
v 0.2 0.9 -1.4
v -0.2 0.9 -1.5
v -0.1 0.9 -1.5
v 0.1 0.9 -1.5
v 0.2 0.9 -1.5
v -0.3 1 0.3
v 0.3 1 0.3
v -0.3 1 0.1
v 0.3 1 0.1
v -0.6 1 -0.8
v -0.5 1 -0.8
v 0.5 1 -0.8
v 0.6 1 -0.8
v -0.6 1 -0.9
v -0.5 1 -0.9
v 0.5 1 -0.9
v 0.6 1 -0.9
v -0.3 1 -1
v 0.3 1 -1
v -0.6 1 -1.1
v -0.5 1 -1.1
v 0.5 1 -1.1
v 0.6 1 -1.1
v -0.6 1 -1.2
v -0.5 1 -1.2
v -0.2 1 -1.2
v 0.2 1 -1.2
v 0.5 1 -1.2
v 0.6 1 -1.2
v -0.3 1 -1.3
v -0.2 1 -1.3
v 0.2 1 -1.3
v 0.3 1 -1.3
v -0.6 1.1 0.1
v -0.5 1.1 0.1
v 0.5 1.1 0.1
v 0.6 1.1 0.1
v -0.6 1.1 -0.8
v -0.5 1.1 -0.8
v 0.5 1.1 -0.8
v 0.6 1.1 -0.8
v -0.5 1.2 0.4
v 0.5 1.2 0.4
v -0.5 1.2 0.3
v 0.5 1.2 0.3
v -0.6 1.2 0.2
v -0.5 1.2 0.2
v 0.5 1.2 0.2
v 0.6 1.2 0.2
v -0.6 1.2 0.1
v -0.5 1.2 0.1
v 0.5 1.2 0.1
v 0.6 1.2 0.1
v -0.6 1.3 0.3
v -0.5 1.3 0.3
v 0.5 1.3 0.3
v 0.6 1.3 0.3
v -0.6 1.3 0.2
v -0.5 1.3 0.2
v 0.5 1.3 0.2
v 0.6 1.3 0.2
v -0.4 1.4 0.8
v 0.4 1.4 0.8
v -0.4 1.4 0.6
v -0.3 1.4 0.6
v 0.3 1.4 0.6
v 0.4 1.4 0.6
v -0.5 1.4 0.5
v -0.3 1.4 0.5
v 0.3 1.4 0.5
v 0.5 1.4 0.5
v -0.5 1.4 0.4
v 0.5 1.4 0.4
v -0.5 1.5 1.3
v -0.3 1.5 1.3
v -0.1 1.5 1.3
v 0.1 1.5 1.3
v 0.3 1.5 1.3
v 0.5 1.5 1.3
v -0.5 1.5 1.2
v -0.3 1.5 1.2
v -0.2 1.5 1.2
v -0.1 1.5 1.2
v 0.1 1.5 1.2
v 0.2 1.5 1.2
v 0.3 1.5 1.2
v 0.5 1.5 1.2
v -0.3 1.5 1
v -0.2 1.5 1
v 0.2 1.5 1
v 0.3 1.5 1
v -0.4 1.5 0.9
v -0.3 1.5 0.9
v 0.3 1.5 0.9
v 0.4 1.5 0.9
v -0.5 1.5 0.8
v -0.4 1.5 0.8
v 0.4 1.5 0.8
v 0.5 1.5 0.8
v -0.4 1.5 0.6
v -0.3 1.5 0.6
v 0.3 1.5 0.6
v 0.4 1.5 0.6
v -0.5 1.5 0.5
v -0.3 1.5 0.5
v 0.3 1.5 0.5
v 0.5 1.5 0.5
v -0.6 1.5 0.4
v -0.5 1.5 0.4
v 0.5 1.5 0.4
v 0.6 1.5 0.4
v -0.6 1.5 0.3
v -0.5 1.5 0.3
v 0.5 1.5 0.3
v 0.6 1.5 0.3
v -0.1 1.6 1.5
v 0.1 1.6 1.5
v -0.3 1.6 1.3
v -0.1 1.6 1.3
v 0.1 1.6 1.3
v 0.3 1.6 1.3
v -0.3 1.6 1.2
v -0.2 1.6 1.2
v -0.1 1.6 1.2
v 0.1 1.6 1.2
v 0.2 1.6 1.2
v 0.3 1.6 1.2
v -0.4 1.6 1
v -0.3 1.6 1
v 0.3 1.6 1
v 0.4 1.6 1
v -0.5 1.6 0.9
v -0.4 1.6 0.9
v -0.3 1.6 0.9
v 0.3 1.6 0.9
v 0.4 1.6 0.9
v 0.5 1.6 0.9
v -0.6 1.6 0.8
v -0.5 1.6 0.8
v -0.4 1.6 0.8
v 0.4 1.6 0.8
v 0.5 1.6 0.8
v 0.6 1.6 0.8
v 0.5 1.6 0.7
v 0.6 1.6 0.7
v -0.6 1.6 0.6
v -0.5 1.6 0.6
v -0.5 1.7 1.3
v -0.4 1.7 1.3
v 0.4 1.7 1.3
v 0.5 1.7 1.3
v -0.5 1.7 1.2
v -0.4 1.7 1.2
v 0.4 1.7 1.2
v 0.5 1.7 1.2
v 0.5 1.7 0.7
v 0.6 1.7 0.7
v -0.6 1.7 0.6
v -0.5 1.7 0.6
v -0.6 1.7 0.5
v -0.5 1.7 0.5
v 0.5 1.7 0.5
v 0.6 1.7 0.5
v -0.3 1.9 1.1
v -0.2 1.9 1.1
v 0.2 1.9 1.1
v 0.3 1.9 1.1
v -0.3 1.9 1
v -0.2 1.9 1
v 0.2 1.9 1
v 0.3 1.9 1
v -0.5 0.1 0.4
v -0.3 0.1 0.4
v 0.3 0.1 0.4
v 0.5 0.1 0.4
v -0.5 0.1 0.3
v -0.3 0.1 0.3
v 0.3 0.1 0.3
v 0.5 0.1 0.3
v -0.5 0.1 -0.9
v -0.3 0.1 -0.9
v 0.3 0.1 -0.9
v 0.5 0.1 -0.9
v -0.5 0.1 -1
v -0.3 0.1 -1
v 0.3 0.1 -1
v 0.5 0.1 -1
v -0.6 1.3 -1.1
v -0.5 1.3 -1.1
v 0.5 1.3 -1.1
v 0.6 1.3 -1.1
v -0.6 1.3 -1.2
v -0.5 1.3 -1.2
v -0.2 1.3 -1.2
v 0.2 1.3 -1.2
v 0.5 1.3 -1.2
v 0.6 1.3 -1.2
v -0.5 1.3 -1.3
v -0.2 1.3 -1.3
v 0.2 1.3 -1.3
v 0.5 1.3 -1.3
v -0.6 1.5 -1
v -0.5 1.5 -1
v 0.5 1.5 -1
v 0.6 1.5 -1
v -0.6 1.5 -1.1
v -0.5 1.5 -1.1
v -0.4 1.5 -1.1
v 0.4 1.5 -1.1
v 0.5 1.5 -1.1
v 0.6 1.5 -1.1
v -0.5 1.5 -1.2
v -0.4 1.5 -1.2
v 0.4 1.5 -1.2
v 0.5 1.5 -1.2
v -0.2 1.5 -1.4
v -0.1 1.5 -1.4
v 0.1 1.5 -1.4
v 0.2 1.5 -1.4
v -0.2 1.5 -1.5
v -0.1 1.5 -1.5
v 0.1 1.5 -1.5
v 0.2 1.5 -1.5
v -0.5 1.6 1.3
v -0.4 1.6 1.3
v 0.4 1.6 1.3
v 0.5 1.6 1.3
v -0.5 1.6 1.2
v -0.4 1.6 1.2
v 0.4 1.6 1.2
v 0.5 1.6 1.2
v -0.6 1.6 0.4
v -0.5 1.6 0.4
v 0.5 1.6 0.4
v 0.6 1.6 0.4
v -0.6 1.6 0.3
v -0.5 1.6 0.3
v 0.5 1.6 0.3
v 0.6 1.6 0.3
v -0.6 1.6 0.2
v -0.5 1.6 0.2
v 0.5 1.6 0.2
v 0.6 1.6 0.2
v -0.5 1.6 0.1
v -0.4 1.6 0.1
v 0.4 1.6 0.1
v 0.5 1.6 0.1
v -0.6 1.6 -1
v -0.5 1.6 -1
v -0.4 1.6 -1
v -0.3 1.6 -1
v 0.3 1.6 -1
v 0.4 1.6 -1
v 0.5 1.6 -1
v 0.6 1.6 -1
v -0.5 1.6 -1.1
v -0.4 1.6 -1.1
v -0.3 1.6 -1.1
v -0.2 1.6 -1.1
v 0.2 1.6 -1.1
v 0.3 1.6 -1.1
v 0.4 1.6 -1.1
v 0.5 1.6 -1.1
v -0.4 1.6 -1.2
v -0.2 1.6 -1.2
v 0.2 1.6 -1.2
v 0.4 1.6 -1.2
v -0.1 1.6 -1.4
v 0.1 1.6 -1.4
v -0.1 1.6 -1.5
v 0.1 1.6 -1.5
v -0.3 1.7 1.3
v -0.2 1.7 1.3
v 0.2 1.7 1.3
v 0.3 1.7 1.3
v -0.3 1.7 1.2
v -0.2 1.7 1.2
v 0.2 1.7 1.2
v 0.3 1.7 1.2
v -0.6 1.7 0.3
v -0.5 1.7 0.3
v 0.5 1.7 0.3
v 0.6 1.7 0.3
v -0.6 1.7 0.2
v -0.5 1.7 0.2
v -0.4 1.7 0.2
v 0.4 1.7 0.2
v 0.5 1.7 0.2
v 0.6 1.7 0.2
v -0.5 1.7 0.1
v -0.4 1.7 0.1
v -0.2 1.7 0.1
v 0.2 1.7 0.1
v 0.4 1.7 0.1
v 0.5 1.7 0.1
v -0.3 1.7 0
v -0.2 1.7 0
v 0.2 1.7 0
v 0.3 1.7 0
v -0.3 1.7 -0.9
v -0.2 1.7 -0.9
v 0.2 1.7 -0.9
v 0.3 1.7 -0.9
v -0.4 1.7 -1
v -0.3 1.7 -1
v -0.2 1.7 -1
v 0.2 1.7 -1
v 0.3 1.7 -1
v 0.4 1.7 -1
v -0.3 1.7 -1.1
v -0.2 1.7 -1.1
v 0.2 1.7 -1.1
v 0.3 1.7 -1.1
v -0.2 1.7 -1.3
v 0.2 1.7 -1.3
v -0.2 1.7 -1.4
v 0.2 1.7 -1.4
v -0.1 1.8 1.5
v 0.1 1.8 1.5
v -0.1 1.8 1.4
v 0.1 1.8 1.4
v -0.5 1.8 1.3
v -0.3 1.8 1.3
v -0.2 1.8 1.3
v -0.1 1.8 1.3
v 0.1 1.8 1.3
v 0.2 1.8 1.3
v 0.3 1.8 1.3
v 0.5 1.8 1.3
v -0.5 1.8 1.2
v -0.3 1.8 1.2
v -0.2 1.8 1.2
v -0.1 1.8 1.2
v 0.1 1.8 1.2
v 0.2 1.8 1.2
v 0.3 1.8 1.2
v 0.5 1.8 1.2
v -0.5 1.8 0.3
v -0.4 1.8 0.3
v 0.4 1.8 0.3
v 0.5 1.8 0.3
v -0.5 1.8 0.2
v -0.4 1.8 0.2
v 0.4 1.8 0.2
v 0.5 1.8 0.2
v -0.4 1.8 0.1
v -0.2 1.8 0.1
v 0.2 1.8 0.1
v 0.4 1.8 0.1
v -0.3 1.8 0
v -0.2 1.8 0
v 0.2 1.8 0
v 0.3 1.8 0
v -0.3 1.8 -0.9
v -0.2 1.8 -0.9
v 0.2 1.8 -0.9
v 0.3 1.8 -0.9
v -0.2 1.8 -1
v 0.2 1.8 -1
v -0.2 1.8 -1.1
v 0.2 1.8 -1.1
v -0.2 1.8 -1.3
v 0.2 1.8 -1.3
v -0.1 1.9 1.3
v 0.1 1.9 1.3
v -0.2 1.9 1.2
v -0.1 1.9 1.2
v 0.1 1.9 1.2
v 0.2 1.9 1.2
v -0.2 1.9 1.1
v 0.2 1.9 1.1
v -0.2 1.9 1
v 0.2 1.9 1
v -0.5 1.9 0.4
v -0.4 1.9 0.4
v 0.4 1.9 0.4
v 0.5 1.9 0.4
v -0.5 1.9 0.3
v -0.4 1.9 0.3
v 0.4 1.9 0.3
v 0.5 1.9 0.3
v -0.4 1.9 0.2
v 0.4 1.9 0.2
v -0.3 2 1.1
v -0.2 2 1.1
v 0.2 2 1.1
v 0.3 2 1.1
v -0.4 2 1
v -0.3 2 1
v -0.2 2 1
v 0.2 2 1
v 0.3 2 1
v 0.4 2 1
v -0.4 2 0.9
v -0.3 2 0.9
v 0.3 2 0.9
v 0.4 2 0.9
v -0.6 2 0.6
v -0.5 2 0.6
v 0.5 2 0.6
v 0.6 2 0.6
v -0.6 2 0.5
v -0.5 2 0.5
v 0.5 2 0.5
v 0.6 2 0.5
v -0.4 2 0.4
v 0.4 2 0.4
v -0.4 2 0.3
v 0.4 2 0.3
v -0.3 2.1 1
v 0.3 2.1 1
v -0.5 2.1 0.9
v -0.3 2.1 0.9
v 0.3 2.1 0.9
v 0.5 2.1 0.9
v -0.6 2.1 0.8
v -0.5 2.1 0.8
v -0.4 2.1 0.8
v 0.4 2.1 0.8
v 0.5 2.1 0.8
v 0.6 2.1 0.8
v -0.6 2.1 0.7
v -0.5 2.1 0.7
v 0.5 2.1 0.7
v 0.6 2.1 0.7
v -0.1 2.2 0.8
v 0.1 2.2 0.8
v -0.6 2.2 0.7
v -0.5 2.2 0.7
v 0.5 2.2 0.7
v 0.6 2.2 0.7
v -0.6 2.2 0.6
v -0.5 2.2 0.6
v -0.4 2.2 0.6
v -0.2 2.2 0.6
v -0.1 2.2 0.6
v 0.1 2.2 0.6
v 0.2 2.2 0.6
v 0.4 2.2 0.6
v 0.5 2.2 0.6
v 0.6 2.2 0.6
v -0.5 2.2 0.4
v 0.5 2.2 0.4
v -0.3 2.3 0.8
v -0.2 2.3 0.8
v -0.1 2.3 0.8
v 0.1 2.3 0.8
v 0.2 2.3 0.8
v 0.3 2.3 0.8
v -0.3 2.3 0.7
v -0.2 2.3 0.7
v -0.1 2.3 0.7
v 0.1 2.3 0.7
v 0.2 2.3 0.7
v 0.3 2.3 0.7
v -0.5 2.4 0.8
v -0.4 2.4 0.8
v 0.4 2.4 0.8
v 0.5 2.4 0.8
v -0.5 2.4 0.7
v -0.4 2.4 0.7
v -0.2 2.4 0.7
v -0.1 2.4 0.7
v 0.1 2.4 0.7
v 0.2 2.4 0.7
v 0.4 2.4 0.7
v 0.5 2.4 0.7
v -0.2 2.4 0.6
v -0.1 2.4 0.6
v 0.1 2.4 0.6
v 0.2 2.4 0.6
v -0.5 2.5 0.7
v -0.4 2.5 0.7
v -0.3 2.5 0.7
v -0.2 2.5 0.7
v 0.2 2.5 0.7
v 0.3 2.5 0.7
v 0.4 2.5 0.7
v 0.5 2.5 0.7
v -0.5 2.5 0.6
v -0.4 2.5 0.6
v -0.3 2.5 0.6
v -0.2 2.5 0.6
v 0.2 2.5 0.6
v 0.3 2.5 0.6
v 0.4 2.5 0.6
v 0.5 2.5 0.6
v -0.4 2.6 0.8
v -0.3 2.6 0.8
v 0.3 2.6 0.8
v 0.4 2.6 0.8
v -0.4 2.6 0.6
v -0.3 2.6 0.6
v 0.3 2.6 0.6
v 0.4 2.6 0.6

# faces
f 4/2/1 2/2/1 1/2/1
f 5/2/1 2/2/1 4/2/1
f 8/2/1 4/2/1 3/2/1
f 8/2/1 6/2/1 5/2/1
f 8/2/1 5/2/1 4/2/1
f 10/2/1 8/2/1 7/2/1
f 12/2/1 10/2/1 9/2/1
f 13/2/1 6/2/1 8/2/1
f 13/2/1 8/2/1 10/2/1
f 13/2/1 10/2/1 12/2/1
f 14/2/1 6/2/1 13/2/1
f 16/2/1 12/2/1 11/2/1
f 16/2/1 13/2/1 12/2/1
f 17/2/1 13/2/1 16/2/1
f 18/2/1 13/2/1 17/2/1
f 21/2/1 16/2/1 15/2/1
f 21/2/1 17/2/1 16/2/1
f 22/2/1 17/2/1 21/2/1
f 23/2/1 17/2/1 22/2/1
f 24/2/1 17/2/1 23/2/1
f 25/2/1 20/2/1 19/2/1
f 27/2/1 23/2/1 22/2/1
f 28/2/1 23/2/1 27/2/1
f 29/2/1 26/2/1 25/2/1
f 29/2/1 25/2/1 19/2/1
f 30/2/1 26/2/1 29/2/1
f 31/2/1 26/2/1 30/2/1
f 32/2/1 29/2/1 19/2/1
f 33/3/1 30/3/1 29/3/1
f 33/2/1 29/2/1 32/2/1
f 34/3/1 30/3/1 33/3/1
f 35/4/1 34/4/1 33/4/1
f 36/4/1 34/4/1 35/4/1
f 41/2/1 38/2/1 37/2/1
f 42/2/1 38/2/1 41/2/1
f 43/2/1 40/2/1 39/2/1
f 44/2/1 40/2/1 43/2/1
f 45/2/1 38/2/1 42/2/1
f 47/2/1 40/2/1 44/2/1
f 48/2/1 40/2/1 47/2/1
f 49/2/1 40/2/1 48/2/1
f 51/2/1 46/2/1 45/2/1
f 52/2/1 46/2/1 51/2/1
f 53/2/1 50/2/1 49/2/1
f 53/2/1 49/2/1 48/2/1
f 54/2/1 50/2/1 53/2/1
f 55/2/1 45/2/1 42/2/1
f 55/2/1 51/2/1 45/2/1
f 56/2/1 51/2/1 55/2/1
f 58/2/1 55/2/1 42/2/1
f 59/2/1 55/2/1 58/2/1
f 60/2/1 55/2/1 59/2/1
f 61/2/1 58/2/1 57/2/1
f 61/2/1 59/2/1 58/2/1
f 62/2/1 59/2/1 61/2/1
f 64/2/1 50/2/1 54/2/1
f 65/2/1 50/2/1 64/2/1
f 67/2/1 61/2/1 57/2/1
f 71/2/1 67/2/1 66/2/1
f 72/2/1 61/2/1 67/2/1
f 72/2/1 67/2/1 71/2/1
f 73/2/1 61/2/1 72/2/1
f 75/2/1 64/2/1 63/2/1
f 76/2/1 64/2/1 75/2/1
f 77/1/1 69/1/1 68/1/1
f 78/1/1 69/1/1 77/1/1
f 80/2/1 71/2/1 70/2/1
f 80/2/1 72/2/1 71/2/1
f 81/2/1 72/2/1 80/2/1
f 82/2/1 72/2/1 81/2/1
f 86/2/1 75/2/1 74/2/1
f 87/2/1 75/2/1 86/2/1
f 90/2/1 82/2/1 81/2/1
f 90/2/1 83/2/1 82/2/1
f 91/2/1 83/2/1 90/2/1
f 92/2/1 83/2/1 91/2/1
f 93/2/1 85/2/1 84/2/1
f 94/2/1 85/2/1 93/2/1
f 95/1/1 89/1/1 88/1/1
f 96/1/1 89/1/1 95/1/1
f 97/2/1 92/2/1 91/2/1
f 97/2/1 93/2/1 92/2/1
f 98/2/1 93/2/1 97/2/1
f 99/2/1 97/2/1 91/2/1
f 100/2/1 97/2/1 99/2/1
f 102/2/1 99/2/1 91/2/1
f 103/2/1 80/2/1 79/2/1
f 104/2/1 80/2/1 103/2/1
f 106/2/1 102/2/1 101/2/1
f 107/3/1 105/3/1 104/3/1
f 108/3/1 105/3/1 107/3/1
f 109/2/1 102/2/1 106/2/1
f 110/2/1 99/2/1 102/2/1
f 110/2/1 102/2/1 109/2/1
f 111/4/1 108/4/1 107/4/1
f 111/4/1 109/4/1 108/4/1
f 112/4/1 109/4/1 111/4/1
f 113/4/1 109/4/1 112/4/1
f 114/4/1 109/4/1 113/4/1
f 117/2/1 116/2/1 115/2/1
f 118/2/1 116/2/1 117/2/1
f 122/2/1 120/2/1 119/2/1
f 123/2/1 120/2/1 122/2/1
f 129/2/1 122/2/1 121/2/1
f 130/2/1 122/2/1 129/2/1
f 133/2/1 125/2/1 124/2/1
f 134/2/1 125/2/1 133/2/1
f 135/1/1 127/1/1 126/1/1
f 136/1/1 127/1/1 135/1/1
f 138/2/1 132/2/1 131/2/1
f 139/2/1 132/2/1 138/2/1
f 141/2/1 138/2/1 137/2/1
f 142/2/1 138/2/1 141/2/1
f 144/2/1 141/2/1 140/2/1
f 145/2/1 141/2/1 144/2/1
f 146/2/1 129/2/1 128/2/1
f 147/2/1 129/2/1 146/2/1
f 148/2/1 144/2/1 143/2/1
f 149/2/1 144/2/1 148/2/1
f 152/4/1 151/4/1 150/4/1
f 153/4/1 151/4/1 152/4/1
f 155/5/1 153/5/1 152/5/1
f 155/5/1 154/5/1 153/5/1
f 156/5/1 154/5/1 155/5/1
f 161/2/1 158/2/1 157/2/1
f 162/2/1 158/2/1 161/2/1
f 163/2/1 160/2/1 159/2/1
f 164/2/1 160/2/1 163/2/1
f 169/2/1 166/2/1 165/2/1
f 170/2/1 166/2/1 169/2/1
f 171/2/1 168/2/1 167/2/1
f 172/2/1 168/2/1 171/2/1
f 177/2/1 174/2/1 173/2/1
f 178/2/1 174/2/1 177/2/1
f 179/2/1 176/2/1 175/2/1
f 180/2/1 176/2/1 179/2/1
f 183/5/1 182/5/1 181/5/1
f 184/5/1 182/5/1 183/5/1
f 186/2/1 185/2/1 184/2/1
f 187/2/1 185/2/1 186/2/1
f 190/5/1 189/5/1 188/5/1
f 191/5/1 189/5/1 190/5/1
f 192/5/1 189/5/1 191/5/1
f 193/3/1 191/3/1 190/3/1
f 194/4/1 192/4/1 191/4/1
f 194/3/1 191/3/1 193/3/1
f 195/4/1 192/4/1 194/4/1
f 197/2/1 194/2/1 193/2/1
f 198/3/1 195/3/1 194/3/1
f 198/2/1 194/2/1 197/2/1
f 199/4/1 196/4/1 195/4/1
f 199/3/1 195/3/1 198/3/1
f 200/4/1 196/4/1 199/4/1
f 201/2/1 199/2/1 198/2/1
f 201/3/1 200/3/1 199/3/1
f 202/3/1 200/3/1 201/3/1
f 204/2/1 201/2/1 198/2/1
f 204/2/1 202/2/1 201/2/1
f 207/2/1 202/2/1 204/2/1
f 207/2/1 204/2/1 203/2/1
f 208/2/1 202/2/1 207/2/1
f 209/2/1 206/2/1 205/2/1
f 211/2/1 207/2/1 203/2/1
f 213/2/1 206/2/1 209/2/1
f 218/2/1 211/2/1 210/2/1
f 219/2/1 207/2/1 211/2/1
f 219/2/1 211/2/1 218/2/1
f 220/2/1 207/2/1 219/2/1
f 221/2/1 213/2/1 212/2/1
f 222/2/1 206/2/1 213/2/1
f 222/2/1 213/2/1 221/2/1
f 223/2/1 215/2/1 214/2/1
f 224/2/1 215/2/1 223/2/1
f 225/2/1 217/2/1 216/2/1
f 226/2/1 217/2/1 225/2/1
f 227/2/1 219/2/1 218/2/1
f 228/2/1 219/2/1 227/2/1
f 229/2/1 206/2/1 222/2/1
f 230/2/1 206/2/1 229/2/1
f 231/2/1 206/2/1 230/2/1
f 234/5/1 233/5/1 232/5/1
f 235/5/1 233/5/1 234/5/1
f 238/4/1 237/4/1 236/4/1
f 239/4/1 237/4/1 238/4/1
f 245/2/1 241/2/1 240/2/1
f 246/2/1 241/2/1 245/2/1
f 247/2/1 243/2/1 242/2/1
f 248/2/1 243/2/1 247/2/1
f 249/2/1 245/2/1 244/2/1
f 250/2/1 245/2/1 249/2/1
f 251/2/1 245/2/1 250/2/1
f 252/5/1 250/5/1 249/5/1
f 253/2/1 251/2/1 250/2/1
f 253/5/1 250/5/1 252/5/1
f 254/2/1 251/2/1 253/2/1
f 256/2/1 255/2/1 254/2/1
f 257/2/1 255/2/1 256/2/1
f 260/4/1 259/4/1 258/4/1
f 261/4/1 259/4/1 260/4/1
f 262/4/1 259/4/1 261/4/1
f 263/4/1 259/4/1 262/4/1
f 266/5/1 265/5/1 264/5/1
f 267/5/1 265/5/1 266/5/1
f 270/4/1 269/4/1 268/4/1
f 271/4/1 269/4/1 270/4/1
f 276/2/1 273/2/1 272/2/1
f 277/2/1 273/2/1 276/2/1
f 278/2/1 275/2/1 274/2/1
f 279/2/1 275/2/1 278/2/1
f 280/2/1 273/2/1 277/2/1
f 281/2/1 275/2/1 279/2/1
f 282/2/1 275/2/1 281/2/1
f 284/2/1 280/2/1 277/2/1
f 285/2/1 280/2/1 284/2/1
f 286/2/1 283/2/1 282/2/1
f 286/2/1 282/2/1 281/2/1
f 287/2/1 283/2/1 286/2/1
f 290/1/1 289/1/1 288/1/1
f 291/1/1 289/1/1 290/1/1
f 294/1/1 293/1/1 292/1/1
f 295/1/1 293/1/1 294/1/1
f 298/2/1 297/2/1 296/2/1
f 299/2/1 297/2/1 298/2/1
f 300/4/1 299/4/1 298/4/1
f 301/4/1 299/4/1 300/4/1
f 303/5/1 301/5/1 300/5/1
f 303/5/1 302/5/1 301/5/1
f 304/5/1 302/5/1 303/5/1
f 305/2/2 306/2/2 309/2/2
f 309/2/2 306/2/2 310/2/2
f 307/2/2 308/2/2 311/2/2
f 311/2/2 308/2/2 312/2/2
f 310/2/2 306/2/2 313/2/2
f 312/2/2 308/2/2 314/2/2
f 314/2/2 308/2/2 315/2/2
f 310/2/2 313/2/2 317/2/2
f 317/2/2 313/2/2 318/2/2
f 315/2/2 316/2/2 319/2/2
f 314/2/2 315/2/2 319/2/2
f 319/2/2 316/2/2 320/2/2
f 321/1/2 322/1/2 323/1/2
f 323/1/2 322/1/2 324/1/2
f 325/1/2 326/1/2 327/1/2
f 327/1/2 326/1/2 328/1/2
f 329/2/2 330/2/2 331/2/2
f 331/2/2 330/2/2 332/2/2
f 331/4/2 332/4/2 333/4/2
f 333/4/2 332/4/2 334/4/2
f 333/5/2 334/5/2 336/5/2
f 334/5/2 335/5/2 336/5/2
f 336/5/2 335/5/2 337/5/2
f 338/5/2 339/5/2 340/5/2
f 340/5/2 339/5/2 341/5/2
f 342/4/2 343/4/2 344/4/2
f 344/4/2 343/4/2 345/4/2
f 346/4/2 347/4/2 348/4/2
f 348/4/2 347/4/2 349/4/2
f 349/4/2 347/4/2 350/4/2
f 350/4/2 347/4/2 351/4/2
f 352/5/2 353/5/2 354/5/2
f 354/5/2 353/5/2 355/5/2
f 356/4/2 357/4/2 358/4/2
f 358/4/2 357/4/2 359/4/2
f 360/2/2 361/2/2 365/2/2
f 365/2/2 361/2/2 366/2/2
f 362/2/2 363/2/2 367/2/2
f 367/2/2 363/2/2 368/2/2
f 364/2/2 365/2/2 369/2/2
f 369/2/2 365/2/2 370/2/2
f 370/2/2 365/2/2 371/2/2
f 369/5/2 370/5/2 372/5/2
f 370/2/2 371/2/2 373/2/2
f 372/5/2 370/5/2 373/5/2
f 373/2/2 371/2/2 374/2/2
f 374/2/2 375/2/2 376/2/2
f 376/2/2 375/2/2 377/2/2
f 378/5/2 379/5/2 380/5/2
f 380/5/2 379/5/2 381/5/2
f 381/5/2 379/5/2 382/5/2
f 380/3/2 381/3/2 383/3/2
f 381/4/2 382/4/2 384/4/2
f 383/3/2 381/3/2 384/3/2
f 384/4/2 382/4/2 385/4/2
f 383/2/2 384/2/2 387/2/2
f 384/3/2 385/3/2 388/3/2
f 387/2/2 384/2/2 388/2/2
f 385/4/2 386/4/2 389/4/2
f 388/3/2 385/3/2 389/3/2
f 389/4/2 386/4/2 390/4/2
f 388/2/2 389/2/2 391/2/2
f 389/3/2 390/3/2 391/3/2
f 391/3/2 390/3/2 392/3/2
f 388/2/2 391/2/2 394/2/2
f 391/2/2 392/2/2 394/2/2
f 394/2/2 392/2/2 397/2/2
f 393/2/2 394/2/2 397/2/2
f 397/2/2 392/2/2 398/2/2
f 395/2/2 396/2/2 399/2/2
f 393/2/2 397/2/2 401/2/2
f 399/2/2 396/2/2 403/2/2
f 400/2/2 401/2/2 408/2/2
f 401/2/2 397/2/2 409/2/2
f 408/2/2 401/2/2 409/2/2
f 409/2/2 397/2/2 410/2/2
f 402/2/2 403/2/2 411/2/2
f 403/2/2 396/2/2 412/2/2
f 411/2/2 403/2/2 412/2/2
f 404/2/2 405/2/2 413/2/2
f 413/2/2 405/2/2 414/2/2
f 406/2/2 407/2/2 415/2/2
f 415/2/2 407/2/2 416/2/2
f 408/2/2 409/2/2 417/2/2
f 417/2/2 409/2/2 418/2/2
f 412/2/2 396/2/2 419/2/2
f 419/2/2 396/2/2 420/2/2
f 420/2/2 396/2/2 421/2/2
f 422/2/2 423/2/2 426/2/2
f 426/2/2 423/2/2 427/2/2
f 424/2/2 425/2/2 428/2/2
f 428/2/2 425/2/2 429/2/2
f 430/2/2 431/2/2 434/2/2
f 434/2/2 431/2/2 435/2/2
f 432/2/2 433/2/2 436/2/2
f 436/2/2 433/2/2 437/2/2
f 438/2/2 439/2/2 442/2/2
f 442/2/2 439/2/2 443/2/2
f 440/2/2 441/2/2 444/2/2
f 444/2/2 441/2/2 445/2/2
f 446/5/2 447/5/2 448/5/2
f 448/5/2 447/5/2 449/5/2
f 449/2/2 450/2/2 451/2/2
f 451/2/2 450/2/2 452/2/2
f 453/2/2 454/2/2 455/2/2
f 455/2/2 454/2/2 456/2/2
f 457/2/2 458/2/2 460/2/2
f 460/2/2 458/2/2 461/2/2
f 459/2/2 460/2/2 467/2/2
f 467/2/2 460/2/2 468/2/2
f 462/2/2 463/2/2 471/2/2
f 471/2/2 463/2/2 472/2/2
f 464/1/2 465/1/2 473/1/2
f 473/1/2 465/1/2 474/1/2
f 469/2/2 470/2/2 476/2/2
f 476/2/2 470/2/2 477/2/2
f 475/2/2 476/2/2 479/2/2
f 479/2/2 476/2/2 480/2/2
f 478/2/2 479/2/2 482/2/2
f 482/2/2 479/2/2 483/2/2
f 466/2/2 467/2/2 484/2/2
f 484/2/2 467/2/2 485/2/2
f 481/2/2 482/2/2 486/2/2
f 486/2/2 482/2/2 487/2/2
f 488/4/2 489/4/2 490/4/2
f 490/4/2 489/4/2 491/4/2
f 490/5/2 491/5/2 493/5/2
f 491/5/2 492/5/2 493/5/2
f 493/5/2 492/5/2 494/5/2
f 495/2/2 496/2/2 499/2/2
f 499/2/2 496/2/2 500/2/2
f 497/2/2 498/2/2 501/2/2
f 501/2/2 498/2/2 502/2/2
f 500/2/2 496/2/2 503/2/2
f 502/2/2 498/2/2 505/2/2
f 505/2/2 498/2/2 506/2/2
f 506/2/2 498/2/2 507/2/2
f 503/2/2 504/2/2 509/2/2
f 509/2/2 504/2/2 510/2/2
f 507/2/2 508/2/2 511/2/2
f 506/2/2 507/2/2 511/2/2
f 511/2/2 508/2/2 512/2/2
f 500/2/2 503/2/2 513/2/2
f 503/2/2 509/2/2 513/2/2
f 513/2/2 509/2/2 514/2/2
f 500/2/2 513/2/2 516/2/2
f 516/2/2 513/2/2 517/2/2
f 517/2/2 513/2/2 518/2/2
f 515/2/2 516/2/2 519/2/2
f 516/2/2 517/2/2 519/2/2
f 519/2/2 517/2/2 520/2/2
f 512/2/2 508/2/2 522/2/2
f 522/2/2 508/2/2 523/2/2
f 515/2/2 519/2/2 525/2/2
f 524/2/2 525/2/2 529/2/2
f 525/2/2 519/2/2 530/2/2
f 529/2/2 525/2/2 530/2/2
f 530/2/2 519/2/2 531/2/2
f 521/2/2 522/2/2 533/2/2
f 533/2/2 522/2/2 534/2/2
f 526/1/2 527/1/2 535/1/2
f 535/1/2 527/1/2 536/1/2
f 528/2/2 529/2/2 538/2/2
f 529/2/2 530/2/2 538/2/2
f 538/2/2 530/2/2 539/2/2
f 539/2/2 530/2/2 540/2/2
f 532/2/2 533/2/2 544/2/2
f 544/2/2 533/2/2 545/2/2
f 539/2/2 540/2/2 548/2/2
f 540/2/2 541/2/2 548/2/2
f 548/2/2 541/2/2 549/2/2
f 549/2/2 541/2/2 550/2/2
f 542/2/2 543/2/2 551/2/2
f 551/2/2 543/2/2 552/2/2
f 546/1/2 547/1/2 553/1/2
f 553/1/2 547/1/2 554/1/2
f 549/2/2 550/2/2 555/2/2
f 550/2/2 551/2/2 555/2/2
f 555/2/2 551/2/2 556/2/2
f 549/2/2 555/2/2 557/2/2
f 557/2/2 555/2/2 558/2/2
f 549/2/2 557/2/2 560/2/2
f 537/2/2 538/2/2 561/2/2
f 561/2/2 538/2/2 562/2/2
f 559/2/2 560/2/2 564/2/2
f 562/3/2 563/3/2 565/3/2
f 565/3/2 563/3/2 566/3/2
f 564/2/2 560/2/2 567/2/2
f 560/2/2 557/2/2 568/2/2
f 567/2/2 560/2/2 568/2/2
f 565/4/2 566/4/2 569/4/2
f 566/4/2 567/4/2 569/4/2
f 569/4/2 567/4/2 570/4/2
f 570/4/2 567/4/2 571/4/2
f 571/4/2 567/4/2 572/4/2
f 573/2/2 574/2/2 576/2/2
f 576/2/2 574/2/2 577/2/2
f 575/2/2 576/2/2 580/2/2
f 577/2/2 578/2/2 580/2/2
f 576/2/2 577/2/2 580/2/2
f 579/2/2 580/2/2 582/2/2
f 581/2/2 582/2/2 584/2/2
f 580/2/2 578/2/2 585/2/2
f 582/2/2 580/2/2 585/2/2
f 584/2/2 582/2/2 585/2/2
f 585/2/2 578/2/2 586/2/2
f 583/2/2 584/2/2 588/2/2
f 584/2/2 585/2/2 588/2/2
f 588/2/2 585/2/2 589/2/2
f 589/2/2 585/2/2 590/2/2
f 587/2/2 588/2/2 593/2/2
f 588/2/2 589/2/2 593/2/2
f 593/2/2 589/2/2 594/2/2
f 594/2/2 589/2/2 595/2/2
f 595/2/2 589/2/2 596/2/2
f 591/2/2 592/2/2 597/2/2
f 594/2/2 595/2/2 599/2/2
f 599/2/2 595/2/2 600/2/2
f 597/2/2 598/2/2 601/2/2
f 591/2/2 597/2/2 601/2/2
f 601/2/2 598/2/2 602/2/2
f 602/2/2 598/2/2 603/2/2
f 591/2/2 601/2/2 604/2/2
f 601/3/2 602/3/2 605/3/2
f 604/2/2 601/2/2 605/2/2
f 605/3/2 602/3/2 606/3/2
f 605/4/2 606/4/2 607/4/2
f 607/4/2 606/4/2 608/4/2
f 612/2/3 610/2/3 609/2/3
f 613/5/3 611/5/3 610/5/3
f 613/2/3 610/2/3 612/2/3
f 614/5/3 611/5/3 613/5/3
f 619/1/3 616/1/3 615/1/3
f 620/1/3 618/1/3 617/1/3
f 621/1/3 619/1/3 615/1/3
f 621/1/3 620/1/3 619/1/3
f 622/1/3 620/1/3 621/1/3
f 623/1/3 618/1/3 620/1/3
f 623/1/3 620/1/3 622/1/3
f 624/1/3 618/1/3 623/1/3
f 625/1/3 623/1/3 622/1/3
f 628/1/3 625/1/3 622/1/3
f 629/2/3 626/2/3 625/2/3
f 629/1/3 625/1/3 628/1/3
f 630/2/3 626/2/3 629/2/3
f 632/2/3 628/2/3 627/2/3
f 633/2/3 628/2/3 632/2/3
f 635/2/3 631/2/3 630/2/3
f 636/2/3 631/2/3 635/2/3
f 637/1/3 634/1/3 633/1/3
f 637/2/3 635/2/3 634/2/3
f 638/2/3 635/2/3 637/2/3
f 640/1/3 637/1/3 633/1/3
f 641/1/3 637/1/3 640/1/3
f 643/1/3 640/1/3 639/1/3
f 643/1/3 642/1/3 641/1/3
f 643/1/3 641/1/3 640/1/3
f 644/1/3 642/1/3 643/1/3
f 645/1/3 643/1/3 639/1/3
f 646/1/3 643/1/3 645/1/3
f 647/1/3 642/1/3 644/1/3
f 648/1/3 642/1/3 647/1/3
f 653/2/3 650/2/3 649/2/3
f 654/2/3 650/2/3 653/2/3
f 655/2/3 652/2/3 651/2/3
f 656/2/3 652/2/3 655/2/3
f 661/2/3 658/2/3 657/2/3
f 662/2/3 658/2/3 661/2/3
f 663/2/3 660/2/3 659/2/3
f 664/2/3 660/2/3 663/2/3
f 667/5/3 666/5/3 665/5/3
f 668/5/3 666/5/3 667/5/3
f 671/5/3 670/5/3 669/5/3
f 672/5/3 670/5/3 671/5/3
f 676/2/3 674/2/3 673/2/3
f 677/2/3 674/2/3 676/2/3
f 678/2/3 674/2/3 677/2/3
f 680/2/3 676/2/3 675/2/3
f 680/2/3 677/2/3 676/2/3
f 681/2/3 677/2/3 680/2/3
f 682/2/3 679/2/3 678/2/3
f 684/2/3 682/2/3 681/2/3
f 685/2/3 679/2/3 682/2/3
f 685/2/3 682/2/3 684/2/3
f 686/2/3 684/2/3 683/2/3
f 687/2/3 684/2/3 686/2/3
f 688/2/3 684/2/3 687/2/3
f 689/2/3 679/2/3 685/2/3
f 690/2/3 679/2/3 689/2/3
f 691/2/3 688/2/3 687/2/3
f 691/2/3 689/2/3 688/2/3
f 692/2/3 689/2/3 691/2/3
f 696/2/3 694/2/3 693/2/3
f 697/2/3 694/2/3 696/2/3
f 698/2/3 696/2/3 695/2/3
f 699/2/3 696/2/3 698/2/3
f 700/2/3 694/2/3 697/2/3
f 701/2/3 694/2/3 700/2/3
f 706/2/3 703/2/3 702/2/3
f 707/2/3 703/2/3 706/2/3
f 708/2/3 705/2/3 704/2/3
f 709/2/3 708/2/3 707/2/3
f 710/2/3 705/2/3 708/2/3
f 710/2/3 708/2/3 709/2/3
f 714/2/3 712/2/3 711/2/3
f 715/2/3 712/2/3 714/2/3
f 719/2/3 714/2/3 713/2/3
f 720/2/3 714/2/3 719/2/3
f 721/3/3 716/3/3 715/3/3
f 722/4/3 717/4/3 716/4/3
f 722/3/3 716/3/3 721/3/3
f 723/4/3 717/4/3 722/4/3
f 726/2/3 722/2/3 721/2/3
f 726/2/3 723/2/3 722/2/3
f 727/4/3 724/4/3 723/4/3
f 727/2/3 723/2/3 726/2/3
f 728/5/3 725/5/3 724/5/3
f 728/4/3 724/4/3 727/4/3
f 729/5/3 725/5/3 728/5/3
f 730/2/3 726/2/3 721/2/3
f 731/2/3 726/2/3 730/2/3
f 732/2/3 730/2/3 721/2/3
f 732/4/3 731/4/3 730/4/3
f 733/4/3 731/4/3 732/4/3
f 734/2/3 732/2/3 721/2/3
f 736/2/3 734/2/3 721/2/3
f 736/4/3 735/4/3 734/4/3
f 737/4/3 735/4/3 736/4/3
f 738/2/3 737/2/3 736/2/3
f 742/2/3 719/2/3 718/2/3
f 743/2/3 719/2/3 742/2/3
f 745/2/3 738/2/3 736/2/3
f 745/2/3 736/2/3 721/2/3
f 745/2/3 739/2/3 738/2/3
f 746/2/3 739/2/3 745/2/3
f 747/4/3 740/4/3 739/4/3
f 747/2/3 739/2/3 746/2/3
f 748/5/3 741/5/3 740/5/3
f 748/4/3 740/4/3 747/4/3
f 749/5/3 741/5/3 748/5/3
f 750/2/3 744/2/3 743/2/3
f 751/2/3 744/2/3 750/2/3
f 752/3/3 746/3/3 745/3/3
f 753/4/3 747/4/3 746/4/3
f 753/3/3 746/3/3 752/3/3
f 754/4/3 747/4/3 753/4/3
f 755/2/3 752/2/3 751/2/3
f 756/2/3 752/2/3 755/2/3
f 759/4/3 758/4/3 757/4/3
f 760/4/3 758/4/3 759/4/3
f 763/4/3 762/4/3 761/4/3
f 764/4/3 762/4/3 763/4/3
f 768/3/3 766/3/3 765/3/3
f 769/4/3 767/4/3 766/4/3
f 769/3/3 766/3/3 768/3/3
f 770/4/3 767/4/3 769/4/3
f 771/4/3 769/4/3 768/4/3
f 772/4/3 769/4/3 771/4/3
f 775/4/3 774/4/3 773/4/3
f 776/4/3 774/4/3 775/4/3
f 778/3/3 776/3/3 775/3/3
f 779/4/3 777/4/3 776/4/3
f 779/3/3 776/3/3 778/3/3
f 780/4/3 777/4/3 779/4/3
f 785/4/3 782/4/3 781/4/3
f 786/4/3 782/4/3 785/4/3
f 787/4/3 784/4/3 783/4/3
f 788/4/3 784/4/3 787/4/3
f 791/2/3 790/2/3 789/2/3
f 792/2/3 790/2/3 791/2/3
f 795/2/3 794/2/3 793/2/3
f 796/2/3 794/2/3 795/2/3
f 803/2/3 798/2/3 797/2/3
f 804/2/3 798/2/3 803/2/3
f 805/2/3 800/2/3 799/2/3
f 806/2/3 800/2/3 805/2/3
f 809/2/3 808/2/3 807/2/3
f 810/2/3 808/2/3 809/2/3
f 811/2/3 802/2/3 801/2/3
f 812/2/3 802/2/3 811/2/3
f 815/2/3 814/2/3 813/2/3
f 816/2/3 814/2/3 815/2/3
f 823/2/3 818/2/3 817/2/3
f 824/2/3 818/2/3 823/2/3
f 825/2/3 820/2/3 819/2/3
f 826/2/3 820/2/3 825/2/3
f 827/2/3 822/2/3 821/2/3
f 828/2/3 822/2/3 827/2/3
f 830/2/3 822/2/3 828/2/3
f 831/2/3 830/2/3 829/2/3
f 832/2/3 822/2/3 830/2/3
f 832/2/3 830/2/3 831/2/3
f 837/2/3 834/2/3 833/2/3
f 838/2/3 834/2/3 837/2/3
f 839/2/3 836/2/3 835/2/3
f 840/2/3 836/2/3 839/2/3
f 843/2/3 842/2/3 841/2/3
f 844/2/3 842/2/3 843/2/3
f 847/2/3 846/2/3 845/2/3
f 848/2/3 846/2/3 847/2/3
f 851/2/3 850/2/3 849/2/3
f 852/2/3 850/2/3 851/2/3
f 855/2/3 854/2/3 853/2/3
f 856/2/3 854/2/3 855/2/3
f 859/2/3 858/2/3 857/2/3
f 860/2/3 858/2/3 859/2/3
f 865/2/3 864/2/3 863/2/3
f 866/2/3 864/2/3 865/2/3
f 869/2/3 862/2/3 861/2/3
f 870/2/3 862/2/3 869/2/3
f 871/2/3 868/2/3 867/2/3
f 872/2/3 868/2/3 871/2/3
f 875/2/3 874/2/3 873/2/3
f 876/2/3 874/2/3 875/2/3
f 879/2/3 878/2/3 877/2/3
f 880/2/3 878/2/3 879/2/3
f 883/2/3 882/2/3 881/2/3
f 884/2/3 882/2/3 883/2/3
f 887/2/3 886/2/3 885/2/3
f 888/2/3 886/2/3 887/2/3
f 893/2/3 890/2/3 889/2/3
f 894/2/3 890/2/3 893/2/3
f 895/2/3 892/2/3 891/2/3
f 896/2/3 892/2/3 895/2/3
f 899/2/3 898/2/3 897/2/3
f 900/2/3 898/2/3 899/2/3
f 903/2/3 902/2/3 901/2/3
f 904/2/3 902/2/3 903/2/3
f 907/2/3 906/2/3 905/2/3
f 908/2/3 906/2/3 907/2/3
f 911/2/3 910/2/3 909/2/3
f 912/2/3 910/2/3 911/2/3
f 915/2/3 914/2/3 913/2/3
f 916/2/3 914/2/3 915/2/3
f 922/5/3 918/5/3 917/5/3
f 923/3/3 919/3/3 918/3/3
f 923/5/3 918/5/3 922/5/3
f 924/2/3 920/2/3 919/2/3
f 924/3/3 919/3/3 923/3/3
f 925/5/3 922/5/3 921/5/3
f 926/3/3 923/3/3 922/3/3
f 926/5/3 922/5/3 925/5/3
f 927/2/3 924/2/3 923/2/3
f 927/3/3 923/3/3 926/3/3
f 928/2/3 920/2/3 924/2/3
f 928/2/3 924/2/3 927/2/3
f 929/5/3 927/5/3 926/5/3
f 930/3/3 928/3/3 927/3/3
f 930/5/3 927/5/3 929/5/3
f 931/2/3 920/2/3 928/2/3
f 931/3/3 928/3/3 930/3/3
f 932/2/3 920/2/3 931/2/3
f 933/1/4 934/1/4 937/1/4
f 935/1/4 936/1/4 938/1/4
f 933/1/4 937/1/4 939/1/4
f 937/1/4 938/1/4 939/1/4
f 939/1/4 938/1/4 940/1/4
f 938/1/4 936/1/4 941/1/4
f 940/1/4 938/1/4 941/1/4
f 941/1/4 936/1/4 942/1/4
f 940/1/4 941/1/4 943/1/4
f 943/1/4 941/1/4 944/1/4
f 945/1/4 946/1/4 948/1/4
f 948/1/4 946/1/4 949/1/4
f 948/1/4 949/1/4 951/1/4
f 949/1/4 950/1/4 951/1/4
f 947/1/4 948/1/4 951/1/4
f 951/1/4 950/1/4 952/1/4
f 947/1/4 951/1/4 953/1/4
f 953/1/4 951/1/4 954/1/4
f 952/1/4 950/1/4 955/1/4
f 955/1/4 950/1/4 956/1/4
f 957/2/4 958/2/4 959/2/4
f 959/2/4 958/2/4 960/2/4
f 961/2/4 962/2/4 966/2/4
f 966/2/4 962/2/4 967/2/4
f 963/3/4 964/3/4 968/3/4
f 964/4/4 965/4/4 969/4/4
f 968/3/4 964/3/4 969/3/4
f 969/4/4 965/4/4 970/4/4
f 970/4/4 971/4/4 974/4/4
f 974/4/4 971/4/4 975/4/4
f 975/4/4 971/4/4 976/4/4
f 972/2/4 973/2/4 978/2/4
f 978/2/4 973/2/4 979/2/4
f 976/5/4 977/5/4 980/5/4
f 975/4/4 976/4/4 980/4/4
f 980/5/4 977/5/4 981/5/4
f 974/3/4 975/3/4 982/3/4
f 975/4/4 980/4/4 983/4/4
f 982/3/4 975/3/4 983/3/4
f 983/4/4 980/4/4 984/4/4
f 982/4/4 983/4/4 985/4/4
f 985/4/4 983/4/4 986/4/4
f 987/4/4 988/4/4 989/4/4
f 989/4/4 988/4/4 990/4/4
f 990/4/4 991/4/4 994/4/4
f 992/2/4 993/2/4 996/2/4
f 996/2/4 993/2/4 997/2/4
f 989/3/4 990/3/4 998/3/4
f 990/4/4 994/4/4 999/4/4
f 998/3/4 990/3/4 999/3/4
f 994/5/4 995/5/4 1000/5/4
f 999/4/4 994/4/4 1000/4/4
f 1000/5/4 995/5/4 1001/5/4
f 998/4/4 999/4/4 1004/4/4
f 999/4/4 1000/4/4 1004/4/4
f 1004/4/4 1000/4/4 1005/4/4
f 1002/3/4 1003/3/4 1006/3/4
f 1003/4/4 1004/4/4 1007/4/4
f 1006/3/4 1003/3/4 1007/3/4
f 1007/4/4 1004/4/4 1008/4/4
f 1009/2/4 1010/2/4 1011/2/4
f 1011/2/4 1010/2/4 1012/2/4
f 1013/2/4 1014/2/4 1015/2/4
f 1015/2/4 1014/2/4 1016/2/4
f 1017/2/4 1018/2/4 1019/2/4
f 1019/2/4 1018/2/4 1020/2/4
f 1020/2/4 1018/2/4 1022/2/4
f 1021/2/4 1022/2/4 1023/2/4
f 1022/2/4 1018/2/4 1024/2/4
f 1023/2/4 1022/2/4 1024/2/4
f 1025/2/4 1026/2/4 1027/2/4
f 1027/2/4 1026/2/4 1028/2/4
f 1028/2/4 1029/2/4 1031/2/4
f 1031/2/4 1029/2/4 1032/2/4
f 1030/2/4 1031/2/4 1033/2/4
f 1033/2/4 1031/2/4 1034/2/4
f 1035/2/4 1036/2/4 1037/2/4
f 1037/2/4 1036/2/4 1038/2/4
f 1038/2/4 1039/2/4 1040/2/4
f 1040/2/4 1039/2/4 1041/2/4
f 1041/2/4 1042/2/4 1044/2/4
f 1044/2/4 1042/2/4 1045/2/4
f 1043/2/4 1044/2/4 1047/2/4
f 1047/2/4 1044/2/4 1048/2/4
f 1046/2/4 1047/2/4 1049/2/4
f 1049/2/4 1047/2/4 1050/2/4
f 1053/2/4 1054/2/4 1055/2/4
f 1055/2/4 1054/2/4 1056/2/4
f 1051/2/4 1052/2/4 1058/2/4
f 1058/2/4 1052/2/4 1059/2/4
f 1056/2/4 1057/2/4 1060/2/4
f 1060/2/4 1057/2/4 1061/2/4
f 1062/2/4 1063/2/4 1067/2/4
f 1067/2/4 1063/2/4 1068/2/4
f 1064/2/4 1065/2/4 1069/2/4
f 1069/2/4 1065/2/4 1070/2/4
f 1066/2/4 1067/2/4 1071/2/4
f 1071/2/4 1067/2/4 1072/2/4
f 1073/2/4 1074/2/4 1075/2/4
f 1075/2/4 1074/2/4 1076/2/4
f 1077/2/4 1078/2/4 1079/2/4
f 1079/2/4 1078/2/4 1080/2/4
f 1083/2/4 1084/2/4 1085/2/4
f 1085/2/4 1084/2/4 1086/2/4
f 1081/2/4 1082/2/4 1089/2/4
f 1089/2/4 1082/2/4 1090/2/4
f 1087/2/4 1088/2/4 1091/2/4
f 1091/2/4 1088/2/4 1092/2/4
f 1093/2/4 1094/2/4 1095/2/4
f 1095/2/4 1094/2/4 1096/2/4
f 1097/2/4 1098/2/4 1101/2/4
f 1101/2/4 1098/2/4 1102/2/4
f 1103/2/4 1104/2/4 1105/2/4
f 1105/2/4 1104/2/4 1106/2/4
f 1099/2/4 1100/2/4 1107/2/4
f 1107/2/4 1100/2/4 1108/2/4
f 1109/2/4 1110/2/4 1111/2/4
f 1111/2/4 1110/2/4 1112/2/4
f 1113/2/4 1114/2/4 1115/2/4
f 1115/2/4 1114/2/4 1116/2/4
f 1117/2/4 1118/2/4 1121/2/4
f 1121/2/4 1118/2/4 1122/2/4
f 1119/2/4 1120/2/4 1123/2/4
f 1123/2/4 1120/2/4 1124/2/4
f 1124/2/4 1125/2/4 1126/2/4
f 1126/2/4 1125/2/4 1127/2/4
f 1128/2/4 1129/2/4 1130/2/4
f 1130/2/4 1129/2/4 1131/2/4
f 1132/2/4 1133/2/4 1134/2/4
f 1134/2/4 1133/2/4 1135/2/4
f 1136/2/4 1137/2/4 1141/2/4
f 1141/2/4 1137/2/4 1142/2/4
f 1138/2/4 1139/2/4 1143/2/4
f 1143/2/4 1139/2/4 1144/2/4
f 1140/2/4 1141/2/4 1145/2/4
f 1145/2/4 1141/2/4 1146/2/4
f 1147/2/4 1148/2/4 1151/2/4
f 1151/2/4 1148/2/4 1152/2/4
f 1152/2/4 1153/2/4 1154/2/4
f 1149/2/4 1150/2/4 1156/2/4
f 1156/2/4 1150/2/4 1157/2/4
f 1154/2/4 1155/2/4 1158/2/4
f 1152/2/4 1154/2/4 1158/2/4
f 1158/2/4 1155/2/4 1159/2/4
f 1160/2/4 1161/2/4 1164/2/4
f 1164/2/4 1161/2/4 1165/2/4
f 1162/2/4 1163/2/4 1166/2/4
f 1166/2/4 1163/2/4 1167/2/4
f 1160/2/4 1164/2/4 1169/2/4
f 1169/2/4 1164/2/4 1170/2/4
f 1168/2/4 1169/2/4 1171/2/4
f 1171/2/4 1169/2/4 1172/2/4
f 1173/2/4 1174/2/4 1175/2/4
f 1175/2/4 1174/2/4 1176/2/4
f 1176/2/4 1174/2/4 1177/2/4
f 1177/2/4 1174/2/4 1178/2/4
f 1179/2/4 1180/2/4 1183/2/4
f 1183/2/4 1180/2/4 1184/2/4
f 1181/2/4 1182/2/4 1186/2/4
f 1185/2/4 1186/2/4 1187/2/4
f 1186/2/4 1182/2/4 1188/2/4
f 1187/2/4 1186/2/4 1188/2/4
f 1189/5/4 1190/5/4 1195/5/4
f 1190/4/4 1191/4/4 1196/4/4
f 1195/5/4 1190/5/4 1196/5/4
f 1196/4/4 1191/4/4 1197/4/4
f 1192/2/4 1193/2/4 1198/2/4
f 1198/2/4 1193/2/4 1199/2/4
f 1194/5/4 1195/5/4 1200/5/4
f 1195/4/4 1196/4/4 1201/4/4
f 1200/5/4 1195/5/4 1201/5/4
f 1201/4/4 1196/4/4 1202/4/4
f 1199/2/4 1193/2/4 1205/2/4
f 1201/5/4 1202/5/4 1206/5/4
f 1202/4/4 1203/4/4 1207/4/4
f 1206/5/4 1202/5/4 1207/5/4
f 1207/4/4 1203/4/4 1208/4/4
f 1204/2/4 1205/2/4 1209/2/4
f 1205/2/4 1193/2/4 1210/2/4
f 1209/2/4 1205/2/4 1210/2/4
f 1211/4/4 1212/4/4 1216/4/4
f 1212/3/4 1213/3/4 1217/3/4
f 1216/4/4 1212/4/4 1217/4/4
f 1213/2/4 1214/2/4 1218/2/4
f 1217/3/4 1213/3/4 1218/3/4
f 1218/2/4 1214/2/4 1219/2/4
f 1215/4/4 1216/4/4 1221/4/4
f 1216/3/4 1217/3/4 1222/3/4
f 1221/4/4 1216/4/4 1222/4/4
f 1219/2/4 1220/2/4 1223/2/4
f 1222/3/4 1217/3/4 1223/3/4
f 1217/2/4 1218/2/4 1223/2/4
f 1218/2/4 1219/2/4 1223/2/4
f 1223/2/4 1220/2/4 1224/2/4
f 1224/2/4 1220/2/4 1225/2/4
f 1225/2/4 1220/2/4 1226/2/4
f 1222/4/4 1223/4/4 1227/4/4
f 1223/3/4 1224/3/4 1228/3/4
f 1227/4/4 1223/4/4 1228/4/4
f 1224/2/4 1225/2/4 1229/2/4
f 1228/3/4 1224/3/4 1229/3/4
f 1229/2/4 1225/2/4 1230/2/4
f 1235/2/5 1232/2/5 1231/2/5
f 1236/2/5 1232/2/5 1235/2/5
f 1237/2/5 1234/2/5 1233/2/5
f 1238/2/5 1234/2/5 1237/2/5
f 1243/2/5 1240/2/5 1239/2/5
f 1244/2/5 1240/2/5 1243/2/5
f 1245/2/5 1242/2/5 1241/2/5
f 1246/2/5 1242/2/5 1245/2/5
f 1249/5/5 1248/5/5 1247/5/5
f 1250/5/5 1248/5/5 1249/5/5
f 1255/5/5 1252/5/5 1251/5/5
f 1256/5/5 1252/5/5 1255/5/5
f 1257/5/5 1254/5/5 1253/5/5
f 1258/5/5 1254/5/5 1257/5/5
f 1262/2/5 1260/2/5 1259/2/5
f 1263/2/5 1260/2/5 1262/2/5
f 1265/2/5 1262/2/5 1261/2/5
f 1265/2/5 1264/2/5 1263/2/5
f 1265/2/5 1263/2/5 1262/2/5
f 1266/2/5 1264/2/5 1265/2/5
f 1267/2/5 1264/2/5 1266/2/5
f 1268/2/5 1264/2/5 1267/2/5
f 1269/2/5 1267/2/5 1266/2/5
f 1270/2/5 1267/2/5 1269/2/5
f 1273/4/5 1272/4/5 1271/4/5
f 1274/4/5 1272/4/5 1273/4/5
f 1279/2/5 1276/2/5 1275/2/5
f 1279/2/5 1278/2/5 1277/2/5
f 1279/2/5 1277/2/5 1276/2/5
f 1280/2/5 1278/2/5 1279/2/5
f 1281/2/5 1279/2/5 1275/2/5
f 1282/2/5 1279/2/5 1281/2/5
f 1283/2/5 1278/2/5 1280/2/5
f 1284/2/5 1278/2/5 1283/2/5
f 1285/2/5 1281/2/5 1275/2/5
f 1288/2/5 1278/2/5 1284/2/5
f 1290/2/5 1286/2/5 1285/2/5
f 1290/2/5 1285/2/5 1275/2/5
f 1291/2/5 1286/2/5 1290/2/5
f 1292/2/5 1288/2/5 1287/2/5
f 1293/2/5 1278/2/5 1288/2/5
f 1293/2/5 1288/2/5 1292/2/5
f 1295/2/5 1291/2/5 1290/2/5
f 1295/2/5 1294/2/5 1293/2/5
f 1295/2/5 1293/2/5 1292/2/5
f 1295/2/5 1292/2/5 1291/2/5
f 1295/2/5 1290/2/5 1289/2/5
f 1296/2/5 1294/2/5 1295/2/5
f 1297/2/5 1294/2/5 1296/2/5
f 1298/2/5 1294/2/5 1297/2/5
f 1299/2/5 1295/2/5 1289/2/5
f 1300/2/5 1295/2/5 1299/2/5
f 1301/2/5 1294/2/5 1298/2/5
f 1302/2/5 1294/2/5 1301/2/5
f 1307/2/5 1304/2/5 1303/2/5
f 1308/2/5 1304/2/5 1307/2/5
f 1309/2/5 1306/2/5 1305/2/5
f 1310/2/5 1306/2/5 1309/2/5
f 1315/4/5 1312/4/5 1311/4/5
f 1316/4/5 1312/4/5 1315/4/5
f 1317/4/5 1314/4/5 1313/4/5
f 1318/4/5 1314/4/5 1317/4/5
f 1321/2/5 1320/2/5 1319/2/5
f 1322/2/5 1320/2/5 1321/2/5
f 1327/2/5 1324/2/5 1323/2/5
f 1328/2/5 1324/2/5 1327/2/5
f 1329/2/5 1326/2/5 1325/2/5
f 1330/2/5 1326/2/5 1329/2/5
f 1337/2/5 1334/2/5 1333/2/5
f 1338/2/5 1334/2/5 1337/2/5
f 1339/2/5 1332/2/5 1331/2/5
f 1340/2/5 1332/2/5 1339/2/5
f 1341/2/5 1336/2/5 1335/2/5
f 1342/2/5 1336/2/5 1341/2/5
f 1343/2/5 1339/2/5 1331/2/5
f 1344/2/5 1339/2/5 1343/2/5
f 1345/2/5 1332/2/5 1340/2/5
f 1346/2/5 1332/2/5 1345/2/5
f 1351/2/5 1348/2/5 1347/2/5
f 1352/2/5 1348/2/5 1351/2/5
f 1353/2/5 1350/2/5 1349/2/5
f 1354/2/5 1350/2/5 1353/2/5
f 1357/2/5 1356/2/5 1355/2/5
f 1358/2/5 1356/2/5 1357/2/5
f 1363/2/5 1360/2/5 1359/2/5
f 1364/2/5 1360/2/5 1363/2/5
f 1365/2/5 1362/2/5 1361/2/5
f 1366/2/5 1362/2/5 1365/2/5
f 1371/2/5 1368/2/5 1367/2/5
f 1372/2/5 1368/2/5 1371/2/5
f 1373/2/5 1370/2/5 1369/2/5
f 1374/2/5 1370/2/5 1373/2/5
f 1377/2/5 1376/2/5 1375/2/5
f 1378/2/5 1376/2/5 1377/2/5
f 1379/2/5 1376/2/5 1378/2/5
f 1380/2/5 1376/2/5 1379/2/5
f 1382/2/5 1379/2/5 1378/2/5
f 1383/2/5 1379/2/5 1382/2/5
f 1385/2/5 1383/2/5 1382/2/5
f 1385/2/5 1384/2/5 1383/2/5
f 1385/2/5 1382/2/5 1381/2/5
f 1386/2/5 1384/2/5 1385/2/5
f 1393/1/5 1388/1/5 1387/1/5
f 1394/1/5 1388/1/5 1393/1/5
f 1396/2/5 1390/2/5 1389/2/5
f 1397/2/5 1390/2/5 1396/2/5
f 1399/1/5 1392/1/5 1391/1/5
f 1400/1/5 1392/1/5 1399/1/5
f 1402/2/5 1398/2/5 1397/2/5
f 1402/2/5 1396/2/5 1395/2/5
f 1402/2/5 1397/2/5 1396/2/5
f 1403/2/5 1398/2/5 1402/2/5
f 1406/2/5 1402/2/5 1401/2/5
f 1406/2/5 1404/2/5 1403/2/5
f 1406/2/5 1403/2/5 1402/2/5
f 1407/2/5 1404/2/5 1406/2/5
f 1410/2/5 1406/2/5 1405/2/5
f 1410/2/5 1408/2/5 1407/2/5
f 1410/2/5 1407/2/5 1406/2/5
f 1411/2/5 1408/2/5 1410/2/5
f 1413/2/5 1410/2/5 1409/2/5
f 1416/2/5 1412/2/5 1411/2/5
f 1417/2/5 1414/2/5 1413/2/5
f 1417/2/5 1413/2/5 1409/2/5
f 1418/2/5 1414/2/5 1417/2/5
f 1419/2/5 1416/2/5 1415/2/5
f 1420/2/5 1412/2/5 1416/2/5
f 1420/2/5 1416/2/5 1419/2/5
f 1425/2/5 1422/2/5 1421/2/5
f 1426/2/5 1422/2/5 1425/2/5
f 1427/2/5 1424/2/5 1423/2/5
f 1428/2/5 1424/2/5 1427/2/5
f 1432/2/5 1430/2/5 1429/2/5
f 1433/2/5 1430/2/5 1432/2/5
f 1435/1/5 1432/1/5 1431/1/5
f 1436/1/5 1432/1/5 1435/1/5
f 1437/1/5 1432/1/5 1436/1/5
f 1438/1/5 1434/1/5 1433/1/5
f 1439/1/5 1434/1/5 1438/1/5
f 1440/1/5 1434/1/5 1439/1/5
f 1446/2/5 1442/2/5 1441/2/5
f 1447/2/5 1442/2/5 1446/2/5
f 1448/2/5 1444/2/5 1443/2/5
f 1449/2/5 1444/2/5 1448/2/5
f 1452/2/5 1446/2/5 1445/2/5
f 1453/2/5 1446/2/5 1452/2/5
f 1454/2/5 1450/2/5 1449/2/5
f 1455/2/5 1450/2/5 1454/2/5
f 1457/2/5 1456/2/5 1455/2/5
f 1458/2/5 1456/2/5 1457/2/5
f 1459/2/5 1452/2/5 1451/2/5
f 1460/2/5 1452/2/5 1459/2/5
f 1465/1/5 1462/1/5 1461/1/5
f 1466/1/5 1462/1/5 1465/1/5
f 1467/1/5 1464/1/5 1463/1/5
f 1468/1/5 1464/1/5 1467/1/5
f 1473/2/5 1472/2/5 1471/2/5
f 1474/2/5 1472/2/5 1473/2/5
f 1475/2/5 1470/2/5 1469/2/5
f 1476/2/5 1470/2/5 1475/2/5
f 1481/5/5 1478/5/5 1477/5/5
f 1482/5/5 1478/5/5 1481/5/5
f 1483/5/5 1480/5/5 1479/5/5
f 1484/5/5 1480/5/5 1483/5/5
f 1485/2/6 1486/2/6 1489/2/6
f 1489/2/6 1486/2/6 1490/2/6
f 1487/2/6 1488/2/6 1491/2/6
f 1491/2/6 1488/2/6 1492/2/6
f 1493/2/6 1494/2/6 1497/2/6
f 1497/2/6 1494/2/6 1498/2/6
f 1495/2/6 1496/2/6 1499/2/6
f 1499/2/6 1496/2/6 1500/2/6
f 1501/2/6 1502/2/6 1505/2/6
f 1505/2/6 1502/2/6 1506/2/6
f 1503/2/6 1504/2/6 1509/2/6
f 1509/2/6 1504/2/6 1510/2/6
f 1506/2/6 1507/2/6 1511/2/6
f 1511/2/6 1507/2/6 1512/2/6
f 1508/2/6 1509/2/6 1513/2/6
f 1513/2/6 1509/2/6 1514/2/6
f 1515/2/6 1516/2/6 1519/2/6
f 1519/2/6 1516/2/6 1520/2/6
f 1517/2/6 1518/2/6 1523/2/6
f 1523/2/6 1518/2/6 1524/2/6
f 1520/2/6 1521/2/6 1525/2/6
f 1525/2/6 1521/2/6 1526/2/6
f 1522/2/6 1523/2/6 1527/2/6
f 1527/2/6 1523/2/6 1528/2/6
f 1529/2/6 1530/2/6 1533/2/6
f 1533/2/6 1530/2/6 1534/2/6
f 1531/2/6 1532/2/6 1535/2/6
f 1535/2/6 1532/2/6 1536/2/6
f 1537/1/6 1538/1/6 1541/1/6
f 1541/1/6 1538/1/6 1542/1/6
f 1539/1/6 1540/1/6 1543/1/6
f 1543/1/6 1540/1/6 1544/1/6
f 1545/2/6 1546/2/6 1549/2/6
f 1549/2/6 1546/2/6 1550/2/6
f 1547/2/6 1548/2/6 1551/2/6
f 1551/2/6 1548/2/6 1552/2/6
f 1553/2/6 1554/2/6 1557/2/6
f 1555/2/6 1556/2/6 1560/2/6
f 1557/2/6 1558/2/6 1561/2/6
f 1553/2/6 1557/2/6 1561/2/6
f 1561/2/6 1558/2/6 1562/2/6
f 1562/2/6 1558/2/6 1563/2/6
f 1559/2/6 1560/2/6 1566/2/6
f 1560/2/6 1556/2/6 1567/2/6
f 1566/2/6 1560/2/6 1567/2/6
f 1567/2/6 1556/2/6 1568/2/6
f 1563/2/6 1564/2/6 1569/2/6
f 1562/2/6 1563/2/6 1569/2/6
f 1569/2/6 1564/2/6 1570/2/6
f 1570/2/6 1564/2/6 1571/2/6
f 1565/2/6 1566/2/6 1574/2/6
f 1566/2/6 1567/2/6 1574/2/6
f 1574/2/6 1567/2/6 1575/2/6
f 1575/2/6 1567/2/6 1576/2/6
f 1571/2/6 1572/2/6 1577/2/6
f 1570/2/6 1571/2/6 1577/2/6
f 1577/2/6 1572/2/6 1578/2/6
f 1574/2/6 1575/2/6 1579/2/6
f 1573/2/6 1574/2/6 1579/2/6
f 1579/2/6 1575/2/6 1580/2/6
f 1581/2/6 1582/2/6 1583/2/6
f 1583/2/6 1582/2/6 1584/2/6
f 1585/1/6 1586/1/6 1589/1/6
f 1589/1/6 1586/1/6 1590/1/6
f 1587/1/6 1588/1/6 1591/1/6
f 1591/1/6 1588/1/6 1592/1/6
f 1593/2/6 1594/2/6 1597/2/6
f 1597/2/6 1594/2/6 1598/2/6
f 1595/2/6 1596/2/6 1601/2/6
f 1601/2/6 1596/2/6 1602/2/6
f 1598/2/6 1599/2/6 1603/2/6
f 1603/2/6 1599/2/6 1604/2/6
f 1600/2/6 1601/2/6 1607/2/6
f 1607/2/6 1601/2/6 1608/2/6
f 1604/2/6 1605/2/6 1609/2/6
f 1609/2/6 1605/2/6 1610/2/6
f 1606/2/6 1607/2/6 1611/2/6
f 1611/2/6 1607/2/6 1612/2/6
f 1604/2/6 1609/2/6 1613/2/6
f 1612/2/6 1607/2/6 1616/2/6
f 1613/2/6 1614/2/6 1617/2/6
f 1604/2/6 1613/2/6 1617/2/6
f 1617/2/6 1614/2/6 1618/2/6
f 1618/2/6 1614/2/6 1619/2/6
f 1615/2/6 1616/2/6 1620/2/6
f 1616/2/6 1607/2/6 1621/2/6
f 1620/2/6 1616/2/6 1621/2/6
f 1621/2/6 1607/2/6 1622/2/6
f 1618/2/6 1619/2/6 1623/2/6
f 1619/2/6 1620/2/6 1623/2/6
f 1620/2/6 1621/2/6 1623/2/6
f 1623/2/6 1621/2/6 1624/2/6
f 1624/2/6 1621/2/6 1625/2/6
f 1625/2/6 1621/2/6 1626/2/6
f 1627/2/6 1628/2/6 1629/2/6
f 1629/2/6 1628/2/6 1630/2/6
f 1631/5/6 1632/5/6 1633/5/6
f 1633/5/6 1632/5/6 1634/5/6
f 1633/2/6 1634/2/6 1638/2/6
f 1638/2/6 1634/2/6 1639/2/6
f 1635/1/6 1636/1/6 1643/1/6
f 1643/1/6 1636/1/6 1644/1/6
f 1637/2/6 1638/2/6 1645/2/6
f 1645/2/6 1638/2/6 1646/2/6
f 1639/2/6 1640/2/6 1647/2/6
f 1647/2/6 1640/2/6 1648/2/6
f 1641/1/6 1642/1/6 1649/1/6
f 1649/1/6 1642/1/6 1650/1/6
f 1651/2/6 1652/2/6 1655/2/6
f 1655/2/6 1652/2/6 1656/2/6
f 1653/2/6 1654/2/6 1657/2/6
f 1657/2/6 1654/2/6 1658/2/6
f 1656/2/6 1657/2/6 1659/2/6
f 1659/2/6 1657/2/6 1660/2/6
f 1660/2/6 1657/2/6 1661/2/6
f 1661/2/6 1657/2/6 1662/2/6
f 1660/2/6 1661/2/6 1664/2/6
f 1664/2/6 1661/2/6 1665/2/6
f 1663/2/6 1664/2/6 1667/2/6
f 1665/2/6 1666/2/6 1667/2/6
f 1664/2/6 1665/2/6 1667/2/6
f 1667/2/6 1666/2/6 1668/2/6
f 1668/2/6 1666/2/6 1669/2/6
f 1669/2/6 1666/2/6 1670/2/6
f 1668/2/6 1669/2/6 1671/2/6
f 1671/2/6 1669/2/6 1672/2/6
f 1673/2/6 1674/2/6 1675/2/6
f 1675/2/6 1674/2/6 1676/2/6
f 1677/2/6 1678/2/6 1680/2/6
f 1680/2/6 1678/2/6 1681/2/6
f 1679/2/6 1680/2/6 1683/2/6
f 1681/2/6 1682/2/6 1683/2/6
f 1680/2/6 1681/2/6 1683/2/6
f 1683/2/6 1682/2/6 1684/2/6
f 1683/2/6 1684/2/6 1685/2/6
f 1685/2/6 1684/2/6 1686/2/6
f 1687/2/6 1688/2/6 1691/2/6
f 1691/2/6 1688/2/6 1692/2/6
f 1689/2/6 1690/2/6 1693/2/6
f 1693/2/6 1690/2/6 1694/2/6
f 1692/2/6 1693/2/6 1695/2/6
f 1695/2/6 1693/2/6 1696/2/6
f 1697/5/6 1698/5/6 1702/5/6
f 1702/5/6 1698/5/6 1703/5/6
f 1699/5/6 1700/5/6 1704/5/6
f 1704/5/6 1700/5/6 1705/5/6
f 1701/2/6 1702/2/6 1707/2/6
f 1707/2/6 1702/2/6 1708/2/6
f 1705/2/6 1706/2/6 1709/2/6
f 1709/2/6 1706/2/6 1710/2/6
f 1711/2/6 1712/2/6 1715/2/6
f 1715/2/6 1712/2/6 1716/2/6
f 1713/2/6 1714/2/6 1717/2/6
f 1717/2/6 1714/2/6 1718/2/6
f 1719/2/6 1720/2/6 1721/2/6
f 1721/2/6 1720/2/6 1722/2/6
f 1723/2/6 1724/2/6 1726/2/6
f 1726/2/6 1724/2/6 1727/2/6
f 1725/2/6 1726/2/6 1730/2/6
f 1727/2/6 1728/2/6 1730/2/6
f 1726/2/6 1727/2/6 1730/2/6
f 1730/2/6 1728/2/6 1731/2/6
f 1731/2/6 1728/2/6 1732/2/6
f 1732/2/6 1728/2/6 1733/2/6
f 1729/2/6 1730/2/6 1735/2/6
f 1735/2/6 1730/2/6 1736/2/6
f 1733/2/6 1734/2/6 1737/2/6
f 1737/2/6 1734/2/6 1738/2/6
f 1741/4/6 1742/4/6 1745/4/6
f 1745/4/6 1742/4/6 1746/4/6
f 1739/2/6 1740/2/6 1749/2/6
f 1749/2/6 1740/2/6 1750/2/6
f 1743/4/6 1744/4/6 1753/4/6
f 1753/4/6 1744/4/6 1754/4/6
f 1747/2/6 1748/2/6 1755/2/6
f 1751/2/6 1752/2/6 1755/2/6
f 1752/2/6 1753/2/6 1755/2/6
f 1750/2/6 1751/2/6 1755/2/6
f 1749/2/6 1750/2/6 1755/2/6
f 1748/2/6 1749/2/6 1755/2/6
f 1746/2/6 1747/2/6 1755/2/6
f 1755/2/6 1753/2/6 1756/2/6
f 1757/2/6 1758/2/6 1763/2/6
f 1758/4/6 1759/4/6 1764/4/6
f 1763/2/6 1758/2/6 1764/2/6
f 1764/4/6 1759/4/6 1765/4/6
f 1760/4/6 1761/4/6 1766/4/6
f 1761/2/6 1762/2/6 1767/2/6
f 1766/4/6 1761/4/6 1767/4/6
f 1767/2/6 1762/2/6 1768/2/6
f 1769/4/6 1770/4/6 1773/4/6
f 1773/4/6 1770/4/6 1774/4/6
f 1771/4/6 1772/4/6 1779/4/6
f 1779/4/6 1772/4/6 1780/4/6
f 1775/4/6 1776/4/6 1781/4/6
f 1781/4/6 1776/4/6 1782/4/6
f 1777/4/6 1778/4/6 1783/4/6
f 1783/4/6 1778/4/6 1784/4/6
f 1785/4/6 1786/4/6 1793/4/6
f 1793/4/6 1786/4/6 1794/4/6
f 1787/4/6 1788/4/6 1795/4/6
f 1795/4/6 1788/4/6 1796/4/6
f 1789/4/6 1790/4/6 1797/4/6
f 1797/4/6 1790/4/6 1798/4/6
f 1791/4/6 1792/4/6 1799/4/6
f 1799/4/6 1792/4/6 1800/4/6
f 1801/5/6 1802/5/6 1805/5/6
f 1805/5/6 1802/5/6 1806/5/6
f 1803/5/6 1804/5/6 1807/5/6
f 1807/5/6 1804/5/6 1808/5/6
